<?xml version="1.0" encoding="utf-8"?><svg xmlns="http://www.w3.org/2000/svg" xmlns:xlink="http://www.w3.org/1999/xlink"><symbol viewBox="0 0 160 160" id="autocom_logo" xmlns="http://www.w3.org/2000/svg"><path d="M80 160c44.183 0 80-35.817 80-80S124.183 0 80 0 0 35.817 0 80s35.817 80 80 80z"/><path d="M95.79 28.421l17.894 5.263 22.105 22.105-8.421 8.421-9.473-9.473-3.684 3.613 8.947 10.071-5.263 5.263-9.474-9.474-6.316 6.316v6.316l-10 10 20.527 20.526H120l5.263 5.264V120l-7.368 7.368h-7.369l-5.263-5.263v-7.368L84.737 94.211l-34.21 34.21h-7.37l-6.315-6.316v-7.368l34.21-34.21L60 69.473l-18.947 2.105-14.737-13.684v-8.421h7.368l8.421 8.42 12.632-2.105 1.052-11.578-8.42-7.369V28.42h8.42l13.685 14.737-2.106 18.947 11.053 11.053 10-10h6.316l6.316-6.316L88.421 44.21l-1.053-7.369 2.106-2.105 16.842 16.842 4.21-4.21-16.842-16.843 2.106-2.105z"/><path fill-rule="evenodd" clip-rule="evenodd" d="M80 153.684a73.68 73.68 0 0 1-68.075-45.486A73.685 73.685 0 1 1 80 153.684zm0-141.052a67.369 67.369 0 1 0 0 134.737 67.369 67.369 0 0 0 0-134.737z"/></symbol><symbol viewBox="0 0 120 120" id="logo-ataman" xmlns="http://www.w3.org/2000/svg"><path d="M38.309 12.193c-1.163 1.079-2.012 2.473-2.549 4.092-.492 1.663-.76 3.552-.76 5.71V54.46c0 .315.268.54.536.54h10.15c1.476 0 2.951-.315 4.337-.854l23.25-8.23c.313-.134.671.136.671.495v8.094c0 .315.268.54.537.54h11.983c.312 0 .536-.27.536-.54V30.09c0-.36-.358-.63-.715-.495L48.637 43.58a.527.527 0 0 1-.715-.495V26.627c0-1.125.09-2.114.357-2.968a4.958 4.958 0 0 1 1.297-2.248c.626-.63 1.43-1.125 2.46-1.44 1.028-.314 2.324-.494 3.89-.494h10.06c1.564 0 2.86.18 3.89.495 1.028.314 1.832.809 2.459 1.439.625.63 1.028 1.393 1.296 2.248.224.854.358 1.843.358 2.968v2.608c0 .36.358.63.715.494l11.894-4.721a.553.553 0 0 0 .313-.495V22.31c0-2.248-.224-4.182-.76-5.846-.492-1.663-1.342-3.057-2.55-4.136-1.162-1.08-2.727-1.934-4.694-2.474C76.94 9.27 74.525 9 71.664 9H50.202c-2.861 0-5.231.27-7.199.764-1.967.54-3.487 1.35-4.694 2.429zm81.655 56.984c0-.733-.163-1.06-.896-1.14-.593-.067-3.101-.026-4.214-.008h-.002l-.511.007c-.815.082-.979.326-.979 1.06 0 .573 0 9.943-.08 11.654-.082 2.445-.897 2.77-2.037 3.097-1.142.326-4.972.244-5.462.163-1.466-.163-2.445-.815-2.445-3.179V69.177c0-.733-.326-.978-.977-1.06-.133 0-.425-.004-.804-.01-1.252-.018-3.46-.052-4.086.01-.935.079-.976.455-1.05 1.129l-.01.094-.005 1.37c-.015 3.242-.049 10.568.087 11.996.326 3.993 2.283 5.704 5.786 5.949 3.178.244 10.757.326 13.04-.245 3.667-.896 4.482-3.748 4.645-7.416.065-1.567.026-7.63.007-10.442l-.007-1.375zm-62.51-1.059c.407-.082 4.32-.082 4.971 0 .734.081.896.407.896 1.14.082 2.038 0 10.514-.08 12.877-.082 3.504-1.467 6.112-6.357 6.438-2.69.245-8.72.163-10.106.082-.134-.01-.278-.019-.43-.028-2.339-.142-6.584-.4-6.66-6.98-.068-4.497-.023-9.79-.006-11.74v-.001l.006-.729c0-.896.489-1.06.978-1.06h4.727c.896.082.978.49.978 1.223v10.513c0 3.097.489 3.912 3.015 4.157a35.58 35.58 0 0 0 4.157 0c2.689-.163 3.015-1.63 3.015-3.83V69.176c0-.896.407-.978.896-1.06zm34.311 2.689c-.815-1.874-2.364-2.608-5.705-2.69-2.238-.071-13.803-.016-16.65-.002l-.627.003c-.978 0-1.06.407-1.06 1.304v2.608c.082.733.57.815 1.06.815l4.525-.025h.033c4.264-.024 10.063-.057 10.681-.057.489 0 .652.163.652.407 0 .245-.082.408-.49.571-1.64.743-3.692 1.65-5.723 2.549h-.002c-3.314 1.466-6.57 2.906-7.883 3.563-3.097 1.549-3.83 3.26-3.668 5.053.163 1.956 1.385 3.749 5.787 3.83 3.83.163 14.914 0 17.685-.081.978 0 1.058-.408 1.14-1.06v-2.037c0-1.223-.162-1.548-1.222-1.548-.203 0-1.027.015-2.2.036-3.55.065-10.284.188-12.552.127-.488 0-.652-.245-.488-.571.082-.163.407-.326 1.058-.651h.002c.275-.121.601-.263.968-.422 3.1-1.347 9.109-3.96 12.315-5.854 2.2-1.222 3.422-3.423 2.364-5.868zM6.03 68.2c-.407-.082-4.482-.082-5.134 0-.652 0-.896.325-.896.977v18.826c0 .754.488.81 1.077.879l.145.017H5.95c.897-.081.978-.57.978-1.303V69.177c-.081-.652-.244-.978-.896-.978zm32.147 31.015c.041-.04.102-.061.163-.082a.411.411 0 0 0 .164-.081 1.51 1.51 0 0 0 .57-.653l.082-.163c.163-.408.327-.897.49-1.468l.326-.816h-.082v-.081l-13.623.081H24.88l-1.06 3.263h5.22l-3.67 10.687-.245.652h4.079l3.344-9.544.653-1.795h4.976z"/><path fill-rule="evenodd" clip-rule="evenodd" d="M47.395 95.952h7.588c2.854.082 3.181 1.795 2.61 3.67l-3.835 11.014H49.68l1.958-5.71h-6.934l-1.958 5.71h-4.08l3.917-11.176c.57-1.713 2.447-3.508 4.813-3.508zm5.711 4.731c.244-.815-.327-1.468-1.224-1.55h-3.508c-.979 0-1.876.735-2.202 1.55l-.326.816h6.933l.327-.816zm36.546-4.731h7.587c2.855.082 3.181 1.795 2.61 3.67l-3.833 11.014h-4.08l1.958-5.71H86.96l-1.958 5.71h-4.079l3.916-11.176c.572-1.713 2.448-3.508 4.813-3.508zm5.71 4.731c.245-.815-.325-1.468-1.223-1.55h-3.508c-.98 0-1.877.735-2.203 1.55l-.325.816h6.934l.325-.816z"/><path d="M66.403 95.952c-2.366 0-4.242 1.795-4.814 3.426l-3.914 11.176h4.078l.652-1.876 1.306-3.834 1.142-3.263.326-.816c.327-.816 1.224-1.55 2.203-1.55h1.795l-3.917 11.339h4.079l3.916-11.339h1.713c.897 0 1.469.734 1.225 1.55l-.328.897-1.141 3.264-1.714 5.057-.244.653h4.078l3.835-11.013c.571-1.795.244-3.59-2.611-3.671H66.403z"/><path fill-rule="evenodd" clip-rule="evenodd" d="M9.789 95.952h7.586c2.855.082 3.182 1.795 2.61 3.67l-3.833 11.014h-4.08l1.959-5.71H7.097l-1.958 5.71h-4.08l3.835-11.258c.653-1.631 2.447-3.426 4.895-3.426zm5.71 4.731c.245-.815-.326-1.468-1.224-1.55h-3.507c-.98 0-1.877.735-2.203 1.55l-.326.816h6.934l.326-.816z"/><path d="M99.93 110.554h4.079l2.937-8.484 3.997 8.403h3.998l5.058-14.602h-4.08l-2.936 8.402-3.997-8.402h-4.08l-4.975 14.683zM33.167 79.283c3.423 1.874 3.178 5.541 1.875 7.334-1.223 1.549-2.934 2.12-6.031 2.2-1.956.082-11.165.082-16.544 0-.896 0-1.06-.325-1.06-1.222v-2.2c.082-.896.245-1.222 1.142-1.222.346 0 2.828.029 5.68.063h.039c3.848.046 8.354.1 9.194.1.57 0 1.06 0 1.141-.245.163-.326.082-.652-.896-.978a307.631 307.631 0 0 0-6.238-2.206h-.001l-.003-.001c-3.673-1.269-6.805-2.35-8.02-3.09-1.956-1.223-2.77-3.179-2.445-5.216.326-2.119 1.549-4.156 5.95-4.32 3.304-.14 12.98-.099 16.253-.085l1.024.004c.896 0 1.06.326 1.06 1.141l.006.269v.001c.017.635.06 2.153-.007 2.42-.081.733-.407.896-1.14.896-12.633-.082-14.67-.082-14.915-.082-.244 0-.815 0-.896.408-.082.326.081.57.652.815.835.353 2.91 1.074 5.239 1.882 3.579 1.242 7.756 2.692 8.941 3.334z"/></symbol><symbol viewBox="0 0 120 120" id="logo-bogdan" xmlns="http://www.w3.org/2000/svg"><path fill-rule="evenodd" clip-rule="evenodd" d="M55.008 84h9.869c-.267-6.907-.324-11.992 1.15-16.316.985-2.89 2.834-5.973 5.653-8.254 1.132-.916 3.77-2.591 5.854-2.77.734-.062 1.786-.133 1.906.467.12.6-1.408 3.557-3.1 5.272-2.231 2.262-4.285 3.749-5.43 4.579-.229.165-.421.304-.572.418 14.308-1.084 31.11-6.138 35.354-15.836 5.227-11.942-6.382-19.1-14.18-22.266-2.254-.915-5.557-2.16-7.952-2.4-2.016-.201-2.014.24-2.012.55v.027c0 .135.781.52 1.56.905.461.228.923.456 1.218.63a59.5 59.5 0 0 1 6.611 4.511c1.445 1.14 3.002 2.77 4.024 4.319 5.83 8.83-2.802 14.693-9.964 16.7l-3.353-5.183.479-4.99c.062-5.33-.347-10.028-2.3-13.341-2.227-3.78-5.689-6.292-9.151-8.805-4.408-3.2-8.816-6.4-10.681-12.214-.064-.032-.368.176-.575.672-1.402 3.593-3.604 7.197-7.665 9.79-4.31 2.75-8.974 6.247-11.401 10.077-2.106 3.322-2.599 7.856-2.587 13.34l.479 5.471-3.162 4.99c-.842.318-2.274-.415-3.337-.959A15.627 15.627 0 0 0 30.96 53c-3.53-1.543-9.24-5.351-7.76-11.325 1.493-6.034 9.403-11.48 13.892-13.436 1.15-.473 1.341-.608 1.245-1.056-1.973-.97-7.584 1.142-9.485 1.92-6.548 2.676-16.596 7.775-15.808 18.139.881 11.605 16.985 16.679 25.485 18.523 3.277.71 7.428 1.412 11.018 1.631 0-.016-.24-.176-.479-.336-.24-.16-.479-.32-.479-.335-2.148-1.524-4.316-3.223-6.323-5.951-.493-.67-1.971-2.693-1.725-3.647.016-.048.104-.144.192-.24.088-.096.175-.192.191-.24 2.967-.33 7.187 2.419 8.528 3.84 1.463 1.55 3.403 4.136 4.503 7.581 1.139 3.57 1.36 8.695 1.053 15.932zm0-55.953a18.717 18.717 0 0 1 4.791-.768c10.37.072 18.405 10.038 14.755 21.114-1.86 5.647-7.49 10.62-14.66 10.557C49.5 58.861 41.59 47.793 45.429 37.548c1.66-4.434 5.059-7.914 9.58-9.502zM30.231 94.014l-.951.006c-3.764.022-6.148 1.377-6.72 4.56a319.963 319.963 0 0 0-1.08 6.36l-.001.007c-.285 1.805-.491 3.109.361 4.553.363.615 1.55 1.816 3.72 1.8 2.534-.021 5.954-.022 8.64 0 1.996.015 3.634-.232 5.04-1.44a5.75 5.75 0 0 1 .178-.146c.52-.414 1.112-.885 1.502-3.574.339-2.337.566-3.996.84-6.48.017-.156.036-.309.055-.462.146-1.165.284-2.278-.535-3.738-.464-.828-2.536-1.423-4.08-1.44a367.209 367.209 0 0 0-6.969-.006zM25.92 99.06c.72-1.68 2.88-1.72 4.08-1.68 2.84-.035 4.1-.05 5.76 0 1.471.099 2.767.377 2.488 2.92a74.953 74.953 0 0 1-.634 4.492c-.268 1.537-.752 2.911-2.137 2.886-1.277.032-4.87.041-8.052.012-1.027-.01-1.743-.108-2.225-.59-.46-.518-.4-1.038-.303-1.883.026-.222.054-.466.076-.739.145-1.777.475-3.232.71-4.273.107-.469.194-.853.237-1.145zm71.76 12.36l3.12-17.28c-3.396-.046-8.627-.032-12.6 0-1.919.015-3.146.695-4.08 1.92-.682.893-.956 2.528-1.435 5.375l-.125.745c0 .08-1.08 5.28-1.08 5.28h-3.6s1.72-9 2.52-13.44h-6.24c-1.44.02-2.729.04-4.018.06-1.291.02-2.581.04-4.022.06-2.133.105-4.662 2.547-5.04 4.92-.493 3.092-1.44 8.16-1.44 8.16H55.2l-.72 4.2h29.88l1.2-6.96 9.36.12-1.2 6.84h3.96zm-23.4-4.08H63.24s.613-4.771 1.2-6.84c.52-2.552 1.16-2.68 2.76-2.76h8.76c-.56 3.159-1.68 9.6-1.68 9.6zm19.414-6.356c-2.534.007-6.175.016-7.294-.004.023-1.495.784-3.408 2.64-3.24h7.44c-.08.48-.16 1.05-.24 1.62-.08.57-.16 1.14-.24 1.62-.418-.001-1.27.001-2.306.004z"/><path d="M116.28 94.02l-1.2 6.84h-9.72l1.08-6.84h-3.48l-3.12 17.4h3.36l1.44-6.84h9.6l-1.2 6.84H117l3-17.4h-3.72z"/><path fill-rule="evenodd" clip-rule="evenodd" d="M18.12 97.5l.84-3.36s-7.843.026-11.16 0c-3.445-.027-5.187 2.117-5.816 5.834-.249 1.47-.545 3.053-.836 4.61C.68 107.083.225 109.515 0 111.3c3.769.051 8.694.04 12.72 0 3.616-.038 4.938-1.041 5.76-2.88.726-1.625.893-3.074.72-4.08-.35-2.028-2.195-3.48-5.04-3.48l-2.713.001c-1.841.001-3.713.002-5.687-.001.162-1.281.658-3.364 2.16-3.36 3.6-.04 10.2 0 10.2 0zm-8.815 10.33c-1.752.012-3.506.024-4.865-.011.12-1.04.38-2.34.6-3.36 1.152.04 2.54.041 3.963.042 1.755.002 3.562.003 5.037.078 1.46-.02 1.94.9 1.8 1.68-.134 1.372-1.457 1.564-3.6 1.56-.928-.002-1.931.004-2.935.011z"/><path d="M60.48 94.14h-11.4c-2.465.09-4.297 1.935-5.04 4.32 0 .006-.055.268-.149.716-.462 2.206-1.872 8.939-2.371 12.124.68.019 1.33.01 1.98 0 .65-.01 1.3-.02 1.98 0 .199-1.023.4-2.225.624-3.56.325-1.939.697-4.159 1.176-6.52.115-.565.667-2.537 1.32-3 .707-.503 1.511-.495 2.705-.483.276.003.573.006.895.003 2.448-.024 5.394-.009 6.873-.001h.207c.18-.62.39-1.21.6-1.8.21-.59.42-1.18.6-1.8z"/></symbol><symbol viewBox="0 0 120 120" id="logo-hyundai" xmlns="http://www.w3.org/2000/svg"><g clip-path="url(#dclip0)"><path fill-rule="evenodd" clip-rule="evenodd" d="M92.64 17.138c6.041 3.306 12.879 9.12 12.166 16.87-.829 7.182-7.524 12.196-13.506 15.217-17.47 8.35-42.003 8.605-60.04 1.31-6.095-2.537-12.936-6.898-15.5-13.45-1.963-5.386.428-10.997 4.448-14.73 8.406-7.638 19.12-10.258 30.147-11.77 11.968-1.453 24.563-.17 35.277 3.505 2.394.886 4.756 1.854 7.007 3.048zM67.055 46.75c1.437-2.623 2.931-5.353 2.304-8.581-.454-1.197-1.738-2.08-3.018-2.248-3.09-.4-6.017.447-8.77 1.243l-.034.01-.98.328h-.002c-7.086 2.367-14.2 4.742-20.219 9.617-.285.256-.487.627-.345 1.025.187.282.472.486.8.57a80.537 80.537 0 0 0 21.94 3.363c3.392.338 6.21-1.94 7.922-4.59.132-.245.267-.49.402-.737zm33.904-12.03c1.084-4.785-2.11-8.748-5.641-11.653-.259-.173-.51-.366-.763-.56-.746-.572-1.499-1.15-2.46-1.234a1.516 1.516 0 0 0-.627.428c-1.366 3.02-2.849 6.098-4.444 9.09-3.449 6.638-7.382 13.191-12.565 19.034l-.086.398c.046.28.305.293.523.303.047.002.093.004.133.009 3.569-.334 6.864-1.433 10.126-2.52l.218-.073c6.125-2.391 13.818-6.155 15.586-13.222zM45.48 15.97l.116-.427c-.174-.323-.592-.32-.958-.316h-.15a54.905 54.905 0 0 0-10.913 2.965c-5.873 2.477-12.91 6.129-14.648 12.966-1.084 5.243 2.677 9.66 6.835 12.396.22.099.444.252.672.407.628.428 1.282.874 1.951.247 4.673-9.83 9.6-19.718 17.095-28.238zm37.673 1.11a4.33 4.33 0 0 1-.373-.168c-7.15-1.996-14.674-3.19-22.656-3.137-3.704.056-6.38 3.505-7.892 6.44-1.14 2.335-2.45 5.127-1.483 7.806a3.634 3.634 0 0 0 2.252 1.712c3.068.672 5.909-.137 8.686-.928.756-.215 1.508-.429 2.258-.611 6.897-2.252 13.649-4.815 19.548-9.431.049-.06.105-.12.162-.18.243-.258.508-.54.323-.931-.184-.308-.502-.439-.825-.572z"/><path d="M3.783 65.181H.013v17.344h3.77v-7.08h8.436v7.08h3.77V65.18h-3.77v6.835H3.783V65.18zm23.395 7.087l-4.725-7.087h-4.58l7.418 11.086v6.258h3.77v-6.258l7.366-11.086h-4.58l-4.669 7.087zm30.412-7.087h12.151c1.731 0 3.41.242 3.36 3.747v13.6H69.33V70.175c0-1.495-.18-1.81-1.35-1.81h-6.619v14.163h-3.77V65.181zm62.398.003h-3.771v17.344h3.771V65.184zM38.307 82.525h12.154c2.418 0 3.409-.7 3.36-4.185V65.18H50.05v12.38c0 1.485-.18 1.664-1.353 1.664h-6.62V65.181h-3.77v17.344z"/><path fill-rule="evenodd" clip-rule="evenodd" d="M92.533 68.928v9.385c0 2.988-1.678 4.215-3.77 4.215H76.87V65.184h11.892c3.213-.003 3.77 2.037 3.77 3.744zM88.72 69.97c0-.949-.577-1.605-1.592-1.605h-6.483v10.84h6.483c1.479-.076 1.592-.961 1.592-1.664V69.97zm23.727-4.789v17.347h-3.771v-4.987h-8.602v4.987h-3.77v-13.6c0-2.404.971-3.747 3.77-3.747h12.373zm-3.767 3.187h-7.084c-1.19.07-1.518.365-1.518 1.81v3.977h8.602v-5.787z"/><path d="M48.746 107.849l1.834-1.735 3.647 4.515h2.997l-4.81-6.112 4.396-4.416h-2.957l-5.107 4.732V96h-2.464v14.629h2.464v-2.78zM4.65 98.997H.076v-2.169h11.711v2.169H7.213v11.632H4.65V98.997zm10.92 2.642c.71-1.104 1.958-1.656 3.746-1.656v2.346a3.077 3.077 0 0 0-.572-.059c-.96 0-1.709.282-2.248.847-.538.552-.808 1.354-.808 2.406v5.106h-2.464v-10.528h2.346v1.538zm16.126 8.99v-10.528H29.23v5.323c0 1.025-.263 1.814-.789 2.366-.512.539-1.209.808-2.09.808-.788 0-1.4-.23-1.833-.69-.42-.473-.63-1.183-.63-2.129v-5.678h-2.465v6.013c0 1.538.4 2.701 1.202 3.49.815.775 1.926 1.163 3.332 1.163.684 0 1.321-.125 1.913-.375a4.019 4.019 0 0 0 1.478-1.104v1.341h2.347zm8.057.138c-1.091 0-2.07-.23-2.938-.69a5.093 5.093 0 0 1-2.03-1.912c-.487-.829-.73-1.762-.73-2.8 0-1.038.243-1.965.73-2.78a5.12 5.12 0 0 1 2.01-1.912c.868-.46 1.854-.69 2.958-.69 1.038 0 1.945.21 2.72.63a4.087 4.087 0 0 1 1.775 1.814l-1.893 1.104c-.302-.486-.683-.847-1.143-1.084a2.977 2.977 0 0 0-1.48-.375c-.92 0-1.681.303-2.286.907-.605.592-.907 1.387-.907 2.386 0 .999.296 1.801.887 2.405.605.592 1.374.887 2.307.887.539 0 1.032-.118 1.479-.354a3.06 3.06 0 0 0 1.143-1.105l1.893 1.105a4.315 4.315 0 0 1-1.794 1.833c-.776.421-1.676.631-2.701.631z"/><path fill-rule="evenodd" clip-rule="evenodd" d="M74.852 110.846l-1.735-1.676c-1.288 1.104-2.833 1.656-4.633 1.656-.96 0-1.82-.158-2.583-.473-.762-.316-1.36-.749-1.794-1.301a3.061 3.061 0 0 1-.65-1.913c0-.854.249-1.603.748-2.247.5-.657 1.315-1.302 2.445-1.932-.552-.552-.946-1.065-1.183-1.538a3.392 3.392 0 0 1-.355-1.499c0-.972.362-1.754 1.085-2.346.736-.604 1.708-.907 2.918-.907 1.117 0 2.01.276 2.681.828.67.54 1.005 1.275 1.005 2.209 0 .709-.223 1.34-.67 1.892-.434.552-1.15 1.111-2.149 1.676l2.977 2.839c.329-.644.585-1.419.77-2.326l1.99.65c-.262 1.223-.676 2.274-1.242 3.155l1.735 1.656-1.36 1.597zm-5.737-12.421c-.54 0-.966.138-1.282.414-.315.263-.473.611-.473 1.045 0 .315.085.618.256.907.171.276.5.657.986 1.143.789-.433 1.334-.808 1.636-1.123.316-.329.474-.684.474-1.065 0-.407-.145-.73-.434-.966-.276-.237-.664-.355-1.163-.355zm-.454 10.39c1.144 0 2.143-.348 2.997-1.045l-3.647-3.489c-.789.433-1.348.854-1.676 1.261a2.092 2.092 0 0 0-.473 1.341c0 .578.256 1.045.769 1.4.512.355 1.189.532 2.03.532zm26.802-4.101c-.447-.591-1.051-1.012-1.814-1.262a3.235 3.235 0 0 0 1.301-1.222c.316-.526.474-1.13.474-1.814 0-1.117-.44-1.991-1.321-2.622-.881-.644-2.136-.966-3.766-.966H83.87v13.801h6.861c1.762 0 3.102-.322 4.022-.966.92-.657 1.38-1.584 1.38-2.78 0-.867-.223-1.59-.67-2.169zm-9.03-2.07v-3.805h3.628c.894 0 1.577.164 2.05.493.487.315.73.789.73 1.419 0 .618-.243 1.091-.73 1.42-.473.315-1.156.473-2.05.473h-3.628zm7.117 3.983c0 1.327-.992 1.991-2.977 1.991h-4.14v-3.983h4.14c1.985 0 2.978.664 2.978 1.992z"/><path d="M108.825 110.629h-2.346v-1.341a4.013 4.013 0 0 1-1.479 1.104 4.86 4.86 0 0 1-1.912.375c-1.407 0-2.517-.388-3.332-1.163-.802-.789-1.203-1.952-1.203-3.49v-6.013h2.465v5.678c0 .946.21 1.656.631 2.129.433.46 1.044.69 1.833.69.881 0 1.577-.269 2.09-.808.526-.552.789-1.341.789-2.366v-5.323h2.464v10.528zm3.976-.197a9.442 9.442 0 0 0 2.504.335c1.472 0 2.635-.296 3.489-.887.855-.592 1.282-1.38 1.282-2.366 0-.749-.197-1.328-.591-1.735a3.174 3.174 0 0 0-1.381-.868c-.538-.17-1.229-.322-2.07-.453-.841-.145-1.465-.296-1.873-.453-.394-.171-.591-.454-.591-.848 0-.355.184-.638.552-.848.381-.223.933-.335 1.656-.335 1.117 0 2.123.263 3.016.788l.947-1.873c-.46-.276-1.052-.492-1.775-.65a9.38 9.38 0 0 0-2.168-.257c-1.42 0-2.55.303-3.391.907-.828.592-1.242 1.387-1.242 2.386 0 .762.197 1.36.591 1.794.407.421.881.716 1.42.887.552.171 1.261.322 2.129.454.828.131 1.426.269 1.794.414.381.144.572.401.572.769 0 .775-.736 1.163-2.208 1.163a7.43 7.43 0 0 1-1.972-.276 6.335 6.335 0 0 1-1.696-.769l-.946 1.873c.486.342 1.137.624 1.952.848zM120 89H0v2h120v-2z"/></g><defs><clipPath id="dclip0"><path d="M0 0h120v120H0z"/></clipPath></defs></symbol><symbol viewBox="0 0 120 120" id="logo-isuzutruck" xmlns="http://www.w3.org/2000/svg"><path d="M87.855 36.224v14.804h-11.62V23.365l10.054 9.734c.968.825 1.566 1.895 1.566 3.125zm2.735 0c0-1.23.598-2.3 1.567-3.125l10.055-9.734v27.663h-11.62l-.002-14.804z"/><path fill-rule="evenodd" clip-rule="evenodd" d="M102.38 56.249c-15.257 11.11-33.71 11.724-41.212 1.369-7.504-10.354-1.22-27.756 14.037-38.867 15.254-11.11 33.707-11.724 41.212-1.37 7.503 10.355 1.219 27.757-14.037 38.868zm9.568-35.293c7.138 9.682 2.555 24.938-10.233 34.075-12.791 9.137-28.945 8.696-36.083-.985-7.136-9.682-2.553-24.937 10.236-34.075 12.788-9.138 28.944-8.697 36.08.985z"/><path d="M95.1 109.087c-3.753-2.119-3.839-6.819-.018-8.989 1.804-1.025 3.93-1.298 4.616-1.298 1.26 0 3.648.332 4.71.665v2.262c-1.327-.4-3.383-.466-4.71-.466-.685 0-1.635.319-2.395.92-1.651 1.308-1.651 3.497-.01 4.805.76.606 1.715.927 2.404.927 1.327 0 3.382-.066 4.71-.465v2.263c-1.061.331-3.449.664-4.71.664-.681 0-2.797-.271-4.598-1.288zM51.06 99h10.086v2.261h-3.185v8.915h-3.716v-8.915H51.06V99zm38.747 6.685c0 1.444-.634 2.508-.741 2.665-2.182 3.202-9.224 3.063-11.23-.063-.446-.695-.697-1.557-.697-2.602V99h3.713l-.007 7.418c0 2.98 5.255 2.98 5.255 0V99h3.71l-.003 6.685zM110.876 99h-3.714v11.176h3.714v-5.052l4.645 5.052H120l-5.374-5.787 5.11-5.39h-4.248l-4.612 4.787V99z"/><path fill-rule="evenodd" clip-rule="evenodd" d="M67.051 110.176h-3.714V99l7.664.02c1.93 0 3.495 1.303 3.495 3.24 0 1.162-.856 2.238-2.01 2.914l2.794 5.002h-3.45l-2.257-4.125h-2.522v4.125zm2.618-6.357l-2.621-.01v-2.578h2.62c1.707 0 1.707 2.588 0 2.588z"/><path d="M45.288 71.858c.7 0 1.045.323 1.045 1.04v11.306c0 1.874.457 2.982 3.015 3.064.592.02 1.508.03 2.295.03.788 0 1.88-.01 2.472-.03 2.558-.082 2.839-1.19 2.839-3.064l.001-11.305c0-.708.305-1.044 1.048-1.044l3.945.003c.722 0 1.039.34 1.039 1.05v12.246c0 3.288-.545 6.509-6.795 6.615-2.149.036-4.55.06-4.55.06s-2.553-.035-4.701-.06c-5.897-.071-6.607-3.469-6.607-6.615l-.002-12.255c0-.7.314-1.04 1.034-1.04h3.922zM4.944 91.788c.72 0 1.042-.363 1.042-1.054V72.908c0-.717-.349-1.05-1.051-1.05H1.05c-.718 0-1.051.35-1.051 1.05v17.836c0 .698.35 1.044 1.05 1.044h3.894zm6.501-3.428v2.374c0 .77.32 1.055 1.062 1.056 0 0 15.527.017 16.993-.002 3.883-.053 6.146-1.61 6.146-4.904 0-2.758-1.186-4.227-4.346-5.253-2.05-.666-13.181-4.198-13.691-4.353-.406-.125-.417-.403-.363-.6.052-.191.217-.278.553-.278l15.231.007c.697 0 1.03-.323 1.03-1.047l.001-2.45c0-.701-.317-1.052-1.041-1.052H17.6c-4.274 0-6.112 2.351-6.112 5.092 0 2.166 1.044 3.937 3.816 4.874.36.123 5.87 1.88 9.934 3.174 2.323.74 4.172 1.33 4.316 1.377.391.129.44.432.378.618-.069.206-.22.317-.527.317H12.498c-.708 0-1.053.336-1.053 1.05zm91.174-15.461c0-.718-.345-1.04-1.045-1.04h-3.922c-.72 0-1.034.34-1.034 1.04l.003 12.255c0 3.147.708 6.544 6.604 6.615 2.149.025 4.704.06 4.704.06s2.401-.024 4.549-.06c6.249-.106 6.794-3.327 6.794-6.615V72.908c0-.71-.315-1.05-1.037-1.05l-3.946-.003c-.743 0-1.048.336-1.048 1.044l-.002 11.305c0 1.874-.28 2.982-2.838 3.064-.591.02-1.683.03-2.471.03-.789 0-1.703-.01-2.297-.03-2.558-.082-3.014-1.19-3.014-3.064V72.899zM91.872 90.734c0 .77-.318 1.056-1.059 1.056 0 0-15.529.017-16.994-.002-3.883-.053-6.147-1.61-6.147-4.904 0-2.758 1.188-4.227 4.347-5.253 2.05-.665 13.18-4.197 13.691-4.353.406-.125.418-.403.364-.6-.052-.191-.218-.278-.555-.278l-15.23.007c-.698 0-1.03-.323-1.03-1.047l-.001-2.45c0-.701.317-1.052 1.04-1.052H85.72c4.272 0 6.11 2.351 6.11 5.092 0 2.167-1.043 3.937-3.815 4.874-.365.125-6.045 1.935-10.124 3.235l-.08.026-4.047 1.29c-.39.128-.439.43-.377.618.069.206.22.317.527.317H90.82c.707 0 1.052.336 1.052 1.05v2.374z"/></symbol><symbol viewBox="0 0 120 120" id="logo-kraz" xmlns="http://www.w3.org/2000/svg"><g clip-path="url(#fclip0)"><path fill-rule="evenodd" clip-rule="evenodd" d="M112.531 42.002c0-13.77-23.03-25.002-51.266-25.002C33.029 17 10 28.232 10 42.002S33.03 67 61.265 67c28.237 0 51.266-11.227 51.266-24.998zm-60.634-5.967C57.902 25.21 72.72 22.337 86.73 24.107c13.223 3.775 22.018 10.388 22.018 17.895 0 2.869-1.291 5.613-3.626 8.119-4.588 2.481-10.083.907-15.974-5.683C81.079 37.456 70 35.491 55.91 38.542c-3.177 1.673-4.516.838-4.014-2.507zM31.452 47.449c7.678 6.674 14.941 3.648 21.95-5.393 4.598-3.764 8.53-3.01 11.79 2.257 5.374 10.179 9.93 16.283 13.295 16.431l-.14 1.049c-5.306.921-11.066 1.43-17.082 1.43-26.153 0-47.483-9.536-47.483-21.221 0-9.179 13.15-17.023 31.463-19.974l1.008.46c-19.16 4.926-24.485 16.1-14.801 24.96z"/><path d="M53.187 101.756l-.07.037.319.001c.245.027.493.027.739 0h17.004c1.15-.037 1.925-.552 2.442-1.398l4.15-9.763c.782-.97 1.615-.97 2.5 0l4.394 9.702c.486.888 1.118 1.402 1.93 1.456l-.003.003H97.88l.062.005.033.001h20.857c.542 0 .983-.623.983-1.385v-2.233c0-.763-.441-1.386-.983-1.386h-8.047c-.469-.162-.611-.569-.429-1.22l8.797-12.87c.254-.253.417-.648.417-1.086v-2.233c0-.762-.494-1.385-1.099-1.385H95.102c-.604 0-1.101.623-1.101 1.385v2.233c0 .763.497 1.386 1.101 1.386h9.869c.527.318.747.766.747 1.341l-9.093 13.181h-2.44l-.028.017-9.126-18.139c-.947-.913-1.937-1.44-2.99-1.404h-7.263c-1.173.218-2.008.729-2.5 1.525l-7.934 18.366-3.216-.116-3.004-4.341c-.218-.546-.143-1.09.226-1.635l3.545-3.807c2.894-3.604 1.92-8.045-3.488-9.962l-23.589.057c-1.047-.004-1.646.523-1.805 1.58l.056 17.58c.013.677-.39 1.01-1.298.928h-1.636l-.043.016-6.358-8.534c-.572-.678-.533-1.355.115-2.034l6.974-8.367c.052-.764-.199-1.131-.756-1.103h-9.59c-.585-.023-1.094.082-1.51.346l-6.232 7.462a.8.8 0 0 1-.8.441h-1.338c-.304.025-.525-.205-.742-.515v-6.68a1.13 1.13 0 0 0-1.12-1.138H.936c-.617 0-1.122.511-1.122 1.138v21.559c0 .624.505 1.137 1.122 1.137h7.8c.616 0 1.12-.513 1.12-1.137v-8.632c.247-.23.495-.367.741-.383h1.57c.52-.011.927.184 1.22.579l5.87 8.601c.3.494.903.753 1.73.84l-.05.02h.303c.128.009.262.013.4.013l.067-.013h19.6c1.182.057 1.892-.537 2.032-1.924V83.732c.034-.376.392-.6 1.07-.678h4.572c2.6.484 3.444 3.099.677 5.531l-2.935 3.216c-.533.594-.753 1.168-.28 1.692l4.852 7.278c.483.451 1.133.842 1.892.985z"/></g><defs><clipPath id="fclip0"><path d="M0 0h120v120H0z"/></clipPath></defs></symbol><symbol viewBox="0 0 120 120" id="logo-man" xmlns="http://www.w3.org/2000/svg"><path d="M22.32 62.433l-3.22 4.446h5.08l5.945-5.803-.867 5.678H39.91v-2.22l-2.85-1.854 11.026-10h.247l4.213-4.196 22.294 3.21-2.849-17.16-25.64 3.579-9.662 14.322h-3.344l-8.671 9.999H22.32z"/><path d="M36.194 51.323h-1.982l8.795-10.124-6.813 10.124zm39.761.492l-2.972-17.777 13.873-16.42.249.122 7.057 16.913-2.599 15.679-5.08 3.087-10.528-1.604zm13.132-33.581l-.744-.245 6.813 16.295 4.213.126.494-3.705-2.975-.245c-1.856-.125-1.485-3.212.497-2.965l3.22.493.494-4.321-4.952-1.728-.371 1.604c-.126.371-1.116-.122-1.116-.492l-.122-1.482-3.224-1.234V17l-2.227 1.234zm-6.319 44.197l2.971-8.148-9.66-1.358.618 3.58.123.619h-.246L78.184 67h8.298v-1.975l-3.714-2.594zM52.916 49.592l21.18 3.087H49.818l3.097-3.087zM82.21 79v23h12.013v-9.994L108.3 102H120V79h-11.012v10.315L93.346 79H82.21z"/><path fill-rule="evenodd" clip-rule="evenodd" d="M54.182 79l-14.953 23H51.99l1.815-2.306h12.576L68.447 102h12.762L66.57 79H54.183zm8.32 14.607h-4.817L60 88.738l2.502 4.869z"/><path d="M0 79v23h11.512v-8.329l7.758 7.112 7.258-7.112V102h11.448V79H26.965l-7.946 8.713L11.574 79H0z"/></symbol><symbol viewBox="0 0 120 120" id="logo-varv" xmlns="http://www.w3.org/2000/svg"><path fill-rule="evenodd" clip-rule="evenodd" d="M83.5 52c-1.543 0-3.049-.163-4.5-.472v5.008A27.375 27.375 0 0 1 92.5 53c15.188 0 27.5 12.312 27.5 27.5S107.688 108 92.5 108c-11.849 0-21.947-7.494-25.815-18H42l-7-15h31v-4H33l-7-15h40v-4H23l-7-15h50V9h18v.006c11.643.265 21 9.787 21 21.494C105 42.374 95.374 52 83.5 52zm0-31c-1.628 0-3.16.41-4.5 1.131V38.87A9.458 9.458 0 0 0 83.5 40a9.5 9.5 0 0 0 0-19zM105 80.5c0 6.904-5.596 12.5-12.5 12.5S80 87.404 80 80.5 85.596 68 92.5 68 105 73.596 105 80.5z"/><path d="M59.159 30.154A2.898 2.898 0 0 0 60 28.11v-1.444a2.894 2.894 0 0 0-.977-2.167A2.878 2.878 0 0 0 60 22.333V20.89c0-.766-.303-1.501-.841-2.043A2.864 2.864 0 0 0 57.128 18h-7.18a3.58 3.58 0 0 0-2.539 1.058 3.622 3.622 0 0 0-1.051 2.553v1.445h2.154v-.723c0-.574.227-1.125.63-1.532a2.147 2.147 0 0 1 1.524-.634h5.744c.38 0 .746.152 1.015.423a1.449 1.449 0 0 1 0 2.043c-.269.27-.634.423-1.015.423h-6.462v2.888h6.462c.38 0 .746.153 1.015.424a1.449 1.449 0 0 1 0 2.042 1.43 1.43 0 0 1-1.015.423h-5.744c-.572 0-1.12-.228-1.523-.634a2.173 2.173 0 0 1-.631-1.532v-.723h-2.154v1.445a3.62 3.62 0 0 0 1.051 2.553A3.58 3.58 0 0 0 49.948 31h7.18c.762 0 1.492-.304 2.03-.846z"/><path fill-rule="evenodd" clip-rule="evenodd" d="M33.715 26.667h6.898a3.58 3.58 0 0 0 2.539-1.058 3.622 3.622 0 0 0 1.051-2.553V21.61a3.62 3.62 0 0 0-1.051-2.553A3.58 3.58 0 0 0 40.613 18h-9.052v13h2.154v-4.333zm0-6.5h6.18c.572 0 1.12.228 1.523.634a2.173 2.173 0 0 1 0 3.064 2.148 2.148 0 0 1-1.523.635h-6.18v-4.333zm-15.796 7.944h8.616L27.97 31h2.872l-7.18-13H20.79l-7.18 13h2.872l1.436-2.889zm1.436-2.167l2.872-5.055 2.872 5.055h-5.744zM0 31h10.738c.762 0 1.493-.304 2.031-.846a2.898 2.898 0 0 0 .841-2.043v-.722a2.9 2.9 0 0 0-.525-1.663 2.875 2.875 0 0 0-1.382-1.056 2.877 2.877 0 0 0 1.19-2.337V20.89c0-.766-.303-1.501-.842-2.043a2.864 2.864 0 0 0-2.03-.846H0v13zm2.154-10.833h7.148c.381 0 .747.152 1.016.423a1.449 1.449 0 0 1 0 2.043c-.27.27-.635.423-1.016.423H2.154v-2.89zm0 5.777h7.866c.381 0 .747.153 1.016.424a1.449 1.449 0 0 1 0 2.042c-.27.271-.635.423-1.016.423H2.154v-2.889z"/></symbol></svg>