<?xml version="1.0" encoding="utf-8"?><svg xmlns="http://www.w3.org/2000/svg" xmlns:xlink="http://www.w3.org/1999/xlink"><symbol viewBox="0 0 160 160" id="autocom_logo" xmlns="http://www.w3.org/2000/svg"><path d="M80 160c44.183 0 80-35.817 80-80S124.183 0 80 0 0 35.817 0 80s35.817 80 80 80z"/><path d="M95.79 28.421l17.894 5.263 22.105 22.105-8.421 8.421-9.473-9.473-3.684 3.613 8.947 10.071-5.263 5.263-9.474-9.474-6.316 6.316v6.316l-10 10 20.527 20.526H120l5.263 5.264V120l-7.368 7.368h-7.369l-5.263-5.263v-7.368L84.737 94.211l-34.21 34.21h-7.37l-6.315-6.316v-7.368l34.21-34.21L60 69.473l-18.947 2.105-14.737-13.684v-8.421h7.368l8.421 8.42 12.632-2.105 1.052-11.578-8.42-7.369V28.42h8.42l13.685 14.737-2.106 18.947 11.053 11.053 10-10h6.316l6.316-6.316L88.421 44.21l-1.053-7.369 2.106-2.105 16.842 16.842 4.21-4.21-16.842-16.843 2.106-2.105z"/><path fill-rule="evenodd" clip-rule="evenodd" d="M80 153.684a73.68 73.68 0 0 1-68.075-45.486A73.685 73.685 0 1 1 80 153.684zm0-141.052a67.369 67.369 0 1 0 0 134.737 67.369 67.369 0 0 0 0-134.737z"/></symbol><symbol viewBox="0 0 100 100" id="car-parts" xmlns="http://www.w3.org/2000/svg"><g clip-path="url(#bclip0)"><path d="M56.188 33.812L35.865 13.489l-2.053 2.053 20.323 20.322 2.053-2.052zM50.04 13.481l20.658 20.32-2.036 2.07-20.658-20.32 2.035-2.07z"/><path d="M36.906 5.806H63.87V8.71H36.906c-4.342 0-7.874 3.531-7.874 7.873v16.189c0 4.34 3.532 7.873 7.874 7.873h6.642v2.903h-6.642c-5.943 0-10.777-4.834-10.777-10.776v-16.19c0-5.942 4.834-10.776 10.777-10.776zm43.479 23.296a7.929 7.929 0 0 1 .905 3.67c0 4.34-3.532 7.873-7.873 7.873H46.452v2.903h26.965c5.943 0 10.776-4.834 10.776-10.776 0-1.74-.428-3.475-1.238-5.02l-8.52-16.186a10.707 10.707 0 0 0-7.416-5.527l-.57 2.846a7.82 7.82 0 0 1 5.416 4.033l8.52 16.184zM5.806 10.161H8.71v2.904H5.806V10.16zm2.904 5.807H5.806v17.42H8.71v-17.42zM5.806 36.29H8.71v2.904H5.806V36.29z"/><path fill-rule="evenodd" clip-rule="evenodd" d="M1.452 1.452c7.202 0 13.064 5.861 13.064 13.064v1.452h5.837C20.681 7.11 27.97 0 36.906 0h27.991a16.54 16.54 0 0 1 14.674 8.86l8.52 16.187A16.653 16.653 0 0 1 90 32.772c0 9.143-7.44 16.583-16.583 16.583h-36.51c-8.936 0-16.224-7.11-16.552-15.968h-5.839v1.452c0 7.204-5.862 13.064-13.064 13.064H0V1.452h1.452zm21.774 31.32c0 7.542 6.137 13.68 13.68 13.68h36.511c7.542 0 13.68-6.138 13.68-13.68 0-2.21-.545-4.416-1.574-6.373l-8.52-16.187a13.645 13.645 0 0 0-12.106-7.309h-27.99c-7.544 0-13.681 6.138-13.681 13.68v16.189zm-2.903-2.288V18.87h-5.807v11.613h5.807zM2.903 44.897c4.919-.706 8.71-4.947 8.71-10.058V14.516c0-5.111-3.791-9.351-8.71-10.058v40.44zm68.791 32.329a6.54 6.54 0 0 0 6.532-6.532 6.54 6.54 0 0 0-6.532-6.533 6.54 6.54 0 0 0-6.533 6.533 6.54 6.54 0 0 0 6.532 6.532zm0-10.162a3.633 3.633 0 0 1 3.629 3.63c0 2-1.628 3.629-3.63 3.629a3.633 3.633 0 0 1-3.629-3.63c0-2 1.628-3.629 3.63-3.629zM47.701 78.045l2.925.783-.752 2.805-2.93-.785a8.753 8.753 0 0 1-4.289 4.288l.786 2.93-2.805.752-.784-2.925a8.476 8.476 0 0 1-1.638.003l-.784 2.925-2.805-.752.785-2.93a8.756 8.756 0 0 1-4.288-4.29l-2.93.785-.752-2.804 2.925-.784a8.531 8.531 0 0 1-.042-.82c0-.277.015-.549.04-.817l-2.925-.784.752-2.805 2.93.786a8.744 8.744 0 0 1 4.289-4.29l-.785-2.93 2.804-.753.784 2.925a8.51 8.51 0 0 1 .82-.042c.278 0 .55.016.819.04l.784-2.926 2.804.752-.785 2.931a8.756 8.756 0 0 1 4.288 4.29l2.93-.786.753 2.805-2.925.784c.026.271.042.543.042.82 0 .277-.016.549-.04.819zm-14.475-.82a5.812 5.812 0 0 0 5.806 5.807 5.812 5.812 0 0 0 5.807-5.806 5.812 5.812 0 0 0-5.807-5.807 5.812 5.812 0 0 0-5.806 5.807z"/><path fill-rule="evenodd" clip-rule="evenodd" d="M52.097 54C28.885 54 10 72.884 10 96.097v4.355h68.226c12.006 0 21.774-9.768 21.774-21.775V54H52.097zm34.839 2.903v7.013a16.792 16.792 0 0 0-5.85-7.013h5.85zm-1.452 13.79c0 7.604-6.187 13.79-13.79 13.79-7.604 0-13.79-6.186-13.79-13.79 0-7.603 6.186-13.79 13.79-13.79 7.603 0 13.79 6.187 13.79 13.79zm-7.258 26.855H16.595A37.262 37.262 0 0 1 34.1 93.194h17.996V90.29h-3.912C52.299 87.4 55 82.626 55 77.226c0-8.804-7.164-15.968-15.968-15.968s-15.967 7.164-15.967 15.968c0 5.529 2.826 10.408 7.108 13.275a40.084 40.084 0 0 0-17.27 5.808v-.212c0-21.612 17.582-39.194 39.194-39.194h10.205C57.899 59.913 55 64.97 55 70.693c0 9.205 7.489 16.694 16.694 16.694 6.779 0 12.617-4.069 15.227-9.888-.147 7.076-5.939 12.791-13.05 12.791H55v2.904h18.871c7.813 0 14.32-5.644 15.69-13.065h7.462c-.746 9.727-8.883 17.42-18.797 17.42zM25.968 77.226c0-7.203 5.86-13.065 13.064-13.065 7.205 0 13.065 5.862 13.065 13.065 0 7.203-5.86 13.064-13.065 13.064-7.204 0-13.064-5.861-13.064-13.064zm71.129 0h-7.258v-2.903h7.258v2.903zm0-5.807h-7.258v-2.903h7.258v2.903zm0-5.806h-7.258V62.71h7.258v2.903zm0-5.807h-7.258v-2.903h7.258v2.903z"/></g><defs><clipPath id="bclip0"><path d="M0 0h100v100H0z"/></clipPath></defs></symbol><symbol viewBox="0 0 350 230" id="car-tir-trick" xmlns="http://www.w3.org/2000/svg"><g clip-path="url(#cclip0)"><path fill-rule="evenodd" clip-rule="evenodd" d="M110.475 20.45h-49.52a2.706 2.706 0 0 1-1.912-.788 2.697 2.697 0 0 1-.794-1.906V2.7a2.697 2.697 0 0 1 .794-1.907 2.706 2.706 0 0 1 1.912-.788h49.52a2.71 2.71 0 0 1 1.911.789c.507.505.793 1.19.794 1.906v15.053a2.706 2.706 0 0 1-2.705 2.697zM63.66 15.06h44.107V5.394H63.66v9.666z"/><path d="M14.132 129.725a2.709 2.709 0 0 1-1.91-.789 2.699 2.699 0 0 1-.795-1.906V13.912a7.016 7.016 0 0 1 2.065-4.959 7.04 7.04 0 0 1 4.97-2.051h33.15a2.693 2.693 0 1 1 0 5.39h-33.15a1.627 1.627 0 0 0-1.624 1.619v113.117a2.707 2.707 0 0 1-2.706 2.697zM160.003 110V13.912a7.015 7.015 0 0 0-2.065-4.958 7.04 7.04 0 0 0-4.971-2.051h-33.296a2.701 2.701 0 0 0-2.7 2.695 2.701 2.701 0 0 0 2.7 2.695h33.296a1.622 1.622 0 0 1 1.624 1.618V110h5.412zM83 113.054H34.735a2.694 2.694 0 1 0 0 5.391H83v-5.391zm-39.86 20.817H83v-5.391H43.14a2.7 2.7 0 0 0-2.7 2.695 2.7 2.7 0 0 0 2.7 2.696zm-24.678 70.347H41.92a2.7 2.7 0 0 0 1.908-.789 2.69 2.69 0 0 0-1.908-4.597H18.462a1.627 1.627 0 0 1-1.624-1.619l-.014-16.517a2.694 2.694 0 0 0-1.671-2.492 2.718 2.718 0 0 0-2.947.584 2.705 2.705 0 0 0-.792 1.908l.013 16.517a7.015 7.015 0 0 0 2.066 4.955 7.035 7.035 0 0 0 4.97 2.05z"/><path fill-rule="evenodd" clip-rule="evenodd" d="M23.864 173.395l37.556 37.422a11.383 11.383 0 0 0 8.088 3.476 11.416 11.416 0 0 0 8.152-3.322 11.37 11.37 0 0 0 3.343-8.133 11.349 11.349 0 0 0-3.466-8.08l-37.557-37.42a20.033 20.033 0 0 0-.548-9.619 20.067 20.067 0 0 0-4.977-8.255 20.122 20.122 0 0 0-17.89-5.558 2.698 2.698 0 0 0-2.214 2.65v3.88c0 .711.284 1.393.787 1.896l5.75 5.764-.7 5.578-5.6.698-5.786-5.729a2.71 2.71 0 0 0-1.906-.785H3.003a2.708 2.708 0 0 0-2.66 2.202 19.908 19.908 0 0 0 5.54 17.794 20.303 20.303 0 0 0 8.308 4.977 20.332 20.332 0 0 0 9.673.564zm2.768-4.866a2.712 2.712 0 0 0-1.912-.788l.002.001a2.71 2.71 0 0 0-.706.094 14.882 14.882 0 0 1-14.305-3.798 14.537 14.537 0 0 1-4.29-10.789h.359l5.926 5.874a2.72 2.72 0 0 0 2.244.764l8.996-1.124a2.71 2.71 0 0 0 2.35-2.34l1.128-8.959a2.692 2.692 0 0 0-.767-2.237l-5.895-5.905v-.356a14.704 14.704 0 0 1 12 5.581 14.653 14.653 0 0 1 2.638 12.952 2.688 2.688 0 0 0 .7 2.602l38.612 38.469a5.974 5.974 0 0 1 1.745 4.223 5.96 5.96 0 0 1-1.757 4.219 5.989 5.989 0 0 1-6.518 1.284 5.981 5.981 0 0 1-1.938-1.297l-38.612-38.47z"/><path d="M61.726 104.022h51.853c.716 0 1.403-.284 1.909-.789a2.691 2.691 0 0 0 0-3.812 2.701 2.701 0 0 0-1.909-.79H61.726c-.716 0-1.403.284-1.91.79a2.693 2.693 0 0 0 1.91 4.601z"/><path fill-rule="evenodd" clip-rule="evenodd" d="M36.955 32.37a2.5 2.5 0 0 1 2.5-2.5h32.023a2.5 2.5 0 0 1 2.5 2.5v11.04a2.5 2.5 0 0 1-2.5 2.5H63.36v39.214a2.5 2.5 0 0 1-2.5 2.5H50.073a2.5 2.5 0 0 1-2.5-2.5V45.91h-8.118a2.5 2.5 0 0 1-2.5-2.5V32.37zm5 8.54v-6.04h27.023v6.04H60.86a2.5 2.5 0 0 0-2.5 2.5v39.214h-5.787V43.41a2.5 2.5 0 0 0-2.5-2.5h-8.118zM79.46 29.87a2.5 2.5 0 0 0-2.5 2.5v52.754a2.5 2.5 0 0 0 2.5 2.5h10.703a2.5 2.5 0 0 0 2.5-2.5V32.37a2.5 2.5 0 0 0-2.5-2.5H79.46zm2.5 5v47.754h5.703V34.87H81.96zm28.452 5.03a2.499 2.499 0 0 0-2.547 2.48l-.084 10.955a2.5 2.5 0 0 0 2.44 2.518l6.043.085c1.897 0 3.896-.494 5.435-1.926 1.572-1.464 2.29-3.555 2.29-5.967 0-2.142-.545-4.14-1.767-5.656-1.264-1.569-3.088-2.406-5.115-2.406l-6.695-.084zm2.434 5.04l-.046 5.964c1.096.018 2.376.034 3.464.034s1.701-.282 2.029-.587c.293-.273.696-.878.696-2.306 0-1.342-.343-2.125-.66-2.519-.275-.34-.642-.543-1.222-.543-1.122 0-2.825-.021-4.234-.042h-.027z"/><path fill-rule="evenodd" clip-rule="evenodd" d="M129.826 33.48c-3.459-2.868-8.071-3.584-13.466-3.61H99.655a2.5 2.5 0 0 0-2.492 2.5v52.754a2.5 2.5 0 0 0 2.5 2.5h10.618a2.5 2.5 0 0 0 2.5-2.49l.074-19.293.427.007 4.851 19.869a2.5 2.5 0 0 0 2.429 1.907h12.05a2.5 2.5 0 0 0 2.398-3.207l-2.664-9.076c-1.279-4.37-2.775-9.496-3.908-13.431 2.381-1.763 4.027-3.788 5.104-6.06 1.283-2.706 1.671-5.583 1.738-8.42.07-2.928-.564-5.775-1.536-8.164-.956-2.347-2.327-4.467-3.918-5.786zm-27.663 1.385v47.759h5.628l.074-19.336a2.502 2.502 0 0 1 2.543-2.49l4.888.084a2.499 2.499 0 0 1 2.385 1.907l4.844 19.835h6.747l-1.724-5.878c-1.478-5.05-3.25-11.123-4.418-15.204a2.5 2.5 0 0 1 1.097-2.82c2.534-1.553 3.958-3.242 4.797-5.014.86-1.814 1.198-3.902 1.258-6.396.051-2.156-.421-4.322-1.169-6.161-.766-1.88-1.73-3.201-2.478-3.822-2.048-1.697-5.129-2.434-10.298-2.458-3.293-.016-7.458-.016-10.804-.012l-3.37.006z"/><path d="M203.824 169.785c1.764-1.75 2.721-4.327 2.871-7.731h-6.029c-.082 2.023-.424 3.425-1.025 4.204-.602.765-1.696 1.148-3.282 1.148-1.613 0-2.755-.553-3.424-1.661-.657-1.107-.985-3.144-.985-6.111v-5.64c.041-2.584.397-4.436 1.067-5.557.67-1.135 1.811-1.703 3.424-1.703 1.586 0 2.673.404 3.261 1.21.602.793.93 2.243.985 4.348h6.049c-.232-3.404-1.196-6.016-2.891-7.834-1.682-1.818-4.15-2.728-7.404-2.728-3.308 0-5.892 1.115-7.752 3.343-1.859 2.215-2.789 5.373-2.789 9.475v5.024c0 4.116.896 7.287 2.687 9.516 1.805 2.215 4.395 3.322 7.772 3.322 3.213 0 5.702-.875 7.465-2.625zm-21.943-27.644v20.671c-.027 3.104-.882 5.483-2.564 7.137-1.681 1.641-4.094 2.461-7.239 2.461-3.199 0-5.646-.834-7.342-2.502-1.681-1.668-2.522-4.081-2.522-7.239v-20.528h6.07v20.548c0 1.696.274 2.906.82 3.63.547.725 1.539 1.087 2.974 1.087 1.436 0 2.42-.355 2.953-1.066.533-.725.807-1.907.821-3.548v-20.651h6.029z"/><path fill-rule="evenodd" clip-rule="evenodd" d="M148.248 161.09h-2.994V172h-6.029v-29.859h9.618c3.021 0 5.352.786 6.993 2.358 1.654 1.559 2.481 3.78 2.481 6.665 0 3.965-1.442 6.74-4.327 8.326l5.23 12.223V172h-6.481l-4.491-10.91zm-2.994-5.025h3.425c1.203 0 2.105-.396 2.707-1.189.601-.807.902-1.88.902-3.22 0-2.994-1.169-4.491-3.507-4.491h-3.527v8.9z"/><path d="M128.355 147.165h7.383v-5.024h-20.692v5.024h7.26V172h6.049v-24.835zm88.082 16.304l2.378-2.994L224.271 172h7.157l-8.696-16.734 8.552-13.125h-7.383l-5.557 9.802-1.907 3.22v-13.022h-6.03V172h6.03v-8.531z"/><path fill-rule="evenodd" clip-rule="evenodd" d="M213.116 220.08c-4.102 0-7.44-3.338-7.44-7.44s3.338-7.44 7.44-7.44 7.44 3.338 7.44 7.44-3.338 7.44-7.44 7.44zm0-9.92a2.482 2.482 0 0 0-2.48 2.48 2.482 2.482 0 0 0 2.48 2.48 2.483 2.483 0 0 0 2.48-2.48 2.483 2.483 0 0 0-2.48-2.48zm104.16-4.96c4.102 0 7.44 3.338 7.44 7.44s-3.338 7.44-7.44 7.44-7.44-3.338-7.44-7.44 3.338-7.44 7.44-7.44zm0 9.92a2.483 2.483 0 0 0 2.48-2.48 2.483 2.483 0 0 0-2.48-2.48 2.482 2.482 0 0 0-2.48 2.48 2.482 2.482 0 0 0 2.48 2.48zm-66.96-2.48c0-4.102-3.338-7.44-7.44-7.44s-7.44 3.338-7.44 7.44 3.338 7.44 7.44 7.44 7.44-3.338 7.44-7.44zm-4.96 0a2.483 2.483 0 0 1-2.48 2.48 2.482 2.482 0 0 1-2.48-2.48 2.482 2.482 0 0 1 2.48-2.48 2.483 2.483 0 0 1 2.48 2.48zm-133.24 7.44c-4.102 0-7.44-3.338-7.44-7.44s3.338-7.44 7.44-7.44 7.44 3.338 7.44 7.44-3.338 7.44-7.44 7.44zm0-9.92a2.482 2.482 0 0 0-2.48 2.48 2.482 2.482 0 0 0 2.48 2.48 2.483 2.483 0 0 0 2.48-2.48 2.483 2.483 0 0 0-2.48-2.48zm29.76-4.96c4.102 0 7.44 3.338 7.44 7.44s-3.338 7.44-7.44 7.44-7.44-3.338-7.44-7.44 3.338-7.44 7.44-7.44zm0 9.92a2.483 2.483 0 0 0 2.48-2.48 2.483 2.483 0 0 0-2.48-2.48 2.482 2.482 0 0 0-2.48 2.48 2.482 2.482 0 0 0 2.48 2.48z"/><path fill-rule="evenodd" clip-rule="evenodd" d="M195.932 210.16c-.116.81-.176 1.638-.176 2.48 0 4.856 2.008 9.245 5.235 12.4h-5.235V230h64.48v-4.96h-5.231a17.42 17.42 0 0 0 3.534-4.96h43.078a17.38 17.38 0 0 0 3.534 4.96h-25.075V230h69.44v-4.96H329.4a17.301 17.301 0 0 0 5.037-9.92h7.639c4.102 0 7.44-3.338 7.44-7.44V192.8c0-3.229-2.081-5.957-4.96-6.984V170.48c0-27.349-22.251-49.6-49.6-49.6v-7.44c0-4.102-3.338-7.44-7.44-7.44h-2.48v4.96h2.48a2.483 2.483 0 0 1 2.48 2.48v7.44h-14.88v4.96h-9.92v19.84h9.92v4.96h-9.92v44.56h-5.12v-82.56H87.196v82.56H87v5h.196v.04h4.96v-.04h7.863a17.31 17.31 0 0 0-5.263 12.44c0 4.856 2.008 9.245 5.235 12.4H84.756V230h93.48v-4.96h-24.231a17.301 17.301 0 0 0 5.037-9.92l.224-4.96h36.666zm32.064-6.416a17.58 17.58 0 0 1 2.807-3.544h-5.614a17.616 17.616 0 0 1 2.807 3.544zm-30.564 1.456a17.458 17.458 0 0 1 3.587-5h-22.063l.12.04H154a17.38 17.38 0 0 1 3.534 4.96h39.898zm-70.436-1.456a17.58 17.58 0 0 1 2.807-3.544h-5.614a17.616 17.616 0 0 1 2.807 3.544zm-34.84-8.544h162.96v-77.6H92.156v77.6zm108.56 17.44c0-6.837 5.562-12.4 12.4-12.4 6.837 0 12.4 5.563 12.4 12.4 0 6.837-5.563 12.4-12.4 12.4-6.838 0-12.4-5.563-12.4-12.4zm138.88-37.2v9.92h-24.8c-5.588 0-10.729 1.88-14.88 5.007V160.56h-4.96v-9.92h39.93a44.539 44.539 0 0 1 2.106 4.96h-9.796c-6.838 0-12.4 5.563-12.4 12.4v7.44h24.8zm-12.4-14.88h11.249c.729 3.197 1.151 6.508 1.151 9.92h-19.84V168c0-4.102 3.338-7.44 7.44-7.44zm-32.24 4.96v29.824c-2.153 2.875-3.718 6.213-4.459 9.856h-.501v-39.68h4.96zM255 200.24h25.076v-49.6h9.92v9.92h-4.96v44.64h-26.502a17.38 17.38 0 0 0-3.534-4.96zm25.076-64.48h9.92v9.92h-9.92v-9.92zm-4.96 59.52h-4.96V155.6h4.96v39.68zm-4.96-54.56v-9.92h4.96v9.92h-4.96zm9.92-9.92v-4.96h9.92v4.96h-9.92zm14.88-4.96c15.443 0 29.073 7.886 37.091 19.84h-37.091v-19.84zm44.64 64.48h2.48a2.483 2.483 0 0 1 2.48 2.48v2.48h-2.48a2.482 2.482 0 0 1-2.48-2.48v-2.48zm-9.92 22.32c0 6.837-5.563 12.4-12.4 12.4-6.838 0-12.4-5.563-12.4-12.4 0-6.837 5.562-12.4 12.4-12.4 6.837 0 12.4 5.563 12.4 12.4zm4.761-2.48c-1.21-8.397-8.434-14.88-17.161-14.88-9.573 0-17.36 7.79-17.36 17.36 0 .843.081 1.667.198 2.48h-5.158v-4.96c0-10.939 8.9-19.84 19.84-19.84h19.84v2.48c0 4.102 3.338 7.44 7.44 7.44h2.48v7.44a2.483 2.483 0 0 1-2.48 2.48h-7.639zm-44.441 4.96h-29.959c.117-.813.199-1.637.199-2.48s-.082-1.667-.199-2.48h29.959v4.96zm-47.12-14.88c6.837 0 12.4 5.563 12.4 12.4 0 6.837-5.563 12.4-12.4 12.4-6.838 0-12.4-5.563-12.4-12.4 0-6.837 5.562-12.4 12.4-12.4zm-14.88 21.296a17.56 17.56 0 0 0 2.755 3.504h-5.511a17.516 17.516 0 0 0 2.756-3.504zm-128.28-8.896c0-6.837 5.562-12.4 12.4-12.4 6.837 0 12.4 5.563 12.4 12.4 0 6.837-5.563 12.4-12.4 12.4-6.838 0-12.4-5.563-12.4-12.4zm42.16-12.4c6.837 0 12.4 5.563 12.4 12.4 0 6.837-5.563 12.4-12.4 12.4-6.838 0-12.4-5.563-12.4-12.4 0-6.837 5.562-12.4 12.4-12.4zm-14.88 21.296a17.56 17.56 0 0 0 2.755 3.504h-5.511a17.516 17.516 0 0 0 2.756-3.504z"/><path d="M275.116 230v-4.96h-9.92V230h9.92z"/></g><defs><clipPath id="cclip0"><path d="M0 0h350v230H0z"/></clipPath></defs></symbol><symbol viewBox="0 0 100 100" id="car-wash" xmlns="http://www.w3.org/2000/svg"><g clip-path="url(#dclip0)"><path fill-rule="evenodd" clip-rule="evenodd" d="M72.58 4.839h20.162c4.002 0 7.258 3.256 7.258 7.258v2.42H0v-2.42c0-4.002 3.256-7.258 7.258-7.258H27.42V0h3.226v4.839h38.71V0h3.226v4.839zM7.259 8.064c-1.65 0-3.073 1.613-3.695 3.226h92.874c-.622-1.613-2.045-3.226-3.695-3.226H7.258z"/><path d="M20.968 16.129h3.226v24.194h-3.226V16.129z"/><path fill-rule="evenodd" clip-rule="evenodd" d="M17.742 88.71a4.845 4.845 0 0 1 4.839-4.839 4.845 4.845 0 0 1 4.839 4.839 4.845 4.845 0 0 1-4.84 4.839 4.845 4.845 0 0 1-4.838-4.84zm3.226 0c0 .89.724 1.613 1.613 1.613.888 0 1.613-.723 1.613-1.613s-.724-1.613-1.613-1.613-1.613.722-1.613 1.613zm56.452-4.839a4.845 4.845 0 0 0-4.84 4.839 4.845 4.845 0 0 0 4.84 4.839 4.845 4.845 0 0 0 4.838-4.84 4.845 4.845 0 0 0-4.839-4.838zm0 6.452a1.614 1.614 0 0 1-1.614-1.613 1.614 1.614 0 1 1 1.613 1.613zm-50-27.936v3.742h24.193V50H36.266l-8.847 12.387zm20.967-9.161v9.677H31.015l6.913-9.677h10.459zM53.226 50v16.129H77.42v-3.742L68.573 50H53.226zm3.226 12.903v-9.677h10.46l6.912 9.677H56.452z"/><path d="M51.613 69.355h-4.839v3.226h4.839v-3.226z"/><path fill-rule="evenodd" clip-rule="evenodd" d="M87.494 61.339l6.447 1.613c2.796.472 6.059 4.017 6.059 8.016v14.516c0 2.206-.84 4.838-4.839 4.838h-6.58a11.274 11.274 0 0 1-3.276 6.452H100V100H22.58c-5.675 0-10.373-4.216-11.16-9.677H6.452C2.955 90.323 0 87.368 0 83.87V72.58c0-4.805 3.11-8.681 7.736-9.644l9.74-1.624c1.334-.268 2.439-1.026 3.887-2.694l7.97-11.169c2.119-2.716 4.501-3.901 7.764-3.901h30.645c3.262 0 5.644 1.185 7.723 3.845L83.57 58.74c1.36 1.553 2.299 2.187 3.923 2.599zm-72.978 27.37c0 4.447 3.618 8.065 8.065 8.065 4.447 0 8.064-3.617 8.064-8.064s-3.617-8.065-8.064-8.065-8.065 3.618-8.065 8.065zm19.226 1.613a11.274 11.274 0 0 1-3.276 6.452h39.068a11.256 11.256 0 0 1-3.276-6.452H33.742zm35.613-1.613c0 4.447 3.617 8.065 8.064 8.065s8.065-3.618 8.065-8.065c0-4.447-3.618-8.064-8.065-8.064-4.447 0-8.064 3.618-8.064 8.064zm25.806-1.612c1.387 0 1.613-.228 1.613-1.613V70.968c0-2.434-2.12-4.626-3.498-4.863l-6.571-1.639c-2.584-.653-4.083-1.911-5.665-3.73l-8.16-11.411c-1.443-1.844-2.848-2.55-5.138-2.55H37.097c-2.292 0-3.697.706-5.18 2.604l-8.023 11.236c-2.013 2.325-3.73 3.446-5.834 3.869l-9.73 1.622c-2.435.508-5.104 2.484-5.104 6.474h3.226c2.08 0 3.226 1.146 3.226 3.226v3.226H6.452v-3.226H3.226v8.065c0 1.718 1.508 3.226 3.226 3.226h4.968c.786-5.461 5.485-9.677 11.16-9.677 5.677 0 10.375 4.215 11.162 9.677h32.516c.787-5.461 5.486-9.677 11.161-9.677 5.676 0 10.374 4.215 11.161 9.677h6.581z"/><path d="M8.065 96.774h3.226V100H8.065v-3.226zm-3.226 0H1.613V100h3.226v-3.226zm8.064-80.645H9.677v30.645h3.226V16.13zm64.517 0h3.225v30.645H77.42V16.13zm14.516 0H88.71v30.645h3.226V16.13zm-59.678 0h3.226v24.194h-3.226V16.129zm14.516 6.451h-3.226v17.743h3.226V22.58zm8.065-6.451h3.226v17.742h-3.226V16.129zm14.516 0h-3.226v24.194h3.226V16.129zM24.194 50h-3.226v3.226h3.226V50zm64.516 0h3.226v3.226H88.71V50zm-75.807 0H9.677v3.226h3.226V50zm-3.226 6.452h3.226v3.226H9.677v-3.226zm82.259 0H88.71v3.226h3.226v-3.226zM54.839 37.097h3.226v3.226h-3.226v-3.226zm-30.645 6.451h-3.226v3.226h3.226v-3.226zM0 58.065h3.226v3.226H0v-3.226zm100 0h-3.226v3.226H100v-3.226zM43.548 16.129h3.226v3.226h-3.226v-3.226z"/></g><defs><clipPath id="dclip0"><path d="M0 0h100v100H0z"/></clipPath></defs></symbol><symbol viewBox="0 0 100 100" id="diagnostic" xmlns="http://www.w3.org/2000/svg"><g clip-path="url(#eclip0)"><path d="M30.516 13h9.677v3.226h-9.677V13zm-7.839 0H13v3.226h9.677V13zm27.839 0h3.226v3.226h-3.226V13zm-23 45.613H13v3.226h14.516v-3.226zM76 13.355h11.29v3.226H76v-3.226zM87 19h-5v3h5v-3zM76 58.613h11.29v3.226H76v-3.226zm-27.613 0H45.16v3.226h3.226v-3.226zm3.226 0h3.226v3.226h-3.226v-3.226zM59.742 13h-3.226v3.226h3.226V13z"/><path fill-rule="evenodd" clip-rule="evenodd" d="M77.647 24.729c.384-.01 1.603-.043 2.449 1.084a224.625 224.625 0 0 0 4.781 6.369c1.737 2.24 2.037 2.626 2.037 3.621v12.715a2.475 2.475 0 0 1-2.473 2.472h-3.059c-.465 3.109-3.152 5.5-6.388 5.5-3.236 0-5.923-2.391-6.388-5.5H54.54c-.466 3.109-3.153 5.5-6.389 5.5s-5.923-2.391-6.388-5.5h-7.814c-.466 3.109-3.153 5.5-6.389 5.5-3.235 0-5.923-2.391-6.388-5.5h-1.446v2.15c0 .736-.596 1.332-1.331 1.332h-4.063a1.332 1.332 0 1 1 0-2.663h2.73v-.819h-1.23A2.835 2.835 0 0 1 13 48.16v-3.4c0-.735.596-1.331 1.332-1.331h1.51V21.613A2.616 2.616 0 0 1 18.456 19h3.8a1.331 1.331 0 1 1 0 2.664h-3.75v21.765h40.683V21.663H27.581a1.332 1.332 0 1 1 0-2.663h31.658a2.616 2.616 0 0 1 2.613 2.613V43.43h2.222v-4.857a1.331 1.331 0 1 1 2.663 0v9.754h2.026c.75-2.738 3.258-4.757 6.23-4.757a6.468 6.468 0 0 1 6.23 4.757h3.026v-4.789h-.627a1.331 1.331 0 1 1 0-2.663h.627V39.69h-8.201a2.389 2.389 0 0 1-2.386-2.386v-9.913h-6.925v5.856a1.332 1.332 0 1 1-2.663 0V20.332c0-.814.724-1.436 1.528-1.317l7.043 1.195c2.425.36 4.348 2.205 4.89 4.518a.773.773 0 0 0 .112 0zM33.791 48.327a6.44 6.44 0 0 0-1.114-2.234h10.358a6.443 6.443 0 0 0-1.114 2.234h-8.13zm-6.23 5.5a3.801 3.801 0 0 1-3.79-4.032v-.002a3.801 3.801 0 0 1 3.79-3.56 3.8 3.8 0 0 1 3.788 3.56v.002a3.8 3.8 0 0 1-3.789 4.031zm-6.231-5.5h-5.498a.169.169 0 0 1-.168-.168v-2.066h6.78a6.436 6.436 0 0 0-1.114 2.234zm42.744-2.234v2.234h-9.692a6.44 6.44 0 0 0-1.114-2.234h10.806zm-15.923 7.733a3.801 3.801 0 0 1-3.789-4.03v-.003a3.801 3.801 0 0 1 3.79-3.56 3.8 3.8 0 0 1 3.788 3.56v.002a3.801 3.801 0 0 1-3.789 4.031zm26.843 0a3.801 3.801 0 0 1-3.797-3.796 3.801 3.801 0 0 1 3.797-3.797 3.8 3.8 0 0 1 3.796 3.797 3.8 3.8 0 0 1-3.796 3.796zm-2.74-30.982a3.27 3.27 0 0 1 2.483 1.884h-8v-2.852l5.517.968zm4.071 14.183v-9.636h1.6a.05.05 0 0 1 .04.02l6.275 8.362c.006.009.01.02.01.03v1.224h-7.925z"/><path d="M23.78 41.628c.736 0 1.332-.596 1.332-1.331V25.794a1.332 1.332 0 1 0-2.663 0v14.503c0 .735.596 1.331 1.331 1.331zm11.866-15.834v14.503a1.332 1.332 0 1 1-2.664 0V25.794a1.332 1.332 0 1 1 2.664 0zm9.067 14.503V25.794a1.332 1.332 0 1 0-2.664 0v14.503a1.332 1.332 0 1 0 2.664 0zm10.533-14.503v14.503a1.332 1.332 0 1 1-2.663 0V25.794a1.332 1.332 0 1 1 2.663 0z"/><path fill-rule="evenodd" clip-rule="evenodd" d="M93.548 6.903H6.452V67.29h87.096V6.903zm-3.226 57.161H9.677V10.13h80.645v53.935z"/><path fill-rule="evenodd" clip-rule="evenodd" d="M43.548 75.194v7.064H11.29v3.226h77.42v-3.226H56.45v-7.064h38.71a4.845 4.845 0 0 0 4.839-4.84V4.84A4.845 4.845 0 0 0 95.16 0H4.84A4.845 4.845 0 0 0 0 4.839v65.516a4.845 4.845 0 0 0 4.839 4.838h38.71zm9.678 7.064h-6.452v-7.065h6.452v7.065zm-50-11.903V4.839c0-.889.724-1.613 1.613-1.613H95.16c.889 0 1.613.724 1.613 1.613v65.516c0 .89-.724 1.613-1.613 1.613H4.839a1.614 1.614 0 0 1-1.613-1.613zM77.42 98.387c0-6.224 5.064-11.29 11.29-11.29 6.225 0 11.29 5.066 11.29 11.29V100H77.42v-1.613zm11.29-8.065c-3.894 0-7.154 2.776-7.902 6.452H96.61c-.748-3.676-4.008-6.452-7.901-6.452zM1.613 91.935h4.839v4.84h-4.84V100h72.581V88.71H1.613v3.225zm64.516 0h4.839v4.839h-4.84v-4.839zm-8.065 0h4.84v4.84h-4.84v-4.84zm-8.064 0h4.839v4.839h-4.84v-4.839zm-8.065 0h4.84v4.839h-4.84v-4.839zm-8.064 0h4.839v4.839h-4.84v-4.839zm-8.065 0h4.839v4.839h-4.839v-4.839zm-8.064 0h4.839v4.839h-4.84v-4.839zm-8.065 0h4.839v4.84H9.677v-4.84z"/></g><defs><clipPath id="eclip0"><path d="M0 0h100v100H0z"/></clipPath></defs></symbol><symbol viewBox="0 0 100 100" id="inspection" xmlns="http://www.w3.org/2000/svg"><g clip-path="url(#fclip0)"><path fill-rule="evenodd" clip-rule="evenodd" d="M30.645 20.968c0 5.337-4.34 9.677-9.677 9.677s-9.678-4.34-9.678-9.677 4.341-9.678 9.678-9.678c5.337 0 9.677 4.34 9.677 9.678zm-3.225 0a6.458 6.458 0 0 0-6.452-6.452 6.459 6.459 0 0 0-6.452 6.452 6.458 6.458 0 0 0 6.452 6.451 6.458 6.458 0 0 0 6.452-6.451z"/><path d="M25.806 33.87H12.903v3.227h12.903V33.87z"/><path fill-rule="evenodd" clip-rule="evenodd" d="M14.516 46.774h11.29v11.29h-11.29v-11.29zm3.226 8.065h4.839v-4.84h-4.84v4.84zm-3.226 19.354h11.29v-11.29h-11.29v11.29zm3.226-8.064h4.839v4.839h-4.84v-4.84zm25.806-19.355h11.29v11.29h-11.29v-11.29zm3.226 8.065h4.839v-4.84h-4.839v4.84z"/><path d="M64.516 16.129h-22.58v3.226h22.58v-3.226zm-22.58 9.677h29.032v3.226H41.936v-3.226zm29.032 9.678H41.936v3.226h29.032v-3.226zM29.032 48.387h8.065v3.226h-8.065v-3.226zm8.065 6.452h-8.065v3.226h8.065v-3.226zm20.968-6.452h8.064v3.226h-8.064v-3.226zm8.065 6.452h-8.065v3.226h8.064v-3.226zM29.032 67.742h8.065v3.226h-8.065v-3.226zm14.516 12.903H14.516v3.226h29.032v-3.226zm-29.032 6.452h29.032v3.225H14.516v-3.225zM32.258 33.87h-3.226v3.227h3.226V33.87zm38.71 56.452h3.225v3.226h-3.225v-3.226zm-3.226 0h-3.226v3.226h3.226v-3.226zm-61.29 0h3.226v3.226H6.452v-3.226z"/><path fill-rule="evenodd" clip-rule="evenodd" d="M89.459 37.291a6.137 6.137 0 0 1 4.366-1.807A6.182 6.182 0 0 1 100 41.657a6.123 6.123 0 0 1-1.81 4.366L80.646 63.571v31.59A4.845 4.845 0 0 1 75.807 100H4.84A4.845 4.845 0 0 1 0 95.161V4.84A4.845 4.845 0 0 1 4.84 0h70.967a4.845 4.845 0 0 1 4.839 4.84v3.1a13.027 13.027 0 0 0 1.613-6.327h3.226c0 7.837 5.064 12.903 12.903 12.903v3.226c-7.123 0-12.903 8.784-12.903 14.516h-3.226c0-2.215-.584-4.51-1.613-6.608v20.456l8.813-8.815zm2.11-20.802c-3.548-1.434-6.258-4.034-7.816-7.49a15.818 15.818 0 0 1-7.601 7.295c3.432 1.86 6.266 5.043 7.879 8.86 1.608-3.414 4.232-6.675 7.538-8.665zM77.42 95.16V66.797L60.6 83.619l-15.283 6.55 6.55-15.284.692-.692h-9.01v-11.29h11.29v9.01l22.581-22.58v-28.13c-2.176-2.089-4.952-3.461-8.064-3.461v-3.226c3.079 0 5.87-1.034 8.064-2.77V4.838c0-.89-.724-1.613-1.613-1.613H4.84c-.889 0-1.613.722-1.613 1.613V95.16c0 .89.724 1.613 1.613 1.613h70.967c.889 0 1.613-.723 1.613-1.613zM51.46 84.024l5.394-2.311-3.083-3.082-2.311 5.393zm.154-13.056v-4.84h-4.838v4.84h4.838zm3.894 4.838l4.171 4.171 28.365-28.364-4.171-4.171-28.365 28.364zm34.816-26.474l5.587-5.589c.55-.55.865-1.308.865-2.085a2.952 2.952 0 0 0-2.95-2.948c-.788 0-1.528.306-2.086.864l-5.587 5.587 4.171 4.171z"/></g><defs><clipPath id="fclip0"><path d="M0 0h100v100H0z"/></clipPath></defs></symbol><symbol viewBox="0 0 120 120" id="logo-ataman" xmlns="http://www.w3.org/2000/svg"><path d="M38.309 12.193c-1.163 1.079-2.012 2.473-2.549 4.092-.492 1.663-.76 3.552-.76 5.71V54.46c0 .315.268.54.536.54h10.15c1.476 0 2.951-.315 4.337-.854l23.25-8.23c.313-.134.671.136.671.495v8.094c0 .315.268.54.537.54h11.983c.312 0 .536-.27.536-.54V30.09c0-.36-.358-.63-.715-.495L48.637 43.58a.527.527 0 0 1-.715-.495V26.627c0-1.125.09-2.114.357-2.968a4.958 4.958 0 0 1 1.297-2.248c.626-.63 1.43-1.125 2.46-1.44 1.028-.314 2.324-.494 3.89-.494h10.06c1.564 0 2.86.18 3.89.495 1.028.314 1.832.809 2.459 1.439.625.63 1.028 1.393 1.296 2.248.224.854.358 1.843.358 2.968v2.608c0 .36.358.63.715.494l11.894-4.721a.553.553 0 0 0 .313-.495V22.31c0-2.248-.224-4.182-.76-5.846-.492-1.663-1.342-3.057-2.55-4.136-1.162-1.08-2.727-1.934-4.694-2.474C76.94 9.27 74.525 9 71.664 9H50.202c-2.861 0-5.231.27-7.199.764-1.967.54-3.487 1.35-4.694 2.429zm81.655 56.984c0-.733-.163-1.06-.896-1.14-.593-.067-3.101-.026-4.214-.008h-.002l-.511.007c-.815.082-.979.326-.979 1.06 0 .573 0 9.943-.08 11.654-.082 2.445-.897 2.77-2.037 3.097-1.142.326-4.972.244-5.462.163-1.466-.163-2.445-.815-2.445-3.179V69.177c0-.733-.326-.978-.977-1.06-.133 0-.425-.004-.804-.01-1.252-.018-3.46-.052-4.086.01-.935.079-.976.455-1.05 1.129l-.01.094-.005 1.37c-.015 3.242-.049 10.568.087 11.996.326 3.993 2.283 5.704 5.786 5.949 3.178.244 10.757.326 13.04-.245 3.667-.896 4.482-3.748 4.645-7.416.065-1.567.026-7.63.007-10.442l-.007-1.375zm-62.51-1.059c.407-.082 4.32-.082 4.971 0 .734.081.896.407.896 1.14.082 2.038 0 10.514-.08 12.877-.082 3.504-1.467 6.112-6.357 6.438-2.69.245-8.72.163-10.106.082-.134-.01-.278-.019-.43-.028-2.339-.142-6.584-.4-6.66-6.98-.068-4.497-.023-9.79-.006-11.74v-.001l.006-.729c0-.896.489-1.06.978-1.06h4.727c.896.082.978.49.978 1.223v10.513c0 3.097.489 3.912 3.015 4.157a35.58 35.58 0 0 0 4.157 0c2.689-.163 3.015-1.63 3.015-3.83V69.176c0-.896.407-.978.896-1.06zm34.311 2.689c-.815-1.874-2.364-2.608-5.705-2.69-2.238-.071-13.803-.016-16.65-.002l-.627.003c-.978 0-1.06.407-1.06 1.304v2.608c.082.733.57.815 1.06.815l4.525-.025h.033c4.264-.024 10.063-.057 10.681-.057.489 0 .652.163.652.407 0 .245-.082.408-.49.571-1.64.743-3.692 1.65-5.723 2.549h-.002c-3.314 1.466-6.57 2.906-7.883 3.563-3.097 1.549-3.83 3.26-3.668 5.053.163 1.956 1.385 3.749 5.787 3.83 3.83.163 14.914 0 17.685-.081.978 0 1.058-.408 1.14-1.06v-2.037c0-1.223-.162-1.548-1.222-1.548-.203 0-1.027.015-2.2.036-3.55.065-10.284.188-12.552.127-.488 0-.652-.245-.488-.571.082-.163.407-.326 1.058-.651h.002c.275-.121.601-.263.968-.422 3.1-1.347 9.109-3.96 12.315-5.854 2.2-1.222 3.422-3.423 2.364-5.868zM6.03 68.2c-.407-.082-4.482-.082-5.134 0-.652 0-.896.325-.896.977v18.826c0 .754.488.81 1.077.879l.145.017H5.95c.897-.081.978-.57.978-1.303V69.177c-.081-.652-.244-.978-.896-.978zm32.147 31.015c.041-.04.102-.061.163-.082a.411.411 0 0 0 .164-.081 1.51 1.51 0 0 0 .57-.653l.082-.163c.163-.408.327-.897.49-1.468l.326-.816h-.082v-.081l-13.623.081H24.88l-1.06 3.263h5.22l-3.67 10.687-.245.652h4.079l3.344-9.544.653-1.795h4.976z"/><path fill-rule="evenodd" clip-rule="evenodd" d="M47.395 95.952h7.588c2.854.082 3.181 1.795 2.61 3.67l-3.835 11.014H49.68l1.958-5.71h-6.934l-1.958 5.71h-4.08l3.917-11.176c.57-1.713 2.447-3.508 4.813-3.508zm5.711 4.731c.244-.815-.327-1.468-1.224-1.55h-3.508c-.979 0-1.876.735-2.202 1.55l-.326.816h6.933l.327-.816zm36.546-4.731h7.587c2.855.082 3.181 1.795 2.61 3.67l-3.833 11.014h-4.08l1.958-5.71H86.96l-1.958 5.71h-4.079l3.916-11.176c.572-1.713 2.448-3.508 4.813-3.508zm5.71 4.731c.245-.815-.325-1.468-1.223-1.55h-3.508c-.98 0-1.877.735-2.203 1.55l-.325.816h6.934l.325-.816z"/><path d="M66.403 95.952c-2.366 0-4.242 1.795-4.814 3.426l-3.914 11.176h4.078l.652-1.876 1.306-3.834 1.142-3.263.326-.816c.327-.816 1.224-1.55 2.203-1.55h1.795l-3.917 11.339h4.079l3.916-11.339h1.713c.897 0 1.469.734 1.225 1.55l-.328.897-1.141 3.264-1.714 5.057-.244.653h4.078l3.835-11.013c.571-1.795.244-3.59-2.611-3.671H66.403z"/><path fill-rule="evenodd" clip-rule="evenodd" d="M9.789 95.952h7.586c2.855.082 3.182 1.795 2.61 3.67l-3.833 11.014h-4.08l1.959-5.71H7.097l-1.958 5.71h-4.08l3.835-11.258c.653-1.631 2.447-3.426 4.895-3.426zm5.71 4.731c.245-.815-.326-1.468-1.224-1.55h-3.507c-.98 0-1.877.735-2.203 1.55l-.326.816h6.934l.326-.816z"/><path d="M99.93 110.554h4.079l2.937-8.484 3.997 8.403h3.998l5.058-14.602h-4.08l-2.936 8.402-3.997-8.402h-4.08l-4.975 14.683zM33.167 79.283c3.423 1.874 3.178 5.541 1.875 7.334-1.223 1.549-2.934 2.12-6.031 2.2-1.956.082-11.165.082-16.544 0-.896 0-1.06-.325-1.06-1.222v-2.2c.082-.896.245-1.222 1.142-1.222.346 0 2.828.029 5.68.063h.039c3.848.046 8.354.1 9.194.1.57 0 1.06 0 1.141-.245.163-.326.082-.652-.896-.978a307.631 307.631 0 0 0-6.238-2.206h-.001l-.003-.001c-3.673-1.269-6.805-2.35-8.02-3.09-1.956-1.223-2.77-3.179-2.445-5.216.326-2.119 1.549-4.156 5.95-4.32 3.304-.14 12.98-.099 16.253-.085l1.024.004c.896 0 1.06.326 1.06 1.141l.006.269v.001c.017.635.06 2.153-.007 2.42-.081.733-.407.896-1.14.896-12.633-.082-14.67-.082-14.915-.082-.244 0-.815 0-.896.408-.082.326.081.57.652.815.835.353 2.91 1.074 5.239 1.882 3.579 1.242 7.756 2.692 8.941 3.334z"/></symbol><symbol viewBox="0 0 120 120" id="logo-bogdan" xmlns="http://www.w3.org/2000/svg"><path fill-rule="evenodd" clip-rule="evenodd" d="M55.008 84h9.869c-.267-6.907-.324-11.992 1.15-16.316.985-2.89 2.834-5.973 5.653-8.254 1.132-.916 3.77-2.591 5.854-2.77.734-.062 1.786-.133 1.906.467.12.6-1.408 3.557-3.1 5.272-2.231 2.262-4.285 3.749-5.43 4.579-.229.165-.421.304-.572.418 14.308-1.084 31.11-6.138 35.354-15.836 5.227-11.942-6.382-19.1-14.18-22.266-2.254-.915-5.557-2.16-7.952-2.4-2.016-.201-2.014.24-2.012.55v.027c0 .135.781.52 1.56.905.461.228.923.456 1.218.63a59.5 59.5 0 0 1 6.611 4.511c1.445 1.14 3.002 2.77 4.024 4.319 5.83 8.83-2.802 14.693-9.964 16.7l-3.353-5.183.479-4.99c.062-5.33-.347-10.028-2.3-13.341-2.227-3.78-5.689-6.292-9.151-8.805-4.408-3.2-8.816-6.4-10.681-12.214-.064-.032-.368.176-.575.672-1.402 3.593-3.604 7.197-7.665 9.79-4.31 2.75-8.974 6.247-11.401 10.077-2.106 3.322-2.599 7.856-2.587 13.34l.479 5.471-3.162 4.99c-.842.318-2.274-.415-3.337-.959A15.627 15.627 0 0 0 30.96 53c-3.53-1.543-9.24-5.351-7.76-11.325 1.493-6.034 9.403-11.48 13.892-13.436 1.15-.473 1.341-.608 1.245-1.056-1.973-.97-7.584 1.142-9.485 1.92-6.548 2.676-16.596 7.775-15.808 18.139.881 11.605 16.985 16.679 25.485 18.523 3.277.71 7.428 1.412 11.018 1.631 0-.016-.24-.176-.479-.336-.24-.16-.479-.32-.479-.335-2.148-1.524-4.316-3.223-6.323-5.951-.493-.67-1.971-2.693-1.725-3.647.016-.048.104-.144.192-.24.088-.096.175-.192.191-.24 2.967-.33 7.187 2.419 8.528 3.84 1.463 1.55 3.403 4.136 4.503 7.581 1.139 3.57 1.36 8.695 1.053 15.932zm0-55.953a18.717 18.717 0 0 1 4.791-.768c10.37.072 18.405 10.038 14.755 21.114-1.86 5.647-7.49 10.62-14.66 10.557C49.5 58.861 41.59 47.793 45.429 37.548c1.66-4.434 5.059-7.914 9.58-9.502zM30.231 94.014l-.951.006c-3.764.022-6.148 1.377-6.72 4.56a319.963 319.963 0 0 0-1.08 6.36l-.001.007c-.285 1.805-.491 3.109.361 4.553.363.615 1.55 1.816 3.72 1.8 2.534-.021 5.954-.022 8.64 0 1.996.015 3.634-.232 5.04-1.44a5.75 5.75 0 0 1 .178-.146c.52-.414 1.112-.885 1.502-3.574.339-2.337.566-3.996.84-6.48.017-.156.036-.309.055-.462.146-1.165.284-2.278-.535-3.738-.464-.828-2.536-1.423-4.08-1.44a367.209 367.209 0 0 0-6.969-.006zM25.92 99.06c.72-1.68 2.88-1.72 4.08-1.68 2.84-.035 4.1-.05 5.76 0 1.471.099 2.767.377 2.488 2.92a74.953 74.953 0 0 1-.634 4.492c-.268 1.537-.752 2.911-2.137 2.886-1.277.032-4.87.041-8.052.012-1.027-.01-1.743-.108-2.225-.59-.46-.518-.4-1.038-.303-1.883.026-.222.054-.466.076-.739.145-1.777.475-3.232.71-4.273.107-.469.194-.853.237-1.145zm71.76 12.36l3.12-17.28c-3.396-.046-8.627-.032-12.6 0-1.919.015-3.146.695-4.08 1.92-.682.893-.956 2.528-1.435 5.375l-.125.745c0 .08-1.08 5.28-1.08 5.28h-3.6s1.72-9 2.52-13.44h-6.24c-1.44.02-2.729.04-4.018.06-1.291.02-2.581.04-4.022.06-2.133.105-4.662 2.547-5.04 4.92-.493 3.092-1.44 8.16-1.44 8.16H55.2l-.72 4.2h29.88l1.2-6.96 9.36.12-1.2 6.84h3.96zm-23.4-4.08H63.24s.613-4.771 1.2-6.84c.52-2.552 1.16-2.68 2.76-2.76h8.76c-.56 3.159-1.68 9.6-1.68 9.6zm19.414-6.356c-2.534.007-6.175.016-7.294-.004.023-1.495.784-3.408 2.64-3.24h7.44c-.08.48-.16 1.05-.24 1.62-.08.57-.16 1.14-.24 1.62-.418-.001-1.27.001-2.306.004z"/><path d="M116.28 94.02l-1.2 6.84h-9.72l1.08-6.84h-3.48l-3.12 17.4h3.36l1.44-6.84h9.6l-1.2 6.84H117l3-17.4h-3.72z"/><path fill-rule="evenodd" clip-rule="evenodd" d="M18.12 97.5l.84-3.36s-7.843.026-11.16 0c-3.445-.027-5.187 2.117-5.816 5.834-.249 1.47-.545 3.053-.836 4.61C.68 107.083.225 109.515 0 111.3c3.769.051 8.694.04 12.72 0 3.616-.038 4.938-1.041 5.76-2.88.726-1.625.893-3.074.72-4.08-.35-2.028-2.195-3.48-5.04-3.48l-2.713.001c-1.841.001-3.713.002-5.687-.001.162-1.281.658-3.364 2.16-3.36 3.6-.04 10.2 0 10.2 0zm-8.815 10.33c-1.752.012-3.506.024-4.865-.011.12-1.04.38-2.34.6-3.36 1.152.04 2.54.041 3.963.042 1.755.002 3.562.003 5.037.078 1.46-.02 1.94.9 1.8 1.68-.134 1.372-1.457 1.564-3.6 1.56-.928-.002-1.931.004-2.935.011z"/><path d="M60.48 94.14h-11.4c-2.465.09-4.297 1.935-5.04 4.32 0 .006-.055.268-.149.716-.462 2.206-1.872 8.939-2.371 12.124.68.019 1.33.01 1.98 0 .65-.01 1.3-.02 1.98 0 .199-1.023.4-2.225.624-3.56.325-1.939.697-4.159 1.176-6.52.115-.565.667-2.537 1.32-3 .707-.503 1.511-.495 2.705-.483.276.003.573.006.895.003 2.448-.024 5.394-.009 6.873-.001h.207c.18-.62.39-1.21.6-1.8.21-.59.42-1.18.6-1.8z"/></symbol><symbol viewBox="0 0 120 120" id="logo-hyundai" xmlns="http://www.w3.org/2000/svg"><g clip-path="url(#iclip0)"><path fill-rule="evenodd" clip-rule="evenodd" d="M92.64 17.138c6.041 3.306 12.879 9.12 12.166 16.87-.829 7.182-7.524 12.196-13.506 15.217-17.47 8.35-42.003 8.605-60.04 1.31-6.095-2.537-12.936-6.898-15.5-13.45-1.963-5.386.428-10.997 4.448-14.73 8.406-7.638 19.12-10.258 30.147-11.77 11.968-1.453 24.563-.17 35.277 3.505 2.394.886 4.756 1.854 7.007 3.048zM67.055 46.75c1.437-2.623 2.931-5.353 2.304-8.581-.454-1.197-1.738-2.08-3.018-2.248-3.09-.4-6.017.447-8.77 1.243l-.034.01-.98.328h-.002c-7.086 2.367-14.2 4.742-20.219 9.617-.285.256-.487.627-.345 1.025.187.282.472.486.8.57a80.537 80.537 0 0 0 21.94 3.363c3.392.338 6.21-1.94 7.922-4.59.132-.245.267-.49.402-.737zm33.904-12.03c1.084-4.785-2.11-8.748-5.641-11.653-.259-.173-.51-.366-.763-.56-.746-.572-1.499-1.15-2.46-1.234a1.516 1.516 0 0 0-.627.428c-1.366 3.02-2.849 6.098-4.444 9.09-3.449 6.638-7.382 13.191-12.565 19.034l-.086.398c.046.28.305.293.523.303.047.002.093.004.133.009 3.569-.334 6.864-1.433 10.126-2.52l.218-.073c6.125-2.391 13.818-6.155 15.586-13.222zM45.48 15.97l.116-.427c-.174-.323-.592-.32-.958-.316h-.15a54.905 54.905 0 0 0-10.913 2.965c-5.873 2.477-12.91 6.129-14.648 12.966-1.084 5.243 2.677 9.66 6.835 12.396.22.099.444.252.672.407.628.428 1.282.874 1.951.247 4.673-9.83 9.6-19.718 17.095-28.238zm37.673 1.11a4.33 4.33 0 0 1-.373-.168c-7.15-1.996-14.674-3.19-22.656-3.137-3.704.056-6.38 3.505-7.892 6.44-1.14 2.335-2.45 5.127-1.483 7.806a3.634 3.634 0 0 0 2.252 1.712c3.068.672 5.909-.137 8.686-.928.756-.215 1.508-.429 2.258-.611 6.897-2.252 13.649-4.815 19.548-9.431.049-.06.105-.12.162-.18.243-.258.508-.54.323-.931-.184-.308-.502-.439-.825-.572z"/><path d="M3.783 65.181H.013v17.344h3.77v-7.08h8.436v7.08h3.77V65.18h-3.77v6.835H3.783V65.18zm23.395 7.087l-4.725-7.087h-4.58l7.418 11.086v6.258h3.77v-6.258l7.366-11.086h-4.58l-4.669 7.087zm30.412-7.087h12.151c1.731 0 3.41.242 3.36 3.747v13.6H69.33V70.175c0-1.495-.18-1.81-1.35-1.81h-6.619v14.163h-3.77V65.181zm62.398.003h-3.771v17.344h3.771V65.184zM38.307 82.525h12.154c2.418 0 3.409-.7 3.36-4.185V65.18H50.05v12.38c0 1.485-.18 1.664-1.353 1.664h-6.62V65.181h-3.77v17.344z"/><path fill-rule="evenodd" clip-rule="evenodd" d="M92.533 68.928v9.385c0 2.988-1.678 4.215-3.77 4.215H76.87V65.184h11.892c3.213-.003 3.77 2.037 3.77 3.744zM88.72 69.97c0-.949-.577-1.605-1.592-1.605h-6.483v10.84h6.483c1.479-.076 1.592-.961 1.592-1.664V69.97zm23.727-4.789v17.347h-3.771v-4.987h-8.602v4.987h-3.77v-13.6c0-2.404.971-3.747 3.77-3.747h12.373zm-3.767 3.187h-7.084c-1.19.07-1.518.365-1.518 1.81v3.977h8.602v-5.787z"/><path d="M48.746 107.849l1.834-1.735 3.647 4.515h2.997l-4.81-6.112 4.396-4.416h-2.957l-5.107 4.732V96h-2.464v14.629h2.464v-2.78zM4.65 98.997H.076v-2.169h11.711v2.169H7.213v11.632H4.65V98.997zm10.92 2.642c.71-1.104 1.958-1.656 3.746-1.656v2.346a3.077 3.077 0 0 0-.572-.059c-.96 0-1.709.282-2.248.847-.538.552-.808 1.354-.808 2.406v5.106h-2.464v-10.528h2.346v1.538zm16.126 8.99v-10.528H29.23v5.323c0 1.025-.263 1.814-.789 2.366-.512.539-1.209.808-2.09.808-.788 0-1.4-.23-1.833-.69-.42-.473-.63-1.183-.63-2.129v-5.678h-2.465v6.013c0 1.538.4 2.701 1.202 3.49.815.775 1.926 1.163 3.332 1.163.684 0 1.321-.125 1.913-.375a4.019 4.019 0 0 0 1.478-1.104v1.341h2.347zm8.057.138c-1.091 0-2.07-.23-2.938-.69a5.093 5.093 0 0 1-2.03-1.912c-.487-.829-.73-1.762-.73-2.8 0-1.038.243-1.965.73-2.78a5.12 5.12 0 0 1 2.01-1.912c.868-.46 1.854-.69 2.958-.69 1.038 0 1.945.21 2.72.63a4.087 4.087 0 0 1 1.775 1.814l-1.893 1.104c-.302-.486-.683-.847-1.143-1.084a2.977 2.977 0 0 0-1.48-.375c-.92 0-1.681.303-2.286.907-.605.592-.907 1.387-.907 2.386 0 .999.296 1.801.887 2.405.605.592 1.374.887 2.307.887.539 0 1.032-.118 1.479-.354a3.06 3.06 0 0 0 1.143-1.105l1.893 1.105a4.315 4.315 0 0 1-1.794 1.833c-.776.421-1.676.631-2.701.631z"/><path fill-rule="evenodd" clip-rule="evenodd" d="M74.852 110.846l-1.735-1.676c-1.288 1.104-2.833 1.656-4.633 1.656-.96 0-1.82-.158-2.583-.473-.762-.316-1.36-.749-1.794-1.301a3.061 3.061 0 0 1-.65-1.913c0-.854.249-1.603.748-2.247.5-.657 1.315-1.302 2.445-1.932-.552-.552-.946-1.065-1.183-1.538a3.392 3.392 0 0 1-.355-1.499c0-.972.362-1.754 1.085-2.346.736-.604 1.708-.907 2.918-.907 1.117 0 2.01.276 2.681.828.67.54 1.005 1.275 1.005 2.209 0 .709-.223 1.34-.67 1.892-.434.552-1.15 1.111-2.149 1.676l2.977 2.839c.329-.644.585-1.419.77-2.326l1.99.65c-.262 1.223-.676 2.274-1.242 3.155l1.735 1.656-1.36 1.597zm-5.737-12.421c-.54 0-.966.138-1.282.414-.315.263-.473.611-.473 1.045 0 .315.085.618.256.907.171.276.5.657.986 1.143.789-.433 1.334-.808 1.636-1.123.316-.329.474-.684.474-1.065 0-.407-.145-.73-.434-.966-.276-.237-.664-.355-1.163-.355zm-.454 10.39c1.144 0 2.143-.348 2.997-1.045l-3.647-3.489c-.789.433-1.348.854-1.676 1.261a2.092 2.092 0 0 0-.473 1.341c0 .578.256 1.045.769 1.4.512.355 1.189.532 2.03.532zm26.802-4.101c-.447-.591-1.051-1.012-1.814-1.262a3.235 3.235 0 0 0 1.301-1.222c.316-.526.474-1.13.474-1.814 0-1.117-.44-1.991-1.321-2.622-.881-.644-2.136-.966-3.766-.966H83.87v13.801h6.861c1.762 0 3.102-.322 4.022-.966.92-.657 1.38-1.584 1.38-2.78 0-.867-.223-1.59-.67-2.169zm-9.03-2.07v-3.805h3.628c.894 0 1.577.164 2.05.493.487.315.73.789.73 1.419 0 .618-.243 1.091-.73 1.42-.473.315-1.156.473-2.05.473h-3.628zm7.117 3.983c0 1.327-.992 1.991-2.977 1.991h-4.14v-3.983h4.14c1.985 0 2.978.664 2.978 1.992z"/><path d="M108.825 110.629h-2.346v-1.341a4.013 4.013 0 0 1-1.479 1.104 4.86 4.86 0 0 1-1.912.375c-1.407 0-2.517-.388-3.332-1.163-.802-.789-1.203-1.952-1.203-3.49v-6.013h2.465v5.678c0 .946.21 1.656.631 2.129.433.46 1.044.69 1.833.69.881 0 1.577-.269 2.09-.808.526-.552.789-1.341.789-2.366v-5.323h2.464v10.528zm3.976-.197a9.442 9.442 0 0 0 2.504.335c1.472 0 2.635-.296 3.489-.887.855-.592 1.282-1.38 1.282-2.366 0-.749-.197-1.328-.591-1.735a3.174 3.174 0 0 0-1.381-.868c-.538-.17-1.229-.322-2.07-.453-.841-.145-1.465-.296-1.873-.453-.394-.171-.591-.454-.591-.848 0-.355.184-.638.552-.848.381-.223.933-.335 1.656-.335 1.117 0 2.123.263 3.016.788l.947-1.873c-.46-.276-1.052-.492-1.775-.65a9.38 9.38 0 0 0-2.168-.257c-1.42 0-2.55.303-3.391.907-.828.592-1.242 1.387-1.242 2.386 0 .762.197 1.36.591 1.794.407.421.881.716 1.42.887.552.171 1.261.322 2.129.454.828.131 1.426.269 1.794.414.381.144.572.401.572.769 0 .775-.736 1.163-2.208 1.163a7.43 7.43 0 0 1-1.972-.276 6.335 6.335 0 0 1-1.696-.769l-.946 1.873c.486.342 1.137.624 1.952.848zM120 89H0v2h120v-2z"/></g><defs><clipPath id="iclip0"><path d="M0 0h120v120H0z"/></clipPath></defs></symbol><symbol viewBox="0 0 120 120" id="logo-isuzutruck" xmlns="http://www.w3.org/2000/svg"><path d="M87.855 36.224v14.804h-11.62V23.365l10.054 9.734c.968.825 1.566 1.895 1.566 3.125zm2.735 0c0-1.23.598-2.3 1.567-3.125l10.055-9.734v27.663h-11.62l-.002-14.804z"/><path fill-rule="evenodd" clip-rule="evenodd" d="M102.38 56.249c-15.257 11.11-33.71 11.724-41.212 1.369-7.504-10.354-1.22-27.756 14.037-38.867 15.254-11.11 33.707-11.724 41.212-1.37 7.503 10.355 1.219 27.757-14.037 38.868zm9.568-35.293c7.138 9.682 2.555 24.938-10.233 34.075-12.791 9.137-28.945 8.696-36.083-.985-7.136-9.682-2.553-24.937 10.236-34.075 12.788-9.138 28.944-8.697 36.08.985z"/><path d="M95.1 109.087c-3.753-2.119-3.839-6.819-.018-8.989 1.804-1.025 3.93-1.298 4.616-1.298 1.26 0 3.648.332 4.71.665v2.262c-1.327-.4-3.383-.466-4.71-.466-.685 0-1.635.319-2.395.92-1.651 1.308-1.651 3.497-.01 4.805.76.606 1.715.927 2.404.927 1.327 0 3.382-.066 4.71-.465v2.263c-1.061.331-3.449.664-4.71.664-.681 0-2.797-.271-4.598-1.288zM51.06 99h10.086v2.261h-3.185v8.915h-3.716v-8.915H51.06V99zm38.747 6.685c0 1.444-.634 2.508-.741 2.665-2.182 3.202-9.224 3.063-11.23-.063-.446-.695-.697-1.557-.697-2.602V99h3.713l-.007 7.418c0 2.98 5.255 2.98 5.255 0V99h3.71l-.003 6.685zM110.876 99h-3.714v11.176h3.714v-5.052l4.645 5.052H120l-5.374-5.787 5.11-5.39h-4.248l-4.612 4.787V99z"/><path fill-rule="evenodd" clip-rule="evenodd" d="M67.051 110.176h-3.714V99l7.664.02c1.93 0 3.495 1.303 3.495 3.24 0 1.162-.856 2.238-2.01 2.914l2.794 5.002h-3.45l-2.257-4.125h-2.522v4.125zm2.618-6.357l-2.621-.01v-2.578h2.62c1.707 0 1.707 2.588 0 2.588z"/><path d="M45.288 71.858c.7 0 1.045.323 1.045 1.04v11.306c0 1.874.457 2.982 3.015 3.064.592.02 1.508.03 2.295.03.788 0 1.88-.01 2.472-.03 2.558-.082 2.839-1.19 2.839-3.064l.001-11.305c0-.708.305-1.044 1.048-1.044l3.945.003c.722 0 1.039.34 1.039 1.05v12.246c0 3.288-.545 6.509-6.795 6.615-2.149.036-4.55.06-4.55.06s-2.553-.035-4.701-.06c-5.897-.071-6.607-3.469-6.607-6.615l-.002-12.255c0-.7.314-1.04 1.034-1.04h3.922zM4.944 91.788c.72 0 1.042-.363 1.042-1.054V72.908c0-.717-.349-1.05-1.051-1.05H1.05c-.718 0-1.051.35-1.051 1.05v17.836c0 .698.35 1.044 1.05 1.044h3.894zm6.501-3.428v2.374c0 .77.32 1.055 1.062 1.056 0 0 15.527.017 16.993-.002 3.883-.053 6.146-1.61 6.146-4.904 0-2.758-1.186-4.227-4.346-5.253-2.05-.666-13.181-4.198-13.691-4.353-.406-.125-.417-.403-.363-.6.052-.191.217-.278.553-.278l15.231.007c.697 0 1.03-.323 1.03-1.047l.001-2.45c0-.701-.317-1.052-1.041-1.052H17.6c-4.274 0-6.112 2.351-6.112 5.092 0 2.166 1.044 3.937 3.816 4.874.36.123 5.87 1.88 9.934 3.174 2.323.74 4.172 1.33 4.316 1.377.391.129.44.432.378.618-.069.206-.22.317-.527.317H12.498c-.708 0-1.053.336-1.053 1.05zm91.174-15.461c0-.718-.345-1.04-1.045-1.04h-3.922c-.72 0-1.034.34-1.034 1.04l.003 12.255c0 3.147.708 6.544 6.604 6.615 2.149.025 4.704.06 4.704.06s2.401-.024 4.549-.06c6.249-.106 6.794-3.327 6.794-6.615V72.908c0-.71-.315-1.05-1.037-1.05l-3.946-.003c-.743 0-1.048.336-1.048 1.044l-.002 11.305c0 1.874-.28 2.982-2.838 3.064-.591.02-1.683.03-2.471.03-.789 0-1.703-.01-2.297-.03-2.558-.082-3.014-1.19-3.014-3.064V72.899zM91.872 90.734c0 .77-.318 1.056-1.059 1.056 0 0-15.529.017-16.994-.002-3.883-.053-6.147-1.61-6.147-4.904 0-2.758 1.188-4.227 4.347-5.253 2.05-.665 13.18-4.197 13.691-4.353.406-.125.418-.403.364-.6-.052-.191-.218-.278-.555-.278l-15.23.007c-.698 0-1.03-.323-1.03-1.047l-.001-2.45c0-.701.317-1.052 1.04-1.052H85.72c4.272 0 6.11 2.351 6.11 5.092 0 2.167-1.043 3.937-3.815 4.874-.365.125-6.045 1.935-10.124 3.235l-.08.026-4.047 1.29c-.39.128-.439.43-.377.618.069.206.22.317.527.317H90.82c.707 0 1.052.336 1.052 1.05v2.374z"/></symbol><symbol viewBox="0 0 120 120" id="logo-kraz" xmlns="http://www.w3.org/2000/svg"><g clip-path="url(#kclip0)"><path fill-rule="evenodd" clip-rule="evenodd" d="M112.531 42.002c0-13.77-23.03-25.002-51.266-25.002C33.029 17 10 28.232 10 42.002S33.03 67 61.265 67c28.237 0 51.266-11.227 51.266-24.998zm-60.634-5.967C57.902 25.21 72.72 22.337 86.73 24.107c13.223 3.775 22.018 10.388 22.018 17.895 0 2.869-1.291 5.613-3.626 8.119-4.588 2.481-10.083.907-15.974-5.683C81.079 37.456 70 35.491 55.91 38.542c-3.177 1.673-4.516.838-4.014-2.507zM31.452 47.449c7.678 6.674 14.941 3.648 21.95-5.393 4.598-3.764 8.53-3.01 11.79 2.257 5.374 10.179 9.93 16.283 13.295 16.431l-.14 1.049c-5.306.921-11.066 1.43-17.082 1.43-26.153 0-47.483-9.536-47.483-21.221 0-9.179 13.15-17.023 31.463-19.974l1.008.46c-19.16 4.926-24.485 16.1-14.801 24.96z"/><path d="M53.187 101.756l-.07.037.319.001c.245.027.493.027.739 0h17.004c1.15-.037 1.925-.552 2.442-1.398l4.15-9.763c.782-.97 1.615-.97 2.5 0l4.394 9.702c.486.888 1.118 1.402 1.93 1.456l-.003.003H97.88l.062.005.033.001h20.857c.542 0 .983-.623.983-1.385v-2.233c0-.763-.441-1.386-.983-1.386h-8.047c-.469-.162-.611-.569-.429-1.22l8.797-12.87c.254-.253.417-.648.417-1.086v-2.233c0-.762-.494-1.385-1.099-1.385H95.102c-.604 0-1.101.623-1.101 1.385v2.233c0 .763.497 1.386 1.101 1.386h9.869c.527.318.747.766.747 1.341l-9.093 13.181h-2.44l-.028.017-9.126-18.139c-.947-.913-1.937-1.44-2.99-1.404h-7.263c-1.173.218-2.008.729-2.5 1.525l-7.934 18.366-3.216-.116-3.004-4.341c-.218-.546-.143-1.09.226-1.635l3.545-3.807c2.894-3.604 1.92-8.045-3.488-9.962l-23.589.057c-1.047-.004-1.646.523-1.805 1.58l.056 17.58c.013.677-.39 1.01-1.298.928h-1.636l-.043.016-6.358-8.534c-.572-.678-.533-1.355.115-2.034l6.974-8.367c.052-.764-.199-1.131-.756-1.103h-9.59c-.585-.023-1.094.082-1.51.346l-6.232 7.462a.8.8 0 0 1-.8.441h-1.338c-.304.025-.525-.205-.742-.515v-6.68a1.13 1.13 0 0 0-1.12-1.138H.936c-.617 0-1.122.511-1.122 1.138v21.559c0 .624.505 1.137 1.122 1.137h7.8c.616 0 1.12-.513 1.12-1.137v-8.632c.247-.23.495-.367.741-.383h1.57c.52-.011.927.184 1.22.579l5.87 8.601c.3.494.903.753 1.73.84l-.05.02h.303c.128.009.262.013.4.013l.067-.013h19.6c1.182.057 1.892-.537 2.032-1.924V83.732c.034-.376.392-.6 1.07-.678h4.572c2.6.484 3.444 3.099.677 5.531l-2.935 3.216c-.533.594-.753 1.168-.28 1.692l4.852 7.278c.483.451 1.133.842 1.892.985z"/></g><defs><clipPath id="kclip0"><path d="M0 0h120v120H0z"/></clipPath></defs></symbol><symbol viewBox="0 0 120 120" id="logo-man" xmlns="http://www.w3.org/2000/svg"><path d="M22.32 62.433l-3.22 4.446h5.08l5.945-5.803-.867 5.678H39.91v-2.22l-2.85-1.854 11.026-10h.247l4.213-4.196 22.294 3.21-2.849-17.16-25.64 3.579-9.662 14.322h-3.344l-8.671 9.999H22.32z"/><path d="M36.194 51.323h-1.982l8.795-10.124-6.813 10.124zm39.761.492l-2.972-17.777 13.873-16.42.249.122 7.057 16.913-2.599 15.679-5.08 3.087-10.528-1.604zm13.132-33.581l-.744-.245 6.813 16.295 4.213.126.494-3.705-2.975-.245c-1.856-.125-1.485-3.212.497-2.965l3.22.493.494-4.321-4.952-1.728-.371 1.604c-.126.371-1.116-.122-1.116-.492l-.122-1.482-3.224-1.234V17l-2.227 1.234zm-6.319 44.197l2.971-8.148-9.66-1.358.618 3.58.123.619h-.246L78.184 67h8.298v-1.975l-3.714-2.594zM52.916 49.592l21.18 3.087H49.818l3.097-3.087zM82.21 79v23h12.013v-9.994L108.3 102H120V79h-11.012v10.315L93.346 79H82.21z"/><path fill-rule="evenodd" clip-rule="evenodd" d="M54.182 79l-14.953 23H51.99l1.815-2.306h12.576L68.447 102h12.762L66.57 79H54.183zm8.32 14.607h-4.817L60 88.738l2.502 4.869z"/><path d="M0 79v23h11.512v-8.329l7.758 7.112 7.258-7.112V102h11.448V79H26.965l-7.946 8.713L11.574 79H0z"/></symbol><symbol viewBox="0 0 120 120" id="logo-varv" xmlns="http://www.w3.org/2000/svg"><path fill-rule="evenodd" clip-rule="evenodd" d="M83.5 52c-1.543 0-3.049-.163-4.5-.472v5.008A27.375 27.375 0 0 1 92.5 53c15.188 0 27.5 12.312 27.5 27.5S107.688 108 92.5 108c-11.849 0-21.947-7.494-25.815-18H42l-7-15h31v-4H33l-7-15h40v-4H23l-7-15h50V9h18v.006c11.643.265 21 9.787 21 21.494C105 42.374 95.374 52 83.5 52zm0-31c-1.628 0-3.16.41-4.5 1.131V38.87A9.458 9.458 0 0 0 83.5 40a9.5 9.5 0 0 0 0-19zM105 80.5c0 6.904-5.596 12.5-12.5 12.5S80 87.404 80 80.5 85.596 68 92.5 68 105 73.596 105 80.5z"/><path d="M59.159 30.154A2.898 2.898 0 0 0 60 28.11v-1.444a2.894 2.894 0 0 0-.977-2.167A2.878 2.878 0 0 0 60 22.333V20.89c0-.766-.303-1.501-.841-2.043A2.864 2.864 0 0 0 57.128 18h-7.18a3.58 3.58 0 0 0-2.539 1.058 3.622 3.622 0 0 0-1.051 2.553v1.445h2.154v-.723c0-.574.227-1.125.63-1.532a2.147 2.147 0 0 1 1.524-.634h5.744c.38 0 .746.152 1.015.423a1.449 1.449 0 0 1 0 2.043c-.269.27-.634.423-1.015.423h-6.462v2.888h6.462c.38 0 .746.153 1.015.424a1.449 1.449 0 0 1 0 2.042 1.43 1.43 0 0 1-1.015.423h-5.744c-.572 0-1.12-.228-1.523-.634a2.173 2.173 0 0 1-.631-1.532v-.723h-2.154v1.445a3.62 3.62 0 0 0 1.051 2.553A3.58 3.58 0 0 0 49.948 31h7.18c.762 0 1.492-.304 2.03-.846z"/><path fill-rule="evenodd" clip-rule="evenodd" d="M33.715 26.667h6.898a3.58 3.58 0 0 0 2.539-1.058 3.622 3.622 0 0 0 1.051-2.553V21.61a3.62 3.62 0 0 0-1.051-2.553A3.58 3.58 0 0 0 40.613 18h-9.052v13h2.154v-4.333zm0-6.5h6.18c.572 0 1.12.228 1.523.634a2.173 2.173 0 0 1 0 3.064 2.148 2.148 0 0 1-1.523.635h-6.18v-4.333zm-15.796 7.944h8.616L27.97 31h2.872l-7.18-13H20.79l-7.18 13h2.872l1.436-2.889zm1.436-2.167l2.872-5.055 2.872 5.055h-5.744zM0 31h10.738c.762 0 1.493-.304 2.031-.846a2.898 2.898 0 0 0 .841-2.043v-.722a2.9 2.9 0 0 0-.525-1.663 2.875 2.875 0 0 0-1.382-1.056 2.877 2.877 0 0 0 1.19-2.337V20.89c0-.766-.303-1.501-.842-2.043a2.864 2.864 0 0 0-2.03-.846H0v13zm2.154-10.833h7.148c.381 0 .747.152 1.016.423a1.449 1.449 0 0 1 0 2.043c-.27.27-.635.423-1.016.423H2.154v-2.89zm0 5.777h7.866c.381 0 .747.153 1.016.424a1.449 1.449 0 0 1 0 2.042c-.27.271-.635.423-1.016.423H2.154v-2.889z"/></symbol><symbol viewBox="0 0 100 100" id="service" xmlns="http://www.w3.org/2000/svg"><path d="M32.258 20.968h-3.226v3.226h3.226v-3.226zm3.226-1.613h3.226v3.226h-3.226v-3.226zm30.645 27.419H51.613v12.903h-3.226V43.548h17.742v3.226z"/><path fill-rule="evenodd" clip-rule="evenodd" d="M95.161 85.484h-.13C98.109 88.913 100 93.427 100 98.387V100h-3.226v-1.613c0-8.348-6.377-15.234-14.516-16.047V100h-3.226V82.258h-4.839V100h-3.225V82.258h-3.226a8.029 8.029 0 0 1-1.9-.25C64.44 89.482 57.876 95.161 50 95.161s-14.44-5.679-15.842-13.153a8.03 8.03 0 0 1-1.9.25h-3.226V100h-3.226V82.258h-4.838V100h-3.226V82.34c-8.139.812-14.516 7.699-14.516 16.047V100H0v-1.613c0-7.792 4.639-14.507 11.29-17.571v-4.057c-3.17-1.924-4.839-5.02-4.839-9.018 0-3.919 2.647-8.487 7.707-9.638l1.97-.447v8.473h3.227v-8.47l1.967.444c5.062 1.142 7.71 5.713 7.71 9.638 0 3.999-1.668 7.096-4.839 9.018v2.273h8.065a4.845 4.845 0 0 0 4.839-4.839v-6.718c-7.7-4.47-12.903-12.786-12.903-22.314v-.229c-2.775-.72-4.84-3.224-4.84-6.222 0-2.899 1.093-4.73 1.704-5.53a5.064 5.064 0 0 1-.09-.922v-3.226C20.968 13.024 33.992 0 50 0c16.008 0 29.032 13.024 29.032 29.032v3.226c0 .32-.036.624-.09.923.61.8 1.703 2.63 1.703 5.529 0 2.998-2.065 5.501-4.839 6.222v.229c0 9.528-5.203 17.843-12.903 22.314v6.718a4.845 4.845 0 0 0 4.839 4.839h4.838v-3.226c0-.208.02-5.158 1.695-10.187l5.307-12.393h8.577l5.258 12.267c1.725 5.155 1.744 10.105 1.744 10.313v9.678zM20.967 74.806l.896-.445c2.653-1.318 3.943-3.482 3.943-6.62 0-2.075-1.102-4.42-3.226-5.704v7.318h-9.677V62.04c-2.124 1.287-3.226 3.63-3.226 5.702 0 3.137 1.29 5.301 3.944 6.62l.895.444v4.863a19.241 19.241 0 0 1 4.839-.637h1.612v-4.226zm56.067-38.414c-.366.33-.78.64-1.228.934v4.161a3.217 3.217 0 0 0 1.613-2.777c0-.965-.174-1.732-.385-2.318zM48.387 14.516V3.31c-13.195.82-23.714 11.58-24.15 24.874 5.74-3.058 17.789-3.989 25.763-3.989s20.022.93 25.763 3.99C75.327 14.89 64.808 4.131 51.613 3.31v11.207h-3.226zM22.58 38.71a3.21 3.21 0 0 0 1.613 2.776v-4.162a9.69 9.69 0 0 1-1.228-.933 6.777 6.777 0 0 0-.385 2.319zM50 27.42c-16.107 0-25.489 3.198-25.805 4.843.008 3.17 9.66 6.447 25.805 6.447 16.153 0 25.806-3.281 25.806-6.452-.305-1.637-9.69-4.839-25.806-4.839zM27.42 38.926v6.234c0 12.452 10.128 22.58 22.58 22.58 12.451 0 22.58-10.128 22.58-22.58v-6.234c-7.111 2.71-18.132 3.008-22.58 3.008-4.449 0-15.47-.298-22.58-3.008zm9.77 41.599c.744 6.413 6.202 11.41 12.81 11.41 6.608 0 12.066-4.998 12.81-11.41-1.893-1.476-3.133-3.752-3.133-6.333v-5.125a25.633 25.633 0 0 1-9.677 1.9 25.64 25.64 0 0 1-9.677-1.9v5.125c0 2.581-1.24 4.857-3.133 6.333zm38.616-1.494h4.484a4.807 4.807 0 0 1-1.258-3.226c0-2.1 1.353-3.874 3.226-4.542V56.452h-.55l-4.42 10.313c-1.464 4.412-1.482 8.996-1.482 9.041v3.226zm6.452-3.226a1.614 1.614 0 1 0 1.613-1.613c-.89 0-1.613.723-1.613 1.613zm4.15 4.102a19.315 19.315 0 0 1 5.527 2.79v-6.89c0-.047-.024-4.654-1.53-9.17L86.034 56.45h-.55v14.813c1.872.668 3.226 2.442 3.226 4.542 0 1.736-.926 3.249-2.302 4.102z"/></symbol><symbol viewBox="0 0 100 100" id="tire" xmlns="http://www.w3.org/2000/svg"><g clip-path="url(#oclip0)"><path d="M64.516 8.065H61.29v3.226h3.226V8.065zM24.194 32.258h3.226v3.226h-3.226v-3.226zm-3.16 0h-3.226v3.226h3.226v-3.226zm12.837 32.258h-3.226v3.226h3.226v-3.226z"/><path fill-rule="evenodd" clip-rule="evenodd" d="M67.742 51.613c8.893 0 16.129 7.235 16.129 16.129 0 8.893-7.236 16.129-16.13 16.129-8.893 0-16.128-7.236-16.128-16.13 0-8.893 7.236-16.128 16.129-16.128zm0 3.226c-7.115 0-12.903 5.788-12.903 12.903 0 7.114 5.788 12.903 12.903 12.903s12.903-5.789 12.903-12.903c0-7.115-5.788-12.903-12.903-12.903z"/><path d="M67.742 88.71v-3.226a17.71 17.71 0 0 0 11.827-4.518l2.152 2.403a20.929 20.929 0 0 1-13.979 5.34z"/><path fill-rule="evenodd" clip-rule="evenodd" d="M75.807 33.87v2.675c13.89 3.595 24.194 16.198 24.194 31.197C100.001 85.53 85.53 100 67.743 100c-14.999 0-27.602-10.303-31.197-24.194H9.678c-5.337 0-9.677-4.34-9.677-9.677v-8.065C.001 54.7 1.728 51.736 4.34 50 1.728 48.265 0 45.3 0 41.935v-8.064c0-3.365 1.727-6.33 4.339-8.065C1.728 24.072 0 21.107 0 17.742V9.677C.001 4.34 4.341 0 9.678 0H66.13c5.337 0 9.677 4.34 9.677 9.677v8.065c0 3.364-1.726 6.329-4.338 8.064 2.61 1.736 4.338 4.7 4.338 8.065zm20.93 33.169a28.851 28.851 0 0 0-6.067-17.04h-4.237a25.712 25.712 0 0 1 6.73 13.464l3.575 3.576zM82.73 46.774h5.038a28.912 28.912 0 0 0-16.385-7.811l-3.004 3.005a25.622 25.622 0 0 1 14.35 4.806zM56.068 32.258h16.284c-.72-2.774-3.225-4.839-6.222-4.839h-4.255l-5.807 4.839zm-32.903-8.064h14.316l-5.806-4.84H17.359l5.806 4.84zm27.865-4.84H36.714l5.806 4.84h14.316l-5.806-4.84zm5.806 8.065H42.52l-5.807 4.839H51.03l5.807-4.839zm5.039-3.225h4.254c2.997 0 5.502-2.065 6.223-4.84H56.068l5.807 4.84zM51.029 8.064l5.807-4.838H42.52l-5.807 4.839H51.03zm-19.354 0l5.806-4.838H23.165L17.36 8.065h14.316zM18.126 3.227H9.678c-2.996 0-5.501 2.064-6.222 4.839h8.864l5.806-4.84zm39.94 8.064H3.225v4.84h69.356v-4.84h-4.84V8.066h4.61c-.72-2.775-3.225-4.84-6.222-4.84h-4.255l-5.806 4.84h1.996v3.225zM12.32 19.355H3.456c.72 2.774 3.226 4.839 6.222 4.839h8.449l-5.807-4.84zm5.806 8.064H9.678c-2.996 0-5.501 2.065-6.222 4.839h8.864l5.806-4.839zm-4.638 8.065H3.227v4.839h47.607c4.924-3.049 10.705-4.84 16.908-4.84 1.649 0 3.257.164 4.84.404v-.403H30.645v-3.226h1.029l5.806-4.839H23.165l-9.677 8.065zm49.976 6.837l3.576-3.574A28.852 28.852 0 0 0 50 44.814v4.237a25.711 25.711 0 0 1 13.464-6.73zm-16.986 1.227h-9.764l5.485 4.571a32.396 32.396 0 0 1 4.28-4.57zm-23.313 4.839h14.316l-5.806-4.839H17.359l5.806 4.839zm23.61 4.367v-5.038c-4.19 4.386-7.016 10.068-7.811 16.385l3.005 3.005a25.622 25.622 0 0 1 4.806-14.351zM12.32 43.549H3.456c.72 2.774 3.226 4.839 6.222 4.839h8.449l-5.807-4.839zm5.806 8.065H9.678c-2.996 0-5.501 2.065-6.222 4.839h8.864l5.806-4.84zM3.456 67.742c.72 2.774 3.225 4.838 6.222 4.838h8.448l-5.806-4.838H3.455zm32.029 0c0-2.79.393-5.483 1.06-8.065h-5.899v-3.226h6.917a32.165 32.165 0 0 1 2.286-4.839H23.165l-5.806 4.84H27.42v3.225H3.226v4.839H27.42v3.226H17.36l5.806 4.838h12.723c-.24-1.582-.403-3.19-.403-4.838zm3.263.703a28.85 28.85 0 0 0 6.067 17.039h4.237a25.712 25.712 0 0 1-6.73-13.463l-3.574-3.576zm8.969 20.264a28.915 28.915 0 0 0 16.385 7.811l3.005-3.004a25.622 25.622 0 0 1-14.352-4.806h-5.038zm20.026-43.548c-12.452 0-22.581 10.13-22.581 22.58 0 12.452 10.13 22.581 22.58 22.581 12.452 0 22.581-10.129 22.581-22.58 0-12.452-10.129-22.581-22.58-22.581zm.703 51.576a28.852 28.852 0 0 0 17.038-6.068v-4.237a25.712 25.712 0 0 1-13.463 6.73l-3.576 3.575zM88.71 82.729v5.038c4.19-4.385 7.017-10.067 7.811-16.385l-3.004-3.005A25.622 25.622 0 0 1 88.71 82.73z"/><path d="M32.557 86.26l2.828-1.55A39.17 39.17 0 0 0 46.127 97.1l-1.937 2.579a42.401 42.401 0 0 1-11.632-13.42z"/></g><defs><clipPath id="oclip0"><path d="M0 0h100v100H0z"/></clipPath></defs></symbol></svg>