<svg width="110" height="124" viewBox="0 0 110 124" fill="none" xmlns="http://www.w3.org/2000/svg">
<path d="M52.4078 0.686748C54.0119 -0.228916 55.9881 -0.228916 57.5922 0.686748L107.408 29.1238C109.012 30.0394 110 31.7317 110 33.563V90.437C110 92.2684 109.012 93.9606 107.408 94.8762L57.5922 123.313C55.9881 124.229 54.0119 124.229 52.4078 123.313L2.59219 94.8762C0.988136 93.9606 0 92.2684 0 90.437V33.563C0 31.7317 0.988136 30.0394 2.59219 29.1238L52.4078 0.686748Z" fill="#FDD417"/>
<path d="M44.6845 73.0712C47.1556 76.5552 49.6226 79.6712 51.2576 81.6782C51.4956 81.9702 51.7186 82.2412 51.9346 82.5021H47.0006C46.4483 82.5021 46.0007 82.9498 46.0007 83.5021C46.0007 84.0544 46.4483 84.5021 47.0006 84.5021H63.0006C63.5529 84.5021 64.0005 84.0544 64.0005 83.5021C64.0005 82.9498 63.5529 82.5021 63.0006 82.5021H58.0666C58.2826 82.2412 58.5056 81.9701 58.7446 81.6782C60.3786 79.6781 62.8447 76.5552 65.3167 73.0712C67.7693 69.6839 69.9769 66.1258 71.9227 62.4242C73.9647 58.4142 75.0007 55.0852 75.0007 52.5292C75.0075 47.2181 72.9 42.1228 69.1437 38.3681C68.8928 38.1079 68.521 38.0034 68.1714 38.0947C67.8217 38.186 67.5484 38.4588 67.4566 38.8084C67.3649 39.1579 67.4688 39.5298 67.7286 39.781C71.1097 43.1612 73.0066 47.7481 73.0007 52.5291C73.0007 54.7671 72.0387 57.7911 70.1407 61.5161C68.2389 65.132 66.0813 68.6075 63.6847 71.9162C61.2467 75.3552 58.8097 78.4362 57.1947 80.4162C56.6578 81.0742 56.1747 81.6562 55.7627 82.1482C55.5704 82.3678 55.2926 82.4937 55.0007 82.4937C54.7088 82.4937 54.4311 82.3677 54.2388 82.1482C53.8267 81.6563 53.3438 81.0742 52.8067 80.4162C51.1918 78.4372 48.7547 75.3561 46.3167 71.9162C43.9201 68.6075 41.7626 65.132 39.8607 61.5161C37.9608 57.7911 37.0008 54.7671 37.0008 52.5291C37.0002 45.2858 41.3319 38.7446 48.0008 35.9181C52.4819 34.0391 57.5299 34.0391 62.0109 35.9181C62.34 36.0575 62.7184 36.011 63.0037 35.7957C63.2891 35.5805 63.4379 35.2295 63.3942 34.8747C63.3505 34.52 63.1209 34.2155 62.7918 34.0761C52.6084 29.7809 40.8711 34.5521 36.5728 44.7341C35.5304 47.2004 34.9958 49.8516 35.0008 52.5291C35.0008 55.0851 36.0369 58.4142 38.0789 62.4291C40.0244 66.1291 42.2321 69.6855 44.6845 73.0712Z" fill="#0A0F1A"/>
<path d="M55.0005 43.5021C55.5528 43.5021 56.0004 43.0544 56.0004 42.5021C56.0004 41.9498 55.5528 41.5022 55.0005 41.5022C50.2298 41.5021 46.1233 44.8721 45.1924 49.5512C44.2616 54.2303 46.7658 58.9153 51.1734 60.741C55.5809 62.5668 60.6644 61.0248 63.315 57.0581C65.9655 53.0914 65.4449 47.8047 62.0715 44.4312C61.8203 44.1712 61.4486 44.067 61.0989 44.1585C60.7494 44.25 60.4763 44.523 60.3848 44.8726C60.2933 45.2223 60.3976 45.594 60.6575 45.8452C63.3563 48.5439 63.7729 52.7731 61.6526 55.9465C59.5324 59.12 55.4656 60.3537 51.9395 58.8933C48.4135 57.4329 46.41 53.685 47.1544 49.9417C47.8988 46.1984 51.1839 43.5022 55.0005 43.5021Z" fill="#0A0F1A"/>
<path d="M78.4736 76.0732L84.6236 87.0733C85.1364 87.9789 85.1246 89.0897 84.5927 89.9843C84.0325 90.9366 83.0052 91.5158 81.9006 91.5024H28.1004C26.9955 91.5161 25.9678 90.9368 25.4075 89.9843C24.8755 89.0898 24.8637 87.9789 25.3764 87.0733L31.5255 76.0732C32.0821 75.0955 33.1235 74.4948 34.2485 74.5022H41.3754C41.9277 74.5022 42.3753 74.9498 42.3753 75.5021C42.3753 76.0545 41.9277 76.5021 41.3754 76.5021H34.2483C33.8484 76.4945 33.4753 76.7032 33.2724 77.0481L27.1244 88.0482C26.957 88.3343 26.9604 88.6893 27.1334 88.9722C27.3375 89.3093 27.7064 89.5116 28.1004 89.5022H81.9006C82.2949 89.5118 82.6643 89.3097 82.8686 88.9722C83.0416 88.6893 83.0451 88.3343 82.8776 88.0482L76.7296 77.0481C76.5264 76.7031 76.1529 76.4944 75.7526 76.5021H68.6256C68.0732 76.5021 67.6256 76.0545 67.6256 75.5021C67.6256 74.9498 68.0732 74.5022 68.6256 74.5022H75.7526C76.877 74.4951 77.9175 75.0959 78.4736 76.0732Z" fill="#0A0F1A"/>
<path d="M74.0006 79.5022H70.0007C69.8032 79.5026 69.6102 79.561 69.4457 79.6703L66.4456 81.6703C65.9862 81.9769 65.8622 82.5979 66.1686 83.0574C66.4752 83.5169 67.0962 83.6409 67.5557 83.3344L70.3007 81.5024H74.0006C74.5529 81.5024 75.0006 81.0546 75.0006 80.5024C75.0006 79.9499 74.5529 79.5022 74.0006 79.5022Z" fill="#0A0F1A"/>
<path d="M69.0006 87.5022C68.4483 87.5022 68.0006 87.0545 68.0006 86.5022C68.0006 85.9499 68.4483 85.5023 69.0006 85.5023H77.0006C77.553 85.5023 78.0006 85.9499 78.0006 86.5022C78.0006 87.0545 77.553 87.5022 77.0006 87.5022H69.0006Z" fill="#0A0F1A"/>
<path d="M43.0004 83.5022C43.4413 83.5028 43.8305 83.2145 43.9585 82.7927C44.0866 82.3708 43.9233 81.9148 43.5565 81.6702L40.5565 79.6702C40.3917 79.5607 40.1982 79.5023 40.0004 79.5021H36.0004C35.4481 79.5021 35.0005 79.9499 35.0005 80.5021C35.0005 81.0544 35.4482 81.5021 36.0004 81.5021H39.7004L42.4485 83.3341C42.6119 83.4433 42.804 83.5018 43.0004 83.5022Z" fill="#0A0F1A"/>
<path d="M32.0005 86.5022C32.0005 85.9499 32.4481 85.5023 33.0004 85.5023H41.0005C41.5528 85.5023 42.0005 85.9499 42.0005 86.5022C42.0005 87.0545 41.5528 87.5022 41.0005 87.5022H33.0004C32.4481 87.5022 32.0005 87.0545 32.0005 86.5022Z" fill="#0A0F1A"/>
</svg>
