<svg width="80" height="80" viewBox="0 0 80 80" fill="none" xmlns="http://www.w3.org/2000/svg">
<g clip-path="url(#clip0)">
<path d="M70.924 12.1943H75.0931C71.9447 6.29613 65.594 2.43911 58.7299 2.43911V0.000244141C65.5525 0.000244141 71.9326 3.3743 75.8014 8.72757V7.31659H78.2403V14.6332H70.924V12.1943Z" fill="#0A0F1A"/>
<path d="M50.1941 4.36678V8.53596H52.633V1.2196H45.3163V3.65847H46.7273C41.3741 7.52753 38 13.9077 38 20.73H40.4389C40.4389 13.8662 44.2959 7.51549 50.1941 4.36678Z" fill="#0A0F1A"/>
<path d="M76.3443 31.7052C78.3245 28.4567 79.46 24.6706 79.46 20.7306H77.0211C77.0211 27.5947 73.1641 33.9454 67.2659 37.0939V32.9247H64.827V40.241H72.1434V37.8022H70.7324C72.1823 36.7548 73.4798 35.5195 74.6114 34.1439L76.3443 31.7052Z" fill="#0A0F1A"/>
<path d="M61.169 39.0216H58.7301C51.866 39.0216 45.5153 35.1646 42.3669 29.2664H46.536V26.8275H39.2194V34.1439H41.6583V32.7244C45.0813 37.4631 50.466 40.6566 56.3911 41.3286C56.3911 41.3286 57.3123 41.4472 58.7979 41.4472C60.2834 41.4472 61.169 41.3286 61.169 41.3286V39.0216Z" fill="#0A0F1A"/>
<path d="M51.4135 13.4137V14.7197L49.621 13.5989L48.3283 15.667L49.9513 16.6805L48.5892 17.1353L49.36 19.4474L52.6329 18.357L56.429 20.7301L52.6329 23.1032L49.36 22.0128L48.5892 24.3249L49.9513 24.7797L48.3283 25.7932L49.621 27.8613L51.4135 26.7407V28.0467H53.8524V25.2163L57.5104 22.9298V25.2017L54.0962 29.7537L56.0472 31.2169L57.5104 29.2649V32.9242H59.9493V29.2649L61.4128 31.2169L63.3638 29.7537L59.9493 25.2017V22.9298L63.6076 25.2163V28.0467H66.0465V26.7407L67.839 27.8613L69.1314 25.7932L67.5084 24.7797L68.8705 24.3249L68.0999 22.0128L64.827 23.1032L61.031 20.7301L64.827 18.357L68.0999 19.4474L68.8705 17.1353L67.5084 16.6805L69.1314 15.667L67.839 13.5989L66.0465 14.7197V13.4137H63.6076V16.2439L59.9493 18.5304V16.2585L63.3638 11.7065L61.4128 10.2433L59.9493 12.1956V8.53601H57.5104V12.1956L56.0472 10.2433L54.0962 11.7065L57.5104 16.2585V18.5304L53.8524 16.2439V13.4137H51.4135Z" fill="#0A0F1A"/>
<path fill-rule="evenodd" clip-rule="evenodd" d="M43.7544 72.3912C43.7544 70.5822 45.2266 69.11 47.0356 69.11C48.8447 69.11 50.3169 70.5822 50.3169 72.3912C50.3169 74.2003 48.8447 75.6725 47.0356 75.6725C45.2266 75.6725 43.7544 74.2003 43.7544 72.3912ZM45.9419 72.3912C45.9419 72.995 46.433 73.485 47.0356 73.485C47.6383 73.485 48.1294 72.995 48.1294 72.3912C48.1294 71.7875 47.6383 71.2975 47.0356 71.2975C46.433 71.2975 45.9419 71.7875 45.9419 72.3912Z" fill="#0A0F1A"/>
<path fill-rule="evenodd" clip-rule="evenodd" d="M61.0356 69.11C59.2266 69.11 57.7544 70.5822 57.7544 72.3912C57.7544 74.2003 59.2266 75.6725 61.0356 75.6725C62.8447 75.6725 64.3169 74.2003 64.3169 72.3912C64.3169 70.5822 62.8447 69.11 61.0356 69.11ZM61.0356 73.485C60.433 73.485 59.9419 72.995 59.9419 72.3912C59.9419 71.7875 60.433 71.2975 61.0356 71.2975C61.6383 71.2975 62.1294 71.7875 62.1294 72.3912C62.1294 72.995 61.6383 73.485 61.0356 73.485Z" fill="#0A0F1A"/>
<path fill-rule="evenodd" clip-rule="evenodd" d="M10.9419 72.3912C10.9419 70.5822 12.4141 69.11 14.2231 69.11C16.0322 69.11 17.5044 70.5822 17.5044 72.3912C17.5044 74.2003 16.0322 75.6725 14.2231 75.6725C12.4141 75.6725 10.9419 74.2003 10.9419 72.3912ZM13.1294 72.3912C13.1294 72.995 13.6205 73.485 14.2231 73.485C14.8258 73.485 15.3169 72.995 15.3169 72.3912C15.3169 71.7875 14.8258 71.2975 14.2231 71.2975C13.6205 71.2975 13.1294 71.7875 13.1294 72.3912Z" fill="#0A0F1A"/>
<path fill-rule="evenodd" clip-rule="evenodd" d="M21.1264 75.6725C19.9027 78.2488 17.2768 80.03 14.235 80.03C10.3904 80.03 7.21044 77.1847 6.68588 73.485H3.28561C1.47655 73.485 0.00436401 72.0128 0.00436401 70.2037V63.6412C0.00436401 62.2172 0.92202 61.014 2.19186 60.5612V53.7975C2.19186 41.7356 12.005 31.9225 24.0669 31.9225V28.6412C24.0669 26.8322 25.5391 25.36 27.3481 25.36H28.4419V27.5475H27.3481C26.7455 27.5475 26.2544 28.0375 26.2544 28.6412V31.9225H32.8169V34.11H37.1919V42.86H32.8169V45.0475H37.1919V64.735H77.8125V33.235L80 29.0475V66.9225H66.5343C67.182 67.5487 67.719 68.2885 68.1133 69.11H80V71.2975H68.7801C68.8327 71.659 68.86 72.0288 68.86 72.405C68.86 76.6161 65.4462 80.03 61.235 80.03C58.0998 80.03 55.4066 78.1378 54.235 75.4332C53.0634 78.1378 50.3701 80.03 47.235 80.03C44.1931 80.03 41.5673 78.2488 40.3436 75.6725H21.1264ZM21.7841 73.485C21.8341 73.1322 21.86 72.7716 21.86 72.405C21.86 68.1938 18.4462 64.78 14.235 64.78C10.4 64.78 7.22621 67.6112 6.68983 71.2975H3.28561C2.68296 71.2975 2.19186 70.8075 2.19186 70.2037V66.9225H3.28561C5.09468 66.9225 6.56686 65.4503 6.56686 63.6412V62.5475H15.3169C20.1414 62.5475 24.0669 66.473 24.0669 71.2975V73.485H21.7841ZM39.6859 73.485C39.6359 73.1322 39.61 72.7716 39.61 72.405C39.61 72.0288 39.6372 71.659 39.6898 71.2975H26.2544V73.485H39.6859ZM40.3567 69.11C40.7509 68.2885 41.288 67.5487 41.9357 66.9225H30.6294V45.0475H26.2544V49.4225H28.4419V69.11H40.3567ZM47.0579 66.9225H47.3921C50.3386 67.0108 52.7 69.4271 52.7 72.395C52.7 75.4187 50.2488 77.87 47.225 77.87C44.2012 77.87 41.75 75.4187 41.75 72.395C41.75 69.4271 44.1114 67.0108 47.0579 66.9225ZM52.5343 66.9225H55.9356C55.2186 67.6157 54.6371 68.4484 54.235 69.3767C53.8328 68.4484 53.2514 67.6157 52.5343 66.9225ZM61.0574 66.9225C58.1112 67.0111 55.75 69.4273 55.75 72.395C55.75 75.4187 58.2012 77.87 61.225 77.87C64.2488 77.87 66.7 75.4187 66.7 72.395C66.7 69.4273 64.3388 67.0111 61.3926 66.9225H61.0574ZM4.37936 60.36V55.985H15.3169V52.7037C15.3169 49.6883 12.8636 47.235 9.84811 47.235H5.5278C5.79468 46.4836 6.10421 45.754 6.4564 45.0475H24.0669V49.4225H21.8794V62.5683C20.0484 61.189 17.7811 60.36 15.3169 60.36H4.37936ZM4.88686 49.4225H9.84811C11.6572 49.4225 13.1294 50.8947 13.1294 52.7037V53.7975H4.37936C4.37936 52.2925 4.5653 50.8323 4.88686 49.4225ZM24.0669 64.7634V51.61H26.2544V69.11H26.0334C25.7064 67.5033 25.0162 66.0311 24.0669 64.7634ZM30.6294 38.485V42.86H26.2544V38.485H30.6294ZM35.0044 64.735H32.8169V47.235H35.0044V64.735ZM35.0044 36.2975V40.6725H32.8169V36.2975H35.0044ZM30.6294 34.11V36.2975H26.2544V34.11H30.6294ZM24.0669 34.11V42.86H7.70874C11.2448 37.5881 17.2561 34.11 24.0669 34.11ZM3.28561 62.5475H4.37936V63.6412C4.37936 64.245 3.88827 64.735 3.28561 64.735H2.19186V63.6412C2.19186 63.0375 2.68296 62.5475 3.28561 62.5475ZM19.7 72.395C19.7 75.4187 17.2488 77.87 14.225 77.87C11.2012 77.87 8.75 75.4187 8.75 72.395C8.75 69.3712 11.2012 66.92 14.225 66.92C17.2488 66.92 19.7 69.3712 19.7 72.395Z" fill="#0A0F1A"/>
<path d="M72.5222 51.9338V52.0884C72.5222 55.2718 69.9326 57.8612 66.7494 57.8612H55.6819L58.3292 60.5086L56.6968 62.141L51.2624 56.7067L56.6968 51.2723L58.3292 52.9047L55.6819 55.5521H66.7494C68.659 55.5521 70.2131 53.998 70.2131 52.0884V51.9338C70.2131 50.0243 68.659 48.4701 66.7494 48.4701H51.7403C49.8307 48.4701 48.2766 50.0243 48.2766 51.9338H45.9675C45.9675 48.7507 48.5571 46.161 51.7403 46.161H66.7494C69.9326 46.161 72.5222 48.7507 72.5222 51.9338Z" fill="#0A0F1A"/>
</g>
<defs>
<clipPath id="clip0">
<rect width="80" height="80" fill="white"/>
</clipPath>
</defs>
</svg>
