<svg width="160" height="160" viewBox="0 0 160 160" fill="none" xmlns="http://www.w3.org/2000/svg">
<path d="M80 160C124.183 160 160 124.183 160 80C160 35.8172 124.183 0 80 0C35.8172 0 0 35.8172 0 80C0 124.183 35.8172 160 80 160Z" fill="#FDD417"/>
<path d="M95.7895 28.421L113.684 33.6842L135.789 55.7894L127.368 64.2105L117.895 54.7368L114.211 58.3505L123.158 68.421L117.895 73.6842L108.421 64.2105L102.105 70.5263V76.8421L92.1053 86.8421L112.632 107.368H120L125.263 112.632V120L117.895 127.368H110.526L105.263 122.105V114.737L84.7368 94.2105L50.5263 128.421H43.1579L36.8421 122.105V114.737L71.0526 80.5263L60 69.4737L41.0526 71.5789L26.3158 57.8947V49.4737H33.6842L42.1053 57.8947L54.7368 55.7894L55.7895 44.2105L47.3684 36.8421V28.421H55.7895L69.4737 43.1579L67.3684 62.1052L78.4211 73.1579L88.4211 63.1579H94.7368L101.053 56.8421L88.4211 44.2105L87.3684 36.8421L89.4737 34.7368L106.316 51.5789L110.526 47.3684L93.6842 30.5263L95.7895 28.421Z" fill="#202020"/>
<path fill-rule="evenodd" clip-rule="evenodd" d="M80 153.684C65.4267 153.684 51.1806 149.363 39.0633 141.266C26.946 133.17 17.5017 121.662 11.9247 108.198C6.34772 94.7337 4.88853 79.9183 7.73165 65.625C10.5748 51.3316 17.5925 38.2024 27.8974 27.8974C38.2024 17.5925 51.3316 10.5748 65.625 7.73165C79.9183 4.88853 94.7337 6.34772 108.198 11.9247C121.662 17.5017 133.17 26.946 141.266 39.0633C149.363 51.1806 153.684 65.4267 153.684 80C153.684 89.6764 151.778 99.258 148.075 108.198C144.372 117.138 138.945 125.26 132.103 132.103C125.26 138.945 117.138 144.372 108.198 148.075C99.258 151.778 89.6764 153.684 80 153.684ZM80 12.6316C66.6758 12.6316 53.6508 16.5827 42.5721 23.9852C31.4935 31.3878 22.8587 41.9093 17.7597 54.2193C12.6608 66.5292 11.3267 80.0748 13.9261 93.143C16.5255 106.211 22.9417 118.215 32.3634 127.637C41.785 137.058 53.7889 143.475 66.8571 146.074C79.9253 148.673 93.4708 147.339 105.781 142.24C118.091 137.141 128.612 128.507 136.015 117.428C143.417 106.349 147.368 93.3243 147.368 80C147.368 62.1328 140.271 44.9974 127.637 32.3634C115.003 19.7293 97.8672 12.6316 80 12.6316Z" fill="#202020"/>
</svg>
