<svg width="80" height="80" viewBox="0 0 80 80" fill="none" xmlns="http://www.w3.org/2000/svg">
<g clip-path="url(#clip0)">
<path d="M71.4194 60.0645H66.5161V62.5161H71.4194V60.0645Z" fill="#0A0F1A"/>
<path d="M35.871 49.0322V51.4838H48.129V49.0322H35.871Z" fill="#0A0F1A"/>
<path d="M13.8064 44.129H16.2581V46.5806H13.8064V44.129Z" fill="#0A0F1A"/>
<path d="M37.0968 24.5161H26.0645V26.9677H37.0968V24.5161Z" fill="#0A0F1A"/>
<path d="M42 24.5161H39.5484V26.9677H42V24.5161Z" fill="#0A0F1A"/>
<path d="M67.7419 49.0322H70.1935V51.4838H67.7419V49.0322Z" fill="#0A0F1A"/>
<path d="M70.1935 44.129H67.7419V46.5806H70.1935V44.129Z" fill="#0A0F1A"/>
<path d="M12.865 69.6488C13.1088 69.8925 13.4288 70.015 13.7488 70.015C14.0688 70.015 14.3888 69.8925 14.6325 69.6488L23.385 60.8963C23.8738 60.4075 23.8738 59.6175 23.385 59.1288C22.8963 58.64 22.1063 58.64 21.6175 59.1288L13.7488 66.9975L10.8825 64.1312C10.3938 63.6425 9.60376 63.6425 9.11501 64.1312C8.62626 64.62 8.62626 65.41 9.11501 65.8987L12.8577 69.6413L12.865 69.6488Z" fill="#0A0F1A"/>
<path fill-rule="evenodd" clip-rule="evenodd" d="M80 33.0968V9.80645H75.0968V0H66.5161V6.32884C62.8461 4.16161 54.2139 0 42 0C29.7861 0 21.1539 4.16161 17.4839 6.32884V0H8.90323V9.80645H4V33.0968H8.90323V40.1059C7.38323 41.2435 6.45161 43.027 6.45161 44.9969V50.8044C2.53458 53.7742 0 58.4768 0 63.76C0 72.72 7.29 80.01 16.25 80.01C23.5086 80.01 29.6712 75.2258 31.7499 68.6452H57.9355V72.3226C57.9355 74.3501 59.5854 76 61.6129 76H66.5161C68.5436 76 70.1936 74.3501 70.1936 72.3226V68.5471C74.3454 67.9489 77.5484 64.3781 77.5484 60.0645V44.9969C77.5484 43.027 76.6168 41.2423 75.0968 40.1059V33.0968H80ZM32.3182 66.1936H68.9677C72.3473 66.1936 75.0968 63.4441 75.0968 60.0645V56.3871H30.729C31.3187 57.5405 31.7746 58.7732 32.0761 60.0645H56.7097V62.5161H32.4529C32.4841 62.9267 32.5 63.3415 32.5 63.76C32.5 64.5869 32.4379 65.3995 32.3182 66.1936ZM29.1857 53.9355H57.9355V51.4839H50.5806V49.0323H57.9355V46.5806H26.0645V49.0323H33.4194V51.4839H26.8858C27.7337 52.2195 28.5049 53.0413 29.1857 53.9355ZM23.6129 49.2759V36.7742H30.2494L32.701 39.2258H51.0489L52.2747 36.7742H60.3871V53.9355H62.8387V38C62.8387 35.9725 61.1888 34.3226 59.1613 34.3226H24.8387C22.8112 34.3226 21.1613 35.9725 21.1613 38V48.2684C22.0107 48.5383 22.83 48.8763 23.6129 49.2759ZM18.7097 47.6958V38.5847L11.2151 41.583C9.81032 42.1445 8.90323 43.4843 8.90323 44.9969V49.2677C11.1109 48.1439 13.6078 47.51 16.25 47.51C17.086 47.51 17.9074 47.5735 18.7097 47.6958ZM75.0968 12.2581H77.5484V30.6452H75.0968V12.2581ZM68.9677 2.45161H72.6452V6.12903H68.9677V2.45161ZM68.9677 8.58065H72.6452V12.2581H68.9677V8.58065ZM68.9677 18.3871V14.7097H72.6452V24.7417C72.2603 24.6044 71.8508 24.5161 71.4194 24.5161H69.8773L69.4225 20.1976C69.3551 19.5528 69.1688 18.9534 68.9212 18.3871H68.9677ZM72.6452 28.1935V38.8863L71.3348 38.3628L70.1359 26.9677H71.4194C72.0948 26.9677 72.6452 27.5181 72.6452 28.1935ZM17.4839 9.22419C19.6143 7.81329 28.6007 2.45161 42 2.45161C55.3576 2.45161 64.3771 7.81574 66.5161 9.22542V15.6033C65.5845 15.037 64.4935 14.7097 63.3278 14.7097H61.6129V9.80645H54.2581V14.7097H29.7419V9.80645H22.3871V14.7097H20.6722C19.5065 14.7097 18.4155 15.037 17.4839 15.6033V9.22419ZM59.1613 12.2581V14.7097H56.7097V12.2581H59.1613ZM27.2903 12.2581V14.7097H24.8387V12.2581H27.2903ZM17.0156 20.4538C17.213 18.5771 18.7857 17.1613 20.6722 17.1613H63.3278C65.2155 17.1613 66.787 18.5771 66.9844 20.4538L68.7606 37.3332L64.8552 35.7703C64.4323 34.6952 63.7139 33.7771 62.8007 33.0968H62.8387V22.0645C62.8387 20.7125 61.7392 19.6129 60.3871 19.6129H23.6129C22.2608 19.6129 21.1613 20.7125 21.1613 22.0645V33.0968H21.1993C20.2861 33.7771 19.5677 34.6952 19.1448 35.7703L15.2394 37.3332L17.0156 20.4538ZM26.0645 44.129V39.2258H29.2345L31.6861 41.6774H52.564L53.7898 39.2258H57.9355V44.129H26.0645ZM23.6129 31.9948V22.0645H60.3871V31.9948C59.9912 31.9139 59.5805 31.871 59.1613 31.871H24.8387C24.4195 31.871 24.0088 31.9139 23.6129 31.9948ZM11.3548 2.45161H15.0323V6.12903H11.3548V2.45161ZM11.3548 8.58065H15.0323V12.2581H11.3548V8.58065ZM11.3548 14.7097H15.0323V18.3871H15.0776C14.8312 18.9522 14.6449 19.5528 14.5763 20.1976L14.1227 24.5161H12.5806C12.1492 24.5161 11.7397 24.6044 11.3548 24.7417V14.7097ZM11.3548 28.1935C11.3548 27.5181 11.9052 26.9677 12.5806 26.9677H13.8641L12.6652 38.3616L11.3548 38.8863V28.1935ZM6.45161 30.6452V12.2581H8.90323V30.6452H6.45161ZM67.7419 72.3226C67.7419 72.9992 67.1916 73.5484 66.5161 73.5484H61.6129C60.9375 73.5484 60.3871 72.9992 60.3871 72.3226V68.6452H67.7419V72.3226ZM75.0968 53.9355H65.2903V38.5847L72.7849 41.583C74.1897 42.1445 75.0968 43.4843 75.0968 44.9969V53.9355ZM16.25 50.01C8.66875 50.01 2.5 56.1788 2.5 63.76C2.5 71.3413 8.66875 77.51 16.25 77.51C23.8312 77.51 30 71.3413 30 63.76C30 56.1788 23.8312 50.01 16.25 50.01Z" fill="#0A0F1A"/>
</g>
<defs>
<clipPath id="clip0">
<rect width="80" height="80" fill="white"/>
</clipPath>
</defs>
</svg>
