<svg width="350" height="230" viewBox="0 0 350 230" fill="none" xmlns="http://www.w3.org/2000/svg">
<g clip-path="url(#clip0)">
<path fill-rule="evenodd" clip-rule="evenodd" d="M110.475 20.4509H60.9548C60.2381 20.4513 59.5505 20.1677 59.0432 19.6622C58.5359 19.1568 58.2503 18.471 58.2493 17.7555V2.70017C58.2503 1.98468 58.5359 1.29887 59.0432 0.793457C59.5505 0.288041 60.2381 0.0043643 60.9548 0.00476116H110.475C111.191 0.00489241 111.879 0.288739 112.386 0.794041C112.893 1.29934 113.179 1.98484 113.18 2.70017V17.7535C113.179 18.4692 112.894 19.1552 112.386 19.661C111.879 20.1667 111.192 20.4508 110.475 20.4509ZM63.6598 15.0601H107.767V5.39408H63.6598V15.0601Z" fill="#FDD417"/>
<path d="M14.1323 129.725C13.4157 129.725 12.7285 129.441 12.2213 128.936C11.7141 128.431 11.4284 127.745 11.4268 127.03V13.9116C11.43 12.051 12.1727 10.2678 13.4918 8.95346C14.8109 7.63912 16.5986 6.90112 18.4623 6.90152H51.6123C52.3284 6.90152 53.0151 7.1855 53.5215 7.69099C54.0278 8.19647 54.3123 8.88206 54.3123 9.59693C54.3123 10.3118 54.0278 10.9974 53.5215 11.5029C53.0151 12.0084 52.3284 12.2923 51.6123 12.2923H18.4623C18.0321 12.2925 17.6195 12.4629 17.315 12.7662C17.0105 13.0696 16.8389 13.4811 16.8378 13.9106V127.028C16.8367 127.744 16.5512 128.43 16.044 128.935C15.5367 129.441 14.8492 129.725 14.1323 129.725Z" fill="#FDD417"/>
<path d="M160.003 110V13.9121C160 12.0516 159.257 10.2684 157.938 8.95414C156.619 7.63987 154.831 6.90199 152.967 6.90252H119.671C118.955 6.90252 118.268 7.1865 117.762 7.69198C117.255 8.19747 116.971 8.88306 116.971 9.59793C116.971 10.3128 117.255 10.9984 117.762 11.5039C118.268 12.0094 118.955 12.2933 119.671 12.2933H152.967C153.397 12.2933 153.81 12.4637 154.115 12.7671C154.419 13.0705 154.59 13.4821 154.591 13.9116V110H160.003Z" fill="#FDD417"/>
<path d="M83 113.054H34.7353C34.0192 113.054 33.3324 113.338 32.8261 113.843C32.3198 114.349 32.0353 115.034 32.0353 115.749C32.0353 116.464 32.3198 117.15 32.8261 117.655C33.3324 118.161 34.0192 118.445 34.7353 118.445H83V113.054Z" fill="#FDD417"/>
<path d="M43.1398 133.871H83V128.48H43.1398C42.4237 128.48 41.7369 128.764 41.2306 129.27C40.7243 129.775 40.4398 130.461 40.4398 131.175C40.4398 131.89 40.7243 132.576 41.2306 133.081C41.7369 133.587 42.4237 133.871 43.1398 133.871Z" fill="#FDD417"/>
<path d="M18.4623 204.218H41.9193C42.6348 204.218 43.321 203.934 43.8269 203.429C44.3328 202.924 44.617 202.239 44.617 201.525C44.617 200.811 44.3328 200.126 43.8269 199.621C43.321 199.115 42.6348 198.832 41.9193 198.832H18.4623C18.0321 198.832 17.6195 198.661 17.315 198.358C17.0105 198.054 16.8389 197.643 16.8378 197.213L16.8238 180.696C16.8235 180.341 16.7532 179.99 16.6171 179.663C16.4809 179.336 16.2815 179.039 16.0303 178.788C15.7791 178.538 15.4809 178.34 15.1528 178.204C14.8248 178.069 14.4732 178 14.1183 178C13.7634 178 13.4119 178.069 13.0838 178.204C12.7558 178.339 12.4577 178.538 12.2065 178.788C11.9554 179.039 11.7561 179.336 11.6202 179.663C11.4843 179.99 11.4143 180.341 11.4143 180.696L11.4268 197.213C11.4312 199.073 12.1744 200.855 13.4934 202.168C14.8124 203.482 16.5994 204.219 18.4623 204.218Z" fill="#FDD417"/>
<path fill-rule="evenodd" clip-rule="evenodd" d="M23.8638 173.395L61.4198 210.817C62.4694 211.904 63.7251 212.77 65.1137 213.367C66.5024 213.964 67.9961 214.278 69.5078 214.293C71.0196 214.307 72.519 214.02 73.9187 213.45C75.3184 212.88 76.5904 212.037 77.6604 210.971C78.7304 209.905 79.577 208.636 80.1509 207.24C80.7248 205.844 81.0144 204.348 81.0029 202.838C80.9914 201.329 80.679 199.837 80.0839 198.45C79.4888 197.063 78.6229 195.807 77.5368 194.758L39.9803 157.338C40.5826 154.135 40.3943 150.833 39.4316 147.719C38.4689 144.605 36.7608 141.772 34.4551 139.464C32.1494 137.157 29.3154 135.445 26.1982 134.477C23.081 133.508 19.7744 133.312 16.5643 133.906C15.9432 134.019 15.3818 134.347 14.9774 134.831C14.5731 135.315 14.3516 135.925 14.3513 136.556V140.436C14.3519 141.147 14.6349 141.829 15.1383 142.332L20.8883 148.096L20.1883 153.674L14.5883 154.372L8.80179 148.643C8.29518 148.141 7.61004 147.858 6.89579 147.858H3.0028C2.372 147.858 1.76108 148.078 1.27553 148.48C0.789972 148.882 0.460252 149.441 0.343296 150.06C-0.25649 153.252 -0.0652993 156.542 0.90021 159.643C1.86572 162.745 3.57626 165.564 5.88279 167.854C8.20895 170.158 11.0596 171.866 14.191 172.831C17.3224 173.796 20.6413 173.989 23.8638 173.395ZM26.6323 168.529C26.1243 168.024 25.4366 167.741 24.7198 167.741L24.7218 167.742C24.4833 167.742 24.2459 167.774 24.0158 167.836C21.5068 168.505 18.8659 168.507 16.3561 167.841C13.8463 167.174 11.5552 165.863 9.71079 164.038C8.29195 162.63 7.17877 160.946 6.4406 159.089C5.70244 157.233 5.35512 155.245 5.42029 153.249H5.7798L11.7063 159.123C11.9985 159.411 12.352 159.629 12.7405 159.761C13.129 159.893 13.5424 159.936 13.9498 159.887L22.9463 158.763C23.5426 158.689 24.097 158.418 24.5225 157.995C24.9479 157.571 25.2201 157.018 25.2963 156.423L26.4238 147.464C26.4747 147.057 26.4321 146.645 26.2993 146.257C26.1665 145.869 25.9469 145.517 25.6573 145.227L19.7623 139.322V138.966C22.0604 138.894 24.3432 139.362 26.4273 140.332C28.5114 141.301 30.3386 142.745 31.7622 144.547C33.1858 146.35 34.166 148.461 34.6241 150.71C35.0822 152.959 35.0053 155.284 34.3998 157.499C34.2772 157.956 34.2773 158.437 34.4002 158.894C34.5231 159.35 34.7644 159.767 35.0998 160.101L73.7123 198.57C74.2667 199.125 74.7061 199.784 75.0056 200.508C75.305 201.233 75.4585 202.01 75.4574 202.793C75.4563 203.577 75.3005 204.353 74.9989 205.077C74.6974 205.801 74.256 206.458 73.7 207.012C73.144 207.565 72.4842 208.004 71.7584 208.303C71.0325 208.602 70.2548 208.755 69.4696 208.754C68.6844 208.753 67.9072 208.597 67.1822 208.296C66.4572 207.995 65.7987 207.554 65.2443 206.999L26.6323 168.529Z" fill="#FDD417"/>
<path d="M61.7258 104.022H113.579C114.295 104.022 114.982 103.738 115.488 103.233C115.995 102.727 116.279 102.042 116.279 101.327C116.279 100.612 115.995 99.9263 115.488 99.4208C114.982 98.9153 114.295 98.6313 113.579 98.6313H61.7258C61.0097 98.6313 60.3229 98.9153 59.8166 99.4208C59.3102 99.9263 59.0258 100.612 59.0258 101.327C59.0258 102.042 59.3102 102.727 59.8166 103.233C60.3229 103.738 61.0097 104.022 61.7258 104.022Z" fill="#FDD417"/>
<path fill-rule="evenodd" clip-rule="evenodd" d="M36.9551 32.3708C36.9551 30.9901 38.0743 29.8708 39.4551 29.8708H71.4775C72.8582 29.8708 73.9775 30.9901 73.9775 32.3708V43.4101C73.9775 44.7908 72.8582 45.9101 71.4775 45.9101H63.3596V85.1236C63.3596 86.5043 62.2403 87.6236 60.8596 87.6236H50.073C48.6923 87.6236 47.573 86.5043 47.573 85.1236V45.9101H39.4551C38.0743 45.9101 36.9551 44.7908 36.9551 43.4101V32.3708ZM41.9551 40.9101V34.8708H68.9775V40.9101H60.8596C59.4788 40.9101 58.3596 42.0294 58.3596 43.4101V82.6236H52.573V43.4101C52.573 42.0294 51.4537 40.9101 50.073 40.9101H41.9551Z" fill="#FDD417"/>
<path fill-rule="evenodd" clip-rule="evenodd" d="M79.4607 29.8708C78.08 29.8708 76.9607 30.9901 76.9607 32.3708V85.1236C76.9607 86.5043 78.08 87.6236 79.4607 87.6236H90.1629C91.5436 87.6236 92.6629 86.5043 92.6629 85.1236V32.3708C92.6629 30.9901 91.5436 29.8708 90.1629 29.8708H79.4607ZM81.9607 34.8708V82.6236H87.6629V34.8708H81.9607Z" fill="#FDD417"/>
<path fill-rule="evenodd" clip-rule="evenodd" d="M110.412 39.8993C109.744 39.8869 109.099 40.1421 108.621 40.6081C108.142 41.074 107.87 41.7119 107.865 42.3796L107.781 53.3347C107.77 54.6992 108.857 55.8201 110.221 55.8532L116.264 55.9382C118.161 55.9382 120.16 55.4438 121.699 54.0117C123.271 52.5483 123.989 50.4569 123.989 48.0449C123.989 45.9033 123.444 43.9055 122.222 42.3892C120.958 40.8202 119.134 39.9831 117.107 39.9831L110.412 39.8993ZM112.846 44.9403L112.8 50.9038C113.896 50.922 115.176 50.9382 116.264 50.9382C117.352 50.9382 117.965 50.6559 118.293 50.3514C118.586 50.0781 118.989 49.4729 118.989 48.0449C118.989 46.7035 118.646 45.9204 118.329 45.5265C118.054 45.1854 117.687 44.9831 117.107 44.9831C115.985 44.9831 114.282 44.9618 112.873 44.9407L112.846 44.9403Z" fill="#FDD417"/>
<path fill-rule="evenodd" clip-rule="evenodd" d="M129.826 33.48C126.367 30.612 121.755 29.8959 116.36 29.8708L99.6553 29.8708C98.2776 29.875 97.1629 30.9931 97.1629 32.3708V85.1236C97.1629 86.5043 98.2822 87.6236 99.6629 87.6236H110.281C111.658 87.6236 112.776 86.5102 112.781 85.1333L112.855 65.8411L113.282 65.8484L118.133 85.7166C118.406 86.836 119.41 87.6236 120.562 87.6236H132.612C133.4 87.6236 134.142 87.2521 134.614 86.621C135.086 85.99 135.233 85.1727 135.01 84.4167L132.346 75.3408C131.067 70.9715 129.571 65.8449 128.438 61.9097C130.819 60.1466 132.465 58.1218 133.542 55.85C134.825 53.1438 135.213 50.267 135.28 47.43C135.35 44.5016 134.716 41.6546 133.744 39.266C132.788 36.9188 131.417 34.7988 129.826 33.48ZM102.163 34.8647V82.6236H107.791L107.865 63.2881C107.868 62.6193 108.138 61.9794 108.616 61.5114C109.094 61.0435 109.74 60.7866 110.408 60.7981L115.296 60.8824C116.432 60.902 117.412 61.6852 117.681 62.789L122.525 82.6236H129.272C128.808 81.0442 128.207 78.996 127.548 76.7457C126.07 71.6966 124.298 65.6225 123.13 61.5417C122.821 60.4623 123.27 59.3094 124.227 58.7226C126.761 57.1689 128.185 55.4799 129.024 53.7082C129.884 51.894 130.222 49.8058 130.282 47.3115C130.333 45.1559 129.861 42.9897 129.113 41.151C128.347 39.271 127.383 37.9498 126.635 37.329C124.587 35.6315 121.506 34.8948 116.337 34.8708C113.044 34.8554 108.879 34.8554 105.533 34.8593C104.259 34.8607 103.104 34.8627 102.163 34.8647Z" fill="#FDD417"/>
<path d="M203.824 169.785C205.588 168.035 206.545 165.458 206.695 162.054H200.666C200.584 164.077 200.242 165.479 199.641 166.258C199.039 167.023 197.945 167.406 196.359 167.406C194.746 167.406 193.604 166.853 192.935 165.745C192.278 164.638 191.95 162.601 191.95 159.634V153.994C191.991 151.41 192.347 149.558 193.017 148.437C193.687 147.302 194.828 146.734 196.441 146.734C198.027 146.734 199.114 147.138 199.702 147.944C200.304 148.737 200.632 150.187 200.687 152.292H206.736C206.504 148.888 205.54 146.276 203.845 144.458C202.163 142.64 199.695 141.73 196.441 141.73C193.133 141.73 190.549 142.845 188.689 145.073C186.83 147.288 185.9 150.446 185.9 154.548V159.572C185.9 163.688 186.796 166.859 188.587 169.088C190.392 171.303 192.982 172.41 196.359 172.41C199.572 172.41 202.061 171.535 203.824 169.785Z" fill="#FDD417"/>
<path d="M181.881 142.141V162.812C181.854 165.916 180.999 168.295 179.317 169.949C177.636 171.59 175.223 172.41 172.078 172.41C168.879 172.41 166.432 171.576 164.736 169.908C163.055 168.24 162.214 165.827 162.214 162.669V142.141H168.284V162.689C168.284 164.385 168.558 165.595 169.104 166.319C169.651 167.044 170.643 167.406 172.078 167.406C173.514 167.406 174.498 167.051 175.031 166.34C175.564 165.615 175.838 164.433 175.852 162.792V142.141H181.881Z" fill="#FDD417"/>
<path fill-rule="evenodd" clip-rule="evenodd" d="M148.248 161.09H145.254V172H139.225V142.141H148.843C151.864 142.141 154.195 142.927 155.836 144.499C157.49 146.058 158.317 148.279 158.317 151.164C158.317 155.129 156.875 157.904 153.99 159.49L159.22 171.713V172H152.739L148.248 161.09ZM145.254 156.065H148.679C149.882 156.065 150.784 155.669 151.386 154.876C151.987 154.069 152.288 152.996 152.288 151.656C152.288 148.662 151.119 147.165 148.781 147.165H145.254V156.065Z" fill="#FDD417"/>
<path d="M128.355 147.165H135.738V142.141H115.046V147.165H122.306V172H128.355V147.165Z" fill="#FDD417"/>
<path d="M216.437 163.469L218.815 160.475L224.271 172H231.428L222.732 155.266L231.284 142.141H223.901L218.344 151.943L216.437 155.163V142.141H210.407V172H216.437V163.469Z" fill="#FDD417"/>
<path fill-rule="evenodd" clip-rule="evenodd" d="M213.116 220.08C209.014 220.08 205.676 216.742 205.676 212.64C205.676 208.538 209.014 205.2 213.116 205.2C217.218 205.2 220.556 208.538 220.556 212.64C220.556 216.742 217.218 220.08 213.116 220.08ZM213.116 210.16C211.749 210.16 210.636 211.271 210.636 212.64C210.636 214.009 211.749 215.12 213.116 215.12C214.482 215.12 215.596 214.009 215.596 212.64C215.596 211.271 214.482 210.16 213.116 210.16Z" fill="#FDD417"/>
<path fill-rule="evenodd" clip-rule="evenodd" d="M317.276 205.2C321.378 205.2 324.716 208.538 324.716 212.64C324.716 216.742 321.378 220.08 317.276 220.08C313.174 220.08 309.836 216.742 309.836 212.64C309.836 208.538 313.174 205.2 317.276 205.2ZM317.276 215.12C318.642 215.12 319.756 214.009 319.756 212.64C319.756 211.271 318.642 210.16 317.276 210.16C315.909 210.16 314.796 211.271 314.796 212.64C314.796 214.009 315.909 215.12 317.276 215.12Z" fill="#FDD417"/>
<path fill-rule="evenodd" clip-rule="evenodd" d="M250.316 212.64C250.316 208.538 246.978 205.2 242.876 205.2C238.774 205.2 235.436 208.538 235.436 212.64C235.436 216.742 238.774 220.08 242.876 220.08C246.978 220.08 250.316 216.742 250.316 212.64ZM245.356 212.64C245.356 214.009 244.242 215.12 242.876 215.12C241.509 215.12 240.396 214.009 240.396 212.64C240.396 211.271 241.509 210.16 242.876 210.16C244.242 210.16 245.356 211.271 245.356 212.64Z" fill="#FDD417"/>
<path fill-rule="evenodd" clip-rule="evenodd" d="M112.116 220.08C108.014 220.08 104.676 216.742 104.676 212.64C104.676 208.538 108.014 205.2 112.116 205.2C116.218 205.2 119.556 208.538 119.556 212.64C119.556 216.742 116.218 220.08 112.116 220.08ZM112.116 210.16C110.749 210.16 109.636 211.271 109.636 212.64C109.636 214.009 110.749 215.12 112.116 215.12C113.482 215.12 114.596 214.009 114.596 212.64C114.596 211.271 113.482 210.16 112.116 210.16Z" fill="#FDD417"/>
<path fill-rule="evenodd" clip-rule="evenodd" d="M141.876 205.2C145.978 205.2 149.316 208.538 149.316 212.64C149.316 216.742 145.978 220.08 141.876 220.08C137.774 220.08 134.436 216.742 134.436 212.64C134.436 208.538 137.774 205.2 141.876 205.2ZM141.876 215.12C143.242 215.12 144.356 214.009 144.356 212.64C144.356 211.271 143.242 210.16 141.876 210.16C140.509 210.16 139.396 211.271 139.396 212.64C139.396 214.009 140.509 215.12 141.876 215.12Z" fill="#FDD417"/>
<path fill-rule="evenodd" clip-rule="evenodd" d="M195.932 210.16C195.816 210.97 195.756 211.798 195.756 212.64C195.756 217.496 197.764 221.885 200.991 225.04H195.756V230H260.236V225.04H255.005C256.459 223.616 257.654 221.938 258.539 220.08H301.617C302.502 221.938 303.695 223.616 305.151 225.04H280.076V230H349.516V225.04H329.4C332.066 222.434 333.882 218.979 334.437 215.12H342.076C346.178 215.12 349.516 211.782 349.516 207.68V192.8C349.516 189.571 347.435 186.843 344.556 185.816V170.48C344.556 143.131 322.305 120.88 294.956 120.88V113.44C294.956 109.338 291.618 106 287.516 106H285.036V110.96H287.516C288.882 110.96 289.996 112.071 289.996 113.44V120.88H275.116V125.84H265.196V145.68H275.116V150.64H265.196V195.2H260.076V112.64H87.1956V195.2H87V200.2H87.1956V200.24H92.1556V200.2H100.019C96.7742 203.356 94.7556 207.767 94.7556 212.64C94.7556 217.496 96.7644 221.885 99.9909 225.04H84.7556V230H178.236V225.04H154.005C156.671 222.434 158.487 218.979 159.042 215.12L159.266 210.16H195.932ZM227.996 203.744C228.777 202.444 229.722 201.252 230.803 200.2H225.189C226.269 201.252 227.215 202.444 227.996 203.744ZM197.432 205.2C198.326 203.324 199.546 201.633 201.019 200.2H178.956L179.076 200.24H154C155.456 201.664 156.649 203.342 157.534 205.2H197.432ZM126.996 203.744C127.777 202.444 128.722 201.252 129.803 200.2H124.189C125.269 201.252 126.215 202.444 126.996 203.744ZM92.1556 195.2H255.116V117.6H92.1556V195.2ZM200.716 212.64C200.716 205.803 206.278 200.24 213.116 200.24C219.953 200.24 225.516 205.803 225.516 212.64C225.516 219.477 219.953 225.04 213.116 225.04C206.278 225.04 200.716 219.477 200.716 212.64ZM339.596 175.44V185.36H314.796C309.208 185.36 304.067 187.24 299.916 190.367V160.56H294.956V150.64H334.886C335.685 152.242 336.386 153.896 336.992 155.6H327.196C320.358 155.6 314.796 161.163 314.796 168V175.44H339.596ZM327.196 160.56H338.445C339.174 163.757 339.596 167.068 339.596 170.48H319.756V168C319.756 163.898 323.094 160.56 327.196 160.56ZM294.956 165.52V195.344C292.803 198.219 291.238 201.557 290.497 205.2H289.996V165.52H294.956ZM255 200.24H280.076V150.64H289.996V160.56H285.036V205.2H258.534C257.649 203.342 256.456 201.664 255 200.24ZM280.076 135.76H289.996V145.68H280.076V135.76ZM275.116 195.28H270.156V155.6H275.116V195.28ZM270.156 140.72V130.8H275.116V140.72H270.156ZM280.076 130.8V125.84H289.996V130.8H280.076ZM294.956 125.84C310.399 125.84 324.029 133.726 332.047 145.68H294.956V125.84ZM339.596 190.32H342.076C343.442 190.32 344.556 191.431 344.556 192.8V195.28H342.076C340.709 195.28 339.596 194.169 339.596 192.8V190.32ZM329.676 212.64C329.676 219.477 324.113 225.04 317.276 225.04C310.438 225.04 304.876 219.477 304.876 212.64C304.876 205.803 310.438 200.24 317.276 200.24C324.113 200.24 329.676 205.803 329.676 212.64ZM334.437 210.16C333.227 201.763 326.003 195.28 317.276 195.28C307.703 195.28 299.916 203.07 299.916 212.64C299.916 213.483 299.997 214.307 300.114 215.12H294.956V210.16C294.956 199.221 303.856 190.32 314.796 190.32H334.636V192.8C334.636 196.902 337.974 200.24 342.076 200.24H344.556V207.68C344.556 209.049 343.442 210.16 342.076 210.16H334.437ZM289.996 215.12H260.037C260.154 214.307 260.236 213.483 260.236 212.64C260.236 211.797 260.154 210.973 260.037 210.16H289.996V215.12ZM242.876 200.24C249.713 200.24 255.276 205.803 255.276 212.64C255.276 219.477 249.713 225.04 242.876 225.04C236.038 225.04 230.476 219.477 230.476 212.64C230.476 205.803 236.038 200.24 242.876 200.24ZM227.996 221.536C228.767 222.818 229.687 223.998 230.751 225.04H225.24C226.304 224.001 227.224 222.818 227.996 221.536ZM99.7156 212.64C99.7156 205.803 105.278 200.24 112.116 200.24C118.953 200.24 124.516 205.803 124.516 212.64C124.516 219.477 118.953 225.04 112.116 225.04C105.278 225.04 99.7156 219.477 99.7156 212.64ZM141.876 200.24C148.713 200.24 154.276 205.803 154.276 212.64C154.276 219.477 148.713 225.04 141.876 225.04C135.038 225.04 129.476 219.477 129.476 212.64C129.476 205.803 135.038 200.24 141.876 200.24ZM126.996 221.536C127.767 222.818 128.687 223.998 129.751 225.04H124.24C125.304 224.001 126.224 222.818 126.996 221.536Z" fill="#FDD417"/>
<path d="M275.116 230V225.04H265.196V230H275.116Z" fill="#FDD417"/>
</g>
<defs>
<clipPath id="clip0">
<rect width="350" height="230" fill="white"/>
</clipPath>
</defs>
</svg>
