<svg width="100" height="100" viewBox="0 0 100 100" fill="none" xmlns="http://www.w3.org/2000/svg">
<g clip-path="url(#clip0)">
<path fill-rule="evenodd" clip-rule="evenodd" d="M72.5808 4.83881H92.7421C96.7436 4.83881 100 8.09516 100 12.0967V14.5161H0V12.0967C0 8.09516 3.25636 4.83881 7.25821 4.83881H27.4192V0H30.6451V4.83881H69.3549V0H72.5808V4.83881ZM7.25821 8.06434C5.60802 8.06434 4.18544 9.67728 3.56289 11.2902H96.4374C95.8146 9.67728 94.392 8.06434 92.7421 8.06434H7.25821Z" fill="#0A0F1A"/>
<path d="M20.9678 16.129H24.1936V40.3227H20.9678V16.129Z" fill="#0A0F1A"/>
<path fill-rule="evenodd" clip-rule="evenodd" d="M17.7419 88.7098C17.7419 86.0421 19.9131 83.871 22.5808 83.871C25.2484 83.871 27.4192 86.0421 27.4196 88.7098C27.4196 91.3774 25.2484 93.5486 22.5808 93.5486C19.9131 93.5486 17.7419 91.3774 17.7419 88.7098ZM20.9678 88.7098C20.9678 89.6002 21.692 90.3227 22.5808 90.3227C23.4692 90.3227 24.1937 89.6002 24.1937 88.7098C24.1937 87.8193 23.4695 87.0968 22.5808 87.0968C21.692 87.0968 20.9678 87.8193 20.9678 88.7098Z" fill="#0A0F1A"/>
<path fill-rule="evenodd" clip-rule="evenodd" d="M77.4193 83.871C74.7516 83.871 72.5804 86.0421 72.5804 88.7098C72.5804 91.3774 74.7516 93.5486 77.4193 93.5486C80.0869 93.5486 82.2581 91.3774 82.2581 88.7098C82.2581 86.0421 80.0873 83.871 77.4193 83.871ZM77.4193 90.3227C76.5305 90.3227 75.8063 89.6002 75.8063 88.7098C75.8063 87.8193 76.5305 87.0968 77.4193 87.0968C78.308 87.0968 79.0322 87.8193 79.0322 88.7098C79.0322 89.6002 78.308 90.3227 77.4193 90.3227Z" fill="#0A0F1A"/>
<path fill-rule="evenodd" clip-rule="evenodd" d="M27.4192 62.387V66.129H51.6129V50H36.2659L27.4192 62.387ZM48.387 53.2259V62.9031H31.0146L37.9277 53.2259H48.387Z" fill="#0A0F1A"/>
<path fill-rule="evenodd" clip-rule="evenodd" d="M53.2258 50V66.129H77.4195V62.387L68.5728 50H53.2258ZM56.4517 62.9031V53.2259H66.9114L73.8244 62.9031H56.4517Z" fill="#0A0F1A"/>
<path d="M51.613 69.3549H46.7742V72.5808H51.613V69.3549Z" fill="#0A0F1A"/>
<path fill-rule="evenodd" clip-rule="evenodd" d="M87.4938 61.3386L93.9405 62.9516C96.7372 63.4241 100 66.9693 100 70.9675V85.4836C100 87.6903 99.1597 90.3224 95.1612 90.3224H88.5804C88.2176 92.8322 87.0369 95.0789 85.3047 96.7741H100V100H22.5808C16.905 100 12.2068 95.7841 11.4196 90.3227H6.45174C2.9549 90.3227 0 87.3678 0 83.871V72.5807C0 67.7758 3.10969 63.9 7.73579 62.937L17.4761 61.3129C18.8099 61.0453 19.9148 60.2873 21.3631 58.6195L29.3326 47.4502C31.4519 44.7341 33.8344 43.5486 37.0972 43.5486H67.7423C71.0037 43.5486 73.3859 44.7341 75.4649 47.3936L83.5712 58.7404C84.9308 60.2934 85.8697 60.9274 87.4938 61.3386ZM14.5161 88.7098C14.5161 93.1564 18.1338 96.7744 22.5808 96.7744C27.0277 96.7744 30.6454 93.1567 30.6454 88.7098C30.6454 84.2628 27.0277 80.6451 22.5808 80.6451C18.1338 80.6451 14.5161 84.2628 14.5161 88.7098ZM33.7419 90.3224C33.3792 92.8322 32.1984 95.0789 30.4663 96.7741H69.5337C67.7999 95.0789 66.6195 92.8322 66.2581 90.3224H33.7419ZM69.3546 88.7094C69.3546 93.1563 72.9723 96.7741 77.4192 96.7741C81.8661 96.7741 85.4839 93.1563 85.4839 88.7094C85.4839 84.2625 81.8661 80.6448 77.4192 80.6448C72.9723 80.6448 69.3546 84.2625 69.3546 88.7094ZM95.1612 87.0968C96.5482 87.0968 96.7741 86.8692 96.7741 85.4839V70.9678C96.7741 68.5338 94.6531 66.3421 93.2756 66.105L86.7046 64.4663C84.1206 63.8132 82.6222 62.5549 81.04 60.7357L72.8805 49.3246C71.4373 47.481 70.0323 46.7745 67.742 46.7745H37.0969C34.8051 46.7745 33.4002 47.4807 31.9163 49.3791L23.8936 60.6145C21.8807 62.9404 20.1644 64.0612 18.0597 64.4839L8.33057 66.1063C5.89524 66.6144 3.22587 68.5901 3.22587 72.5804H6.45174C8.53244 72.5804 9.67762 73.7256 9.67762 75.8063V79.0322H6.45174V75.8063H3.22587V83.871C3.22587 85.5889 4.73415 87.0968 6.45174 87.0968H11.4196C12.2064 81.6358 16.905 77.4196 22.5808 77.4196C28.2565 77.4196 32.9548 81.6355 33.7419 87.0968H66.2581C67.0449 81.6358 71.7435 77.4196 77.4192 77.4196C83.095 77.4196 87.7932 81.6355 88.5804 87.0968H95.1612Z" fill="#0A0F1A"/>
<path d="M8.0647 96.7741H11.2906V100H8.0647V96.7741Z" fill="#0A0F1A"/>
<path d="M4.83879 96.7741H1.61292V100H4.83879V96.7741Z" fill="#0A0F1A"/>
<path d="M12.9031 16.129H9.67725V46.7741H12.9031V16.129Z" fill="#0A0F1A"/>
<path d="M77.4192 16.129H80.6451V46.7741H77.4192V16.129Z" fill="#0A0F1A"/>
<path d="M91.9356 16.129H88.7097V46.7741H91.9356V16.129Z" fill="#0A0F1A"/>
<path d="M32.2581 16.129H35.4839V40.3227H32.2581V16.129Z" fill="#0A0F1A"/>
<path d="M46.7741 22.5807H43.5482V40.3227H46.7741V22.5807Z" fill="#0A0F1A"/>
<path d="M54.8389 16.129H58.0647V33.871H54.8389V16.129Z" fill="#0A0F1A"/>
<path d="M69.3549 16.129H66.129V40.3227H69.3549V16.129Z" fill="#0A0F1A"/>
<path d="M24.1936 50H20.9678V53.2259H24.1936V50Z" fill="#0A0F1A"/>
<path d="M88.7097 50H91.9356V53.2259H88.7097V50Z" fill="#0A0F1A"/>
<path d="M12.9031 50H9.67725V53.2259H12.9031V50Z" fill="#0A0F1A"/>
<path d="M9.67725 56.4518H12.9031V59.6776H9.67725V56.4518Z" fill="#0A0F1A"/>
<path d="M91.9356 56.4518H88.7097V59.6776H91.9356V56.4518Z" fill="#0A0F1A"/>
<path d="M54.8389 37.0968H58.0647V40.3227H54.8389V37.0968Z" fill="#0A0F1A"/>
<path d="M24.1936 43.5482H20.9678V46.7741H24.1936V43.5482Z" fill="#0A0F1A"/>
<path d="M0 58.0647H3.22587V61.2906H0V58.0647Z" fill="#0A0F1A"/>
<path d="M100 58.0647H96.7742V61.2906H100V58.0647Z" fill="#0A0F1A"/>
<path d="M43.5482 16.129H46.7741V19.3549H43.5482V16.129Z" fill="#0A0F1A"/>
</g>
<defs>
<clipPath id="clip0">
<rect width="100" height="100" fill="white"/>
</clipPath>
</defs>
</svg>
