<svg width="65" height="65" viewBox="0 0 65 65" fill="none" xmlns="http://www.w3.org/2000/svg">
<path fill-rule="evenodd" clip-rule="evenodd" d="M4 40C4 38.8954 4.89543 38 6 38H28C29.1046 38 30 38.8954 30 40V42C30 43.1046 29.1046 44 28 44H6C4.89543 44 4 43.1046 4 42V40ZM8 40H6V42H8V40ZM10 40V42H12V40H10ZM16 40V42H14V40H16ZM20 42V40H18V42H20ZM24 42H22V40H24V42ZM26 42H28V40H26V42Z" fill="#0A0F1A"/>
<path fill-rule="evenodd" clip-rule="evenodd" d="M4 10C4 6.68629 6.68629 4 10 4C13.3137 4 16 6.68629 16 10C16 13.3137 13.3137 16 10 16C6.68629 16 4 13.3137 4 10ZM10 6C7.79086 6 6 7.79086 6 10C6 10.3453 6.04375 10.6804 6.12602 11H9.38198L11.1056 7.55279C11.3526 7.05881 11.9533 6.85859 12.4472 7.10557C12.9412 7.35256 13.1414 7.95324 12.8944 8.44722L11.6181 11H13.874C13.9562 10.6804 14 10.3453 14 10C14 7.79086 12.2091 6 10 6ZM7.35418 13C8.05931 13.6224 8.98555 14 10 14C11.0144 14 11.9407 13.6224 12.6458 13H7.35418Z" fill="#0A0F1A"/>
<path fill-rule="evenodd" clip-rule="evenodd" d="M24 4C20.6863 4 18 6.68629 18 10C18 13.3137 20.6863 16 24 16C27.3137 16 30 13.3137 30 10C30 6.68629 27.3137 4 24 4ZM20 10C20 7.79086 21.7909 6 24 6C26.2091 6 28 7.79086 28 10C28 10.3453 27.9562 10.6804 27.874 11H25.6181L26.8944 8.44722C27.1414 7.95324 26.9412 7.35256 26.4472 7.10557C25.9533 6.85859 25.3526 7.05881 25.1056 7.55279L23.382 11H20.126C20.0438 10.6804 20 10.3453 20 10ZM26.6458 13H21.3542C22.0593 13.6224 22.9856 14 24 14C25.0144 14 25.9407 13.6224 26.6458 13Z" fill="#0A0F1A"/>
<path d="M20 32V30H18V26H16V30H14V24H12V30H10V22H8V32H20Z" fill="#0A0F1A"/>
<path d="M22 26H26V28H22V26Z" fill="#0A0F1A"/>
<path d="M26 22H22V24H26V22Z" fill="#0A0F1A"/>
<path d="M22 30H26V32H22V30Z" fill="#0A0F1A"/>
<path fill-rule="evenodd" clip-rule="evenodd" d="M4 18H30V36H4V18ZM6 20V34H28V20H6Z" fill="#0A0F1A"/>
<path fill-rule="evenodd" clip-rule="evenodd" d="M0 3C0 1.34315 1.34315 0 3 0H31C32.6569 0 34 1.34315 34 3V4H38V3C38 2.17477 38.4025 1.43324 38.9179 0.917893C39.4332 0.402547 40.1748 0 41 0H61C61.8277 0 62.8509 0.131053 63.6764 0.773148C64.5528 1.45478 65 2.543 65 4V25C65 25.8252 64.5975 26.5668 64.0821 27.0821C63.5668 27.5975 62.8252 28 62 28H51C50.8252 28 50.5668 28.0975 50.3321 28.3321C50.0975 28.5668 50 28.8252 50 29V30H51C52.1046 30 53 30.8954 53 32V33H56V32C56 30.8954 56.8954 30 58 30H61C62.1046 30 63 30.8954 63 32V33C64.1046 33 65 33.8954 65 35V40C65 41.1046 64.1046 42 63 42H56C56 43.1046 55.1046 44 54 44H38C36.8954 44 36 43.1046 36 42H34V45H62C63.6569 45 65 46.3431 65 48V62C65 63.6569 63.6569 65 62 65H3C1.34315 65 0 63.6569 0 62V3ZM54 42V35H38V42H54ZM56 40H63V35H56V40ZM61 33V32H58V33H61ZM51 32V33H40V32H51ZM38 32V33C36.8954 33 36 33.8954 36 35V36H34V25H59C60.6569 25 62 23.6569 62 22V7C62 5.34315 60.6569 4 59 4H56V3C56 2.82523 56.0975 2.56676 56.3321 2.33211C56.5668 2.09745 56.8252 2 57 2H61C61.6723 2 62.1491 2.11895 62.4486 2.35185C62.6972 2.54522 63 2.957 63 4V25C63 25.1748 62.9025 25.4332 62.6679 25.6679C62.4332 25.9025 62.1748 26 62 26H43C42.1748 26 41.4332 26.4025 40.9179 26.9179C40.4025 27.4332 40 28.1748 40 29V30C38.8954 30 38 30.8954 38 32ZM34 38H36V40H34V38ZM54 4V3C54 2.64772 54.0734 2.31069 54.1975 2H49C48.8252 2 48.5668 2.09745 48.3321 2.33211C48.0975 2.56676 48 2.82523 48 3V4H54ZM46 4V3C46 2.64772 46.0734 2.31069 46.1975 2H41C40.8252 2 40.5668 2.09745 40.3321 2.33211C40.0975 2.56676 40 2.82523 40 3V4H46ZM44 30V29C44 28.6477 44.0734 28.3107 44.1975 28H43C42.8252 28 42.5668 28.0975 42.3321 28.3321C42.0975 28.5668 42 28.8252 42 29V30H44ZM48 30V29C48 28.6477 48.0734 28.3107 48.1975 28H47C46.8252 28 46.5668 28.0975 46.3321 28.3321C46.0975 28.5668 46 28.8252 46 29V30H48ZM34 8V6H59C59.5523 6 60 6.44772 60 7V8H34ZM54 10H56V20H54V10ZM52 20V10H50V20C50 21.1046 49.1046 22 48 22H46C44.8954 22 44 21.1046 44 20V10H42V20C42 21.1046 41.1046 22 40 22H38C36.8954 22 36 21.1046 36 20V10H34V23H59C59.5523 23 60 22.5523 60 22V10H58V20C58 21.1046 57.1046 22 56 22H54C52.8954 22 52 21.1046 52 20ZM48 10H46V20H48V10ZM38 10H40V20H38V10ZM32 3V63H3C2.44772 63 2 62.5523 2 62V3C2 2.44772 2.44772 2 3 2H31C31.5523 2 32 2.44772 32 3ZM63 51H34V63H62C62.5523 63 63 62.5523 63 62V51ZM63 49V48C63 47.4477 62.5523 47 62 47H34V49H63Z" fill="#0A0F1A"/>
</svg>
