<svg width="100" height="100" viewBox="0 0 100 100" fill="none" xmlns="http://www.w3.org/2000/svg">
<g clip-path="url(#clip0)">
<path d="M30.516 13H40.1933V16.2259H30.516V13Z" fill="#0A0F1A"/>
<path d="M22.6772 13H13V16.2259H22.6772V13Z" fill="#0A0F1A"/>
<path d="M50.516 13H53.7419V16.2259H50.516V13Z" fill="#0A0F1A"/>
<path d="M27.516 58.6128H13V61.8387H27.516V58.6128Z" fill="#0A0F1A"/>
<path d="M76 13.3549H87.2902V16.5807H76V13.3549Z" fill="#0A0F1A"/>
<path d="M87 19H82V22H87V19Z" fill="#0A0F1A"/>
<path d="M76 58.6128H87.2902V61.8387H76V58.6128Z" fill="#0A0F1A"/>
<path d="M48.3869 58.6128H45.161V61.8387H48.3869V58.6128Z" fill="#0A0F1A"/>
<path d="M51.6128 58.6128H54.8386V61.8387H51.6128V58.6128Z" fill="#0A0F1A"/>
<path d="M59.7419 13H56.516V16.2259H59.7419V13Z" fill="#0A0F1A"/>
<path fill-rule="evenodd" clip-rule="evenodd" d="M77.6471 24.7286C78.0307 24.7184 79.25 24.6858 80.0957 25.813C82.3396 28.909 83.8565 30.8654 84.8771 32.1817C86.6138 34.4216 86.9135 34.8081 86.9138 35.8031V48.5182C86.9138 49.8814 85.8047 50.9905 84.4414 50.9905H81.3823C80.9169 54.0986 78.2298 56.49 74.994 56.49C71.7583 56.49 69.071 54.0986 68.6056 50.9905H54.5397C54.0743 54.0986 51.3871 56.49 48.1513 56.49C44.9155 56.49 42.2283 54.0986 41.7629 50.9905H33.9487C33.4833 54.0986 30.7961 56.49 27.5603 56.49C24.3245 56.49 21.6373 54.0986 21.1719 50.9905H19.7263V53.1402C19.7263 53.8759 19.1302 54.472 18.3946 54.472H14.3317C13.5961 54.472 13 53.8759 13 53.1402C13 52.4046 13.5961 51.8085 14.3317 51.8085H17.0629V50.9905H15.832C14.2705 50.9905 13 49.7202 13 48.1587V44.7613C13 44.0257 13.5961 43.4296 14.3317 43.4296H15.8423V21.6134C15.8423 20.1725 17.0146 19.0002 18.4555 19.0002H22.2559C22.9916 19.0002 23.5876 19.5963 23.5876 20.3319C23.5876 21.0676 22.9916 21.6637 22.2559 21.6637H18.5057V43.4294H59.189V21.6635H27.5805C26.8449 21.6635 26.2488 21.0674 26.2488 20.3317C26.2488 19.5961 26.8449 19 27.5805 19H59.2391C60.68 19 61.8523 20.1723 61.8523 21.6132V43.4298H64.074V38.5731C64.074 37.8375 64.67 37.2414 65.4057 37.2414C66.1413 37.2414 66.7374 37.8375 66.7374 38.5731V48.3272H68.7628C69.5121 45.5889 72.0207 43.57 74.9933 43.57C77.966 43.57 80.4746 45.5889 81.2239 48.3272H84.2494V43.5382H83.6219C82.8863 43.5382 82.2902 42.9422 82.2902 42.2065C82.2902 41.4709 82.8863 40.8748 83.6219 40.8748H84.2494V39.6911H76.0477C74.732 39.6911 73.6616 38.6207 73.6616 37.305V27.3917H66.7374V33.2483C66.7374 33.984 66.1413 34.5801 65.4057 34.5801C64.67 34.5801 64.074 33.984 64.074 33.2483V20.3321C64.074 19.5176 64.7979 18.8959 65.6015 19.0147L72.645 20.2096C75.0704 20.5698 76.9929 22.4147 77.5359 24.7279C77.5523 24.7311 77.5906 24.7301 77.6471 24.7286ZM33.791 48.327C33.5662 47.5058 33.1836 46.7497 32.677 46.0931H43.0346C42.5282 46.7497 42.1454 47.5058 41.9206 48.327H33.791ZM27.5601 53.8264C25.4666 53.8264 23.7634 52.1232 23.7634 50.0298C23.7634 49.951 23.7666 49.8729 23.7714 49.7953L23.7716 49.7933C23.8943 47.8098 25.5462 46.2332 27.5601 46.2332C29.5741 46.2332 31.2261 47.8096 31.3486 49.7933L31.3488 49.7953C31.3536 49.8729 31.3568 49.951 31.3568 50.0298C31.3568 52.1233 29.6536 53.8264 27.5601 53.8264ZM21.3296 48.327H15.8322C15.7393 48.327 15.6636 48.2514 15.6636 48.1587V46.0931H22.4436C21.937 46.7497 21.5542 47.5058 21.3296 48.327ZM64.0741 46.0931V48.327H54.3817C54.1569 47.5058 53.7742 46.7497 53.2676 46.0931H64.0741ZM48.1511 53.8264C46.0576 53.8264 44.3544 52.1232 44.3544 50.0298C44.3544 49.951 44.3576 49.8729 44.3624 49.7953L44.3626 49.7933C44.4853 47.8098 46.1372 46.2332 48.1511 46.2332C50.1651 46.2332 51.8171 47.8096 51.9396 49.7933L51.9398 49.7953C51.9446 49.8729 51.9478 49.951 51.9478 50.0298C51.9476 52.1233 50.2446 53.8264 48.1511 53.8264ZM74.9937 53.8264C72.9002 53.8264 71.197 52.1232 71.197 50.0298C71.197 47.9364 72.9002 46.2332 74.9937 46.2332C77.087 46.2332 78.7902 47.9364 78.7902 50.0298C78.7902 52.1233 77.087 53.8264 74.9937 53.8264ZM72.2537 22.8441C73.3692 23.0098 74.2911 23.7467 74.7373 24.7277H66.7376V21.8758L72.2537 22.8441ZM76.3252 37.0274V27.3914H76.3586L76.362 27.3912H77.9253C77.9409 27.3912 77.9558 27.3986 77.9654 27.4114L84.2398 35.7729C84.2462 35.7816 84.25 35.7921 84.25 35.803V37.0274H76.3252Z" fill="#0A0F1A"/>
<path d="M23.7804 41.6284C24.5161 41.6284 25.1122 41.0323 25.1122 40.2966V25.7937C25.1122 25.058 24.5161 24.4619 23.7804 24.4619C23.0448 24.4619 22.4487 25.058 22.4487 25.7937V40.2966C22.4487 41.0323 23.0448 41.6284 23.7804 41.6284Z" fill="#0A0F1A"/>
<path d="M35.6457 25.7937V40.2966C35.6457 41.0323 35.0496 41.6284 34.3139 41.6284C33.5783 41.6284 32.9822 41.0323 32.9822 40.2966V25.7937C32.9822 25.058 33.5783 24.4619 34.3139 24.4619C35.0496 24.4619 35.6457 25.058 35.6457 25.7937Z" fill="#0A0F1A"/>
<path d="M44.7126 40.2966V25.7937C44.7126 25.058 44.1165 24.4619 43.3809 24.4619C42.6452 24.4619 42.0491 25.058 42.0491 25.7937V40.2966C42.0491 41.0323 42.6452 41.6284 43.3809 41.6284C44.1165 41.6284 44.7126 41.0323 44.7126 40.2966Z" fill="#0A0F1A"/>
<path d="M55.2462 25.7937V40.2966C55.2462 41.0323 54.6501 41.6284 53.9144 41.6284C53.1788 41.6284 52.5827 41.0323 52.5827 40.2966V25.7937C52.5827 25.058 53.1788 24.4619 53.9144 24.4619C54.6501 24.4619 55.2462 25.058 55.2462 25.7937Z" fill="#0A0F1A"/>
<path fill-rule="evenodd" clip-rule="evenodd" d="M93.5479 6.90308H6.45172V67.29H93.5479V6.90308ZM90.3221 64.0645H9.67724V10.1289H90.3221V64.0645Z" fill="#0A0F1A"/>
<path fill-rule="evenodd" clip-rule="evenodd" d="M43.5484 75.1935V82.2581H11.2902V85.484H88.7091V82.2581H56.4512V75.1935H95.1609C97.8285 75.1935 99.9997 73.0223 99.9997 70.3547V4.83879C99.9997 2.17112 97.8289 0 95.1609 0H4.83879C2.17112 0 0 2.17112 0 4.83879V70.3547C0 73.0223 2.17112 75.1935 4.83879 75.1935H43.5484ZM53.2257 82.2578H46.774V75.1931H53.2257V82.2578ZM3.22586 70.3547V4.83879C3.22586 3.95002 3.95002 3.22586 4.83879 3.22586H95.1612C96.05 3.22586 96.7741 3.95002 96.7741 4.83879V70.3547C96.7741 71.2451 96.0496 71.9676 95.1609 71.9676H4.83879C3.95002 71.9676 3.22586 71.2451 3.22586 70.3547Z" fill="#0A0F1A"/>
<path fill-rule="evenodd" clip-rule="evenodd" d="M77.4193 98.3867C77.4193 92.1626 82.4837 87.0966 88.7095 87.0966C94.9353 87.0966 99.9997 92.1626 100 98.3867V99.9997H77.4193V98.3867ZM88.7095 90.3221C84.8157 90.3221 81.5563 93.0981 80.8078 96.7738H96.6112C95.8627 93.0978 92.6029 90.3221 88.7095 90.3221Z" fill="#0A0F1A"/>
<path fill-rule="evenodd" clip-rule="evenodd" d="M1.61292 91.9354H6.45171V96.7741H1.61292V100H74.1934V88.7098H1.61292V91.9354ZM66.1288 91.935H70.9676V96.7738H66.1288V91.935ZM58.0645 91.9354H62.9033V96.7741H58.0645V91.9354ZM49.9998 91.935H54.8386V96.7738H49.9998V91.935ZM41.9355 91.935H46.7743V96.7738H41.9355V91.935ZM33.8708 91.935H38.7096V96.7738H33.8708V91.935ZM25.8062 91.935H30.645V96.7738H25.8062V91.935ZM17.7419 91.935H22.5807V96.7738H17.7419V91.935ZM9.67723 91.9354H14.516V96.7741H9.67723V91.9354Z" fill="#0A0F1A"/>
</g>
<defs>
<clipPath id="clip0">
<rect width="100" height="100" fill="white"/>
</clipPath>
</defs>
</svg>
