<svg width="80" height="80" viewBox="0 0 80 80" fill="none" xmlns="http://www.w3.org/2000/svg">
<path fill-rule="evenodd" clip-rule="evenodd" d="M42.5807 43.8708C42.5807 47.4283 39.6865 50.3226 36.129 50.3226C32.5717 50.3226 29.6775 47.4283 29.6772 43.8708C29.6772 40.3133 32.5714 37.4191 36.129 37.4191C39.6865 37.4191 42.5807 40.3133 42.5807 43.8708ZM40 43.8711C40 41.7369 38.2631 40 36.129 40C33.9948 40 32.2582 41.7369 32.2579 43.8711C32.2579 46.0052 33.9948 47.7421 36.129 47.7421C38.2631 47.7421 40 46.0052 40 43.8711Z" fill="#0A0F1A"/>
<path fill-rule="evenodd" clip-rule="evenodd" d="M36.1289 36.1289C38.2631 36.1289 40 34.392 40 32.2579C40 30.1237 38.2631 28.3868 36.1289 28.3868C33.9948 28.3868 32.2579 30.1237 32.2579 32.2579C32.2579 34.392 33.9948 36.1289 36.1289 36.1289ZM36.1289 30.9678C36.8413 30.9678 37.4193 31.5471 37.4193 32.2582C37.4193 32.9692 36.8413 33.5485 36.1289 33.5485C35.4166 33.5485 34.8386 32.9692 34.8386 32.2582C34.8386 31.5471 35.4168 30.9678 36.1289 30.9678Z" fill="#0A0F1A"/>
<path fill-rule="evenodd" clip-rule="evenodd" d="M32.2579 55.484C32.2579 53.3498 33.9948 51.6129 36.1289 51.6129C38.2634 51.6129 40 53.3498 40 55.484C40 57.6181 38.2631 59.355 36.1289 59.355C33.9948 59.355 32.2579 57.6181 32.2579 55.484ZM34.8386 55.484C34.8386 56.195 35.4166 56.7743 36.1289 56.7743C36.8413 56.7743 37.4193 56.195 37.4193 55.484C37.4193 54.7729 36.8413 54.1936 36.1289 54.1936C35.4166 54.1936 34.8386 54.7729 34.8386 55.484Z" fill="#0A0F1A"/>
<path fill-rule="evenodd" clip-rule="evenodd" d="M47.7418 47.7418C49.876 47.7418 51.6129 46.0049 51.6129 43.8707C51.6129 41.7366 49.876 39.9997 47.7418 39.9997C45.6077 39.9997 43.8708 41.7366 43.8708 43.8707C43.871 46.0052 45.6077 47.7418 47.7418 47.7418ZM47.7418 42.5807C48.4542 42.5807 49.0322 43.16 49.0322 43.871C49.0322 44.582 48.4542 45.1614 47.7418 45.1614C47.0294 45.1614 46.4515 44.582 46.4515 43.871C46.4517 43.16 47.0297 42.5807 47.7418 42.5807Z" fill="#0A0F1A"/>
<path fill-rule="evenodd" clip-rule="evenodd" d="M24.5161 40C26.6502 40 28.3871 41.7369 28.3871 43.871C28.3871 46.0052 26.6502 47.7421 24.5161 47.7421C22.382 47.7421 20.6451 46.0052 20.6451 43.871C20.6451 41.7369 22.382 40 24.5161 40ZM24.5161 42.5807C23.8037 42.5807 23.2257 43.16 23.2257 43.871C23.2257 44.5821 23.8037 45.1614 24.5161 45.1614C25.2285 45.1614 25.8064 44.5821 25.8064 43.871C25.8064 43.16 25.2285 42.5807 24.5161 42.5807Z" fill="#0A0F1A"/>
<path fill-rule="evenodd" clip-rule="evenodd" d="M56.774 43.8711C56.774 55.2541 47.5123 64.5161 36.1289 64.5161C24.7459 64.5161 15.4839 55.2541 15.4839 43.8711C15.4839 32.488 24.7459 23.226 36.1289 23.226C47.512 23.226 56.774 32.488 56.774 43.8711ZM54.1936 43.8711C54.1936 33.9097 46.0903 25.8064 36.1289 25.8064C26.1676 25.8064 18.0643 33.9097 18.0643 43.8711C18.0643 53.8324 26.1676 61.9357 36.1289 61.9357C46.0903 61.9357 54.1936 53.8324 54.1936 43.8711Z" fill="#0A0F1A"/>
<path d="M52.6271 69.0165L50.613 67.4037C51.1666 66.7109 51.7007 65.9885 52.2025 65.2566L54.3342 66.712C53.7961 67.4978 53.2232 68.2733 52.6271 69.0165Z" fill="#0A0F1A"/>
<path d="M53.6272 62.9935L55.8595 64.2876C56.3369 63.4644 56.7886 62.6114 57.2013 61.7522L54.8748 60.6334C54.4903 61.4322 54.0697 62.2272 53.6272 62.9935Z" fill="#0A0F1A"/>
<path d="M58.3445 59.1225L55.9408 58.1819C56.2684 57.3447 56.5626 56.4968 56.8127 55.663L59.285 56.4063C59.0141 57.307 58.6968 58.2204 58.3445 59.1225Z" fill="#0A0F1A"/>
<path d="M21.6452 20.338L19.6311 18.7252C19.0349 19.4685 18.4621 20.244 17.924 21.0298L20.0557 22.4852C20.5575 21.7536 21.0916 21.0309 21.6452 20.338Z" fill="#0A0F1A"/>
<path d="M16.3987 23.4542L18.631 24.7483C18.1885 25.5149 17.7676 26.3096 17.3834 27.1084L15.0569 25.9896C15.4696 25.1304 15.9213 24.2774 16.3987 23.4542Z" fill="#0A0F1A"/>
<path d="M13.9123 28.6193C13.56 29.5214 13.2427 30.4348 12.9718 31.3355L15.4441 32.0788C15.6945 31.2453 15.9887 30.3974 16.3163 29.5588L13.9123 28.6193Z" fill="#0A0F1A"/>
<path d="M23.5934 67.0257C22.6914 66.7548 21.7779 66.4386 20.8786 66.0863L21.818 63.6839C22.6529 64.0101 23.5018 64.3031 24.3367 64.5548L23.5934 67.0257Z" fill="#0A0F1A"/>
<path d="M10.9845 60.3678C11.7302 60.964 12.5057 61.5381 13.2877 62.0736L14.7444 59.9432C14.0155 59.4452 13.2929 58.9098 12.5973 58.3535L10.9845 60.3678Z" fill="#0A0F1A"/>
<path d="M18.2489 64.9421C17.3975 64.5318 16.5445 64.0815 15.7148 63.6027L17.0051 61.3677C17.7793 61.8129 18.574 62.2348 19.3677 62.6169L18.2489 64.9421Z" fill="#0A0F1A"/>
<path d="M25.8064 70.9678V73.5485C38.769 73.5485 46.9213 67.0854 47.2619 66.8104L45.6413 64.8025C45.5651 64.8645 37.8659 70.9678 25.8064 70.9678Z" fill="#0A0F1A"/>
<path d="M13.1899 55.004C12.9149 54.6634 6.45175 46.5111 6.45175 33.5485H9.03245C9.03245 45.5589 15.1371 53.3072 15.2002 53.3847L13.1899 55.004Z" fill="#0A0F1A"/>
<path d="M45.3898 8.97418L44.7213 11.4671C56.2567 14.5561 65.3406 23.6387 68.431 35.173L70.9239 34.5045C67.5975 22.0825 57.8129 12.2992 45.3898 8.97418Z" fill="#0A0F1A"/>
<path d="M73.5485 37.4193H70.9678V40H73.5485V37.4193Z" fill="#0A0F1A"/>
<path d="M65.8064 37.4193H68.3871V40H65.8064V37.4193Z" fill="#0A0F1A"/>
<path d="M42.5807 5.16144H40V7.74213H42.5807V5.16144Z" fill="#0A0F1A"/>
<path fill-rule="evenodd" clip-rule="evenodd" d="M34.8386 0H36.1289C60.3201 0 80 19.6801 80 43.871L79.9997 45.1614H72.2257C71.5417 64.4865 55.618 80 36.1289 80C16.2077 80 0 63.7923 0 43.871C0 24.382 15.5134 8.45799 34.8386 7.77407V0ZM2.58043 43.8708C2.58043 62.3689 17.6297 77.4193 36.1289 77.4193C54.1963 77.4193 68.964 63.0632 69.6452 45.1614H64.6982C65.4192 48.116 65.8064 51.1433 65.8064 54.1936H63.2257C63.2257 51.1395 62.813 48.1084 62.0362 45.1614H58.0646V43.871C58.0646 31.7756 48.2247 21.9357 36.1292 21.9357H34.8389V18.7317C29.7362 20.5002 26.7431 22.842 26.6205 22.9378L26.6169 22.9407L24.9962 20.9317C25.1523 20.8052 28.7226 17.9679 34.8386 16.0101V10.3548C16.9352 11.036 2.58043 25.8051 2.58043 43.8708ZM37.4196 19.3886C49.9123 20.04 59.96 30.0877 60.6117 42.5807H77.399C76.7281 20.8374 59.1628 3.27221 37.4196 2.60129V19.3886Z" fill="#0A0F1A"/>
</svg>
