<svg width="80" height="80" viewBox="0 0 80 80" fill="none" xmlns="http://www.w3.org/2000/svg">
<path d="M15.4839 14.1935H12.9032V21.9353H15.4839V14.1935Z" fill="#0A0F1A"/>
<path d="M18.0645 14.1935H20.6452V21.9353H18.0645V14.1935Z" fill="#0A0F1A"/>
<path d="M38.7095 14.1935H36.1288V16.7742H38.7095V14.1935Z" fill="#0A0F1A"/>
<path d="M23.2256 14.1935H25.8063V16.7742H23.2256V14.1935Z" fill="#0A0F1A"/>
<path d="M38.7095 19.3549H36.1288V21.9356H38.7095V19.3549Z" fill="#0A0F1A"/>
<path fill-rule="evenodd" clip-rule="evenodd" d="M7.74182 9.03217H43.8707V27.0967H7.74182V9.03217ZM10.3225 24.516H41.2902V11.6129H10.3225V24.516Z" fill="#0A0F1A"/>
<path fill-rule="evenodd" clip-rule="evenodd" d="M11.6128 50.3224C11.6128 42.4966 17.9805 36.1288 25.8063 36.1288C33.6321 36.1288 39.9999 42.4966 39.9999 50.3224C39.9999 58.1482 33.6321 64.5159 25.8063 64.5159C17.9805 64.5159 11.6128 58.1482 11.6128 50.3224ZM14.1935 50.3224C14.1935 52.0528 14.5845 53.6902 15.2657 55.1675L30.6515 39.7817C29.1742 39.1005 27.5367 38.7095 25.8063 38.7095C19.4026 38.7095 14.1935 43.9186 14.1935 50.3224ZM32.9184 41.164L16.6463 57.4361C17.2413 58.1999 17.9291 58.8876 18.6926 59.4824L34.9648 43.2103C34.37 42.4454 33.6836 41.7587 32.9184 41.164ZM25.8063 61.9352C32.2101 61.9352 37.4192 56.7264 37.4192 50.3224C37.4192 48.592 37.0282 46.9545 36.347 45.4772L20.9612 60.863C22.4385 61.5442 24.0759 61.9352 25.8063 61.9352Z" fill="#0A0F1A"/>
<path d="M27.0967 32.2581H24.516V34.8387H27.0967V32.2581Z" fill="#0A0F1A"/>
<path d="M24.516 65.8062H27.0967V68.3869H24.516V65.8062Z" fill="#0A0F1A"/>
<path d="M43.8709 49.032H41.2902V51.6127H43.8709V49.032Z" fill="#0A0F1A"/>
<path d="M7.74182 49.032H10.3225V51.6127H7.74182V49.032Z" fill="#0A0F1A"/>
<path d="M37.7976 40.9122L39.6224 39.0874L37.0421 36.5071L35.2173 38.3319L37.7976 40.9122Z" fill="#0A0F1A"/>
<path d="M14.5709 64.1382L11.9906 61.5579L13.8154 59.7331L16.3957 62.3134L14.5709 64.1382Z" fill="#0A0F1A"/>
<path d="M35.2165 62.3137L37.0413 64.1385L39.6216 61.5582L37.7968 59.7334L35.2165 62.3137Z" fill="#0A0F1A"/>
<path d="M16.3964 38.3319L13.8161 40.9122L11.9913 39.0874L14.5716 36.5071L16.3964 38.3319Z" fill="#0A0F1A"/>
<path d="M10.3228 70.9676H5.16138V73.5483H10.3228V70.9676Z" fill="#0A0F1A"/>
<path d="M41.2902 70.9676H46.4516V73.5483H41.2902V70.9676Z" fill="#0A0F1A"/>
<path fill-rule="evenodd" clip-rule="evenodd" d="M78.7094 18.0645H79.9997L80 20.645H78.7096V30.9677C78.7096 32.6477 77.6271 34.0673 76.129 34.6014V59.3548C76.129 69.316 68.0257 77.4193 58.0644 77.4193H51.3753C50.841 78.9175 49.4216 80 47.7417 80H3.87103C1.7369 80 0 78.2631 0 76.129V3.87103C0 1.7369 1.7369 0 3.87103 0H47.7417C49.8761 0 51.6127 1.7369 51.6124 3.87103V64.5159H54.1931C57.7506 64.5159 60.6448 61.6217 60.6448 58.0641V34.6011C59.1467 34.0668 58.0641 32.6474 58.0641 30.9675V20.645H56.7738V18.0643H58.0641V9.03214H60.6448V0H63.2255V9.03214H65.8062V18.0643H67.0965V20.645H65.8062V30.9677C65.8062 32.6477 64.7237 34.0673 63.2255 34.6014V58.0644C63.2255 63.0437 59.1727 67.0965 54.1934 67.0965H51.6124V74.8383H58.0641C66.6023 74.8383 73.548 67.8926 73.548 59.3545V34.6011C72.0498 34.0668 70.9673 32.6474 70.9673 30.9675V20.645H69.677V18.0643H70.9673V9.03214H73.548V0H76.1287V9.03214H78.7094V18.0645ZM63.2258 11.6128H60.6451V18.0645H63.2258V11.6128ZM63.2255 20.645H60.6448V30.9675C60.6448 31.6798 61.2228 32.2578 61.9352 32.2578C62.6475 32.2578 63.2255 31.6798 63.2255 30.9675V20.645ZM47.7417 77.419C48.454 77.419 49.032 76.8411 49.032 76.1287V3.87103C49.032 3.15866 48.454 2.58069 47.7417 2.58069H3.87103C3.15866 2.58069 2.58069 3.15866 2.58069 3.87103V76.1287C2.58069 76.8411 3.15866 77.419 3.87103 77.419H47.7417ZM74.8383 32.2581C75.5507 32.2581 76.1287 31.6801 76.1287 30.9677V20.645H73.548V30.9677C73.548 31.6801 74.126 32.2581 74.8383 32.2581ZM73.5483 18.0645H76.129V11.6128H73.5483V18.0645Z" fill="#0A0F1A"/>
</svg>
