<svg width="80" height="80" viewBox="0 0 80 80" fill="none" xmlns="http://www.w3.org/2000/svg">
<path fill-rule="evenodd" clip-rule="evenodd" d="M27.5025 40C27.5025 42.7575 29.745 45 32.5025 45C35.26 45 37.5025 42.7575 37.5025 40C37.5025 37.2425 35.26 35 32.5025 35C29.745 35 27.5025 37.2425 27.5025 40ZM30.0025 40C30.0025 38.6213 31.1238 37.5 32.5025 37.5C33.88 37.5 35.0025 38.6213 35.0025 40C35.0025 41.3787 33.8813 42.5 32.5025 42.5C31.1238 42.5 30.0025 41.3787 30.0025 40Z" fill="#0A0F1A"/>
<path fill-rule="evenodd" clip-rule="evenodd" d="M52.5025 61.25C51.5769 61.25 50.7094 60.9973 49.9652 60.5574L49.9492 60.5482L49.9375 60.5412L28.3362 47.6925C28.1387 47.5851 27.9458 47.4703 27.7578 47.3484L27.7163 47.3237C27.6669 47.2945 27.6203 47.2624 27.5765 47.2278C25.2697 45.6503 23.7525 42.9986 23.7525 40C23.7525 35.1763 27.6788 31.25 32.5025 31.25C35.0975 31.25 37.4328 32.3863 39.0368 34.1873C39.0523 34.2027 39.0676 34.2186 39.0825 34.235L56.1193 52.8006C56.9759 53.6984 57.5025 54.9138 57.5025 56.25C57.5025 59.0075 55.26 61.25 52.5025 61.25ZM47.5029 56.1852L34.5826 48.5001C38.3157 47.5859 41.1175 44.2691 41.2478 40.2898L51.4147 51.3691C49.199 51.8624 47.533 53.8298 47.5029 56.1852ZM26.2525 40C26.2525 42.1808 27.3752 44.1043 29.073 45.2228L29.5677 45.5171C30.4433 45.9847 31.4425 46.25 32.5025 46.25C35.9488 46.25 38.7525 43.4463 38.7525 40C38.7525 36.5537 35.9488 33.75 32.5025 33.75C29.0563 33.75 26.2525 36.5537 26.2525 40ZM54.3324 54.5486C53.8754 54.0575 53.2239 53.75 52.5025 53.75C51.1238 53.75 50.0025 54.8713 50.0025 56.25C50.0025 57.6287 51.1238 58.75 52.5025 58.75C53.8813 58.75 55.0025 57.6287 55.0025 56.25C55.0025 55.606 54.7576 55.0181 54.3561 54.5745L54.3324 54.5486Z" fill="#0A0F1A"/>
<path fill-rule="evenodd" clip-rule="evenodd" d="M30.0025 20H26.2475C24.18 20 22.4975 18.3175 22.4975 16.25V13.7462C22.4975 11.6787 24.18 9.99622 26.2475 9.99622H55.0025C57.07 9.99622 58.7525 11.6787 58.7525 13.7462V16.25C58.7525 18.3175 57.07 20 55.0025 20H51.2475V21.2438H54.9975C55.29 21.2438 55.5738 21.3463 55.7988 21.5338L62.95 27.5H67.4975C68.1888 27.5 68.7475 28.0588 68.7475 28.75V36.25H70V33.75C70 33.0588 70.5587 32.5 71.25 32.5H78.75C79.4413 32.5 80 33.0588 80 33.75V63.75C80 64.4412 79.4413 65 78.75 65H71.25C70.5587 65 70 64.4412 70 63.75V61.25H68.7475V68.7538C68.7475 69.445 68.1888 70.0038 67.4975 70.0038H27.505C27.2588 70.0038 27.0163 69.93 26.8113 69.7938L11.8088 59.7838C11.4613 59.5513 11.2525 59.1613 11.2525 58.7438V48.7524H10.005L10.005 61.245C10.005 61.677 9.78674 62.0573 9.45428 62.2817C9.25481 62.4164 9.01422 62.495 8.755 62.495C5.9975 62.495 3.755 60.2525 3.755 57.495V48.7499H1.25C0.55875 48.7499 0 48.1912 0 47.4999V43.7524C0 43.0612 0.55875 42.5024 1.25 42.5024H3.755V33.7338L3.75507 33.7198C3.76894 31.0524 5.88103 28.8732 8.52206 28.7516C8.59752 28.7374 8.67538 28.73 8.755 28.73C9.44625 28.73 10.005 29.2887 10.005 29.98L10.005 29.9962L10.005 42.5024H11.2525V32.5038C11.2525 31.8125 11.8113 31.2538 12.5025 31.2538H16.9475L25.3238 21.6713C25.56 21.4 25.905 21.2438 26.265 21.2438H30.0025V20ZM70 38.75H68.7475V58.75H70V38.75ZM66.2475 37.4937C66.2475 37.4958 66.2475 37.4979 66.2475 37.5C66.2475 37.5021 66.2475 37.5042 66.2475 37.5063V59.9937L66.2475 60L66.2475 60.0063V67.5038H27.8838L13.7513 58.075V47.559C13.7521 47.5402 13.7525 47.5214 13.7525 47.5024C13.7525 47.4835 13.7521 47.4646 13.7513 47.4459V43.809C13.7521 43.7902 13.7525 43.7714 13.7525 43.7524C13.7525 43.7335 13.7521 43.7146 13.7513 43.6959V33.755H17.5138C17.8738 33.755 18.2188 33.5988 18.455 33.3275L26.8313 23.745H54.5438L61.6963 29.71C61.9213 29.8975 62.205 30 62.4975 30H66.2475V37.4937ZM72.5 62.5V35H77.5V62.5H72.5ZM32.5025 20H48.7475V21.2438H32.5025V20ZM26.2475 12.4962C25.5575 12.4962 24.9975 13.0562 24.9975 13.7462V16.25C24.9975 16.94 25.5575 17.5 26.2475 17.5H55.0025C55.6925 17.5 56.2525 16.94 56.2525 16.25V13.7462C56.2525 13.0562 55.6925 12.4962 55.0025 12.4962H26.2475ZM10.005 46.2524H11.2525V45.0024H10.005V46.2524ZM7.505 59.6596C6.75873 59.2271 6.25566 58.4197 6.25501 57.4968L6.25501 33.7431C6.25614 32.8207 6.75908 32.0139 7.505 31.5816V59.6596ZM3.7525 46.2499H2.5V45.0024H3.7525V46.2499Z" fill="#0A0F1A"/>
</svg>
