<svg width="18" height="18" viewBox="0 0 18 18" fill="none" xmlns="http://www.w3.org/2000/svg">
<path fill-rule="evenodd" clip-rule="evenodd" d="M10.7286 13.1428C9.77735 13.6882 8.67509 14 7.5 14C3.91015 14 1 11.0899 1 7.5C1 3.91015 3.91015 1 7.5 1C11.0899 1 14 3.91015 14 7.5C14 9.18955 13.3554 10.7285 12.2987 11.8844L15.7071 15.2929C16.0976 15.6834 16.0976 16.3166 15.7071 16.7071C15.3166 17.0976 14.6834 17.0976 14.2929 16.7071L10.7286 13.1428ZM12 7.5C12 9.98528 9.98528 12 7.5 12C5.01472 12 3 9.98528 3 7.5C3 5.01472 5.01472 3 7.5 3C9.98528 3 12 5.01472 12 7.5Z" fill="#0A0F1A"/>
</svg>
