<svg width="120" height="120" viewBox="0 0 120 120" fill="none" xmlns="http://www.w3.org/2000/svg">
<path d="M38.3087 12.1926C37.1462 13.2717 36.2966 14.6657 35.7601 16.2845C35.2683 17.9482 35 19.8368 35 21.9951V54.4604C35 54.7752 35.2683 55 35.5365 55H45.6862C47.1617 55 48.6371 54.6852 50.0232 54.1457L73.2734 45.9169C73.5864 45.782 73.9441 46.0518 73.9441 46.4115V54.5054C73.9441 54.8201 74.2124 55.045 74.4807 55.045H86.4635C86.7764 55.045 87 54.7752 87 54.5054V30.089C87 29.7292 86.6423 29.4594 86.2846 29.5943L48.6371 43.5787C48.2794 43.7136 47.9218 43.4438 47.9218 43.0841V26.6266C47.9218 25.5024 48.0112 24.5132 48.2794 23.6588C48.503 22.8045 48.9501 22.0401 49.5761 21.4106C50.2021 20.781 51.0069 20.2864 52.0353 19.9717C53.0636 19.6569 54.3603 19.477 55.9252 19.477H65.9854C67.5503 19.477 68.8469 19.6569 69.8753 19.9717C70.9037 20.2864 71.7085 20.781 72.3345 21.4106C72.9604 22.0401 73.3629 22.8045 73.6311 23.6588C73.8547 24.5132 73.9888 25.5024 73.9888 26.6266V29.2346C73.9888 29.5943 74.3465 29.8641 74.7042 29.7292L86.5976 25.0078C86.7764 24.9179 86.9106 24.738 86.9106 24.5132V22.3099C86.9106 20.0616 86.687 18.1281 86.1505 16.4643C85.6586 14.8006 84.8091 13.4067 83.6019 12.3275C82.4394 11.2483 80.8745 10.3939 78.9071 9.85435C76.9398 9.2698 74.5254 9 71.6638 9H50.2021C47.3405 9 44.9708 9.2698 43.0034 9.76442C41.0361 10.304 39.5159 11.1134 38.3087 12.1926Z" fill="white"/>
<path d="M119.964 69.1772C119.964 68.4437 119.801 68.1177 119.068 68.0362C118.475 67.9704 115.967 68.0109 114.854 68.0289L114.852 68.029C114.589 68.0332 114.404 68.0362 114.341 68.0362C113.526 68.1177 113.362 68.3622 113.362 69.0957C113.362 69.6694 113.362 79.0386 113.282 80.7497C113.2 83.1946 112.385 83.5205 111.245 83.8466C110.103 84.1725 106.273 84.0911 105.783 84.0095C104.317 83.8466 103.338 83.1946 103.338 80.8312V69.1772C103.338 68.4437 103.012 68.1992 102.361 68.1177C102.228 68.1177 101.936 68.1133 101.557 68.1076C100.305 68.0886 98.0963 68.0552 97.4706 68.1177C96.5357 68.1957 96.4947 68.5717 96.4214 69.2458L96.4111 69.3402C96.4111 69.5833 96.4088 70.0662 96.4059 70.7103C96.3911 73.952 96.3575 81.278 96.4929 82.7056C96.8188 86.6989 98.7756 88.4103 102.279 88.6548C105.457 88.8993 113.036 88.9809 115.319 88.4103C118.986 87.5139 119.801 84.6615 119.964 80.9942C120.029 79.4274 119.99 73.3636 119.971 70.5518C119.967 69.8533 119.964 69.3555 119.964 69.1772Z" fill="white"/>
<path d="M57.4537 68.1178C57.8614 68.0363 61.7736 68.0363 62.4254 68.1178C63.1591 68.1993 63.3213 68.5252 63.3213 69.2587C63.4031 71.2961 63.3213 79.7718 63.2409 82.1351C63.1591 85.6395 61.7736 88.2474 56.8836 88.5733C54.1946 88.8178 48.1635 88.7364 46.7781 88.6549C46.644 88.645 46.5002 88.6362 46.3484 88.627C44.0092 88.4852 39.7645 88.2277 39.6879 81.6461C39.6198 77.1504 39.6655 71.8576 39.6824 69.9078L39.6824 69.9057C39.6857 69.5239 39.6879 69.2707 39.6879 69.1772C39.6879 68.2808 40.1769 68.1178 40.6659 68.1178H45.3926C46.2891 68.1993 46.3706 68.6067 46.3706 69.3402V79.8533C46.3706 82.9502 46.8596 83.7651 49.386 84.0096C50.8529 84.0911 51.9937 84.0911 53.5428 84.0096C56.2318 83.8466 56.5577 82.3796 56.5577 80.1792V69.1772C56.5577 68.2808 56.9655 68.1993 57.4537 68.1178Z" fill="white"/>
<path d="M91.7652 70.8072C90.9497 68.9327 89.4007 68.1993 86.0598 68.1178C83.8224 68.0456 72.2573 68.1012 69.4106 68.1149C69.0423 68.1167 68.82 68.1178 68.7826 68.1178C67.8049 68.1178 67.7231 68.5252 67.7231 69.4217V72.0296C67.8049 72.7631 68.2931 72.8446 68.7826 72.8446C68.9019 72.8446 70.8447 72.8336 73.308 72.8198L73.341 72.8196C77.6045 72.7957 83.4043 72.7631 84.0225 72.7631C84.5107 72.7631 84.6743 72.9261 84.6743 73.1705C84.6743 73.415 84.5925 73.578 84.1848 73.741C82.5442 74.4841 80.4918 75.3918 78.4612 76.2899L78.4591 76.2908C75.1452 77.7565 71.8896 79.1964 70.5758 79.8533C67.479 81.4017 66.7454 83.1132 66.9077 84.9061C67.0713 86.8619 68.2931 88.6548 72.6949 88.7364C76.5253 88.8993 87.6089 88.7364 90.3798 88.6548C91.3575 88.6548 91.4379 88.2474 91.5197 87.5954V85.558C91.5197 84.3355 91.3575 84.0096 90.2979 84.0096C90.0955 84.0096 89.2707 84.0247 88.0987 84.0461C84.5487 84.1109 77.8138 84.2339 75.5462 84.1726C75.058 84.1726 74.8944 83.9281 75.058 83.602C75.1398 83.4392 75.4654 83.2763 76.1164 82.9507L76.1176 82.9501C76.3933 82.8295 76.7191 82.6879 77.0856 82.5286C80.1852 81.1815 86.1947 78.5698 89.4007 76.6749C91.6015 75.4525 92.8234 73.252 91.7652 70.8072Z" fill="white"/>
<path d="M6.03077 68.1993C5.62332 68.1178 1.54839 68.1178 0.896445 68.1993C0.244496 68.1993 0 68.5253 0 69.1773V88.0029C0 88.7565 0.487716 88.8133 1.07656 88.8819L1.07774 88.8821C1.12523 88.8876 1.17389 88.8933 1.22249 88.8994H5.94923C6.84568 88.818 6.92722 88.329 6.92722 87.5955V69.1773C6.84568 68.5253 6.68272 68.1993 6.03077 68.1993Z" fill="white"/>
<path d="M38.1773 99.215C38.2181 99.1743 38.2793 99.1539 38.3404 99.1335C38.4016 99.1131 38.4628 99.0927 38.5036 99.052C38.7484 98.8887 38.9115 98.7256 39.0747 98.3993L39.1562 98.2361C39.3193 97.8282 39.4826 97.3388 39.6456 96.7678L39.972 95.952H39.8904V95.8705L26.2671 95.952H24.8803L23.8198 99.215H29.0407L25.3698 109.902L25.1251 110.554H29.2039L32.5485 101.01L33.2011 99.215H38.1773Z" fill="white"/>
<path fill-rule="evenodd" clip-rule="evenodd" d="M47.3955 95.952H54.9827C57.8368 96.0336 58.1641 97.7467 57.5927 99.6229L53.7582 110.636H49.6796L51.6375 104.926H44.7035L42.7456 110.636H38.6668L42.5825 99.4598C43.1534 97.7467 45.0298 95.952 47.3955 95.952ZM53.1064 100.683C53.3505 99.8677 52.7791 99.215 51.8819 99.1335H48.3743C47.3955 99.1335 46.4981 99.8677 46.1718 100.683L45.8455 101.499H52.7791L53.1064 100.683Z" fill="white"/>
<path fill-rule="evenodd" clip-rule="evenodd" d="M89.6516 95.952H97.2388C100.094 96.0336 100.42 97.7467 99.8488 99.6229L96.0156 110.636H91.9357L93.8938 104.926H86.9598L85.0016 110.636H80.923L84.8393 99.4598C85.4107 97.7467 87.287 95.952 89.6516 95.952ZM95.3624 100.683C95.6065 99.8677 95.0365 99.215 94.1393 99.1335H90.6307C89.6516 99.1335 88.7543 99.8677 88.4284 100.683L88.1025 101.499H95.0365L95.3624 100.683Z" fill="white"/>
<path d="M66.4031 95.952C64.0372 95.952 62.1609 97.7467 61.5895 99.3783L57.6745 110.554H61.7532L62.405 108.678L63.7113 104.844L64.8527 101.581L65.1786 100.765C65.5059 99.9492 66.4031 99.215 67.3822 99.215H69.1767L65.2604 110.554H69.339L73.2553 99.215H74.968C75.8653 99.215 76.4367 99.9492 76.1926 100.765L75.8653 101.662L74.724 104.926L73.0099 109.983L72.7658 110.636H76.8444L80.6789 99.6229C81.2503 97.8282 80.923 96.0336 78.0676 95.952H66.4031Z" fill="white"/>
<path fill-rule="evenodd" clip-rule="evenodd" d="M9.78864 95.952H17.3753C20.2305 96.0336 20.5568 97.7467 19.9857 99.6229L16.1516 110.636H12.0729L14.0306 104.926H7.09671L5.13881 110.636H1.05994L4.89404 99.3783C5.54667 97.7467 7.34134 95.952 9.78864 95.952ZM15.4991 100.683C15.7437 99.8677 15.1728 99.215 14.2754 99.1335H10.7676C9.78864 99.1335 8.89137 99.8677 8.56506 100.683L8.23874 101.499H15.1728L15.4991 100.683Z" fill="white"/>
<path d="M99.9306 110.554H104.009L106.946 102.07L110.943 110.473H114.941L119.999 95.8705H115.919L112.983 104.273L108.986 95.8705H104.906L99.9306 110.554Z" fill="white"/>
<path d="M33.1671 79.2827C36.59 81.1572 36.3455 84.8245 35.0416 86.6174C33.8191 88.1659 32.1077 88.7363 29.0108 88.8179C27.055 88.8993 17.8458 88.8993 12.467 88.8179C11.5706 88.8179 11.4076 88.4918 11.4076 87.5954V85.395C11.489 84.4986 11.6521 84.1725 12.5486 84.1725C12.895 84.1725 15.3769 84.202 18.2288 84.2358L18.2625 84.2362L18.2677 84.2363C22.116 84.282 26.6219 84.3355 27.4624 84.3355C28.0328 84.3355 28.5218 84.3355 28.6034 84.091C28.7663 83.7651 28.6849 83.439 27.7069 83.1131C25.615 82.3394 23.4627 81.5959 21.4695 80.9074L21.468 80.9069L21.465 80.9059C17.7918 79.6371 14.6598 78.5552 13.445 77.8158C11.489 76.5933 10.6741 74.6374 11.0002 72.6C11.3261 70.4811 12.5486 68.4437 16.9494 68.2807C20.2544 68.1401 29.9302 68.1814 33.2028 68.1954C33.723 68.1977 34.0814 68.1992 34.2267 68.1992C35.1231 68.1992 35.2861 68.5252 35.2861 69.3402C35.2861 69.3699 35.2888 69.4674 35.2927 69.609L35.2928 69.61C35.3105 70.2453 35.3527 71.7632 35.2861 72.0295C35.2045 72.763 34.8786 72.926 34.1451 72.926C21.5132 72.8445 19.4758 72.8445 19.2313 72.8445C18.9868 72.8445 18.4163 72.8445 18.3348 73.252C18.2533 73.578 18.4163 73.8225 18.9868 74.067C19.8218 74.4202 21.8973 75.1406 24.2255 75.9487C27.805 77.191 31.9821 78.6408 33.1671 79.2827Z" fill="white"/>
</svg>
