<svg width="120" height="120" viewBox="0 0 120 120" fill="none" xmlns="http://www.w3.org/2000/svg">
<path d="M22.3193 62.4328L19.0992 66.8793H24.1803L30.1251 61.0765L29.2583 66.7539H39.9099V64.5337L37.0609 62.6805L48.0853 52.6789H48.3323L52.5451 48.4832L74.8392 51.6927L71.9903 34.5321L46.3502 38.1116L36.6881 52.4343H33.3437L24.6727 62.4328H22.3193Z" fill="white"/>
<path d="M36.1942 51.3227H34.212L43.0073 41.1988L36.1942 51.3227Z" fill="white"/>
<path d="M75.9546 51.815L72.983 34.0383L86.8562 17.6177L87.1048 17.74L94.1618 34.6529L91.563 50.3318L86.4834 53.4189L75.9546 51.815Z" fill="white"/>
<path d="M89.0869 18.2339L88.3428 17.9893L95.156 34.2844L99.3688 34.4098L99.8627 30.7049L96.8879 30.4603C95.0317 30.3349 95.4029 27.2477 97.3851 27.4955L100.605 27.9877L101.099 23.6667L96.147 21.9388L95.7758 23.5428C95.6499 23.9144 94.6604 23.4205 94.6604 23.0505L94.5377 21.5688L91.3144 20.3349V17L89.0869 18.2339Z" fill="white"/>
<path d="M82.7677 62.4312L85.7393 54.2828L76.0788 52.925L76.6971 56.5046L76.8198 57.1239H76.5744L78.1837 67H86.4818V65.0245L82.7677 62.4312Z" fill="white"/>
<path d="M52.9163 49.5917L74.0951 52.6789H49.8189L52.9163 49.5917Z" fill="white"/>
<path d="M82.2094 79V102H94.2225V92.0057L108.3 102H120V79H108.988V89.3149L93.3461 79H82.2094Z" fill="white"/>
<path fill-rule="evenodd" clip-rule="evenodd" d="M54.1818 79L39.2287 102H51.9911L53.8059 99.6941H66.3824L68.4467 102H81.2091L66.5699 79H54.1818ZM62.5017 93.607H57.685L60.0004 88.738L62.5017 93.607Z" fill="white"/>
<path d="M0 79V102H11.5117V93.6713L19.2699 100.783L26.5275 93.6713V102H37.9757V79H26.9645L19.0188 87.7128L11.5737 79H0Z" fill="white"/>
</svg>
