<svg width="120" height="120" viewBox="0 0 120 120" fill="none" xmlns="http://www.w3.org/2000/svg">
<path fill-rule="evenodd" clip-rule="evenodd" d="M83.5 52C81.9566 52 80.4512 51.8374 79 51.5283V56.5361C82.9879 54.2847 87.5939 53 92.5 53C107.688 53 120 65.3122 120 80.5C120 95.6878 107.688 108 92.5 108C80.6513 108 70.5527 100.506 66.6851 90H42L35 75H66V71H33L26 56H66V52H23L16 37H66V9H84V9.0057C95.6432 9.2714 105 18.793 105 30.5C105 42.3741 95.3741 52 83.5 52ZM83.5 21C81.8719 21 80.3394 21.4096 79 22.1313V38.8687C80.3394 39.5904 81.8719 40 83.5 40C88.7467 40 93 35.7467 93 30.5C93 25.2533 88.7467 21 83.5 21ZM105 80.5C105 87.4036 99.4036 93 92.5 93C85.5964 93 80 87.4036 80 80.5C80 73.5964 85.5964 68 92.5 68C99.4036 68 105 73.5964 105 80.5Z" fill="white"/>
<path d="M59.1588 30.1539C59.6974 29.6121 60 28.8773 60 28.1111V26.6667C60.0001 26.2564 59.9131 25.8508 59.7447 25.4771C59.5763 25.1035 59.3304 24.7703 59.0235 24.5C59.3304 24.2297 59.5763 23.8965 59.7447 23.5229C59.9131 23.1492 60.0001 22.7436 60 22.3333V20.8889C60 20.1227 59.6974 19.3879 59.1588 18.8461C58.6202 18.3044 57.8896 18 57.1279 18H49.9477C48.9955 18 48.0824 18.3805 47.4091 19.0577C46.7358 19.7349 46.3576 20.6534 46.3576 21.6111V23.0556H48.5116V22.3333C48.5116 21.7587 48.7386 21.2076 49.1426 20.8013C49.5465 20.3949 50.0944 20.1667 50.6657 20.1667H56.4099C56.7908 20.1667 57.156 20.3188 57.4253 20.5897C57.6946 20.8606 57.8459 21.228 57.8459 21.6111C57.8459 21.9942 57.6946 22.3616 57.4253 22.6325C57.156 22.9034 56.7908 23.0556 56.4099 23.0556H49.9477V25.9444H56.4099C56.7908 25.9444 57.156 26.0966 57.4253 26.3675C57.6946 26.6384 57.8459 27.0058 57.8459 27.3889C57.8459 27.772 57.6946 28.1394 57.4253 28.4103C57.156 28.6812 56.7908 28.8333 56.4099 28.8333H50.6657C50.0944 28.8333 49.5465 28.6051 49.1426 28.1987C48.7386 27.7924 48.5116 27.2413 48.5116 26.6667V25.9444H46.3576V27.3889C46.3576 28.3466 46.7358 29.2651 47.4091 29.9423C48.0824 30.6195 48.9955 31 49.9477 31H57.1279C57.8896 31 58.6202 30.6956 59.1588 30.1539Z" fill="white"/>
<path fill-rule="evenodd" clip-rule="evenodd" d="M33.7151 26.6667H40.6134C41.5655 26.6667 42.4787 26.2862 43.152 25.609C43.8253 24.9318 44.2035 24.0133 44.2035 23.0556V21.6111C44.2035 20.6534 43.8253 19.7349 43.152 19.0577C42.4787 18.3805 41.5655 18 40.6134 18H31.5611V31H33.7151V26.6667ZM33.7151 20.1667H39.8954C40.4667 20.1667 41.0146 20.3949 41.4185 20.8013C41.8225 21.2076 42.0494 21.7587 42.0494 22.3333C42.0494 22.908 41.8225 23.4591 41.4185 23.8654C41.0146 24.2717 40.4667 24.5 39.8954 24.5H33.7151V20.1667Z" fill="white"/>
<path fill-rule="evenodd" clip-rule="evenodd" d="M17.9186 28.1111H26.5349L27.971 31H30.8431L23.6628 18H20.7907L13.6105 31H16.4826L17.9186 28.1111ZM19.3547 25.9444L22.2268 20.8889L25.0989 25.9444H19.3547Z" fill="white"/>
<path fill-rule="evenodd" clip-rule="evenodd" d="M0 31H10.7384C11.5001 31 12.2307 30.6956 12.7693 30.1539C13.3079 29.6121 13.6105 28.8773 13.6105 28.1111V27.3889C13.61 26.7933 13.4265 26.2124 13.0851 25.7258C12.7437 25.2392 12.2611 24.8706 11.7034 24.6704C12.0714 24.4034 12.3711 24.0523 12.5778 23.646C12.7846 23.2396 12.8924 22.7898 12.8925 22.3333V20.8889C12.8925 20.1227 12.5899 19.3879 12.0513 18.8461C11.5126 18.3044 10.7821 18 10.0204 18H0V31ZM2.15407 20.1667H9.30236C9.68322 20.1667 10.0485 20.3188 10.3178 20.5897C10.5871 20.8606 10.7384 21.228 10.7384 21.6111C10.7384 21.9942 10.5871 22.3616 10.3178 22.6325C10.0485 22.9034 9.68322 23.0556 9.30236 23.0556H2.15407V20.1667ZM2.15407 25.9444H10.0204C10.4012 25.9444 10.7665 26.0966 11.0358 26.3675C11.3051 26.6384 11.4564 27.0058 11.4564 27.3889C11.4564 27.772 11.3051 28.1394 11.0358 28.4103C10.7665 28.6812 10.4012 28.8333 10.0204 28.8333H2.15407V25.9444Z" fill="white"/>
</svg>
