<svg width="120" height="120" viewBox="0 0 120 120" fill="none" xmlns="http://www.w3.org/2000/svg">
<g clip-path="url(#clip0)">
<path fill-rule="evenodd" clip-rule="evenodd" d="M92.6393 17.1377C98.6814 20.444 105.519 26.2572 104.806 34.0071C103.977 41.19 97.282 46.204 91.2996 49.2251C73.83 57.5752 49.297 57.8305 31.2604 50.5349C25.1653 47.9981 18.324 43.6373 15.7606 37.0845C13.7974 31.6991 16.1884 26.0881 20.2076 22.3541C28.6141 14.7169 39.3286 12.0971 50.3549 10.585C62.3229 9.13249 74.9177 10.4158 85.6323 14.0902C88.0265 14.9756 90.3876 15.9439 92.6393 17.1377ZM67.0558 46.7497C68.4925 44.1265 69.9873 41.397 69.3598 38.1689C68.9055 36.9718 67.6222 36.0897 66.3421 35.9206C63.2513 35.521 60.3248 36.3677 57.5726 37.164L57.5377 37.1741C57.2112 37.2834 56.8846 37.3925 56.5579 37.5016L56.5559 37.5022C49.4698 39.8687 42.3568 42.2442 36.3374 47.1193C36.0522 47.3746 35.85 47.746 35.9925 48.144C36.1793 48.4263 36.464 48.6295 36.7917 48.7144C43.9147 50.8425 51.2981 51.9741 58.7315 52.077C62.124 52.4152 64.9427 50.137 66.6538 47.4874C66.7861 47.2422 66.9207 46.9964 67.0558 46.7497ZM100.96 34.7201C102.044 29.9349 98.8505 25.972 95.3188 23.0671C95.0601 22.8938 94.8087 22.7009 94.5565 22.5074C93.8098 21.9346 93.0574 21.3573 92.0955 21.273C91.8537 21.3601 91.638 21.5074 91.4687 21.7008C90.1025 24.7218 88.6201 27.7992 87.0251 30.7904C83.5762 37.4294 79.6433 43.9822 74.4601 49.8253L74.3739 50.2232C74.4202 50.5039 74.6792 50.5159 74.8971 50.5259C74.9443 50.5281 74.9898 50.5302 75.0305 50.5349C78.5989 50.2008 81.8944 49.1019 85.156 48.0142L85.3736 47.9417C91.4986 45.5507 99.1921 41.7869 100.96 34.7201ZM45.4801 15.9704L45.5962 15.5427C45.4215 15.2195 45.0039 15.2235 44.6375 15.227C44.5866 15.2275 44.5367 15.228 44.4886 15.2276C40.7584 15.8376 37.1012 16.831 33.5751 18.1923C27.7021 20.6695 20.6652 24.3206 18.9275 31.1585C17.8432 36.4014 21.6037 40.8185 25.7622 43.5544C25.9822 43.6525 26.2065 43.8055 26.4344 43.9609C27.0617 44.3887 27.7164 44.8352 28.3853 44.2077C33.0577 34.3785 37.9856 24.4897 45.4801 15.9704ZM83.1531 17.0797C83.0271 17.0278 82.9004 16.9755 82.7804 16.9122C75.6307 14.9159 68.1063 13.7221 60.1243 13.7751C56.4201 13.8315 53.744 17.2803 52.2318 20.2151C51.0911 22.5497 49.7812 25.342 50.7495 28.0214C50.9914 28.4426 51.3153 28.8111 51.7021 29.105C52.0888 29.3989 52.5306 29.6123 53.0012 29.7326C56.0691 30.4051 58.9096 29.5963 61.6869 28.8055C62.443 28.5902 63.1945 28.3762 63.9445 28.1939C70.8421 25.9422 77.5939 23.3788 83.4933 18.7627C83.542 18.7033 83.598 18.6438 83.6551 18.583C83.8981 18.3248 84.1627 18.0436 83.9775 17.6517C83.7938 17.344 83.4761 17.213 83.1531 17.0797Z" fill="white"/>
<path d="M3.78257 65.1812H0.012085V82.5248H3.78257V75.4447H12.2189V82.5248H15.9894V65.1812H12.2189V72.0158H3.78257V65.1812Z" fill="white"/>
<path d="M27.1782 72.2678L22.4526 65.1812H17.873L25.2913 76.2672V82.5248H29.0617V76.2672L36.427 65.1812H31.8473L27.1782 72.2678Z" fill="white"/>
<path d="M57.5908 65.1812H69.7412C71.4723 65.1812 73.1502 65.4232 73.1005 68.9284V82.5281H69.33V70.1753C69.33 68.6797 69.1509 68.3647 67.9803 68.3647H61.3612V82.5281H57.5908V65.1812Z" fill="white"/>
<path d="M119.988 65.1845H116.217V82.5281H119.988V65.1845Z" fill="white"/>
<path d="M38.3072 82.5248H50.461C52.8785 82.5248 53.87 81.8251 53.8203 78.3398V65.1812H50.0498V77.5605C50.0498 79.0461 49.8707 79.2252 48.6968 79.2252H42.0777V65.1812H38.3072V82.5248Z" fill="white"/>
<path fill-rule="evenodd" clip-rule="evenodd" d="M92.5332 68.9284V78.3132C92.5332 81.3011 90.8553 82.5281 88.7628 82.5281H76.871V65.1845H88.7628C91.9761 65.1812 92.5332 67.2206 92.5332 68.9284ZM88.7197 69.9697C88.7197 69.0213 88.1426 68.3647 87.1279 68.3647H80.6448V79.2053H87.1279C88.6069 79.129 88.7197 78.2436 88.7197 77.5406V69.9697Z" fill="white"/>
<path fill-rule="evenodd" clip-rule="evenodd" d="M112.447 65.1812V82.5281H108.676V77.5406H100.074V82.5281H96.3037V68.9284C96.3037 66.5242 97.2754 65.1812 100.074 65.1812H112.447ZM108.68 68.368H101.596C100.406 68.4376 100.078 68.7328 100.078 70.1786V74.1547H108.68V68.368Z" fill="white"/>
<path d="M48.7463 107.849L50.5799 106.114L54.2272 110.629H57.224L52.4134 104.517L56.81 100.101H53.8526L48.7463 104.833V96H46.2819V110.629H48.7463V107.849Z" fill="white"/>
<path d="M4.65 98.9968H0.0759888V96.8281H11.787V98.9968H7.21302V110.629H4.65V98.9968Z" fill="white"/>
<path d="M15.5698 101.639C16.2796 100.535 17.5282 99.9825 19.3158 99.9825V102.329C19.1055 102.289 18.9149 102.27 18.744 102.27C17.7845 102.27 17.0353 102.552 16.4964 103.117C15.9575 103.669 15.6881 104.471 15.6881 105.523V110.629H13.2236V100.101H15.5698V101.639Z" fill="white"/>
<path d="M31.6956 110.629V100.101H29.2311V105.424C29.2311 106.449 28.9683 107.238 28.4425 107.79C27.9299 108.329 27.2333 108.598 26.3527 108.598C25.5641 108.598 24.9529 108.368 24.5191 107.908C24.0985 107.435 23.8882 106.725 23.8882 105.779V100.101H21.4238V106.114C21.4238 107.652 21.8247 108.815 22.6264 109.604C23.4413 110.379 24.552 110.767 25.9584 110.767C26.6418 110.767 27.2793 110.642 27.8708 110.392C28.4622 110.129 28.9551 109.761 29.3494 109.288V110.629H31.6956Z" fill="white"/>
<path d="M39.7526 110.767C38.6617 110.767 37.6825 110.537 36.815 110.077C35.9475 109.617 35.2706 108.979 34.7843 108.165C34.298 107.336 34.0548 106.403 34.0548 105.365C34.0548 104.327 34.298 103.4 34.7843 102.585C35.2706 101.77 35.941 101.133 36.7953 100.673C37.6628 100.213 38.6486 99.9825 39.7526 99.9825C40.791 99.9825 41.6979 100.193 42.4734 100.613C43.262 101.034 43.8535 101.639 44.2478 102.427L42.3551 103.531C42.0528 103.045 41.6716 102.684 41.2116 102.447C40.7647 102.197 40.2718 102.072 39.7329 102.072C38.8129 102.072 38.0505 102.375 37.4459 102.979C36.8413 103.571 36.539 104.366 36.539 105.365C36.539 106.364 36.8347 107.166 37.4262 107.77C38.0308 108.362 38.7997 108.657 39.7329 108.657C40.2718 108.657 40.7647 108.539 41.2116 108.303C41.6716 108.053 42.0528 107.685 42.3551 107.198L44.2478 108.303C43.8403 109.091 43.2423 109.702 42.4537 110.136C41.6782 110.557 40.7778 110.767 39.7526 110.767Z" fill="white"/>
<path fill-rule="evenodd" clip-rule="evenodd" d="M74.8519 110.846L73.1169 109.17C71.8288 110.274 70.2844 110.826 68.4837 110.826C67.5243 110.826 66.6633 110.668 65.901 110.353C65.1387 110.037 64.5406 109.604 64.1069 109.052C63.6731 108.487 63.4563 107.849 63.4563 107.139C63.4563 106.285 63.706 105.536 64.2055 104.892C64.7049 104.235 65.5198 103.59 66.6502 102.96C66.0982 102.408 65.7038 101.895 65.4673 101.422C65.2307 100.935 65.1124 100.436 65.1124 99.9234C65.1124 98.9508 65.4738 98.1687 66.1967 97.5772C66.9328 96.9726 67.9054 96.6703 69.1146 96.6703C70.2319 96.6703 71.1256 96.9464 71.796 97.4984C72.4663 98.0373 72.8015 98.7733 72.8015 99.7065C72.8015 100.416 72.578 101.047 72.1311 101.599C71.6974 102.151 70.9811 102.71 69.9821 103.275L72.9592 106.114C73.2878 105.47 73.5441 104.695 73.7281 103.788L75.7194 104.438C75.4565 105.661 75.0425 106.712 74.4773 107.593L76.2122 109.249L74.8519 110.846ZM69.1146 98.425C68.5758 98.425 68.1486 98.563 67.8331 98.839C67.5177 99.1019 67.36 99.4502 67.36 99.884C67.36 100.199 67.4454 100.502 67.6163 100.791C67.7871 101.067 68.1157 101.448 68.602 101.934C69.3907 101.501 69.9361 101.126 70.2384 100.811C70.5539 100.482 70.7116 100.127 70.7116 99.746C70.7116 99.3385 70.567 99.0165 70.2779 98.7799C70.0018 98.5433 69.6141 98.425 69.1146 98.425ZM68.6612 108.815C69.8047 108.815 70.8036 108.467 71.658 107.77L68.0106 104.281C67.222 104.714 66.6633 105.135 66.3348 105.542C66.0193 105.937 65.8616 106.384 65.8616 106.883C65.8616 107.461 66.1179 107.928 66.6305 108.283C67.1431 108.638 67.82 108.815 68.6612 108.815Z" fill="white"/>
<path fill-rule="evenodd" clip-rule="evenodd" d="M95.463 104.714C95.0161 104.123 94.4115 103.702 93.6491 103.452C94.2012 103.163 94.6349 102.756 94.9503 102.23C95.2658 101.704 95.4235 101.1 95.4235 100.416C95.4235 99.2991 94.9832 98.425 94.1026 97.7941C93.222 97.1501 91.9667 96.8281 90.3369 96.8281H83.8702V110.629H90.7312C92.4925 110.629 93.8331 110.307 94.7532 109.663C95.6733 109.006 96.1333 108.079 96.1333 106.883C96.1333 106.016 95.9098 105.293 95.463 104.714ZM86.4332 102.644V98.839H90.0609C90.9547 98.839 91.6381 99.0033 92.1113 99.3319C92.5976 99.6474 92.8408 100.121 92.8408 100.751C92.8408 101.369 92.5976 101.842 92.1113 102.171C91.6381 102.486 90.9547 102.644 90.0609 102.644H86.4332ZM93.5505 106.627C93.5505 107.954 92.5582 108.618 90.5735 108.618H86.4332V104.635H90.5735C92.5582 104.635 93.5505 105.299 93.5505 106.627Z" fill="white"/>
<path d="M108.825 110.629H106.479V109.288C106.085 109.761 105.592 110.129 105 110.392C104.409 110.642 103.771 110.767 103.088 110.767C101.681 110.767 100.571 110.379 99.7559 109.604C98.9541 108.815 98.5532 107.652 98.5532 106.114V100.101H101.018V105.779C101.018 106.725 101.228 107.435 101.649 107.908C102.082 108.368 102.693 108.598 103.482 108.598C104.363 108.598 105.059 108.329 105.572 107.79C106.098 107.238 106.361 106.449 106.361 105.424V100.101H108.825V110.629Z" fill="white"/>
<path d="M112.801 110.432C113.616 110.655 114.45 110.767 115.305 110.767C116.777 110.767 117.94 110.471 118.794 109.88C119.649 109.288 120.076 108.5 120.076 107.514C120.076 106.765 119.879 106.186 119.485 105.779C119.103 105.371 118.643 105.082 118.104 104.911C117.566 104.741 116.875 104.589 116.034 104.458C115.193 104.313 114.569 104.162 114.161 104.005C113.767 103.834 113.57 103.551 113.57 103.157C113.57 102.802 113.754 102.519 114.122 102.309C114.503 102.086 115.055 101.974 115.778 101.974C116.895 101.974 117.901 102.237 118.794 102.762L119.741 100.889C119.281 100.613 118.689 100.397 117.966 100.239C117.244 100.068 116.521 99.9825 115.798 99.9825C114.378 99.9825 113.248 100.285 112.407 100.889C111.579 101.481 111.165 102.276 111.165 103.275C111.165 104.037 111.362 104.635 111.756 105.069C112.163 105.49 112.637 105.785 113.176 105.956C113.728 106.127 114.437 106.278 115.305 106.41C116.133 106.541 116.731 106.679 117.099 106.824C117.48 106.968 117.671 107.225 117.671 107.593C117.671 108.368 116.935 108.756 115.463 108.756C114.819 108.756 114.161 108.664 113.491 108.48C112.834 108.283 112.269 108.026 111.795 107.711L110.849 109.584C111.335 109.926 111.986 110.208 112.801 110.432Z" fill="white"/>
<path d="M120 89H0V91H120V89Z" fill="white"/>
</g>
<defs>
<clipPath id="clip0">
<rect width="120" height="120" fill="white"/>
</clipPath>
</defs>
</svg>
