<svg width="167" height="125" viewBox="0 0 167 125" fill="none" xmlns="http://www.w3.org/2000/svg">
<g clip-path="url(#clip0)">
<path fill-rule="evenodd" clip-rule="evenodd" d="M13.06 41.609C12.4363 41.61 11.8264 41.4259 11.3074 41.0802C10.7884 40.7344 10.3836 40.2424 10.1443 39.6665C9.90497 39.0905 9.84189 38.4566 9.96303 37.8448C10.0842 37.233 10.3841 36.6709 10.8248 36.2296C11.2655 35.7883 11.8272 35.4877 12.4388 35.3658C13.0505 35.2439 13.6845 35.3062 14.2608 35.5447C14.837 35.7833 15.3295 36.1875 15.6759 36.7061C16.0224 37.2246 16.2072 37.8343 16.207 38.458C16.2073 38.8715 16.1261 39.2811 15.9681 39.6632C15.8101 40.0454 15.5783 40.3927 15.2861 40.6853C14.9939 40.9779 14.6469 41.21 14.2649 41.3685C13.883 41.527 13.4735 41.6087 13.06 41.609ZM23.214 41.609C22.5903 41.61 21.9804 41.4259 21.4614 41.0802C20.9424 40.7344 20.5376 40.2424 20.2983 39.6665C20.059 39.0905 19.9959 38.4566 20.117 37.8448C20.2382 37.233 20.5381 36.6709 20.9788 36.2296C21.4195 35.7883 21.9812 35.4877 22.5928 35.3658C23.2045 35.2439 23.8385 35.3062 24.4148 35.5447C24.991 35.7833 25.4835 36.1875 25.8299 36.7061C26.1764 37.2246 26.3612 37.8343 26.361 38.458C26.3614 38.8716 26.2803 39.2812 26.1223 39.6634C25.9644 40.0456 25.7326 40.3929 25.4404 40.6856C25.1481 40.9782 24.8011 41.2104 24.4191 41.3688C24.0371 41.5272 23.6276 41.6089 23.214 41.609ZM33.368 41.609C32.7443 41.6102 32.1343 41.4263 31.6151 41.0806C31.096 40.735 30.691 40.2431 30.4516 39.6672C30.2121 39.0912 30.1489 38.4572 30.2699 37.8454C30.3909 37.2335 30.6908 36.6714 31.1314 36.23C31.5721 35.7886 32.1338 35.4879 32.7455 35.3659C33.3571 35.2439 33.9912 35.3061 34.5675 35.5446C35.1438 35.7832 35.6364 36.1873 35.9829 36.7059C36.3294 37.2246 36.5142 37.8343 36.514 38.458C36.5145 39.293 36.1834 40.094 35.5934 40.6849C35.0035 41.2758 34.203 41.6082 33.368 41.609ZM23.214 18C10.393 18 0 26.983 0 38.064C0 49.145 10.393 58.127 23.214 58.127C26.2665 58.1347 29.2971 57.6108 32.17 56.579L40.182 62.546L36.912 54.262C42.681 50.612 46.429 44.717 46.429 38.062C46.428 26.983 36.036 18 23.214 18ZM96.489 41.609C95.8653 41.61 95.2554 41.4259 94.7364 41.0802C94.2174 40.7344 93.8126 40.2424 93.5733 39.6665C93.334 39.0905 93.2709 38.4566 93.392 37.8448C93.5132 37.233 93.8131 36.6709 94.2538 36.2296C94.6945 35.7883 95.2562 35.4877 95.8678 35.3658C96.4795 35.2439 97.1135 35.3062 97.6898 35.5447C98.266 35.7833 98.7585 36.1875 99.1049 36.7061C99.4514 37.2246 99.6362 37.8343 99.636 38.458C99.6363 38.8715 99.5551 39.2811 99.3971 39.6632C99.2391 40.0454 99.0073 40.3927 98.7151 40.6853C98.4229 40.9779 98.0759 41.21 97.6939 41.3685C97.312 41.527 96.9025 41.6087 96.489 41.609ZM106.642 41.609C106.018 41.61 105.408 41.4259 104.889 41.0802C104.37 40.7344 103.966 40.2424 103.726 39.6665C103.487 39.0905 103.424 38.4566 103.545 37.8448C103.666 37.233 103.966 36.6709 104.407 36.2296C104.847 35.7883 105.409 35.4877 106.021 35.3658C106.632 35.2439 107.267 35.3062 107.843 35.5447C108.419 35.7833 108.911 36.1875 109.258 36.7061C109.604 37.2246 109.789 37.8343 109.789 38.458C109.789 39.2931 109.458 40.0941 108.868 40.685C108.278 41.2758 107.477 41.6082 106.642 41.609ZM116.796 41.609C116.172 41.61 115.562 41.4259 115.043 41.0802C114.524 40.7344 114.12 40.2424 113.88 39.6665C113.641 39.0905 113.578 38.4566 113.699 37.8448C113.82 37.233 114.12 36.6709 114.561 36.2296C115.001 35.7883 115.563 35.4877 116.175 35.3658C116.786 35.2439 117.421 35.3062 117.997 35.5447C118.573 35.7833 119.065 36.1875 119.412 36.7061C119.758 37.2246 119.943 37.8343 119.943 38.458C119.943 38.8715 119.862 39.2811 119.704 39.6632C119.546 40.0454 119.314 40.3927 119.022 40.6853C118.73 40.9779 118.383 41.21 118.001 41.3685C117.619 41.527 117.21 41.6087 116.796 41.609ZM106.642 18C93.821 18 83.428 26.983 83.428 38.064C83.428 49.145 93.822 58.127 106.642 58.127C109.695 58.1347 112.725 57.6108 115.598 56.579L123.61 62.546L120.34 54.262C126.11 50.612 129.857 44.717 129.857 38.062C129.857 26.983 119.464 18 106.642 18ZM133.2 104.166C132.576 104.167 131.966 103.983 131.447 103.637C130.928 103.291 130.524 102.799 130.284 102.223C130.045 101.648 129.982 101.014 130.103 100.402C130.224 99.79 130.524 99.2279 130.965 98.7866C131.406 98.3453 131.967 98.0447 132.579 97.9228C133.19 97.8009 133.825 97.8632 134.401 98.1017C134.977 98.3403 135.469 98.7445 135.816 99.2631C136.162 99.7816 136.347 100.391 136.347 101.015C136.347 101.429 136.266 101.838 136.108 102.22C135.95 102.603 135.719 102.95 135.426 103.243C135.134 103.535 134.787 103.767 134.405 103.926C134.023 104.084 133.614 104.166 133.2 104.166ZM143.354 104.166C142.73 104.167 142.12 103.983 141.601 103.638C141.082 103.292 140.677 102.8 140.438 102.224C140.198 101.648 140.135 101.014 140.256 100.402C140.377 99.7906 140.677 99.2283 141.117 98.787C141.558 98.3456 142.12 98.0449 142.731 97.9229C143.343 97.8009 143.977 97.8631 144.554 98.1016C145.13 98.3402 145.622 98.7443 145.969 99.2629C146.315 99.7816 146.5 100.391 146.5 101.015C146.501 101.85 146.169 102.651 145.579 103.242C144.989 103.833 144.189 104.165 143.354 104.166ZM153.508 104.166C152.884 104.167 152.274 103.984 151.755 103.638C151.236 103.293 150.83 102.801 150.591 102.225C150.351 101.649 150.288 101.015 150.409 100.403C150.53 99.7911 150.829 99.2288 151.27 98.7873C151.711 98.3459 152.272 98.045 152.884 97.923C153.496 97.8009 154.13 97.863 154.706 98.1016C155.283 98.3401 155.775 98.7442 156.122 99.2628C156.468 99.7815 156.653 100.391 156.653 101.015C156.654 101.85 156.323 102.651 155.733 103.242C155.143 103.832 154.343 104.165 153.508 104.166ZM143.357 80.557C130.535 80.557 120.142 89.539 120.142 100.62C120.142 107.272 123.89 113.168 129.659 116.82L126.389 125.105L134.401 119.137C137.274 120.169 140.304 120.693 143.357 120.686C156.178 120.686 166.572 111.703 166.572 100.623C166.572 89.543 156.178 80.56 143.357 80.56V80.557ZM49.774 104.166C49.1503 104.167 48.5404 103.983 48.0214 103.637C47.5024 103.291 47.0976 102.799 46.8583 102.223C46.619 101.648 46.5559 101.014 46.677 100.402C46.7982 99.79 47.0981 99.2279 47.5388 98.7866C47.9795 98.3453 48.5412 98.0447 49.1528 97.9228C49.7645 97.8009 50.3985 97.8632 50.9748 98.1017C51.551 98.3403 52.0435 98.7445 52.3899 99.2631C52.7364 99.7816 52.9212 100.391 52.921 101.015C52.9214 101.429 52.8403 101.838 52.6823 102.22C52.5244 102.603 52.2926 102.95 52.0004 103.243C51.7081 103.535 51.3611 103.767 50.9791 103.926C50.5971 104.084 50.1876 104.166 49.774 104.166ZM59.928 104.166C59.3043 104.167 58.6943 103.983 58.1751 103.638C57.656 103.292 57.251 102.8 57.0116 102.224C56.7721 101.648 56.7089 101.014 56.8299 100.402C56.9509 99.7906 57.2508 99.2283 57.6914 98.787C58.1321 98.3456 58.6938 98.0449 59.3055 97.9229C59.9171 97.8009 60.5512 97.8631 61.1275 98.1016C61.7038 98.3402 62.1964 98.7443 62.5429 99.2629C62.8894 99.7816 63.0742 100.391 63.074 101.015C63.0744 101.428 62.9933 101.838 62.8354 102.22C62.6775 102.602 62.4459 102.95 62.1537 103.242C61.8616 103.535 61.5147 103.767 61.1328 103.926C60.7509 104.084 60.3415 104.166 59.928 104.166ZM70.082 104.166C69.4583 104.167 68.8483 103.983 68.3291 103.638C67.81 103.292 67.405 102.8 67.1656 102.224C66.9261 101.648 66.8629 101.014 66.9839 100.402C67.1049 99.7906 67.4048 99.2283 67.8454 98.787C68.2861 98.3456 68.8478 98.0449 69.4595 97.9229C70.0711 97.8009 70.7052 97.8631 71.2815 98.1016C71.8578 98.3402 72.3504 98.7443 72.6969 99.2629C73.0434 99.7816 73.2282 100.391 73.228 101.015C73.2284 101.428 73.1473 101.838 72.9894 102.22C72.8315 102.602 72.5999 102.95 72.3077 103.242C72.0156 103.535 71.6687 103.767 71.2868 103.926C70.9049 104.084 70.4955 104.166 70.082 104.166ZM59.928 80.557C47.106 80.557 36.713 89.539 36.713 100.62C36.713 107.272 40.461 113.168 46.23 116.82L42.96 125.1L50.973 119.132C53.8455 120.164 56.8757 120.688 59.928 120.681C72.75 120.681 83.143 111.698 83.143 100.618C83.143 89.538 72.75 80.557 59.928 80.557Z" fill="#FDDC43"/>
</g>
<defs>
<clipPath id="clip0">
<rect width="167" height="125" fill="white"/>
</clipPath>
</defs>
</svg>
