<svg width="130" height="130" viewBox="0 0 130 130" fill="none" xmlns="http://www.w3.org/2000/svg">
<path d="M118.755 28.4456C117.965 27.2865 116.386 26.9872 115.227 27.7768C114.068 28.5665 113.769 30.146 114.558 31.3049C121.338 41.2567 124.922 52.9082 124.922 65C124.922 98.0411 98.0411 124.922 65 124.922C31.9589 124.922 5.07812 98.0411 5.07812 65C5.07812 31.9589 31.9589 5.07812 65 5.07812C77.3558 5.07812 89.2181 8.8075 99.3043 15.8623C100.453 16.6662 102.036 16.3863 102.84 15.2372C103.644 14.088 103.364 12.5051 102.215 11.7013C91.2712 4.04625 78.4024 0 65 0C47.6379 0 31.315 6.76102 19.0381 19.0381C6.76102 31.315 0 47.6379 0 65C0 82.3621 6.76102 98.685 19.0381 110.962C31.315 123.239 47.6379 130 65 130C82.3621 130 98.685 123.239 110.962 110.962C123.239 98.685 130 82.3621 130 65C130 51.8842 126.111 39.244 118.755 28.4456Z" fill="#DBDBDB"/>
<path d="M111.049 19.1247L110.962 19.0376C109.971 18.0461 108.363 18.0461 107.371 19.0376C106.38 20.0293 106.38 21.6371 107.371 22.6286L107.458 22.7157C107.954 23.2115 108.604 23.4593 109.254 23.4593C109.903 23.4593 110.553 23.2113 111.049 22.7157C112.041 21.7239 112.041 20.1162 111.049 19.1247Z" fill="#DBDBDB"/>
<path d="M50.7724 65.2595H43.0666C43.7841 52.9616 49.7854 50.9311 54.3692 50.5139C55.6771 50.3949 56.6782 49.2985 56.6782 47.9853V33.7693C56.6782 33.0713 56.3908 32.4038 55.8835 31.9242C55.3762 31.4446 54.6929 31.196 53.9967 31.2343C43.8199 31.8069 36.0303 35.3349 30.8443 41.7204C25.7509 47.9919 23.1685 57.0947 23.1685 68.7761V90.1274C23.1685 94.8927 27.0454 98.7696 31.8107 98.7696H50.7726C55.5379 98.7696 59.4148 94.8927 59.4146 90.1271V73.9017C59.4146 69.1364 55.5377 65.2595 50.7724 65.2595ZM54.3367 90.1274C54.3367 92.0926 52.7379 93.6915 50.7726 93.6915H31.8107C29.8454 93.6915 28.2466 92.0926 28.2466 90.1274V68.7761C28.2466 58.2906 30.4469 50.2649 34.7862 44.9219C38.6433 40.1728 44.1607 37.4162 51.6004 36.5361V45.7959C44.9 47.1774 37.9176 52.3301 37.9176 67.7989C37.9176 69.2009 39.0544 70.3379 40.4567 70.3379H50.7726C52.7379 70.3379 54.3367 71.9368 54.3367 73.902V90.1274Z" fill="#DBDBDB"/>
<path d="M98.1891 65.26H90.4833C91.2009 52.9623 97.2022 50.9316 101.786 50.5144C103.094 50.3953 104.095 49.299 104.095 47.9858V33.7698C104.095 33.0718 103.808 32.4043 103.3 31.9247C102.793 31.4451 102.11 31.1965 101.413 31.2348C91.2364 31.8074 83.4468 35.3354 78.2608 41.7209C73.1677 47.9924 70.5852 57.0952 70.5852 68.7766V69.6554C70.5852 71.0575 71.7219 72.1945 73.1242 72.1945C74.5266 72.1945 75.6633 71.0575 75.6633 69.6554V68.7766C75.6633 58.2911 77.8634 50.2653 82.2027 44.9224C86.0598 40.1733 91.5769 37.4167 99.0169 36.5366V45.7961C92.3165 47.1778 85.3341 52.3304 85.3341 67.7991C85.3341 69.2012 86.4708 70.3382 87.8732 70.3382H98.1891C100.154 70.3382 101.753 71.937 101.753 73.9022V90.1276C101.753 92.0929 100.154 93.6917 98.1891 93.6917H79.2271C77.2619 93.6917 75.6631 92.0929 75.6631 90.1276V88.7405C75.6631 87.3385 74.5263 86.2015 73.124 86.2015C71.7217 86.2015 70.5849 87.3385 70.5849 88.7405V90.1276C70.5849 94.8929 74.4618 98.7698 79.2271 98.7698H98.1891C102.954 98.7698 106.831 94.8929 106.831 90.1276V73.9022C106.831 69.1369 102.954 65.26 98.1891 65.26Z" fill="#DBDBDB"/>
<path d="M73.1242 76.0662C71.7219 76.0662 70.5852 77.2032 70.5852 78.6052V78.7111C70.5852 80.1132 71.7219 81.2502 73.1242 81.2502C74.5266 81.2502 75.6633 80.1132 75.6633 78.7111V78.6052C75.6633 77.2032 74.5266 76.0662 73.1242 76.0662Z" fill="#DBDBDB"/>
</svg>
