<svg width="110" height="124" viewBox="0 0 110 124" fill="none" xmlns="http://www.w3.org/2000/svg">
<path d="M52.4078 0.686748C54.0119 -0.228916 55.9881 -0.228916 57.5922 0.686748L107.408 29.1238C109.012 30.0394 110 31.7317 110 33.563V90.437C110 92.2684 109.012 93.9606 107.408 94.8762L57.5922 123.313C55.9881 124.229 54.0119 124.229 52.4078 123.313L2.59219 94.8762C0.988136 93.9606 0 92.2684 0 90.437V33.563C0 31.7317 0.988135 30.0394 2.59219 29.1238L52.4078 0.686748Z" fill="#FDD417"/>
<path d="M30.0706 40.3835C29.9148 40.0083 30.0014 39.5761 30.29 39.29C30.691 38.9201 31.309 38.9201 31.71 39.29C31.9986 39.5761 32.0853 40.0083 31.9294 40.3835C31.7736 40.7587 31.4063 41.0024 31 41C30.5937 41.0024 30.2263 40.7587 30.0706 40.3835Z" fill="#0A0F1A"/>
<path d="M36.79 39.29C36.4019 39.6814 36.4035 40.3131 36.7939 40.7022C37.1842 41.0914 37.8159 41.0914 38.2061 40.7022C38.5964 40.3131 38.5981 39.6813 38.21 39.29C37.808 38.9224 37.192 38.9224 36.79 39.29Z" fill="#0A0F1A"/>
<path d="M43.2939 40.7022C42.9036 40.3131 42.9019 39.6814 43.29 39.29C43.692 38.9224 44.308 38.9224 44.7101 39.29C45.0982 39.6813 45.0966 40.3131 44.7062 40.7022C44.3159 41.0914 43.6843 41.0914 43.2939 40.7022Z" fill="#0A0F1A"/>
<path d="M49.79 39.29C49.4018 39.6814 49.4035 40.3131 49.7938 40.7022C50.1842 41.0914 50.8158 41.0914 51.206 40.7022C51.5963 40.3131 51.598 39.6813 51.2099 39.29C50.8081 38.9224 50.1919 38.9224 49.79 39.29Z" fill="#0A0F1A"/>
<path d="M56.2939 40.7022C55.9035 40.3131 55.9019 39.6814 56.29 39.29C56.6919 38.9224 57.308 38.9224 57.71 39.29C58.0981 39.6813 58.0963 40.3131 57.7061 40.7022C57.3159 41.0914 56.6842 41.0914 56.2939 40.7022Z" fill="#0A0F1A"/>
<path d="M62.79 39.29C62.4019 39.6814 62.4036 40.3131 62.7939 40.7022C63.1843 41.0914 63.8159 41.0914 64.2061 40.7022C64.5964 40.3131 64.5981 39.6813 64.21 39.29C63.808 38.9224 63.192 38.9224 62.79 39.29Z" fill="#0A0F1A"/>
<path d="M69.2938 40.7022C68.9035 40.3131 68.9018 39.6814 69.29 39.29C69.6919 38.9224 70.3081 38.9224 70.7099 39.29C71.098 39.6813 71.0963 40.3131 70.7061 40.7022C70.3158 41.0914 69.6842 41.0914 69.2938 40.7022Z" fill="#0A0F1A"/>
<path d="M66.8762 62C66.8762 61.447 66.428 60.9987 65.875 60.9987C65.322 60.9987 64.8737 61.447 64.8737 62V68.6138C62.9393 69.0666 61.4987 70.8026 61.4987 72.875C61.4987 75.2919 63.4581 77.2512 65.875 77.2512C66.7208 77.2512 67.5105 77.0113 68.1798 76.5958L73.042 81.458C73.433 81.849 74.067 81.849 74.458 81.458C74.849 81.067 74.849 80.433 74.458 80.042L69.5958 75.1798C70.0113 74.5105 70.2512 73.7208 70.2512 72.875C70.2512 72.322 69.803 71.8737 69.25 71.8737C68.697 71.8737 68.2487 72.322 68.2487 72.875C68.2487 74.186 67.186 75.2487 65.875 75.2487C64.564 75.2487 63.5013 74.186 63.5013 72.875C63.5013 71.564 64.564 70.5012 65.875 70.5012C66.428 70.5012 66.8762 70.053 66.8762 69.5V62Z" fill="#0A0F1A"/>
<path d="M66.2499 71.9557C65.8775 71.7991 65.4475 71.882 65.16 72.1657C65.0718 72.263 65.0008 72.3745 64.95 72.4957C64.8988 72.6159 64.8716 72.745 64.87 72.8757C64.8718 72.9394 64.8784 73.0029 64.89 73.0656C64.8993 73.1318 64.9196 73.1961 64.95 73.2556C64.97 73.317 65.0004 73.3745 65.04 73.4256C65.0799 73.4854 65.1198 73.5353 65.1596 73.585C65.3512 73.7677 65.6052 73.8718 65.87 73.8756C66.0007 73.8741 66.1298 73.8469 66.25 73.7955C66.3711 73.7446 66.4826 73.6736 66.58 73.5856L66.583 73.5818C66.6219 73.5331 66.6611 73.4841 66.7 73.4256C66.7716 73.3159 66.8221 73.1938 66.8489 73.0656C66.8614 73.0031 66.8684 72.9394 66.8699 72.8757C66.8684 72.745 66.8412 72.6159 66.7899 72.4957C66.7391 72.3745 66.6681 72.263 66.5799 72.1657C66.4824 72.0776 66.371 72.0067 66.2499 71.9557Z" fill="#0A0F1A"/>
<path fill-rule="evenodd" clip-rule="evenodd" d="M73 35H71V33C71 32.4477 70.5523 32 70 32C69.4477 32 69 32.4477 69 33V35H64.5V33C64.5 32.4477 64.0523 32 63.5001 32C62.9478 32 62.5 32.4477 62.5 33V35H58V33C58 32.4477 57.5523 32 57 32C56.4477 32 56.0001 32.4477 56.0001 33V35H51.5001V33C51.5 32.4477 51.0523 32 50.5 32C49.9477 32 49.5 32.4477 49.5 33V35H45V33C45 32.4477 44.5524 32 44.0001 32C43.4478 32 43 32.4477 43 33V35H38.5V33C38.5 32.4477 38.0523 32 37.5 32C36.9477 32 36.5001 32.4477 36.5001 33V35H32.0001V33C32 32.4477 31.5523 32 31 32C30.4477 32 30 32.4477 30 33V35H28C26.3431 35 25 36.3432 25 38V80C25 81.6569 26.3431 83 28 83H50.2384C53.5583 88.1166 59.3214 91.5012 65.875 91.5012C76.162 91.5012 84.5012 83.162 84.5012 72.875C84.5012 66.3214 81.1166 60.5583 76 57.2384V38C76 36.3432 74.6569 35 73 35ZM74 56.1095V38C74 37.4477 73.5523 37 73 37H28C27.4477 37 27 37.4477 27 38V44.0001H68.25C68.8023 44.0001 69.25 44.4478 69.25 45.0001C69.25 45.5524 68.8023 46 68.25 46H27V80C27 80.5523 27.4477 81 28 81H49.1095C48.5708 79.8904 48.139 78.7193 47.8275 77.5H32.25C31.1454 77.5 30.25 76.6046 30.25 75.5V51.5C30.25 50.3954 31.1454 49.5 32.25 49.5H68.75C69.8546 49.5 70.75 50.3954 70.7501 51.5V54.8932C71.8796 55.1987 72.9665 55.6078 74 56.1095ZM68.75 54.4693V51.5H61V54.8932C62.5539 54.473 64.1882 54.2487 65.875 54.2487C66.8527 54.2487 67.8129 54.3241 68.75 54.4693ZM59 55.5586C58.6547 55.6959 58.3144 55.8431 57.9797 56H51.5V51.5H59V55.5586ZM54.6629 58C53.4935 58.8829 52.4315 59.9004 51.5 61.0295V58H54.6629ZM49.2333 64.5H42V69H47.6524C47.9875 67.4164 48.5238 65.907 49.2333 64.5ZM47.3419 71H42V75.5H47.4323C47.3113 74.6424 47.2487 73.766 47.2487 72.875C47.2487 72.2421 47.2803 71.6166 47.3419 71ZM32.25 75.5H40V71H32.25V75.5ZM32.25 69H40V64.5H32.25V69ZM32.25 62.5H40V58H32.25V62.5ZM32.25 56H40V51.5H32.25V56ZM42 62.5H49.5V58H42V62.5ZM42 56H49.5V51.5H42V56ZM64.8737 56.2809C56.4901 56.7789 49.7789 63.4901 49.2809 71.8737H51.25C51.803 71.8737 52.2513 72.322 52.2513 72.875C52.2513 73.428 51.803 73.8762 51.25 73.8762H49.2809C49.7789 82.2599 56.4901 88.971 64.8737 89.4691V87.5C64.8737 86.947 65.322 86.4987 65.875 86.4987C66.428 86.4987 66.8762 86.947 66.8762 87.5V89.4691C75.2599 88.971 81.971 82.2599 82.4691 73.8762H80.5C79.947 73.8762 79.4987 73.428 79.4987 72.875C79.4987 72.322 79.947 71.8737 80.5 71.8737H82.4691C81.971 63.4901 75.2599 56.7789 66.8762 56.2809V58.25C66.8762 58.803 66.428 59.2513 65.875 59.2513C65.322 59.2513 64.8737 58.803 64.8737 58.25V56.2809Z" fill="#0A0F1A"/>
</svg>
