<svg width="48" height="48" viewBox="0 0 48 48" fill="none" xmlns="http://www.w3.org/2000/svg">
<path d="M28.125 18.75C28.125 18.2325 28.545 17.8125 29.0625 17.8125C29.58 17.8125 30 18.2325 30 18.75C30 19.2675 29.58 19.6875 29.0625 19.6875C28.545 19.6875 28.125 19.2675 28.125 18.75Z" fill="#0A0F1A"/>
<path d="M25.1911 9.53063C27.0432 10.828 28.4488 12.6245 29.2561 14.7256C29.4418 15.209 29.2005 15.7513 28.7172 15.937C28.6067 15.9795 28.493 15.9997 28.3812 15.9997C28.0043 15.9997 27.6491 15.7709 27.5059 15.3982C26.1217 11.7954 22.603 9.375 18.75 9.375C18.2323 9.375 17.8125 8.95519 17.8125 8.4375C17.8125 7.91981 18.2323 7.5 18.75 7.5C21.0676 7.5 23.2949 8.20219 25.1911 9.53063Z" fill="#0A0F1A"/>
<path fill-rule="evenodd" clip-rule="evenodd" d="M18.75 3.75C10.4789 3.75 3.75 10.4789 3.75 18.75C3.75 27.0211 10.4789 33.75 18.75 33.75C27.0211 33.75 33.75 27.0211 33.75 18.75C33.75 10.4789 27.0211 3.75 18.75 3.75ZM18.75 31.875C11.5129 31.875 5.625 25.9871 5.625 18.75C5.625 11.5129 11.5129 5.625 18.75 5.625C25.9871 5.625 31.875 11.5129 31.875 18.75C31.875 25.9871 25.9871 31.875 18.75 31.875Z" fill="#0A0F1A"/>
<path fill-rule="evenodd" clip-rule="evenodd" d="M34.3876 29.0849L46.9013 41.5987C47.6097 42.3065 48 43.2481 48 44.25C48 45.2519 47.6097 46.1935 46.9011 46.9016C46.1929 47.6098 45.2513 48 44.25 48C43.2487 48 42.3071 47.6098 41.5986 46.9013L32.5453 37.8481L32.5438 37.8466L29.0849 34.3877C26.0143 36.4261 22.4584 37.5 18.75 37.5C8.41125 37.5 0 29.0887 0 18.75C0 8.41125 8.41125 0 18.75 0C29.0887 0 37.5 8.41125 37.5 18.75C37.5 22.4583 36.4262 26.0142 34.3876 29.0849ZM28.644 32.4119C30.0927 31.3604 31.3604 30.0926 32.412 28.6439C34.514 25.75 35.625 22.3289 35.625 18.75C35.625 9.44513 28.0549 1.875 18.75 1.875C9.44513 1.875 1.875 9.44513 1.875 18.75C1.875 28.0549 9.44513 35.625 18.75 35.625C22.3289 35.625 25.7502 34.5138 28.644 32.4119ZM33.2618 30.6109C32.4682 31.5811 31.5812 32.4681 30.6109 33.2618L33.2707 35.9216C34.2253 35.1128 35.1128 34.2253 35.9216 33.2707L33.2618 30.6109ZM44.25 46.125C44.7504 46.125 45.2212 45.9299 45.5755 45.5755C45.9299 45.2213 46.125 44.7508 46.125 44.25C46.125 43.7492 45.9299 43.2787 45.5757 42.9248L37.2509 34.6C36.4362 35.5494 35.5493 36.4362 34.5999 37.251L42.9245 45.5755C43.2788 45.9299 43.7496 46.125 44.25 46.125Z" fill="#0A0F1A"/>
</svg>
