<svg width="100" height="100" viewBox="0 0 100 100" fill="none" xmlns="http://www.w3.org/2000/svg">
<path d="M32.2579 20.9678H29.0321V24.1936H32.2579V20.9678Z" fill="#0A0F1A"/>
<path d="M35.4838 19.3549H38.7097V22.5807H35.4838V19.3549Z" fill="#0A0F1A"/>
<path d="M66.1288 46.774H51.6128V59.6771H48.3869V43.5481H66.1288V46.774Z" fill="#0A0F1A"/>
<path fill-rule="evenodd" clip-rule="evenodd" d="M95.1612 85.4836H95.0305C98.1093 88.9127 99.9997 93.427 100 98.3867V99.9997H96.7741V98.3867C96.7741 90.0386 90.3969 83.153 82.2581 82.3401V100H79.0322V82.2581H74.1934V100H70.9676V82.2581H67.7417C67.0836 82.2581 66.4546 82.1565 65.8416 82.0081C64.44 89.4821 57.8755 95.1612 49.9998 95.1612C42.1242 95.1612 35.5597 89.4824 34.1581 82.0081C33.545 82.1565 32.916 82.2581 32.2579 82.2581H29.0321V100H25.8062V82.2581H20.9678V100H17.7419V82.3404C9.6034 83.1516 3.22586 90.0386 3.22586 98.3871V100H0V98.3871C0 90.5947 4.63861 83.8805 11.2902 80.8159V76.7592C8.11918 74.835 6.45138 71.7398 6.45138 67.7414C6.45138 63.8222 9.09805 59.2544 14.1577 58.1028L16.1286 57.656V66.1285H19.3545V57.659L21.3224 58.1028C26.3837 59.2445 29.0321 63.8157 29.0321 67.7414C29.0321 71.7398 27.3643 74.8367 24.1933 76.7592V79.0319H32.2579C34.9256 79.0319 37.0967 76.8608 37.0967 74.1931V67.4755C29.3969 63.0045 24.1936 54.6886 24.1936 45.161V44.9321C21.4193 44.2113 19.3548 41.7079 19.3548 38.7097C19.3548 35.8113 20.4468 33.9806 21.0582 33.1806C21.0033 32.8822 20.9678 32.5773 20.9678 32.2579V29.0321C20.9678 13.024 33.9918 0 49.9998 0C66.0079 0 79.0319 13.0244 79.0319 29.0321V32.2579C79.0319 32.5773 78.9963 32.8822 78.9415 33.1806C79.5528 33.9806 80.6448 35.8113 80.6448 38.7097C80.6448 41.7079 78.5801 44.211 75.806 44.9321V45.161C75.806 54.6886 70.6028 63.0045 62.9029 67.4755V74.1931C62.9029 76.8608 65.0741 79.0319 67.7417 79.0319H72.5802V75.806C72.5802 75.5981 72.5995 70.6482 74.2754 65.619L79.582 53.2257H88.1594L93.4175 65.4934C95.1419 70.6482 95.1612 75.5984 95.1612 75.8064V85.4836ZM20.9674 74.8062L21.8626 74.3611C24.5157 73.0432 25.8062 70.8788 25.8062 67.7417C25.8062 65.6658 24.7044 63.3206 22.5803 62.0369V69.3547H12.9031V62.0402C10.7787 63.3273 9.67724 65.6692 9.67724 67.7417C9.67724 70.8788 10.9677 73.0435 13.6208 74.3611L14.5157 74.8062V79.669C16.0656 79.2673 17.6819 79.0319 19.3545 79.0319H20.9674V74.8062ZM77.0339 36.3922C76.6677 36.7228 76.2548 37.0324 75.8064 37.326V41.4874C76.7659 40.9275 77.419 39.8985 77.4193 38.71C77.4193 37.7453 77.2452 36.9778 77.0339 36.3922ZM48.3869 14.5164V3.30851C35.1918 4.12886 24.6726 14.8886 24.237 28.1826C29.9774 25.1247 42.0256 24.194 49.9998 24.194C57.974 24.194 70.0222 25.1247 75.7627 28.1843C75.3271 14.889 64.8078 4.13123 51.6128 3.30851V14.5164H48.3869ZM22.5807 38.71C22.5807 39.8985 23.2337 40.9275 24.1936 41.4857V37.3243C23.7452 37.0324 23.3323 36.7228 22.9661 36.3905C22.7548 36.9761 22.5807 37.744 22.5807 38.71ZM49.9998 27.4195C33.8932 27.4195 24.511 30.6179 24.195 32.263C24.2031 35.4323 33.8546 38.7097 49.9998 38.7097C66.1532 38.7097 75.8064 35.4289 75.806 32.2583C75.5012 30.621 66.1159 27.4195 49.9998 27.4195ZM27.4191 38.9271V45.161C27.4191 57.6126 37.5482 67.7417 49.9998 67.7417C62.4514 67.7417 72.5805 57.6126 72.5805 45.161V38.9271C65.469 41.6368 54.4484 41.9352 49.9998 41.9352C45.5512 41.9352 34.5303 41.6368 27.4191 38.9271ZM37.1902 80.5256C37.9337 86.9387 43.3916 91.9353 49.9998 91.9353C56.608 91.9353 62.066 86.9384 62.8094 80.5256C60.9174 79.0498 59.6771 76.7741 59.6771 74.1934V69.0678C56.6853 70.2841 53.4221 70.9679 49.9998 70.9679C46.5775 70.9679 43.3144 70.2837 40.3226 69.0678V74.1934C40.3226 76.7741 39.0822 79.0498 37.1902 80.5256ZM75.8064 79.0322H80.2902C79.5176 78.174 79.0322 77.0501 79.0322 75.8064C79.0322 73.7064 80.3854 71.9319 82.2581 71.2643V56.4515H81.708L77.2886 66.7645C75.824 71.1772 75.8064 75.7613 75.8064 75.8064V79.0322ZM82.2578 75.8064C82.2578 76.6968 82.9819 77.4193 83.8707 77.4193C84.7595 77.4193 85.4836 76.6968 85.4836 75.8064C85.4836 74.9159 84.7595 74.1934 83.8707 74.1934C82.9819 74.1934 82.2578 74.9159 82.2578 75.8064ZM86.408 79.9078C88.4128 80.5351 90.2675 81.495 91.9353 82.6981V75.8077C91.9353 75.761 91.9113 71.1545 90.4047 66.6385L86.0337 56.4512H85.4836V71.264C87.3563 71.9319 88.7095 73.706 88.7095 75.806C88.7095 77.5416 87.7838 79.0546 86.408 79.9078Z" fill="#0A0F1A"/>
</svg>
