<svg width="80" height="80" viewBox="0 0 80 80" fill="none" xmlns="http://www.w3.org/2000/svg">
<g clip-path="url(#clip0)">
<path d="M63.4063 60.2239C63.1873 60.0779 62.93 60 62.6667 60H53.3334V49.3333C53.3334 48.9797 53.1929 48.6405 52.9429 48.3905C52.6928 48.1404 52.3537 48 52 48H50.6667V45.3333H48V48H46.6667C46.3131 48 45.974 48.1404 45.7239 48.3905C45.4739 48.6405 45.3334 48.9797 45.3334 49.3333V50.4259L40 49.5371V49.3333C40 48.9797 39.8596 48.6405 39.6095 48.3904L38.7752 47.5562L40.9754 40.0756L43.4693 40.887L41.431 47.6133L43.9831 48.3867L46.2481 40.9124L50.6762 38.2309C50.9468 38.0671 51.1503 37.8123 51.2504 37.5122L52.5837 33.5122C52.6395 33.3449 52.6615 33.1682 52.6486 32.9924C52.6356 32.8166 52.5879 32.6451 52.5082 32.4878C52.4285 32.3305 52.3184 32.1906 52.1843 32.0762C52.0502 31.9617 51.8947 31.875 51.7269 31.8211L49.3845 31.0681L53.466 30.6599L53.2007 28.0066L50.0638 28.3203L50.8435 25.7473L54.7799 25.4119L54.5535 22.755L51.676 23.0002L52.4972 20.2903C53.0891 19.855 53.5844 19.302 53.9521 18.666C54.3198 18.0299 54.5518 17.3247 54.6336 16.5946C54.7154 15.8645 54.6452 15.1253 54.4273 14.4237C54.2095 13.7221 53.8488 13.0731 53.3679 12.5178L58.2762 7.60946C58.4741 7.41156 58.6047 7.15641 58.6495 6.88016C58.6943 6.60391 58.6511 6.32056 58.5259 6.07024L57.1926 3.40357C57.1039 3.22625 56.9768 3.07094 56.8206 2.94894C56.6643 2.82695 56.4828 2.74133 56.2893 2.69833L44.2893 0.0316559C43.9903 -0.034631 43.6777 0.00387094 43.4038 0.140706L40.7371 1.47404C40.5156 1.58477 40.3294 1.75499 40.1992 1.96562C40.069 2.17625 40 2.41898 40 2.66659V9.35686L27.6184 5.91757C27.0926 5.76968 26.5391 5.7496 26.004 5.85899C25.4689 5.96838 24.9676 6.20408 24.5421 6.54644C24.1165 6.88881 23.779 7.32792 23.5575 7.8272C23.3361 8.32647 23.2372 8.87143 23.2691 9.41668C22.437 9.53889 21.6684 9.93194 21.0822 10.535C20.496 11.138 20.1249 11.9175 20.0264 12.7527C19.9278 13.5879 20.1073 14.4323 20.537 15.1552C20.9667 15.8782 21.6227 16.4393 22.4034 16.7519L26.7552 18.4926L27.9428 30.1715L26.6438 31.4706C26.509 29.8004 25.7508 28.242 24.52 27.1049C23.2892 25.9679 21.6757 25.3355 20 25.3333H6.66667C4.89918 25.3353 3.20465 26.0383 1.95484 27.2881C0.705033 28.5379 0.00200798 30.2325 0 32V73.3333C0.00200798 75.1008 0.705033 76.7953 1.95484 78.0452C3.20465 79.295 4.89918 79.998 6.66667 80H20C21.7675 79.998 23.462 79.295 24.7119 78.0452C25.9617 76.7953 26.6647 75.1008 26.6667 73.3333V64H28V66.6666C28 67.0203 28.1405 67.3594 28.3906 67.6095C28.6406 67.8595 28.9797 68 29.3334 68H29.7217C35.1198 68.0078 40.4499 69.2042 45.3334 71.5043V73.3333C45.3334 73.6869 45.4739 74.0261 45.7239 74.2761C45.974 74.5262 46.3131 74.6667 46.6667 74.6667H60.0001C60.3537 74.6667 60.6928 74.5262 60.9429 74.2761C61.1929 74.0261 61.3334 73.6869 61.3334 73.3333V70.4913L67.2605 74.4427C67.4795 74.5887 67.7368 74.6666 68.0001 74.6667H80.0001V72H68.4038L60.7477 66.896L60.7426 66.8926L60.7396 66.8906L60.7396 66.8908C60.5208 66.7443 60.2633 66.6663 60.0001 66.6666H57.8856L53.8857 62.6666H62.263L69.9271 67.776C70.1462 67.9221 70.4035 68 70.6667 68H80.0001V65.3333H71.0705L63.4063 60.2239ZM50.6667 50.6666V53.3333H48V50.6666H50.6667ZM48 56H50.6667V64H48V56ZM45.3334 57.3333H41.3334C41.3123 57.3333 41.2919 57.3355 41.2711 57.3365L41.9629 55.0534L39.4108 54.2799L37.825 59.5133C36.7798 59.2925 35.727 59.1147 34.6667 58.98V56H36C36.3536 56 36.6928 55.8595 36.9428 55.6095L39.6095 52.9428C39.8013 52.7506 39.9298 52.5043 39.9778 52.2369L45.3334 53.1295V57.3333ZM29.3334 46.6666V53.3333H26.6667V47.087L35.759 34.0979C35.9507 33.8241 36.0325 33.4883 35.9883 33.157L33.527 14.6967L44.2734 17.6819C44.3538 17.9234 44.4516 18.1589 44.5659 18.3863L41.2202 18.6715L41.4466 21.3284L43.7679 21.1306L43.0006 23.7395L39.8868 24.0048L40.1132 26.6617L42.1933 26.4845L41.5828 28.56L39.1581 27.7805C38.8238 27.6731 38.4606 27.7019 38.1474 27.8606C37.8342 28.0193 37.5962 28.2951 37.4851 28.6282L36.1518 32.6282C36.0964 32.7943 36.0743 32.9698 36.0867 33.1444C36.0991 33.3191 36.1458 33.4896 36.2242 33.6463L38.6562 38.5104L36.6063 45.4801C36.4186 45.3839 36.2109 45.3336 36 45.3333H30.6667C30.3131 45.3333 29.9739 45.4738 29.7239 45.7238C29.4738 45.9739 29.3334 46.313 29.3334 46.6666ZM52 15.9999C52 16.5274 51.8437 17.0429 51.5506 17.4815C51.2576 17.92 50.8411 18.2618 50.3539 18.4636C49.8666 18.6655 49.3304 18.7183 48.8131 18.6154C48.2959 18.5125 47.8207 18.2585 47.4478 17.8856C47.0748 17.5126 46.8208 17.0375 46.7179 16.5202C46.6151 16.0029 46.6679 15.4667 46.8697 14.9794C47.0715 14.4922 47.4133 14.0757 47.8519 13.7827C48.2904 13.4897 48.806 13.3333 49.3334 13.3333C50.0404 13.3341 50.7182 13.6153 51.2181 14.1152C51.718 14.6151 51.9992 15.2929 52 15.9999ZM32 53.3333V48H35.4478L37.3334 49.8855V51.4477L35.4478 53.3333H32ZM48.8755 36.2039L44.9678 38.5703L41.0264 37.2879L38.8562 32.9475L39.5978 30.7229L49.6277 33.9474L48.8755 36.2039ZM47.1903 28.6077L44.2622 28.9005L45.0442 26.2415L47.9832 25.9911L47.1903 28.6077ZM48.8157 23.2439L45.8516 23.4965L46.6189 20.8876L47.1097 20.8457C47.8069 21.1674 48.5656 21.3337 49.3334 21.3333C49.3541 21.3333 49.3745 21.3319 49.3951 21.3317L48.8157 23.2439ZM42.6667 3.49065L44.1729 2.73756L55.0913 5.16383L55.7111 6.40325L54.2285 7.88583L42.6667 5.5735V3.49065ZM42.6667 8.29306L51.9623 10.1521L51.1342 10.9802C50.4434 10.7319 49.7087 10.6292 48.9763 10.6787C48.2439 10.7281 47.5297 10.9286 46.8786 11.2675L42.6667 10.0976V8.29306ZM25.9654 8.98658C26.0279 8.79866 26.1603 8.64196 26.3351 8.54894C26.51 8.45593 26.7139 8.43372 26.9046 8.48692L44.6672 13.4208C44.4149 13.8752 44.231 14.3641 44.1212 14.8721L26.4907 9.97462C26.3899 9.94655 26.2958 9.89827 26.2142 9.83271C26.1326 9.76716 26.0652 9.6857 26.0161 9.59329C25.967 9.50088 25.9371 9.39944 25.9284 9.29514C25.9197 9.19084 25.9323 9.08587 25.9654 8.98658H25.9654ZM30.6599 30.5317L29.3265 17.4195C29.3019 17.1773 29.2114 16.9464 29.0648 16.752C28.9183 16.5575 28.7213 16.4069 28.4952 16.3165L23.3939 14.276C23.1192 14.1661 22.8971 13.9552 22.7732 13.6866C22.6492 13.418 22.6329 13.1121 22.7275 12.8318C22.8222 12.5516 23.0206 12.3182 23.282 12.1797C23.5434 12.0413 23.848 12.0082 24.133 12.0873L30.7333 13.9207L33.2764 32.9944L26.6667 42.4368V35.219L30.2762 31.6095C30.4161 31.4696 30.5231 31.3003 30.5895 31.1138C30.6558 30.9274 30.6799 30.7286 30.6599 30.5317ZM14.6667 28V77.3333H12V28H14.6667ZM2.76367 74.2059L6.07039 75.8592L7.26294 73.4741L2.66667 71.1759V68.824L6.0704 70.5259L7.26295 68.1408L2.66667 65.8426V63.4907L6.0704 65.1925L7.26295 62.8074L2.66667 60.5093V58.1574L6.0704 59.8592L7.26295 57.4741L2.66667 55.1759V52.824L6.0704 54.5259L7.26295 52.1408L2.66667 49.8426V47.4907L6.0704 49.1925L7.26295 46.8074L2.66667 44.5092V42.1574L6.0704 43.8592L7.26295 41.4741L2.66667 39.1759V36.824L6.0704 38.5258L7.26295 36.1407L2.66667 33.8426V32C2.66703 31.8349 2.67757 31.6701 2.69821 31.5064L6.0704 33.1925L7.26295 30.8074L3.89265 29.1222C4.63644 28.402 5.63132 27.9995 6.66667 28H9.33334V77.3333H6.66667C5.75783 77.3321 4.87642 77.0218 4.16718 76.4535C3.45794 75.8852 2.96301 75.0926 2.76367 74.2059ZM20 77.3333H17.3333V28H20C21.0354 27.9995 22.0303 28.402 22.774 29.1222L19.4037 30.8074L20.5963 33.1925L23.9685 31.5064C23.9891 31.6701 23.9997 31.8349 24 32V33.8426L19.4037 36.1407L20.5963 38.5258L24 36.824V39.1759L19.4037 41.4741L20.5963 43.8592L24 42.1574V44.5092L19.4037 46.8074L20.5963 49.1925L24 47.4907V49.8426L19.4037 52.1408L20.5963 54.5259L24 52.824V55.1759L19.4037 57.4741L20.5963 59.8592L24 58.1574V60.5093L19.4037 62.8074L20.5963 65.1925L24 63.4907V65.8426L19.4037 68.1408L20.5963 70.5259L24 68.824V71.1759L19.4037 73.4741L20.5963 75.8592L23.903 74.2059C23.7037 75.0926 23.2087 75.8852 22.4995 76.4535C21.7903 77.0218 20.9089 77.3321 20 77.3333ZM29.3334 58.6666C28.9797 58.6666 28.6406 58.8071 28.3906 59.0572C28.1405 59.3072 28 59.6464 28 60V61.3333H26.6667V56H32V58.7339C31.2426 58.69 30.4831 58.6676 29.7217 58.6666H29.3334ZM30.6667 65.3449V61.3455C34.1519 61.4345 37.6063 62.0228 40.9245 63.0923C41.1245 63.1567 41.3369 63.173 41.5444 63.1397C41.7519 63.1064 41.9486 63.0246 42.1184 62.9009C42.2883 62.7772 42.4265 62.6151 42.5217 62.4278C42.617 62.2405 42.6667 62.0334 42.6667 61.8232V60H45.3334V68.5755C40.6962 66.5703 35.7172 65.4736 30.6667 65.3449ZM57.3334 69.3333H58.6667V72H48V66.6666H52C52.2715 66.6665 52.5365 66.5834 52.7595 66.4285C52.9824 66.2737 53.1528 66.0544 53.2477 65.8L56.3906 68.9429C56.6407 69.1929 56.9798 69.3333 57.3334 69.3333Z" fill="#0A0F1A"/>
</g>
<defs>
<clipPath id="clip0">
<rect width="80" height="80" fill="white"/>
</clipPath>
</defs>
</svg>
