<svg width="80" height="80" viewBox="0 0 80 80" fill="none" xmlns="http://www.w3.org/2000/svg">
<path fill-rule="evenodd" clip-rule="evenodd" d="M33.5482 36.1289C33.5482 32.5714 36.4425 29.6772 40 29.6772C43.5575 29.6772 46.4517 32.5714 46.4517 36.1289C46.4517 39.6865 43.5575 42.5807 40 42.5807C36.4425 42.5807 33.5482 39.6865 33.5482 36.1289ZM36.1289 36.1289C36.1289 38.2631 37.8659 40 40 40C42.1341 40 43.871 38.2631 43.871 36.1289C43.871 33.9948 42.1341 32.2579 40 32.2579C37.8659 32.2579 36.1289 33.9948 36.1289 36.1289Z" fill="#0A0F1A"/>
<path d="M28.3871 34.8386H30.9678V37.4193H28.3871V34.8386Z" fill="#0A0F1A"/>
<path d="M51.6129 34.8386H49.0322V37.4193H51.6129V34.8386Z" fill="#0A0F1A"/>
<path fill-rule="evenodd" clip-rule="evenodd" d="M69.2865 35.2128L69.2916 35.2076L69.2851 35.2011C66.9832 21.1122 54.7303 10.3225 40 10.3225C25.2696 10.3225 13.0167 21.1122 10.7162 35.2014L10.7097 35.2079L10.7149 35.2131C10.4607 36.7717 10.3225 38.3704 10.3225 40.0003C10.3225 56.364 23.6349 69.6777 40 69.6777C56.3651 69.6777 69.6775 56.3643 69.6775 40.0003C69.6775 38.3704 69.5393 36.7717 69.2865 35.2128ZM40 12.9032C52.2735 12.9032 62.6529 21.1122 65.9728 32.3237C58.6697 26.6451 49.0785 23.2257 40 23.2257C30.9215 23.2257 21.3317 26.6451 14.0272 32.3251C17.3471 21.1122 27.7265 12.9032 40 12.9032ZM14.5651 49.2541C16.3651 47.6684 21.1534 43.8708 25.8064 43.8708C30.5096 43.8708 33.5482 47.4166 33.5482 52.9029C33.5482 58.1456 30.9754 62.8282 29.5677 65.0022C22.6207 62.0928 17.1601 56.3599 14.5651 49.2541ZM50.4298 65.0038C49.0208 62.8347 46.4517 58.1638 46.4517 52.9032C46.4517 47.4166 49.4904 43.871 54.1936 43.871C58.8336 43.871 63.6311 47.6697 65.4336 49.2568C62.8388 56.3613 57.378 62.0942 50.4298 65.0038ZM66.2584 46.5664C63.7964 44.5482 59.0688 41.2903 54.1938 41.2903C48.1163 41.2903 43.8713 46.0659 43.8713 52.9032C43.8713 58.4553 46.323 63.3097 47.9372 65.9059C45.4261 66.6762 42.7617 67.0968 40.0005 67.0968C37.2394 67.0968 34.5741 66.6762 32.0633 65.9059C33.6775 63.3097 36.1292 58.4556 36.1292 52.9032C36.1292 46.0659 31.884 41.2903 25.8067 41.2903C20.932 41.2903 16.2041 44.5485 13.7421 46.5664C13.2143 44.4593 12.9035 42.2683 12.9035 40C12.9035 38.7936 13.0105 37.6141 13.1641 36.449C20.2234 29.8709 30.4145 25.8064 40.0003 25.8064C49.5874 25.8064 59.7782 29.8709 66.8364 36.449C66.99 37.6141 67.097 38.7934 67.097 40C67.097 42.2683 66.786 44.4593 66.2584 46.5664Z" fill="#0A0F1A"/>
<path d="M36.1289 72.2582H38.7096V74.8389H36.1289V72.2582Z" fill="#0A0F1A"/>
<path d="M43.8711 72.2582H41.2903V74.8389H43.8711V72.2582Z" fill="#0A0F1A"/>
<path fill-rule="evenodd" clip-rule="evenodd" d="M40 0C17.9432 0 0 17.9446 0 40C0 62.0554 17.9432 80 40 80C62.0568 80 80 62.0554 80 40C80 17.9446 62.0568 0 40 0ZM40 77.4193C19.3677 77.4193 2.5807 60.6334 2.5807 40C2.5807 19.3666 19.3677 2.5807 40 2.5807C60.6323 2.5807 77.4193 19.3666 77.4193 40C77.4193 60.6334 60.6323 77.4193 40 77.4193Z" fill="#0A0F1A"/>
<path d="M77.5109 18.5445L79.907 17.5858C77.2193 10.862 69.187 2.82838 63.8026 0.135498L62.6477 2.44387C67.5173 4.87879 75.0711 12.4426 77.5109 18.5445Z" fill="#0A0F1A"/>
<path d="M0.092926 62.4142L2.48909 61.4555C4.92889 67.5574 12.4827 75.1212 17.3522 77.5548L16.1974 79.8632C10.8143 77.1716 2.78201 69.1369 0.092926 62.4142Z" fill="#0A0F1A"/>
</svg>
