<svg width="100" height="100" viewBox="0 0 100 100" fill="none" xmlns="http://www.w3.org/2000/svg">
<g clip-path="url(#clip0)">
<path d="M64.5161 8.0647H61.2903V11.2906H64.5161V8.0647Z" fill="#0A0F1A"/>
<path d="M24.194 32.2579H27.4198V35.4838H24.194V32.2579Z" fill="#0A0F1A"/>
<path d="M21.0338 32.2579H17.8079V35.4838H21.0338V32.2579Z" fill="#0A0F1A"/>
<path d="M33.8712 64.5159H30.6453V67.7418H33.8712V64.5159Z" fill="#0A0F1A"/>
<path fill-rule="evenodd" clip-rule="evenodd" d="M67.742 51.6128C76.6355 51.6128 83.871 58.8483 83.871 67.7418C83.871 76.6352 76.6352 83.8707 67.7417 83.8707C58.8482 83.8707 51.6127 76.6352 51.6127 67.7418C51.6127 58.8483 58.8486 51.6128 67.742 51.6128ZM67.742 54.8387C60.6275 54.8387 54.8389 60.6272 54.8389 67.7418C54.8389 74.8563 60.6275 80.6449 67.742 80.6449C74.8566 80.6449 80.6451 74.8563 80.6451 67.7418C80.6451 60.6272 74.8566 54.8387 67.742 54.8387Z" fill="#0A0F1A"/>
<path d="M67.7421 88.7094V85.4836C72.1148 85.4836 76.3148 83.8788 79.5694 80.9659L81.7209 83.369C77.8742 86.8127 72.9097 88.7094 67.7421 88.7094Z" fill="#0A0F1A"/>
<path fill-rule="evenodd" clip-rule="evenodd" d="M75.8074 33.8709V36.545C89.6974 40.1404 100.001 52.7434 100.001 67.7421C100.001 85.529 85.5296 100 67.7427 100C52.7443 100 40.141 89.6968 36.5459 75.8064H9.67822C4.34119 75.8064 0.000976562 71.4662 0.000976562 66.1291V58.0645C0.000976562 54.6997 1.72839 51.7354 4.33983 50.0002C1.72839 48.2646 0.000976562 45.2999 0.000976562 41.9355V33.8709C0.000976562 30.5065 1.72805 27.5418 4.33983 25.8065C1.72839 24.071 0.000976562 21.1063 0.000976562 17.7419V9.67724C0.000976562 4.34021 4.34119 0 9.67788 0H66.1298C71.4668 0 75.8074 4.34021 75.8074 9.6769V17.7416C75.8074 21.1063 74.0813 24.0707 71.4685 25.8062C74.0799 27.5418 75.8074 30.5065 75.8074 33.8709ZM96.7378 67.0386C96.5831 60.6288 94.3445 54.7384 90.6702 49.9998H86.433C89.8956 53.645 92.2957 58.2934 93.1635 63.4628L96.7378 67.0386ZM82.7299 46.7743H87.7685C83.3846 42.5838 77.7007 39.7583 71.3831 38.963L68.3785 41.9677C73.7236 42.0981 78.662 43.858 82.7299 46.7743ZM56.0684 32.2579H72.3522C71.6314 29.4839 69.1267 27.4191 66.1298 27.4191H61.8749L56.0684 32.2579ZM23.1653 24.1936H37.4811L31.6746 19.3548H17.3588L23.1653 24.1936ZM51.0298 19.3548H36.7136L42.5197 24.1936H56.8359L51.0298 19.3548ZM56.8359 27.4191H42.5201L36.7133 32.2579H51.0295L56.8359 27.4191ZM61.8746 24.1936H66.1294C69.1263 24.1936 71.6307 22.1288 72.3518 19.3548H56.0681L61.8746 24.1936ZM51.0295 8.06465L56.8359 3.22586H42.5197L36.7133 8.06465H51.0295ZM31.6746 8.06465L37.4811 3.22586H23.1653L17.3588 8.06465H31.6746ZM18.1263 3.22586H9.67788C6.68166 3.22586 4.17658 5.29029 3.4558 8.06465H12.3198L18.1263 3.22586ZM58.0654 11.2902H3.2265V16.1293H72.5815V11.2905H67.7427V8.06465H72.3525C71.6314 5.29029 69.1267 3.22586 66.1301 3.22586H61.8752L56.0688 8.06465H58.0654V11.2902ZM12.3201 19.3548H3.4558C4.17658 22.1288 6.68166 24.1936 9.67788 24.1936H18.1266L12.3201 19.3548ZM18.1263 27.4191H9.67788C6.68166 27.4191 4.17658 29.4839 3.4558 32.2579H12.3198L18.1263 27.4191ZM13.488 35.4838H3.2265V40.3226H50.8344C55.7585 37.2742 61.5392 35.4838 67.7424 35.4838C69.3909 35.4838 70.9987 35.6467 72.5811 35.8869V35.4838H67.7424H30.6456V32.2579H31.6746L37.4815 27.4191H23.1653L13.488 35.4838ZM63.4638 42.321L67.0395 38.7466C60.6298 38.9014 54.7393 41.1399 50.0008 44.8142V49.0514C53.646 45.5888 58.2944 43.1887 63.4638 42.321ZM46.4782 43.5484H36.7136L42.199 48.1193C43.4763 46.4596 44.907 44.9304 46.4782 43.5484ZM23.1653 48.3869H37.4811L31.675 43.5481H17.3588L23.1653 48.3869ZM46.7749 52.7545V47.7159C42.5848 52.1015 39.7586 57.7837 38.964 64.1013L41.9687 67.106C42.0991 61.7608 43.8587 56.8224 46.7749 52.7545ZM12.3201 43.5481H3.4558C4.17658 46.3225 6.68166 48.3869 9.67788 48.3869H18.1266L12.3201 43.5481ZM18.1263 51.6128H9.67788C6.68166 51.6128 4.17658 53.6775 3.4558 56.4515H12.3198L18.1263 51.6128ZM3.45547 67.7417C4.17658 70.5157 6.68133 72.5805 9.67788 72.5805H18.1263L12.3198 67.7417H3.45547ZM35.4848 67.7417C35.4848 64.9528 35.8783 62.2594 36.5459 59.6771H30.646V56.4512H37.5634C38.1958 54.7672 38.9572 53.1495 39.849 51.6124H23.1653L17.3588 56.4512H27.4201V59.6771H3.2265V64.5159H27.4201V67.7417H17.3588L23.1653 72.5805H35.8878C35.6477 70.9981 35.4848 69.3902 35.4848 67.7417ZM38.7476 68.4449C38.9023 74.8546 41.1409 80.7451 44.8152 85.4836H49.0524C45.5898 81.8384 43.1897 77.19 42.3219 72.0206L38.7476 68.4449ZM47.7169 88.7091C52.1021 92.8996 57.7847 95.7252 64.1023 96.5204L67.1069 93.5158C61.7618 93.3854 56.8234 91.6258 52.7555 88.7095L47.7169 88.7091ZM67.7427 45.161C55.2911 45.161 45.162 55.2901 45.162 67.7417C45.162 80.1933 55.2911 90.3224 67.7427 90.3224C80.1943 90.3224 90.3234 80.1933 90.3234 67.7417C90.3234 55.2901 80.1943 45.161 67.7427 45.161ZM68.4455 96.7369C74.8552 96.5821 80.7457 94.3436 85.4843 90.6693V86.432C81.8391 89.8946 77.1906 92.2947 72.0213 93.1625L68.4455 96.7369ZM88.7105 82.7289V87.7675C92.9003 83.3819 95.7265 77.6998 96.5214 71.3822L93.5167 68.3775C93.3863 73.7226 91.6267 78.661 88.7105 82.7289Z" fill="#0A0F1A"/>
<path d="M32.5566 86.2593L35.3855 84.7094C38.0193 89.5143 41.7336 93.7983 46.126 97.0996L44.1889 99.6786C39.4324 96.1045 35.4099 91.4656 32.5566 86.2593Z" fill="#0A0F1A"/>
</g>
<defs>
<clipPath id="clip0">
<rect width="100" height="100" fill="white"/>
</clipPath>
</defs>
</svg>
