<svg width="65" height="65" viewBox="0 0 65 65" fill="none" xmlns="http://www.w3.org/2000/svg">
<path d="M15.7258 0.000213623H27.258V2.09702H15.7258V0.000213623Z" fill="#0A0F1A"/>
<path d="M27.258 5.24222H1.0484V7.33902H27.258V5.24222Z" fill="#0A0F1A"/>
<path d="M11.5322 24.113H9.43536V26.2098H11.5322V24.113Z" fill="#0A0F1A"/>
<path d="M31.4514 34.5968H33.5482V36.6936H31.4514V34.5968Z" fill="#0A0F1A"/>
<path fill-rule="evenodd" clip-rule="evenodd" d="M62.1798 56.6128C63.8767 55.4847 64.9996 53.5578 64.9996 51.3708V16.7742C64.9996 13.3051 62.1784 10.484 58.7094 10.484H53.4674C49.9983 10.484 47.1772 13.3051 47.1772 16.7742V30.4032H37.7418C37.7418 28.6692 36.3306 27.258 34.5966 27.258H31.4514C29.7174 27.258 28.3062 28.6692 28.3062 30.4032H17.8224V16.7742C17.8224 13.3051 15.0013 10.484 11.5322 10.484H6.29019C2.82113 10.484 0 13.3051 0 16.7742V51.3708C0 53.5576 1.12282 55.4847 2.82025 56.6128H0V58.7096H22.016V56.6128H15.0024C16.7007 55.4847 17.8226 53.5578 17.8226 51.3708V37.7418H28.3064C28.3064 39.4757 29.7176 40.887 31.4516 40.887H34.5968C36.3308 40.887 37.742 39.4757 37.742 37.7418H47.1774V51.3708C47.1774 53.5576 48.3002 55.4847 49.9976 56.6128H32.5002V58.7096H65V56.6128H62.1798ZM2.0968 16.7742C2.0968 14.4616 3.97763 12.5808 6.29019 12.5808V18.437L2.0968 22.6304V16.7742ZM2.0968 25.5953L6.29019 21.4019V29.9692L2.0968 34.1626V25.5953ZM6.29041 55.5644C3.97763 55.5644 2.0968 53.6835 2.0968 51.3708V48.6597L6.29041 44.4661V55.5644ZM6.29041 41.5012L2.0968 45.6948V37.1275L6.29041 32.9339V41.5012ZM15.7258 51.3708C15.7258 53.6824 13.629 55.5633 11.5322 55.5644V44.4672L15.7258 48.6597V51.3708ZM15.7258 45.6948L11.5322 41.5025V32.935L15.7258 37.1275V45.6948ZM15.7258 34.1626L11.5322 29.9703V28.3066H9.43539V55.5646H8.38699V12.5808H9.43539V22.0162H11.5322V21.4028L15.7258 25.5953V34.1626ZM15.7258 22.6304L11.5322 18.4381V12.5808C13.629 12.5819 15.7258 14.4625 15.7258 16.7742V22.6304ZM28.3062 35.6452H17.8224V32.5H28.3062V35.6452ZM35.645 37.742C35.645 38.3197 35.1754 38.7904 34.5966 38.7904H31.4514C30.8726 38.7904 30.403 38.3197 30.403 37.742V30.4034C30.403 29.8257 30.8726 29.355 31.4514 29.355H34.5966C35.1754 29.355 35.645 29.8257 35.645 30.4034V37.742ZM47.1772 35.6452H37.7418V32.5H47.1772V35.6452ZM62.903 45.6948L58.7094 41.5023V32.935L62.903 37.1275V45.6948ZM58.7091 12.5808C60.806 12.5819 62.9028 14.4625 62.9028 16.7742V22.6304L58.7091 18.4379V12.5808ZM49.274 16.7742C49.274 14.4616 51.1546 12.5808 53.4674 12.5808V18.437L49.274 22.6304V16.7742ZM53.4676 55.5644C51.1548 55.5644 49.274 53.6835 49.274 51.3708V48.6597L53.4676 44.4661V55.5644ZM53.4676 41.5012L49.274 45.6948V37.1275L53.4676 32.9339V41.5012ZM53.4676 29.969L49.274 34.1626V25.5953L53.4676 21.4017V29.969ZM56.6126 55.5644H55.5642V12.5808H56.6126V26.2098H58.7094V21.4028L62.903 25.5953V34.1626L58.7094 29.9701V28.3064H56.6126V55.5644ZM58.7094 55.5644V44.4672L62.903 48.6597V51.3708C62.9028 53.6824 60.806 55.5633 58.7094 55.5644Z" fill="#0A0F1A"/>
<path d="M64.9995 62.903H10.4838V64.9998H64.9995V62.903Z" fill="#0A0F1A"/>
<path d="M24.1128 56.6128H26.2096V58.7096H24.1128V56.6128Z" fill="#0A0F1A"/>
<path d="M30.403 56.6128H28.3062V58.7096H30.403V56.6128Z" fill="#0A0F1A"/>
<path d="M0 62.903H8.38699V64.9998H0V62.903Z" fill="#0A0F1A"/>
<path d="M63.9511 5.24222H50.3221V7.33902H63.9511V5.24222Z" fill="#0A0F1A"/>
<path d="M41.9352 0.000213623H55.5642V2.09702H41.9352V0.000213623Z" fill="#0A0F1A"/>
<path d="M48.2256 5.24222H46.1288V7.33902H48.2256V5.24222Z" fill="#0A0F1A"/>
<path d="M41.9352 5.24222H44.032V7.33902H41.9352V5.24222Z" fill="#0A0F1A"/>
</svg>
