<svg width="65" height="65" viewBox="0 0 65 65" fill="none" xmlns="http://www.w3.org/2000/svg">
<path fill-rule="evenodd" clip-rule="evenodd" d="M4.19354 5.19356V26.1613H60.8064V5.19356H4.19354ZM29.3548 18.8226H10.4839V20.9194H29.3548V24.0645H6.29032V20.9194H8.38709V18.8226H6.29032V16.7258H29.3548V18.8226ZM29.3548 14.629H6.29032V12.5323H29.3548V14.629ZM29.3548 10.4355H6.29032V7.29033H29.3548V10.4355ZM33.5484 24.0645H31.4516V7.29033H33.5484V24.0645ZM58.7097 24.0645H35.6451V20.9194H58.7097V24.0645ZM58.7097 18.8226H35.6451V16.7258H58.7097V18.8226ZM58.7097 10.4355H56.6129V12.5323H58.7097V14.629H35.6451V12.5323H54.5161V10.4355H35.6451V7.29033H58.7097V10.4355Z" fill="#0A0F1A"/>
<path fill-rule="evenodd" clip-rule="evenodd" d="M59.7581 1H5.24194C2.35153 1 0 3.35153 0 6.24194V25.1129C0 28.0033 2.35153 30.3548 5.24194 30.3548H59.7581C62.6485 30.3548 65 28.0033 65 25.1129V6.24194C65 3.35153 62.6485 1 59.7581 1ZM62.9032 25.1129C62.9032 26.8469 61.4921 28.2581 59.7581 28.2581H5.24194C3.5079 28.2581 2.09677 26.8469 2.09677 25.1129V6.24194C2.09677 4.5079 3.5079 3.09677 5.24194 3.09677H59.7581C61.4921 3.09677 62.9032 4.5079 62.9032 6.24194V25.1129Z" fill="#0A0F1A"/>
<path d="M46.129 31.7588V54.8233H51.805L41.9355 64.6928L32.5 55.2573L23.0645 64.6928L13.195 54.8233H18.871V31.7588H20.9678V56.9201H18.2566L23.0645 61.728L27.8724 56.9201H25.1613V31.7588H27.2581V54.8233H37.7419V31.7588H39.8387V56.9201H37.1276L41.9355 61.728L46.7434 56.9201H44.0323V31.7588H46.129Z" fill="#0A0F1A"/>
<path d="M62.2889 41.1943L63.6444 39.8387L62.162 38.3563L59.324 41.1943H57.6613V39.5315L60.4993 36.6935L59.0168 35.2111L57.6613 36.5667V33.8556H55.5645V36.5667L54.2089 35.2111L52.7265 36.6935L55.5645 39.5315V41.1943H53.9018L51.0638 38.3563L49.5814 39.8387L50.9369 41.1943H48.2258V43.291H50.9369L49.5814 44.6466L51.0638 46.129L53.9018 43.291H55.5645V44.9538L52.7265 47.7918L54.2089 49.2742L55.5645 47.9186V50.6298H57.6613V47.9186L59.0168 49.2742L60.4993 47.7918L57.6613 44.9538V43.291H59.324L62.162 46.129L63.6444 44.6466L62.2889 43.291H65V41.1943H62.2889Z" fill="#0A0F1A"/>
<path d="M14.0631 48.533H16.7742V50.6298H14.0631L15.4186 51.9853L13.9362 53.4677L11.0982 50.6298H9.43548V52.2925L12.2735 55.1305L10.791 56.6129L9.43548 55.2573V57.9685H7.33871V55.2573L5.98314 56.6129L4.50073 55.1305L7.33871 52.2925V50.6298H5.67597L2.83798 53.4677L1.35556 51.9853L2.71113 50.6298H0V48.533H2.71113L1.35556 47.1774L2.83798 45.695L5.67597 48.533H7.33871V46.8702L4.50073 44.0323L5.98314 42.5498L7.33871 43.9054V41.1943H9.43548V43.9054L10.791 42.5498L12.2735 44.0323L9.43548 46.8702V48.533H11.0982L13.9362 45.695L15.4186 47.1774L14.0631 48.533Z" fill="#0A0F1A"/>
</svg>
