<svg width="100" height="100" viewBox="0 0 100 100" fill="none" xmlns="http://www.w3.org/2000/svg">
<g clip-path="url(#clip0)">
<path d="M56.1876 33.8116L35.865 13.489L33.8124 15.5424L54.135 35.8643L56.1876 33.8116Z" fill="#0A0F1A"/>
<path d="M50.0395 13.4812L70.6981 33.8009L68.6624 35.8706L48.0039 15.5509L50.0395 13.4812Z" fill="#0A0F1A"/>
<path d="M36.9056 5.8064H63.871V8.70962H36.9056C32.5642 8.70962 29.0323 12.2415 29.0323 16.5829V32.7718C29.0323 37.1118 32.5642 40.6451 36.9056 40.6451H43.5484V43.5483H36.9056C30.963 43.5483 26.129 38.7143 26.129 32.7718V16.5829C26.129 10.6404 30.963 5.8064 36.9056 5.8064Z" fill="#0A0F1A"/>
<path d="M80.3845 29.1017C80.977 30.2301 81.2903 31.5002 81.2903 32.7718C81.2903 37.1118 77.7584 40.6451 73.417 40.6451H46.4516V43.5483H73.417C79.3596 43.5483 84.1935 38.7143 84.1935 32.7718C84.1935 31.0324 83.7654 29.2966 82.9553 27.7521L74.4341 11.5661C72.923 8.69332 70.2204 6.67892 67.0194 6.03888L66.4489 8.8854C68.7879 9.3525 70.7619 10.8232 71.8648 12.9177L80.3845 29.1017Z" fill="#0A0F1A"/>
<path d="M5.80649 10.1613H8.70972V13.0645H5.80649V10.1613Z" fill="#0A0F1A"/>
<path d="M8.70972 15.9678H5.80649V33.3871H8.70972V15.9678Z" fill="#0A0F1A"/>
<path d="M5.80649 36.2903H8.70972V39.1935H5.80649V36.2903Z" fill="#0A0F1A"/>
<path fill-rule="evenodd" clip-rule="evenodd" d="M1.45161 1.45161C8.65439 1.45161 14.5161 7.31335 14.5161 14.5161V15.9677H20.3531C20.6812 7.10993 27.9698 0 36.9056 0H64.8973C71.0723 0 76.6959 3.39513 79.5715 8.86065L88.0912 25.0474C89.3394 27.4197 90 30.0905 90 32.7719C90 41.9153 82.5605 49.3548 73.417 49.3548H36.907C27.9712 49.3548 20.6826 42.2449 20.3545 33.3871H14.5161V34.8387C14.5161 42.0429 8.65439 47.9032 1.45161 47.9032H0V1.45161H1.45161ZM23.2258 32.7719C23.2258 40.3142 29.3633 46.4516 36.9056 46.4516H73.417C80.9593 46.4516 87.0968 40.3142 87.0968 32.7719C87.0968 30.5611 86.5524 28.3561 85.5232 26.3991L77.0035 10.2123C74.6305 5.70368 69.9921 2.90323 64.8973 2.90323H36.907C29.3633 2.90323 23.2258 9.04068 23.2258 16.583V32.7719ZM20.3226 30.4839V18.871H14.5161V30.4839H20.3226ZM2.90323 44.8972C7.82156 44.1913 11.6129 39.9498 11.6129 34.8387V14.5161C11.6129 9.40501 7.82156 5.16499 2.90323 4.45761V44.8972Z" fill="#0A0F1A"/>
<path fill-rule="evenodd" clip-rule="evenodd" d="M71.6935 77.2258C75.295 77.2258 78.2258 74.295 78.2258 70.6936C78.2258 67.0921 75.295 64.1613 71.6935 64.1613C68.0921 64.1613 65.1613 67.0921 65.1613 70.6936C65.1613 74.295 68.0921 77.2258 71.6935 77.2258ZM71.6935 67.0645C73.6953 67.0645 75.3225 68.6933 75.3225 70.6936C75.3225 72.6939 73.6953 74.3226 71.6935 74.3226C69.6917 74.3226 68.0645 72.6939 68.0645 70.6936C68.0645 68.6933 69.6917 67.0645 71.6935 67.0645Z" fill="#0A0F1A"/>
<path fill-rule="evenodd" clip-rule="evenodd" d="M47.7012 78.0446L50.6262 78.8284L49.8743 81.633L46.9435 80.8476C46.0725 82.7405 44.5469 84.2662 42.6554 85.1357L43.4408 88.0665L40.6362 88.8185L39.8524 85.8934C39.5824 85.9196 39.3095 85.9355 39.0322 85.9355C38.755 85.9355 38.4821 85.9196 38.2135 85.8964L37.4296 88.8214L34.6251 88.0694L35.4104 85.1386C33.519 84.2676 31.9919 82.742 31.1224 80.8491L28.1916 81.6344L27.4396 78.8299L30.3646 78.046C30.3385 77.7746 30.3225 77.5031 30.3225 77.2259C30.3225 76.9486 30.3385 76.6772 30.3632 76.4086L27.4382 75.6247L28.1901 72.8202L31.1209 73.6055C31.9904 71.7126 33.5161 70.1855 35.409 69.316L34.6237 66.3852L37.4282 65.6333L38.212 68.5583C38.482 68.5322 38.755 68.5162 39.0322 68.5162C39.3095 68.5162 39.5824 68.5322 39.8509 68.5554L40.6348 65.6304L43.4393 66.3823L42.654 69.3131C44.5454 70.1841 46.0725 71.7097 46.9421 73.6026L49.8729 72.8173L50.6248 75.6218L47.6998 76.4057C47.7259 76.6772 47.7419 76.9486 47.7419 77.2259C47.7419 77.5031 47.7259 77.7746 47.7012 78.0446ZM33.2258 77.2259C33.2258 80.4281 35.83 83.0323 39.0322 83.0323C42.2345 83.0323 44.8387 80.4281 44.8387 77.2259C44.8387 74.0236 42.2345 71.4194 39.0322 71.4194C35.83 71.4194 33.2258 74.0236 33.2258 77.2259Z" fill="#0A0F1A"/>
<path fill-rule="evenodd" clip-rule="evenodd" d="M52.0968 54C28.8855 54 10 72.884 10 96.0968V100.452H78.2258C90.2321 100.452 100 90.6837 100 78.6774V54H52.0968ZM86.9355 56.9032V63.916C85.6653 61.0723 83.6316 58.6423 81.0855 56.9032H86.9355ZM85.4839 70.6936C85.4839 78.2971 79.2971 84.4839 71.6936 84.4839C64.09 84.4839 57.9032 78.2971 57.9032 70.6936C57.9032 63.09 64.09 56.9032 71.6936 56.9032C79.2971 56.9032 85.4839 63.09 85.4839 70.6936ZM78.2258 97.5484H16.5947C21.9715 94.7003 27.9318 93.1936 34.1011 93.1936H52.0968V90.2903H48.1847C52.2986 87.3987 55 82.6258 55 77.2258C55 68.4218 47.8363 61.2581 39.0323 61.2581C30.2282 61.2581 23.0645 68.4218 23.0645 77.2258C23.0645 82.755 25.8908 87.6339 30.1731 90.5008C24.0357 91.0931 18.1639 93.06 12.9032 96.3087V96.0968C12.9032 74.4852 30.4852 56.9032 52.0968 56.9032H62.3016C57.8989 59.9124 55 64.9698 55 70.6936C55 79.8982 62.4889 87.3871 71.6936 87.3871C78.4726 87.3871 84.311 83.3182 86.921 77.4987C86.7744 84.5753 80.9824 90.2903 73.871 90.2903H55V93.1936H73.871C81.6835 93.1936 88.1911 87.5497 89.5615 80.129H97.0227C96.2766 89.8563 88.1403 97.5484 78.2258 97.5484ZM25.9677 77.2258C25.9677 70.0229 31.8279 64.1613 39.0323 64.1613C46.2366 64.1613 52.0968 70.0229 52.0968 77.2258C52.0968 84.4287 46.2366 90.2903 39.0323 90.2903C31.8279 90.2903 25.9677 84.4287 25.9677 77.2258ZM97.0968 77.2258H89.8387V74.3226H97.0968V77.2258ZM97.0968 71.4194H89.8387V68.5161H97.0968V71.4194ZM97.0968 65.6129H89.8387V62.7097H97.0968V65.6129ZM97.0968 59.8064H89.8387V56.9032H97.0968V59.8064Z" fill="#0A0F1A"/>
</g>
<defs>
<clipPath id="clip0">
<rect width="100" height="100" fill="white"/>
</clipPath>
</defs>
</svg>
