<svg width="65" height="65" viewBox="0 0 65 65" fill="none" xmlns="http://www.w3.org/2000/svg">
<g clip-path="url(#clip0)">
<path d="M59.3274 4.78056L57.8913 3.34447L50.4844 10.7514L48.1555 8.42259L46.7195 9.85869L50.4844 13.6236L59.3274 4.78056Z" fill="#0A0F1A"/>
<path fill-rule="evenodd" clip-rule="evenodd" d="M45.4062 16.25C42.6062 16.25 40.3281 13.972 40.3281 11.1719V5.07812C40.3281 2.27805 42.6062 0 45.4062 0H59.625C62.4251 0 64.7031 2.27805 64.7031 5.07812V11.1719C64.7031 13.972 62.4251 16.25 59.625 16.25H56.5781V18.8764C56.5781 20.2282 55.4782 21.3281 54.1264 21.3281C53.4795 21.3281 52.8477 21.0661 52.3917 20.6091L48.0327 16.25H45.4062ZM45.4062 2.03125C43.7264 2.03125 42.3594 3.39828 42.3594 5.07812V11.1719C42.3594 12.8517 43.7264 14.2188 45.4062 14.2188H48.8736L53.8288 19.174C54.0705 19.4167 54.5469 19.2197 54.5469 18.8764V14.2188H59.625C61.3048 14.2188 62.6719 12.8517 62.6719 11.1719V5.07812C62.6719 3.39828 61.3048 2.03125 59.625 2.03125H45.4062Z" fill="#0A0F1A"/>
<path fill-rule="evenodd" clip-rule="evenodd" d="M20.9419 57.3913C20.9419 55.5822 22.4141 54.11 24.2231 54.11C26.0322 54.11 27.5044 55.5822 27.5044 57.3913C27.5044 59.2003 26.0322 60.6725 24.2231 60.6725C22.4141 60.6725 20.9419 59.2003 20.9419 57.3913ZM23.1294 57.3913C23.1294 57.995 23.6205 58.485 24.2231 58.485C24.8258 58.485 25.3169 57.995 25.3169 57.3913C25.3169 56.7875 24.8258 56.2975 24.2231 56.2975C23.6205 56.2975 23.1294 56.7875 23.1294 57.3913Z" fill="#0A0F1A"/>
<path fill-rule="evenodd" clip-rule="evenodd" d="M57.0356 54.11C55.2266 54.11 53.7544 55.5822 53.7544 57.3913C53.7544 59.2003 55.2266 60.6725 57.0356 60.6725C58.8447 60.6725 60.3169 59.2003 60.3169 57.3913C60.3169 55.5822 58.8447 54.11 57.0356 54.11ZM57.0356 58.485C56.433 58.485 55.9419 57.995 55.9419 57.3913C55.9419 56.7875 56.433 56.2975 57.0356 56.2975C57.6383 56.2975 58.1294 56.7875 58.1294 57.3913C58.1294 57.995 57.6383 58.485 57.0356 58.485Z" fill="#0A0F1A"/>
<path fill-rule="evenodd" clip-rule="evenodd" d="M14.2198 17.748C16.7395 16.058 18.2823 13.2021 18.2823 10.1562C18.2823 6.86155 16.5313 3.80046 13.713 2.16835L12.4861 1.45741L11.2755 7.51358L9.14062 8.93546L7.0068 7.51358L5.79617 1.45741L4.5693 2.16835C1.75094 3.80046 0 6.86155 0 10.1562C0 13.2021 1.54273 16.0591 4.0625 17.748V43.2697C1.54273 44.9597 0 47.8156 0 50.8615C0 54.1562 1.75094 57.2173 4.5693 58.8494L5.79617 59.5603L7.0068 53.5041L9.14062 52.0823L9.98438 52.6437V50.2029L9.14062 49.6407L5.1807 52.2813L4.39359 56.2189C2.90977 54.8742 2.03125 52.9273 2.03125 50.8615C2.03125 48.3387 3.39422 45.9814 5.58695 44.7108L6.09375 44.4173V16.5994L5.58695 16.3059C3.39422 15.0363 2.03125 12.6791 2.03125 10.1562C2.03125 8.09046 2.90977 6.14351 4.39258 4.79882L5.17969 8.7364L9.13961 11.377L13.0995 8.7364L13.8866 4.79882C15.3715 6.14351 16.25 8.09046 16.25 10.1562C16.25 12.6791 14.887 15.0363 12.6943 16.3069L12.1875 16.6004L12.1905 43H12.1919V45.5612C10.922 46.0141 10.0044 47.2172 10.0044 48.6412V55.2037C10.0044 57.0128 11.4766 58.485 13.2856 58.485H16.6859C17.2104 62.1847 20.3904 65.03 24.235 65.03C27.2768 65.03 29.9027 63.2488 31.1264 60.6725H50.3436C51.5673 63.2488 54.1931 65.03 57.235 65.03C61.4462 65.03 64.86 61.6162 64.86 57.405C64.86 53.1938 61.4462 49.78 57.235 49.78C57.1488 49.78 57.063 49.7814 56.9775 49.7843L57 49.735H47.1919V30.0475H42.8169V27.86H47.1919V19.11H42.8169V16.9225H36.2544V13.6412C36.2544 13.0375 36.7455 12.5475 37.3481 12.5475H38.4419V10.36H37.3481C35.5391 10.36 34.0669 11.8322 34.0669 13.6412V16.9225C25.2933 16.9225 17.7094 22.1145 14.2265 29.5873L14.2198 17.748ZM31.7841 58.485C31.8341 58.1322 31.86 57.7716 31.86 57.405C31.86 53.1938 28.4462 49.78 24.235 49.78C20.4 49.78 17.2262 52.6112 16.6898 56.2975H13.2856C12.683 56.2975 12.1919 55.8075 12.1919 55.2037V51.9225H13.2856C15.0947 51.9225 16.5669 50.4503 16.5669 48.6412V47.5475H25.3169C30.1414 47.5475 34.0669 51.473 34.0669 56.2975V58.485H31.7841ZM49.6859 58.485C49.6359 58.1322 49.61 57.7716 49.61 57.405C49.61 57.0288 49.6372 56.6591 49.6898 56.2975H36.2544V58.485H49.6859ZM50.3567 54.11C50.7509 53.2886 51.288 52.5487 51.9357 51.9225H40.6294V30.0475H36.2544V34.4225H38.4419V54.11H50.3567ZM14.3794 40.985V45.36H25.3169C27.7811 45.36 30.0484 46.1891 31.8794 47.5683V34.4225H34.0669V30.0475H16.4564C16.1042 30.7541 15.7947 31.4836 15.5278 32.235H19.8481C22.8636 32.235 25.3169 34.6883 25.3169 37.7037V40.985H14.3794ZM19.8481 34.4225H14.8869C14.5653 35.8323 14.3794 37.2925 14.3794 38.7975H23.1294V37.7037C23.1294 35.8947 21.6572 34.4225 19.8481 34.4225ZM34.0669 36.61V49.7634C35.0162 51.0311 35.7064 52.5033 36.0334 54.11H36.2544V36.61H34.0669ZM40.6294 27.86V23.485H36.2544V27.86H40.6294ZM42.8169 49.735H45.0044V32.235H42.8169V49.735ZM45.0044 25.6725V21.2975H42.8169V25.6725H45.0044ZM40.6294 21.2975V19.11H36.2544V21.2975H40.6294ZM34.0669 27.86V19.11C27.2561 19.11 21.2448 22.5881 17.7087 27.86H34.0669ZM14.3794 47.5475H13.2856C12.683 47.5475 12.1919 48.0375 12.1919 48.6412V49.735H13.2856C13.8883 49.735 14.3794 49.245 14.3794 48.6412V47.5475ZM24.225 62.87C27.2488 62.87 29.7 60.4188 29.7 57.395C29.7 54.3712 27.2488 51.92 24.225 51.92C21.2012 51.92 18.75 54.3712 18.75 57.395C18.75 60.4188 21.2012 62.87 24.225 62.87ZM57.225 62.87C60.2488 62.87 62.7 60.4188 62.7 57.395C62.7 54.3712 60.2488 51.92 57.225 51.92C54.2012 51.92 51.75 54.3712 51.75 57.395C51.75 60.4188 54.2012 62.87 57.225 62.87Z" fill="#0A0F1A"/>
<path d="M11.1719 16.25H9.14062V18.2812H11.1719V16.25Z" fill="#0A0F1A"/>
<path d="M9.14062 20.3125H11.1719V22.3438H9.14062V20.3125Z" fill="#0A0F1A"/>
<path d="M11.1719 24.375H9.14062V26.4062H11.1719V24.375Z" fill="#0A0F1A"/>
</g>
<defs>
<clipPath id="clip0">
<rect width="65" height="65" fill="white"/>
</clipPath>
</defs>
</svg>
