<svg width="110" height="124" viewBox="0 0 110 124" fill="none" xmlns="http://www.w3.org/2000/svg">
<path d="M52.4078 0.686748C54.0119 -0.228916 55.9881 -0.228916 57.5922 0.686748L107.408 29.1238C109.012 30.0394 110 31.7317 110 33.563V90.437C110 92.2684 109.012 93.9606 107.408 94.8762L57.5922 123.313C55.9881 124.229 54.0119 124.229 52.4078 123.313L2.59219 94.8762C0.988136 93.9606 0 92.2684 0 90.437V33.563C0 31.7317 0.988136 30.0394 2.59219 29.1238L52.4078 0.686748Z" fill="#FDD417"/>
<path d="M62.2874 50.8112L79.0045 38.1331C79.4444 37.7999 80.0711 37.8858 80.4049 38.3252C80.5656 38.5366 80.6356 38.8031 80.5996 39.0662C80.5636 39.3292 80.4245 39.5671 80.2129 39.7275L63.4948 52.4046C62.3058 53.283 60.6829 53.283 59.4939 52.4046L42.7808 39.7275C42.3406 39.3937 42.2543 38.766 42.5882 38.3257C42.9221 37.8854 43.5498 37.7992 43.99 38.1331L60.701 50.8112C61.1739 51.1549 61.8144 51.1549 62.2874 50.8112Z" fill="#0A0F1A"/>
<path d="M52.9581 52.4886L42.7116 63.4614C42.3349 63.8654 42.357 64.4985 42.7611 64.8752C43.1651 65.252 43.7982 65.2298 44.1749 64.8258L54.4215 53.8481C54.76 53.4397 54.7208 52.838 54.3322 52.4769C53.9435 52.1158 53.3405 52.1209 52.9581 52.4886Z" fill="#0A0F1A"/>
<path d="M68.6826 52.4391C69.0867 52.0623 69.7197 52.0845 70.0964 52.4886L80.34 63.4613C80.7168 63.8655 80.6946 64.4985 80.2905 64.8752C79.8864 65.252 79.2534 65.2298 78.8766 64.8257L68.6331 53.853C68.2562 53.4488 68.2785 52.8158 68.6826 52.4391Z" fill="#0A0F1A"/>
<path fill-rule="evenodd" clip-rule="evenodd" d="M40.5391 33.5019H82.4494C83.8574 33.5035 84.9984 34.6445 85 36.0525V66.992C84.9945 68.3965 83.8539 69.5317 82.4494 69.5307H43.3557C43.7538 69.9499 44.1779 70.3879 44.646 70.8561C48.9731 75.1831 51.1156 76.3514 52.837 77.2896L53.3601 77.5777C53.776 77.807 54.2972 77.6968 54.5845 77.3187L57.3332 73.7848C58.2911 72.5627 60.0271 72.2811 61.3222 73.1377L70.7635 79.4313C72.0838 80.3083 72.4805 82.0689 71.6637 83.4273L69.2962 87.3743C68.537 88.6638 67.3083 89.6097 65.8674 90.0139C64.6577 90.3409 63.4094 90.5037 62.1564 90.498C56.7441 90.498 48.8911 87.6643 38.3587 77.1427C25.1144 63.8965 24.0471 54.8733 25.4855 49.6359C25.8897 48.1944 26.8369 46.9657 28.1281 46.208L32.0711 43.8375C33.4305 43.0174 35.1948 43.4144 36.072 44.7377L37.9885 47.6124V36.0525C37.9901 34.6445 39.1311 33.5035 40.5391 33.5019ZM52.3879 79.3253L51.8798 79.0462L51.8781 79.0453C50.045 78.0451 47.7634 76.8002 43.2325 72.2704C38.703 67.742 37.4585 65.4594 36.4586 63.6256L36.4568 63.6223L36.1768 63.1141C35.4627 61.8372 35.7942 60.2297 36.955 59.3392L40.4899 56.5895C40.8884 56.2774 40.9802 55.7115 40.701 55.2893L34.4045 45.8479C34.1184 45.4195 33.5465 45.2907 33.1042 45.5549L29.1572 47.9235C28.3098 48.4181 27.6866 49.2213 27.4178 50.165C26.1206 54.8892 27.2167 63.1634 39.7758 75.7235C52.335 88.2836 60.61 89.3837 65.3381 88.0835C66.282 87.8144 67.0852 87.1909 67.5797 86.343L69.9472 82.396C70.212 81.9539 70.083 81.3816 69.6541 81.0957L60.2128 74.8021C59.7905 74.5234 59.2251 74.6152 58.9126 75.0132L56.1638 78.5471C55.2731 79.7081 53.6652 80.0395 52.3879 79.3253ZM82.4495 67.5323C82.7503 67.5345 82.9963 67.293 82.9996 66.9921L82.9995 36.0525C83.0011 35.9061 82.9437 35.7652 82.8402 35.6617C82.7367 35.5582 82.5958 35.5008 82.4494 35.5024H40.539C40.3926 35.5008 40.2517 35.5582 40.1482 35.6617C40.0447 35.7652 39.9873 35.9061 39.9889 36.0525V50.6141L42.3655 54.181C43.2226 55.4761 42.9409 57.2123 41.7183 58.17L38.1834 60.9196C37.8055 61.2063 37.6956 61.727 37.9253 62.142L38.2134 62.6671C39.1319 64.4138 40.2522 66.0467 41.5513 67.5323H82.4495Z" fill="#0A0F1A"/>
</svg>
