<svg width="320" height="320" viewBox="0 0 320 320" fill="none" xmlns="http://www.w3.org/2000/svg">
<path d="M72.5131 37.5508C61.4612 37.5508 52.4706 46.5427 52.4706 57.5939C52.4706 68.6452 61.4619 77.637 72.5131 77.637C83.5644 77.637 92.5562 68.6452 92.5562 57.5939C92.5562 46.5427 83.5644 37.5508 72.5131 37.5508ZM72.5131 65.1377C68.3544 65.1377 64.9706 61.7539 64.9706 57.5945C64.9706 53.4352 68.3544 50.0514 72.5131 50.0514C76.6725 50.0514 80.0562 53.4352 80.0562 57.5945C80.0562 61.7539 76.6725 65.1377 72.5131 65.1377Z" fill="#333333"/>
<path d="M61.9313 152.456C60.7682 151.294 59.1563 150.625 57.5125 150.625C55.8688 150.625 54.2563 151.293 53.0944 152.456C51.9319 153.619 51.2625 155.231 51.2625 156.875C51.2625 158.519 51.9313 160.131 53.0944 161.293C54.2563 162.456 55.8688 163.125 57.5125 163.125C59.1563 163.125 60.7682 162.456 61.9313 161.293C63.0938 160.131 63.7625 158.519 63.7625 156.875C63.7625 155.231 63.0944 153.619 61.9313 152.456Z" fill="#333333"/>
<path d="M247.646 37.5508C236.594 37.5508 227.602 46.5427 227.602 57.5939C227.602 68.6452 236.594 77.637 247.646 77.637C258.697 77.637 267.688 68.6452 267.688 57.5939C267.688 46.5427 258.697 37.5508 247.646 37.5508ZM247.646 65.1377C243.486 65.1377 240.102 61.7539 240.102 57.5945C240.102 53.4352 243.486 50.0514 247.646 50.0514C251.804 50.0514 255.188 53.4352 255.188 57.5945C255.188 61.7539 251.805 65.1377 247.646 65.1377Z" fill="#333333"/>
<path d="M313.75 191.226H276.396V181.757C276.396 178.306 273.597 175.507 270.146 175.507H268.896V95.6056H273.825L276.935 107.795C277.641 110.564 280.134 112.5 282.991 112.5H297.646C301.097 112.5 303.896 109.701 303.896 106.25V14.8706C303.896 6.67125 297.225 0 289.025 0H206.266C198.067 0 191.396 6.67125 191.396 14.8706V106.25C191.396 109.701 194.194 112.5 197.646 112.5H212.301C215.157 112.5 217.651 110.563 218.356 107.795L221.466 95.6056H226.396V128.491C226.396 131.942 229.194 134.741 232.646 134.741C236.097 134.741 238.896 131.942 238.896 128.491V95.6056H256.396V175.507H225.146C221.694 175.507 218.896 178.306 218.896 181.757V191.226H181.961C178.509 191.226 175.711 194.025 175.711 197.476V233.75H144.447V197.476C144.447 194.025 141.649 191.226 138.197 191.226H101.263V181.757C101.263 178.306 98.4638 175.507 95.0125 175.507H93.7625V95.6056H98.6919L101.802 107.795C102.508 110.564 105.001 112.5 107.858 112.5H122.513C125.964 112.5 128.762 109.701 128.762 106.25V14.8706C128.763 6.67125 122.092 0 113.893 0H31.1331C22.9338 0 16.2631 6.67125 16.2631 14.8706V106.25C16.2631 109.701 19.0619 112.5 22.5131 112.5H37.1681C40.0244 112.5 42.5181 110.563 43.2237 107.795L46.3338 95.6056H51.2631V131.875C51.2631 135.326 54.0619 138.125 57.5131 138.125C60.9644 138.125 63.7631 135.326 63.7631 131.875V95.6056H81.2631V175.507H50.0131C46.5619 175.507 43.7631 178.306 43.7631 181.757V191.226H6.25C2.79875 191.226 0 194.025 0 197.476V280C0 283.451 2.79875 286.25 6.25 286.25H50.0131C53.4644 286.25 56.2631 283.451 56.2631 280V255.507H88.7631V313.75C88.7631 317.201 91.5619 320 95.0131 320H138.198C141.649 320 144.448 317.201 144.448 313.75V286.25H175.711V313.75C175.711 317.201 178.51 320 181.961 320H225.146C228.598 320 231.396 317.201 231.396 313.75V255.507H263.896V280C263.896 283.451 266.695 286.25 270.146 286.25H313.75C317.201 286.25 320 283.451 320 280V197.476C320 194.024 317.201 191.226 313.75 191.226ZM43.7631 273.75H12.5V203.726H43.7631V273.75ZM28.7625 14.8706C28.7631 13.5631 29.8263 12.5 31.1331 12.5H113.892C115.199 12.5 116.263 13.5631 116.263 14.8706V20H28.7625V14.8706ZM88.7631 197.476V243.007H56.2631V197.476V188.007H88.7631V197.476ZM87.5125 83.1056H57.5131H41.4781C38.6219 83.1056 36.1281 85.0425 35.4225 87.8106L32.3125 100H28.7625V32.5H116.263V100H112.712L109.603 87.8106C108.896 85.0419 106.403 83.1056 103.547 83.1056H87.5125ZM131.947 307.5H101.263V203.726H131.947V307.5ZM175.711 273.75H144.447V246.25H175.711V273.75ZM218.896 307.5H188.211V203.726H218.896V307.5ZM203.896 14.8706C203.896 13.5631 204.959 12.5 206.266 12.5H289.025C290.332 12.5 291.396 13.5631 291.396 14.8706V20H203.896V14.8706ZM263.896 197.476V243.007H231.396V197.476V188.007H263.896V197.476ZM262.646 83.1056H232.646H216.611C213.755 83.1056 211.261 85.0425 210.556 87.8106L207.446 100H203.896V32.5H291.396V100H287.846L284.736 87.8106C284.029 85.0419 281.536 83.1056 278.68 83.1056H262.646ZM307.5 273.75H276.396V203.726H307.5V273.75Z" fill="#333333"/>
<path d="M237.063 152.456C235.9 151.294 234.288 150.625 232.644 150.625C231 150.625 229.388 151.293 228.226 152.456C227.063 153.619 226.394 155.231 226.394 156.875C226.394 158.519 227.063 160.131 228.226 161.293C229.388 162.456 231 163.125 232.644 163.125C234.288 163.125 235.899 162.456 237.063 161.293C238.231 160.131 238.894 158.519 238.894 156.875C238.894 155.231 238.231 153.619 237.063 152.456Z" fill="#333333"/>
</svg>
