<svg width="65" height="65" viewBox="0 0 65 65" fill="none" xmlns="http://www.w3.org/2000/svg">
<path d="M24.4061 15.0862L15.4061 11.0862L14.5939 12.9138L23.5939 16.9138L24.4061 15.0862Z" fill="#0A0F1A"/>
<path fill-rule="evenodd" clip-rule="evenodd" d="M38 1H27V9.48346L16.1927 4.85175C14.6931 4.20909 12.9549 4.88257 12.2798 6.36778L8.92422 13.7501C8.23453 15.2674 8.91385 17.056 10.4369 17.7329L20.1531 22.0513C20.0538 22.3494 20 22.6684 20 23V28C20 29.4865 21.0811 30.7205 22.5 30.9585V39.5C22.5 41.1569 23.8431 42.5 25.5 42.5H26.5V47.5C26.5 48.8259 27.3601 49.9508 28.5528 50.3474L29.6978 55.5H35.3022L36.4472 50.3474C37.6399 49.9508 38.5 48.8259 38.5 47.5V42.5H39.5C41.1569 42.5 42.5 41.1569 42.5 39.5V30.9585C43.9189 30.7205 45 29.4865 45 28V23C45 21.3431 43.6569 20 42 20H38V1ZM15.4048 6.69004L27 11.6594V20H23C22.4296 20 21.8963 20.1592 21.4423 20.4356L11.2492 15.9053C10.7415 15.6797 10.5151 15.0835 10.745 14.5777L14.1006 7.19539C14.3256 6.70031 14.905 6.47582 15.4048 6.69004ZM29 3V20H36V3H29ZM22.0077 22.8755C22.0428 22.5926 22.1961 22.3464 22.4166 22.1878C22.5808 22.0696 22.7823 22 23 22H42C42.5523 22 43 22.4477 43 23V28C43 28.5523 42.5523 29 42 29H23C22.4477 29 22 28.5523 22 28V23C22 22.9578 22.0026 22.9163 22.0077 22.8755ZM24.5 31H40.5V39.5C40.5 40.0523 40.0523 40.5 39.5 40.5H25.5C24.9477 40.5 24.5 40.0523 24.5 39.5V31ZM29.5 48.5C28.9477 48.5 28.5 48.0523 28.5 47.5V42.5H36.5V47.5C36.5 48.0523 36.0523 48.5 35.5 48.5H29.5ZM31.3022 53.5L30.6355 50.5H34.3645L33.6978 53.5H31.3022Z" fill="#0A0F1A"/>
<path d="M2 31V60.5C2 62.1569 3.34315 63.5 5 63.5H60C61.6569 63.5 63 62.1569 63 60.5V31H61V60.5C61 61.0523 60.5523 61.5 60 61.5H5C4.44772 61.5 4 61.0523 4 60.5V31H2Z" fill="#0A0F1A"/>
<path d="M18 45C18 40.0097 14.9536 35.7285 10.6151 33.9193L11.3849 32.0734C16.4422 34.1824 20 39.1745 20 45C20 50.8255 16.4422 55.8176 11.3849 57.9266L10.6151 56.0807C14.9536 54.2715 18 49.9903 18 45Z" fill="#0A0F1A"/>
<path d="M14 45C14 41.6868 11.9856 38.8417 9.11078 37.6271L9.88917 35.7848C13.4782 37.3012 16 40.8549 16 45C16 49.1451 13.4782 52.6989 9.88917 54.2153L9.11078 52.3729C11.9856 51.1583 14 48.3132 14 45Z" fill="#0A0F1A"/>
<path d="M9.99998 45C9.99998 43.3613 9.01442 41.9506 7.59961 41.3324L8.40035 39.4997C10.5173 40.4246 12 42.5381 12 45C12 47.4619 10.5173 49.5754 8.40035 50.5003L7.59961 48.6676C9.01442 48.0494 9.99998 46.6387 9.99998 45Z" fill="#0A0F1A"/>
<path d="M8 45C8 45.5523 7.55228 46 7 46C6.44772 46 6 45.5523 6 45C6 44.4477 6.44772 44 7 44C7.55228 44 8 44.4477 8 45Z" fill="#0A0F1A"/>
<path d="M54.3849 33.9193C50.0464 35.7285 47 40.0097 47 45C47 49.9904 50.0464 54.2715 54.3849 56.0807L53.6151 57.9267C48.5578 55.8177 45 50.8255 45 45C45 39.1746 48.5578 34.1824 53.6151 32.0734L54.3849 33.9193Z" fill="#0A0F1A"/>
<path d="M55.8892 37.6271C53.0144 38.8417 51 41.6868 51 45C51 48.3132 53.0144 51.1583 55.8892 52.3729L55.1108 54.2153C51.5217 52.6989 49 49.1451 49 45C49 40.8549 51.5217 37.3012 55.1108 35.7848L55.8892 37.6271Z" fill="#0A0F1A"/>
<path d="M57.4004 41.3324C55.9856 41.9506 55 43.3613 55 45C55 46.6387 55.9856 48.0495 57.4004 48.6676L56.5996 50.5003C54.4826 49.5754 53 47.462 53 45C53 42.5381 54.4826 40.4247 56.5996 39.4997L57.4004 41.3324Z" fill="#0A0F1A"/>
<path d="M58 46C57.4477 46 57 45.5523 57 45C57 44.4477 57.4477 44 58 44C58.5523 44 59 44.4477 59 45C59 45.5523 58.5523 46 58 46Z" fill="#0A0F1A"/>
</svg>
