<svg width="100" height="100" viewBox="0 0 100 100" fill="none" xmlns="http://www.w3.org/2000/svg">
<g clip-path="url(#clip0)">
<path fill-rule="evenodd" clip-rule="evenodd" d="M30.6453 20.9677C30.6453 26.3048 26.3051 30.645 20.9681 30.645C15.6311 30.645 11.2905 26.3048 11.2905 20.9677C11.2905 15.6307 15.6311 11.2902 20.9681 11.2902C26.3051 11.2902 30.6453 15.6307 30.6453 20.9677ZM27.4198 20.9677C27.4198 17.4096 24.5262 14.516 20.9681 14.516C17.41 14.516 14.516 17.4096 14.516 20.9677C14.516 24.5259 17.41 27.4191 20.9681 27.4191C24.5262 27.4191 27.4198 24.5259 27.4198 20.9677Z" fill="#0A0F1A"/>
<path d="M25.8065 33.8708H12.9034V37.0967H25.8065V33.8708Z" fill="#0A0F1A"/>
<path fill-rule="evenodd" clip-rule="evenodd" d="M14.516 46.774H25.8062V58.0642H14.516V46.774ZM17.7419 54.8386H22.5807V49.9998H17.7419V54.8386Z" fill="#0A0F1A"/>
<path fill-rule="evenodd" clip-rule="evenodd" d="M14.516 74.1934H25.8062V62.9033H14.516V74.1934ZM17.7419 66.1288H22.5807V70.9676H17.7419V66.1288Z" fill="#0A0F1A"/>
<path fill-rule="evenodd" clip-rule="evenodd" d="M43.5481 46.7744H54.8383V58.0645H43.5481V46.7744ZM46.774 54.8387H51.6127V49.9999H46.774V54.8387Z" fill="#0A0F1A"/>
<path d="M64.5165 16.129H41.9359V19.3548H64.5165V16.129Z" fill="#0A0F1A"/>
<path d="M41.9359 25.8062H70.9679V29.0321H41.9359V25.8062Z" fill="#0A0F1A"/>
<path d="M70.9679 35.4838H41.9359V38.7097H70.9679V35.4838Z" fill="#0A0F1A"/>
<path d="M29.0321 48.3869H37.0967V51.6128H29.0321V48.3869Z" fill="#0A0F1A"/>
<path d="M37.0967 54.8386H29.0321V58.0645H37.0967V54.8386Z" fill="#0A0F1A"/>
<path d="M58.0648 48.3869H66.1295V51.6128H58.0648V48.3869Z" fill="#0A0F1A"/>
<path d="M66.1295 54.8386H58.0648V58.0645H66.1295V54.8386Z" fill="#0A0F1A"/>
<path d="M29.0321 67.7418H37.0967V70.9676H29.0321V67.7418Z" fill="#0A0F1A"/>
<path d="M43.5481 80.6448H14.516V83.8707H43.5481V80.6448Z" fill="#0A0F1A"/>
<path d="M14.516 87.0966H43.5481V90.3224H14.516V87.0966Z" fill="#0A0F1A"/>
<path d="M32.2579 33.8708H29.0321V37.0967H32.2579V33.8708Z" fill="#0A0F1A"/>
<path d="M70.9676 90.3224H74.1935V93.5482H70.9676V90.3224Z" fill="#0A0F1A"/>
<path d="M67.7421 90.3224H64.5162V93.5482H67.7421V90.3224Z" fill="#0A0F1A"/>
<path d="M6.45172 90.3224H9.67758V93.5482H6.45172V90.3224Z" fill="#0A0F1A"/>
<path fill-rule="evenodd" clip-rule="evenodd" d="M89.4587 37.2915C90.6262 36.1253 92.1761 35.4835 93.8246 35.4835C97.2314 35.4835 100.001 38.2544 100.001 41.6578C100.001 43.3097 99.3588 44.8596 98.1913 46.0241L80.6462 63.5709V95.1612C80.6462 97.8289 78.4751 100 75.8074 100H4.8398C2.17213 100 0.00100708 97.8289 0.00100708 95.1612V4.83879C0.00100708 2.17112 2.17179 0 4.8398 0H75.8074C78.4751 0 80.6458 2.17112 80.6458 4.83913V7.94068C81.6731 6.08084 82.2588 3.92936 82.2588 1.61327H85.4846C85.4846 9.45031 90.549 14.5164 98.3877 14.5164V17.7422C91.2654 17.7422 85.4846 26.526 85.4846 32.2583H82.2588C82.2588 30.0435 81.6748 27.7484 80.6458 25.6501V46.106L89.4587 37.2915ZM91.5695 16.4887C88.0212 15.0549 85.3115 12.455 83.7535 8.99847C82.128 12.224 79.4553 14.7951 76.1518 16.2936C79.584 18.1548 82.418 21.3373 84.0309 25.1549C85.6387 21.7404 88.263 18.4789 91.5695 16.4887ZM77.4203 95.1609V66.7967L60.5994 83.6194L45.3172 90.1693L51.8671 74.8854L52.5591 74.1934H43.5494V62.9033H54.8396V71.9129L77.4203 49.3322V21.2032C75.2444 19.1143 72.4684 17.7419 69.3557 17.7419V14.516C72.4349 14.516 75.2251 13.4823 77.4203 11.7451V4.83879C77.4203 3.94833 76.6962 3.22586 75.8074 3.22586H4.8398C3.95103 3.22586 3.22687 3.94833 3.22687 4.83879V95.1609C3.22687 96.0513 3.95103 96.7738 4.8398 96.7738H75.807C76.6958 96.7738 77.4203 96.0513 77.4203 95.1609ZM51.459 84.0241L56.8526 81.7128L53.7703 78.6305L51.459 84.0241ZM51.6134 70.9676V66.1288H46.7746V70.9676H51.6134ZM55.5072 75.8064L59.6781 79.9772L88.0425 51.6128L83.8717 47.4419L55.5072 75.8064ZM90.3231 49.3322L95.9101 43.7435C96.4601 43.1935 96.7745 42.4354 96.7748 41.6584C96.7748 40.0326 95.4521 38.71 93.8246 38.71C93.0375 38.71 92.2974 39.0162 91.7392 39.5744L86.1522 45.1614L90.3231 49.3322Z" fill="#0A0F1A"/>
</g>
<defs>
<clipPath id="clip0">
<rect width="100" height="100" fill="white"/>
</clipPath>
</defs>
</svg>
