<svg width="120" height="120" viewBox="0 0 120 120" fill="none" xmlns="http://www.w3.org/2000/svg">
<g clip-path="url(#clip0)">
<path fill-rule="evenodd" clip-rule="evenodd" d="M112.531 42.0017C112.531 28.2316 89.5016 17 61.2647 17C33.0295 17 10 28.2316 10 42.0017C10 55.7726 33.0295 67 61.2647 67C89.5016 67 112.531 55.7726 112.531 42.0017ZM51.8968 36.0346C57.9017 25.2102 72.721 22.3369 86.7309 24.1072C99.9541 27.8824 108.749 34.4949 108.749 42.0017C108.749 44.8708 107.458 47.6154 105.123 50.121C100.535 52.6023 95.0396 51.028 89.1491 44.4383C81.0802 37.4565 70.0008 35.4911 55.911 38.5419C52.7339 40.2146 51.3953 39.3799 51.8968 36.0346ZM31.4519 47.4488C39.1296 54.1226 46.3933 51.097 53.4012 42.0555C58.0002 38.292 61.9311 39.0451 65.1915 44.313C70.5662 54.492 75.1223 60.5962 78.487 60.7443L78.3465 61.7927C73.0408 62.714 67.2815 63.2222 61.2647 63.2222C35.112 63.2222 13.782 53.6868 13.782 42.0017C13.782 32.823 26.9329 24.9788 45.2448 22.0281L46.2527 22.4883C27.0927 27.4138 21.7676 38.5882 31.4519 47.4488Z" fill="white"/>
<path d="M53.1868 101.756L53.1168 101.793L53.4355 101.794C53.6811 101.821 53.929 101.821 54.1745 101.794H71.1792C72.3285 101.757 73.1043 101.242 73.621 100.396L77.7703 90.6331C78.5533 89.6638 79.3861 89.6638 80.2705 90.6331L84.6654 100.335C85.1507 101.223 85.7832 101.737 86.5945 101.791L86.5923 101.794H97.8786C97.8999 101.796 97.9206 101.798 97.941 101.799C97.952 101.8 97.9628 101.8 97.9737 101.8H118.831C119.373 101.8 119.814 101.177 119.814 100.415V98.1818C119.814 97.4195 119.373 96.7963 118.831 96.7963H110.784C110.315 96.6338 110.173 96.2271 110.355 95.5752L119.152 82.7059C119.406 82.4527 119.569 82.0581 119.569 81.6203V79.3872C119.569 78.6249 119.075 78.0018 118.47 78.0018H95.1022C94.4979 78.0018 94.0009 78.6249 94.0009 79.3872V81.6203C94.0009 82.3831 94.4979 83.0058 95.1022 83.0058H104.971C105.498 83.3237 105.718 83.7722 105.718 84.3473L96.6251 97.5281H94.1859L94.1572 97.5448L85.0308 79.4061C84.0844 78.4934 83.094 77.9654 82.0412 78.0018H74.7785C73.6053 78.2204 72.7698 78.7309 72.2782 79.5269L64.3443 97.8931L61.128 97.7769L58.1244 93.4355C57.9058 92.89 57.9812 92.3463 58.3503 91.8008L61.8948 87.9941C64.7892 84.3899 63.8158 79.9489 58.4068 78.0323L34.8183 78.0889C33.7713 78.0848 33.1715 78.6123 33.013 79.6692L33.0691 97.2484C33.0817 97.9259 32.6781 98.2586 31.7708 98.1773H30.1348L30.0921 98.193L23.7335 89.6589C23.162 88.9814 23.2006 88.3044 23.8494 87.6246L30.8235 79.2579C30.8755 78.4938 30.6241 78.1266 30.0665 78.1549H20.4777C19.8918 78.132 19.3827 78.2375 18.9665 78.5014L12.735 85.9626C12.5303 86.3272 12.234 86.421 11.9359 86.4044H10.5971C10.2932 86.4291 10.0723 86.1992 9.85543 85.8894V79.209C9.85543 78.5823 9.3526 78.0714 8.73529 78.0714H0.936028C0.319163 78.0714 -0.185913 78.5823 -0.185913 79.209V100.768C-0.185913 101.392 0.319163 101.905 0.936028 101.905H8.73529C9.35215 101.905 9.85543 101.392 9.85543 100.768V92.1362C10.1028 91.9063 10.3506 91.7685 10.5971 91.7528H12.1676C12.6865 91.742 13.0937 91.9369 13.3878 92.3319L19.257 100.933C19.5574 101.427 20.1603 101.686 20.9873 101.773L20.9365 101.793H21.2405C21.3684 101.802 21.5018 101.806 21.6405 101.806L21.707 101.793H41.3066C42.4887 101.85 43.1989 101.256 43.3385 99.869V83.7318C43.3731 83.3564 43.7305 83.1315 44.4097 83.0538H48.981C51.5805 83.5383 52.4245 86.1525 49.6585 88.585L46.7232 91.8013C46.1903 92.3952 45.9699 92.9686 46.4422 93.4929L51.2954 100.771C51.7775 101.222 52.4285 101.613 53.1868 101.756Z" fill="white"/>
</g>
<defs>
<clipPath id="clip0">
<rect width="120" height="120" fill="white"/>
</clipPath>
</defs>
</svg>
