<svg width="120" height="120" viewBox="0 0 120 120" fill="none" xmlns="http://www.w3.org/2000/svg">
<path fill-rule="evenodd" clip-rule="evenodd" d="M55.0085 84H64.877C64.6104 77.0928 64.5532 72.0076 66.0267 67.6842C67.0116 64.7943 68.8613 61.7114 71.6795 59.4304C72.8119 58.5138 75.4493 56.839 77.5341 56.6608C78.2678 56.598 79.3204 56.5271 79.4401 57.127C79.5599 57.7268 78.0324 60.6836 76.3401 62.3993C74.1089 64.6612 72.0553 66.148 70.9094 66.9776C70.681 67.143 70.4886 67.2822 70.3381 67.3963C84.646 66.3118 101.448 61.2585 105.692 51.5604C110.919 39.6176 99.3101 32.46 91.5122 29.2942C89.2578 28.379 85.9552 27.1347 83.56 26.8948C81.5438 26.6929 81.5462 27.1331 81.5478 27.4444C81.5479 27.4532 81.5479 27.462 81.5479 27.4707C81.5479 27.6061 82.329 27.9917 83.1071 28.3758C83.5694 28.6041 84.0306 28.8318 84.3264 29.0063C86.6286 30.3597 88.8372 31.8667 90.9373 33.5171C92.382 34.6577 93.9388 36.287 94.9614 37.836C100.791 46.6664 92.1585 52.5287 84.9971 54.5356L81.6437 49.353L82.1228 44.3623C82.1848 39.0325 81.7763 34.3353 79.8233 31.0217C77.5959 27.2426 74.1342 24.7298 70.6718 22.2166C66.2643 19.0172 61.8557 15.8172 59.9906 10.0032C59.9267 9.97122 59.6234 10.1791 59.4158 10.675C58.0144 14.2676 55.8121 17.8716 51.7509 20.4645C47.4418 23.2157 42.7772 26.7115 40.3495 30.5419C38.2437 33.8645 37.7514 38.398 37.7627 43.8824L38.2417 49.353L35.08 54.3437C34.2379 54.661 32.8058 53.9281 31.7431 53.3844C31.4463 53.2325 31.1784 53.0954 30.9601 53C27.4296 51.4572 21.7206 47.6486 23.1995 41.675C24.6934 35.641 32.6028 30.1954 37.092 28.2385C38.2417 27.7665 38.4333 27.6306 38.3375 27.1827C36.3638 26.2134 30.7535 28.3248 28.8523 29.1022C22.3039 31.7787 12.2563 36.8779 13.0436 47.2415C13.9251 58.8466 30.0289 63.9209 38.5291 65.7647C41.8059 66.4755 45.9572 67.1765 49.5473 67.3963C49.5473 67.3803 49.3078 67.2204 49.0683 67.0604C48.8287 66.9004 48.5892 66.7405 48.5892 66.7245C46.4407 65.2008 44.2735 63.5021 42.2657 60.774C41.7731 60.1047 40.2947 58.0813 40.5412 57.127C40.5571 57.079 40.6449 56.983 40.7328 56.887C40.8206 56.7911 40.9084 56.6951 40.9244 56.6471C43.8909 56.317 48.1109 59.0657 49.4515 60.4861C50.9153 62.0372 52.8554 64.6226 53.9546 68.0681C55.0938 71.6384 55.3146 76.7635 55.0085 84ZM55.0085 28.0465C56.5654 27.5838 58.1757 27.3257 59.799 27.2787C70.1685 27.3511 78.2042 37.3166 74.5538 48.3932C72.6931 54.0397 67.0645 59.0122 59.8948 58.9505C49.4985 58.861 41.5899 47.7928 45.4275 37.548C47.0884 33.114 50.487 29.6342 55.0085 28.0465Z" fill="white"/>
<path fill-rule="evenodd" clip-rule="evenodd" d="M30.2313 94.0139C29.917 94.0159 29.6008 94.0178 29.28 94.0196C25.5162 94.0421 23.1316 95.3966 22.56 98.5796C22.308 99.9823 21.8725 102.455 21.48 104.94L21.4788 104.947C21.1937 106.752 20.9876 108.056 21.84 109.5C22.2032 110.115 23.39 111.316 25.56 111.3C28.0937 111.279 31.5137 111.278 34.2 111.3C36.1958 111.315 37.8343 111.068 39.24 109.86C39.298 109.81 39.3574 109.762 39.4178 109.714C39.9383 109.3 40.5303 108.829 40.92 106.14C41.2586 103.803 41.4862 102.144 41.76 99.6596C41.7771 99.5044 41.7962 99.351 41.8152 99.1985C41.9606 98.0331 42.0993 96.9204 41.28 95.4596C40.8156 94.6316 38.7438 94.0373 37.2 94.0196C34.4128 93.9883 32.367 94.0008 30.2313 94.0139ZM25.92 99.0596C26.64 97.3796 28.8 97.3397 30 97.3796C32.8406 97.3449 34.1006 97.3305 35.7601 97.3791C37.2314 97.4786 38.5272 97.757 38.2478 100.3C38.0622 101.99 37.817 103.626 37.6136 104.792C37.3458 106.329 36.8623 107.703 35.4766 107.678C34.2 107.71 30.6076 107.719 27.4246 107.69C26.3983 107.68 25.6818 107.582 25.2 107.1C24.7392 106.582 24.7994 106.062 24.8972 105.217C24.9229 104.995 24.9512 104.751 24.9733 104.478C25.1176 102.701 25.4477 101.246 25.6838 100.205C25.7901 99.7363 25.8774 99.3517 25.92 99.0596Z" fill="white"/>
<path fill-rule="evenodd" clip-rule="evenodd" d="M97.68 111.42L100.8 94.1396C97.404 94.0935 92.1728 94.1078 88.2 94.1396C86.2811 94.155 85.054 94.835 84.12 96.0596C83.4384 96.9533 83.1638 98.5875 82.6854 101.435C82.6452 101.675 82.6035 101.923 82.56 102.18C82.56 102.26 81.48 107.46 81.48 107.46H77.88C77.88 107.46 79.6001 98.4596 80.4 94.0196H74.16C72.7206 94.0396 71.431 94.0596 70.1416 94.0796C68.851 94.0996 67.5606 94.1196 66.12 94.1396C63.9866 94.2445 61.4585 96.6872 61.08 99.0596C60.5867 102.152 59.64 107.22 59.64 107.22H55.2L54.48 111.42H84.36L85.56 104.46L94.92 104.58L93.72 111.42H97.68ZM74.28 107.34H63.24C63.24 107.34 63.8526 102.569 64.44 100.5C64.9598 97.9476 65.6002 97.8197 67.2 97.7396H75.96C75.4001 100.899 74.28 107.34 74.28 107.34ZM93.6937 100.984C91.1596 100.991 87.5194 101 86.4 100.98C86.4229 99.4849 87.1836 97.5716 89.04 97.7396H96.48C96.4 98.2196 96.32 98.7896 96.24 99.3596C96.16 99.9296 96.08 100.5 96 100.98C95.5819 100.979 94.7304 100.981 93.6937 100.984Z" fill="white"/>
<path d="M116.28 94.0196L115.08 100.86H105.36L106.44 94.0196H102.96L99.84 111.42H103.2L104.64 104.58H114.24L113.04 111.42H117L120 94.0196H116.28Z" fill="white"/>
<path fill-rule="evenodd" clip-rule="evenodd" d="M18.12 97.4996L18.96 94.1396C18.96 94.1396 11.1172 94.1656 7.8 94.1396C4.35516 94.1127 2.61276 96.257 1.98372 99.974C1.735 101.444 1.43877 103.027 1.14751 104.584C0.679796 107.083 0.224879 109.515 0 111.3C3.7686 111.351 8.69448 111.34 12.72 111.3C16.3356 111.262 17.6584 110.259 18.48 108.42C19.2058 106.795 19.3732 105.346 19.2 104.34C18.8508 102.312 17.0052 100.86 14.16 100.86C13.2573 100.86 12.3558 100.86 11.4467 100.861C9.60569 100.862 7.73393 100.863 5.76 100.86C5.922 99.5785 6.41844 97.4959 7.92 97.4996C11.52 97.4597 18.12 97.4996 18.12 97.4996ZM9.30492 107.831C7.55267 107.843 5.79883 107.855 4.44 107.82C4.56 106.78 4.82004 105.48 5.04 104.46C6.19198 104.5 7.58087 104.501 9.00328 104.502C10.7585 104.504 12.5648 104.505 14.04 104.58C15.5 104.56 15.98 105.48 15.84 106.26C15.7057 107.632 14.3834 107.824 12.24 107.82C11.3119 107.818 10.3086 107.824 9.30492 107.831Z" fill="white"/>
<path d="M60.48 94.1396H49.08C46.6154 94.2306 44.783 96.0746 44.04 98.4596C44.04 98.4664 43.9852 98.7277 43.8913 99.176C43.4292 101.382 42.0187 108.115 41.52 111.3C42.1999 111.319 42.85 111.31 43.5 111.3C44.15 111.29 44.8001 111.28 45.48 111.3C45.6786 110.277 45.88 109.075 46.1037 107.74C46.4286 105.801 46.8007 103.581 47.28 101.22C47.3947 100.655 47.9471 98.6834 48.6 98.2196C49.3069 97.7173 50.1115 97.7253 51.305 97.7371C51.5813 97.7398 51.8784 97.7428 52.2 97.7396C54.6481 97.7158 57.5944 97.731 59.0735 97.7386L59.28 97.7396C59.46 97.1197 59.67 96.5297 59.88 95.9396C60.09 95.3496 60.3 94.7595 60.48 94.1396Z" fill="white"/>
</svg>
