<svg width="120" height="120" viewBox="0 0 120 120" fill="none" xmlns="http://www.w3.org/2000/svg">
<path d="M87.8552 36.2238V51.0284H76.2349V23.3646L86.2893 33.0985C87.2572 33.9242 87.8552 34.9941 87.8552 36.2238Z" fill="white"/>
<path d="M90.5904 36.2238C90.5904 34.9941 91.1884 33.9242 92.1575 33.0985L102.212 23.3646V51.0284H90.5917L90.5904 36.2238Z" fill="white"/>
<path fill-rule="evenodd" clip-rule="evenodd" d="M102.38 56.2487C87.1233 67.3593 68.6707 67.9728 61.1678 57.6178C53.6636 47.264 59.9475 29.8619 75.2046 18.7514C90.4591 7.64093 108.912 7.02737 116.417 17.3812C123.92 27.7362 117.636 45.1382 102.38 56.2487ZM111.948 20.9564C119.086 30.6378 114.503 45.8937 101.715 55.0306C88.9238 64.1675 72.7703 63.7265 65.6321 54.0463C58.4964 44.3636 63.0793 29.1091 75.8676 19.9709C88.656 10.8327 104.812 11.2737 111.948 20.9564Z" fill="white"/>
<path d="M95.0991 109.087C91.3467 106.968 91.2613 102.268 95.0822 100.098C96.8859 99.0734 99.0127 98.7996 99.6978 98.7996C100.958 98.7996 103.346 99.1324 104.408 99.4653V101.727C103.081 101.327 101.025 101.261 99.6978 101.261C99.0127 101.261 98.0625 101.58 97.3033 102.181C95.652 103.489 95.652 105.678 97.2921 106.986C98.0537 107.592 99.0079 107.913 99.697 107.913C101.024 107.913 103.079 107.847 104.407 107.448V109.711C103.346 110.042 100.958 110.375 99.697 110.375C99.016 110.375 96.9004 110.104 95.0991 109.087Z" fill="white"/>
<path d="M51.0606 98.9999H61.146V101.261H57.961V110.176H54.2448V101.261H51.0598L51.0606 98.9999Z" fill="white"/>
<path d="M89.8074 105.685C89.8074 107.129 89.1731 108.193 89.0659 108.35C86.8843 111.552 79.842 111.413 77.8361 108.287C77.3904 107.592 77.1389 106.73 77.1389 105.685V98.9999H80.8519L80.8454 106.418C80.8454 109.398 86.1001 109.398 86.1001 106.418V98.9999H89.8106L89.8074 105.685Z" fill="white"/>
<path d="M110.876 98.9999H107.162V110.176H110.876V105.124L115.521 110.176H120L114.626 104.389L119.736 98.9999H115.488L110.876 103.786V98.9999Z" fill="white"/>
<path fill-rule="evenodd" clip-rule="evenodd" d="M67.0511 110.176H63.3366V98.9999L71.001 99.0201C72.9312 99.0201 74.4955 100.323 74.4955 102.26C74.4955 103.422 73.6404 104.498 72.4855 105.174L75.2797 110.176H71.8311L69.5737 106.051H67.0519L67.0511 110.176ZM69.6688 103.819L67.0479 103.809V101.231H69.6688C71.3749 101.231 71.3749 103.819 69.6688 103.819Z" fill="white"/>
<path d="M45.2885 71.8582C45.9889 71.8582 46.333 72.1814 46.333 72.8988V84.2036C46.333 86.078 46.79 87.1856 49.348 87.268C49.9404 87.2882 50.8559 87.2979 51.6433 87.2979C52.4315 87.2979 53.5235 87.2882 54.1151 87.268C56.6731 87.1856 56.9536 86.078 56.9536 84.2036L56.9552 72.8988C56.9552 72.1911 57.2598 71.855 58.0029 71.855L61.9479 71.8582C62.6701 71.8582 62.9868 72.1983 62.9868 72.9077V85.1537C62.9868 88.4419 62.442 91.6629 56.192 91.7688C54.0434 91.8051 51.6425 91.8286 51.6425 91.8286C51.6425 91.8286 49.0893 91.7938 46.9407 91.7688C41.0437 91.6977 40.3345 88.3005 40.3345 85.1537L40.332 72.8988C40.332 72.1983 40.6464 71.8582 41.3661 71.8582H45.2885Z" fill="white"/>
<path d="M4.94358 91.7882C5.66409 91.7882 5.98646 91.4246 5.98646 90.7339V72.9077C5.98646 72.1911 5.63749 71.8574 4.93472 71.8574L1.05093 71.8582C0.33285 71.8582 0 72.208 0 72.9077V90.7436C0 91.4424 0.349774 91.7882 1.05093 91.7882H4.94358Z" fill="white"/>
<path d="M11.445 88.3595L11.4458 90.7339C11.4458 91.5038 11.7642 91.789 12.5065 91.7898C12.5065 91.7898 28.0343 91.8067 29.4995 91.7882C33.3825 91.7348 35.6464 90.1772 35.6464 86.8842C35.6464 84.1261 34.46 82.6573 31.3 81.6313C29.2497 80.9648 18.119 77.4335 17.6088 77.2776C17.2034 77.1531 17.1921 76.8752 17.2461 76.6781C17.2977 76.4866 17.4629 76.4002 17.799 76.4002L33.0303 76.4066C33.7274 76.4066 34.0603 76.0843 34.0603 75.3604L34.0611 72.9093C34.0611 72.2088 33.7444 71.8582 33.0198 71.8582H17.5991C13.3261 71.8582 11.4878 74.2092 11.4878 76.9504C11.4878 79.1163 12.5322 80.8872 15.3038 81.8244C15.6638 81.9467 21.1745 83.7032 25.2375 84.9982C27.5606 85.7387 29.4104 86.3282 29.5535 86.3753C29.9452 86.5037 29.9936 86.8067 29.9315 86.9925C29.863 87.1993 29.7115 87.31 29.4052 87.31H12.4976C11.79 87.31 11.445 87.6461 11.445 88.3595Z" fill="white"/>
<path d="M102.619 72.8988C102.619 72.1814 102.274 71.8582 101.574 71.8582H97.6515C96.9326 71.8582 96.6175 72.1983 96.6175 72.8988L96.6207 85.1537C96.6207 88.3005 97.3291 91.6977 103.225 91.7688C105.374 91.7938 107.929 91.8286 107.929 91.8286C107.929 91.8286 110.33 91.8051 112.478 91.7688C118.727 91.6629 119.272 88.4419 119.272 85.1537V72.9077C119.272 72.1983 118.957 71.8582 118.235 71.8582L114.289 71.855C113.546 71.855 113.241 72.1911 113.241 72.8988L113.239 84.2036C113.239 86.078 112.959 87.1856 110.401 87.268C109.81 87.2882 108.718 87.2979 107.93 87.2979C107.141 87.2979 106.227 87.2882 105.633 87.268C103.075 87.1856 102.619 86.078 102.619 84.2036V72.8988Z" fill="white"/>
<path d="M91.8722 90.7339C91.8722 91.5038 91.5538 91.7898 90.8132 91.7898C90.8132 91.7898 75.2845 91.8067 73.8193 91.7882C69.9363 91.7348 67.6725 90.1772 67.6725 86.8842C67.6725 84.1261 68.8596 82.6573 72.0189 81.6313C74.0684 80.9656 85.1999 77.4343 85.71 77.2776C86.1162 77.1531 86.1275 76.8752 86.0735 76.6781C86.0219 76.4866 85.8559 76.4002 85.519 76.4002L70.2885 76.4066C69.5914 76.4066 69.2594 76.0843 69.2594 75.3604L69.2577 72.9093C69.2577 72.2088 69.5745 71.8582 70.2982 71.8582H85.7197C89.9919 71.8582 91.8303 74.2092 91.8303 76.9504C91.8303 79.1171 90.7866 80.8872 88.015 81.8244C87.6499 81.9487 81.97 83.7589 77.8906 85.059L77.8101 85.0846C75.6154 85.7841 73.9022 86.3301 73.7645 86.3753C73.3744 86.5029 73.3253 86.8059 73.3865 86.9925C73.4558 87.1993 73.6065 87.31 73.9136 87.31H90.8212C91.528 87.31 91.873 87.6461 91.873 88.3595L91.8722 90.7339Z" fill="white"/>
</svg>
