<svg width="80" height="80" viewBox="0 0 80 80" fill="none" xmlns="http://www.w3.org/2000/svg">
<path fill-rule="evenodd" clip-rule="evenodd" d="M69.75 67C69.75 64.9325 68.0675 63.25 66 63.25C63.9325 63.25 62.25 64.9325 62.25 67C62.25 69.0675 63.9325 70.75 66 70.75C68.0675 70.75 69.75 69.0675 69.75 67ZM67.25 67C67.25 67.69 66.6888 68.25 66 68.25C65.3112 68.25 64.75 67.69 64.75 67C64.75 66.31 65.3112 65.75 66 65.75C66.6888 65.75 67.25 66.31 67.25 67Z" fill="#0A0F1A"/>
<path fill-rule="evenodd" clip-rule="evenodd" d="M12.5 67C12.5 69.0675 14.1825 70.75 16.25 70.75C18.3175 70.75 20 69.0675 20 67C20 64.9325 18.3175 63.25 16.25 63.25C14.1825 63.25 12.5 64.9325 12.5 67ZM15 67C15 66.31 15.5613 65.75 16.25 65.75C16.9387 65.75 17.5 66.31 17.5 67C17.5 67.69 16.9387 68.25 16.25 68.25C15.5613 68.25 15 67.69 15 67Z" fill="#0A0F1A"/>
<path fill-rule="evenodd" clip-rule="evenodd" d="M49.75 15.75H46.4469C44.3043 6.71856 36.1867 0 26.5 0C16.8133 0 8.69575 6.71856 6.55311 15.75H2.5C1.12125 15.75 0 16.8713 0 18.25V58.25C0 59.6287 1.12125 60.75 2.5 60.75H5V70.75H7.5V67C7.5 69.4475 8.5125 71.66 10.1387 73.25H0.25V75.75H28V73.25H22.3613C23.9875 71.66 25 69.4475 25 67C25 64.5525 23.9875 62.34 22.3613 60.75H41V68.25C41 69.6288 42.1688 70.75 43.605 70.75H58.1075C58.5538 71.6862 59.155 72.5325 59.8887 73.25H38.5V75.75H79.75V73.25H72.1113C73.7375 71.66 74.75 69.4475 74.75 67C74.75 66.575 74.7088 66.16 74.65 65.75H77.25C78.6288 65.75 79.75 64.6288 79.75 63.25V53.4038C79.75 50.53 77.8037 48.0375 75.0163 47.3412L69.4013 45.9375L68.565 34.5H72.25V39.5H74.75V34.5C74.75 33.1213 73.6288 32 72.25 32H68.1625C65.825 24.79 59.6963 19.58 52.25 18.4112V18.25C52.25 16.8713 51.1287 15.75 49.75 15.75ZM44.536 30.2526C46.1076 27.3523 47 24.0304 47 20.5C47 19.7396 46.9586 18.9889 46.8779 18.25H49.75V53.25H2.5V18.25H6.12206C6.04136 18.9891 6 19.7395 6 20.5C6 31.8218 15.1782 41 26.5 41C30.0381 41 33.3668 40.1037 36.2715 38.5258C36.9249 38.1708 37.5568 37.7814 38.1649 37.3599C40.1924 35.9545 41.9541 34.1928 43.3596 32.1654C43.7853 31.5513 44.1782 30.9129 44.536 30.2526ZM42.6793 28.3979C43.8454 26.0135 44.5 23.3332 44.5 20.5C44.5 10.5589 36.4411 2.5 26.5 2.5C16.5589 2.5 8.5 10.5589 8.5 20.5C8.5 30.4411 16.5589 38.5 26.5 38.5C29.2584 38.5 31.872 37.8795 34.2086 36.7705L28.0033 30.5652C24.5152 31.2537 20.8689 30.1645 18.3445 27.6402C15.614 24.9097 14.5282 20.9216 15.5113 17.2332L15.9389 15.6272L21.9614 19.643L24.9083 19.053L25.4992 16.1053L21.4833 10.0828L23.0893 9.65517C26.7777 8.67204 30.7658 9.75786 33.4963 12.4884C36.0207 15.0127 37.109 18.6582 36.4213 22.1471L42.6793 28.3979ZM41.4442 30.5368L33.7859 22.8803L33.9627 22.217C34.7269 19.3467 33.9029 16.2635 31.8121 14.1727C30.1 12.4606 27.7583 11.5751 25.4133 11.6913L28.0243 15.607L26.9309 21.0773L21.4606 22.1707L17.5449 19.5597C17.4304 21.903 18.3159 24.2447 20.028 25.9568C22.1188 28.0476 25.202 28.8716 28.0715 28.1065L28.7347 27.9298L36.364 35.559C38.3734 34.2402 40.1029 32.53 41.4442 30.5368ZM6.13368 18.146L6.12206 18.25C6.12583 18.2155 6.12974 18.1805 6.13368 18.146ZM7.5 67V60.75H10.1387C8.5125 62.34 7.5 64.5525 7.5 67ZM52.25 20.9375V32H65.5225C63.35 26.2125 58.325 22.03 52.25 20.9375ZM52.25 34.5V58.25H54.75V40.75C54.75 38.6825 56.4325 37 58.5 37H66.265L66.0863 34.5H52.25ZM66.4425 39.5H58.5C57.8112 39.5 57.25 40.06 57.25 40.75V43.25H66.7113L66.4425 39.5ZM76 55.75C75.3112 55.75 74.75 56.31 74.75 57C74.75 57.69 75.3112 58.25 76 58.25H77.25V55.75H76ZM77.25 63.25V60.75H76C73.9325 60.75 72.25 59.0675 72.25 57C72.25 54.9325 73.9325 53.25 76 53.25H77.2375C77.17 51.5925 76.0312 50.1713 74.41 49.765L69.5938 48.5612L69.7475 50.6613L67.2538 50.84L66.89 45.75H57.25V50.75H59.75V53.25H57.25V58.25H66C69.4812 58.25 72.4863 60.2988 73.8938 63.25H77.25ZM66 73.25C69.4463 73.25 72.25 70.4463 72.25 67C72.25 63.5537 69.4463 60.75 66 60.75C62.5537 60.75 59.75 63.5537 59.75 67C59.75 70.4463 62.5537 73.25 66 73.25ZM57.35 65.75H54.75V68.25H57.35C57.2912 67.84 57.25 67.425 57.25 67C57.25 66.575 57.2912 66.16 57.35 65.75ZM52.25 65.75H48.5V68.25H52.25V65.75ZM43.605 68.25H46V65.75H43.575L43.605 68.25ZM43.545 63.25H58.1062C58.5525 62.3138 59.155 61.4675 59.8875 60.75H43.5137L43.545 63.25ZM10 67C10 70.4463 12.8037 73.25 16.25 73.25C19.6963 73.25 22.5 70.4463 22.5 67C22.5 63.5537 19.6963 60.75 16.25 60.75C12.8037 60.75 10 63.5537 10 67ZM49.75 58.25V55.75H2.5V58.25H49.75Z" fill="#0A0F1A"/>
<path d="M30.5 73.25H33V75.75H30.5V73.25Z" fill="#0A0F1A"/>
</svg>
