<svg width="65" height="65" viewBox="0 0 65 65" fill="none" xmlns="http://www.w3.org/2000/svg">
<path d="M34 16H38V18H34V16Z" fill="#0A0F1A"/>
<path d="M40 18V16H44V18H40Z" fill="#0A0F1A"/>
<path d="M46 19H61V21H46V19Z" fill="#0A0F1A"/>
<path fill-rule="evenodd" clip-rule="evenodd" d="M20 4C18.8954 4 18 4.89543 18 6V12C18 13.1046 18.8954 14 20 14H42C43.1046 14 44 13.1046 44 12V6C44 4.89543 43.1046 4 42 4H20ZM20 6H42V12H20V6Z" fill="#0A0F1A"/>
<path fill-rule="evenodd" clip-rule="evenodd" d="M52.5 4C48.9101 4 46 6.91015 46 10.5C46 14.0899 48.9101 17 52.5 17C56.0899 17 59 14.0899 59 10.5C59 6.91015 56.0899 4 52.5 4ZM48 10.5C48 8.01472 50.0147 6 52.5 6C54.9853 6 57 8.01472 57 10.5C57 12.9853 54.9853 15 52.5 15C50.0147 15 48 12.9853 48 10.5Z" fill="#0A0F1A"/>
<path d="M60 6C60.5523 6 61 5.55228 61 5C61 4.44772 60.5523 4 60 4C59.4477 4 59 4.44772 59 5C59 5.55228 59.4477 6 60 6Z" fill="#0A0F1A"/>
<path d="M18 16H22V18H18V16Z" fill="#0A0F1A"/>
<path d="M24 16H28V18H24V16Z" fill="#0A0F1A"/>
<path d="M10.252 47.3186L10.7593 48.0978L13.6739 46.6405L12.7416 44.777L11.5144 45.3906C10.7718 44.0822 10.3249 42.7938 10.1612 41.5417H12.1665V39.4583H10.1363C10.2529 38.2843 10.5749 37.1728 11.0498 36.1458L12.6311 37.1999L13.7864 35.4666L12.1114 34.3499C12.7405 33.4945 13.4948 32.7405 14.3499 32.1114L15.4666 33.7864L17.1999 32.6311L16.1458 31.0498C17.1728 30.5749 18.2843 30.254 19.4583 30.1363V32.1665H21.5417V30.1363C22.7157 30.2529 23.8272 30.5749 24.8542 31.0498L23.8001 32.6311L25.5334 33.7864L26.6501 32.1114C27.5055 32.7405 28.2595 33.4948 28.8886 34.3499L27.2136 35.4666L28.3689 37.1999L29.9502 36.1458C30.4251 37.1728 30.746 38.2843 30.8637 39.4583H28.8335V41.5417H30.8377C30.674 42.7938 30.2274 44.0814 29.4845 45.3906L28.2573 44.777L27.325 46.6405L30.2396 48.0978L30.7469 47.3186C32.2416 45.0259 33 42.7321 33 40.5C33 33.6072 27.3928 28 20.5 28C13.6072 28 8 33.6072 8 40.5C8 42.7323 8.75841 45.0259 10.252 47.3186Z" fill="#0A0F1A"/>
<path d="M15 48V50H26V48H15Z" fill="#0A0F1A"/>
<path d="M18 51V53H23V51H18Z" fill="#0A0F1A"/>
<path d="M23.144 45.0097V42.9129H21.5379L16.6105 37L15 38.3419L18.9504 43.0826V45.0097H23.144Z" fill="#0A0F1A"/>
<path fill-rule="evenodd" clip-rule="evenodd" d="M4 40.5C4 31.3873 11.3873 24 20.5 24C29.6127 24 37 31.3873 37 40.5C37 49.6127 29.6127 57 20.5 57C11.3873 57 4 49.6127 4 40.5ZM20.5 26C12.4919 26 6 32.4919 6 40.5C6 48.5081 12.4919 55 20.5 55C28.5081 55 35 48.5081 35 40.5C35 32.4919 28.5081 26 20.5 26Z" fill="#0A0F1A"/>
<path d="M15 59V61H26V59H15Z" fill="#0A0F1A"/>
<path fill-rule="evenodd" clip-rule="evenodd" d="M17 0C15.3431 0 14 1.34315 14 3V20H3C1.34315 20 0 21.3431 0 23V62C0 63.6569 1.34315 65 3 65H38C39.6569 65 41 63.6569 41 62V25H62C63.6569 25 65 23.6569 65 22V3C65 1.34315 63.6569 0 62 0H17ZM41 23H62C62.5523 23 63 22.5523 63 22V3C63 2.44771 62.5523 2 62 2H17C16.4477 2 16 2.44772 16 3V20H38C39.6569 20 41 21.3431 41 23ZM3 22C2.44772 22 2 22.4477 2 23V62C2 62.5523 2.44772 63 3 63H38C38.5523 63 39 62.5523 39 62V23C39 22.4477 38.5523 22 38 22H3Z" fill="#0A0F1A"/>
<path d="M0 9H4V11H0V9Z" fill="#0A0F1A"/>
<path d="M6 11V15H4V11H6Z" fill="#0A0F1A"/>
<path d="M6 9H10V11H6V9Z" fill="#0A0F1A"/>
<path d="M6 9V5H4V9H6Z" fill="#0A0F1A"/>
<path fill-rule="evenodd" clip-rule="evenodd" d="M49 57H45V59H49V63H51V59H55V57H51V53H49V57ZM49 57H51V59H49V57Z" fill="#0A0F1A"/>
<path d="M49 38H55V40H49V38Z" fill="#0A0F1A"/>
<path d="M57 40V46H55V40H57Z" fill="#0A0F1A"/>
<path d="M57 38H63V40H57V38Z" fill="#0A0F1A"/>
<path d="M57 38V32H55V38H57Z" fill="#0A0F1A"/>
</svg>
