<svg width="80" height="80" viewBox="0 0 80 80" fill="none" xmlns="http://www.w3.org/2000/svg">
<path d="M74.5284 35.2251L74.0799 32.6837L71.5385 33.1322L71.987 35.6736L74.5284 35.2251Z" fill="#0A0F1A"/>
<path d="M69.5319 21.4647L70.8219 23.6998L68.5868 24.9899L67.2968 22.7548L69.5319 21.4647Z" fill="#0A0F1A"/>
<path d="M63.3808 14.1383L61.403 12.4805L59.7452 14.4583L61.723 16.1161L63.3808 14.1383Z" fill="#0A0F1A"/>
<path d="M50.7023 6.82153L53.1271 7.70489L52.2437 10.1297L49.8189 9.24631L50.7023 6.82153Z" fill="#0A0F1A"/>
<path d="M38.7097 5.16132V7.74196H41.2903V5.16132H38.7097Z" fill="#0A0F1A"/>
<path d="M27.7592 10.1292L26.8759 7.70438L29.3007 6.82102L30.184 9.2458L27.7592 10.1292Z" fill="#0A0F1A"/>
<path d="M20.2512 14.4574L18.5934 12.4796L16.6155 14.1374L18.2734 16.1152L20.2512 14.4574Z" fill="#0A0F1A"/>
<path d="M11.419 24.9879L9.18391 23.6978L10.474 21.4627L12.7091 22.7528L11.419 24.9879Z" fill="#0A0F1A"/>
<path d="M5.46722 35.2253L8.00864 35.6738L8.45715 33.1324L5.91573 32.6838L5.46722 35.2253Z" fill="#0A0F1A"/>
<path d="M5.91443 47.321L5.46591 44.7796L8.00733 44.3311L8.45585 46.8725L5.91443 47.321Z" fill="#0A0F1A"/>
<path d="M9.17826 56.3037L10.4683 58.5388L12.7034 57.2487L11.4134 55.0136L9.17826 56.3037Z" fill="#0A0F1A"/>
<path d="M18.5989 67.5139L16.6211 65.8561L18.2789 63.8783L20.2567 65.5361L18.5989 67.5139Z" fill="#0A0F1A"/>
<path fill-rule="evenodd" clip-rule="evenodd" d="M46.4516 40C46.4516 43.5574 43.5574 46.4516 40 46.4516C36.4426 46.4516 33.5484 43.5574 33.5484 40C33.5484 36.4426 36.4426 33.5484 40 33.5484C43.5574 33.5484 46.4516 36.4426 46.4516 40ZM43.871 40C43.871 37.8658 42.1342 36.129 40 36.129C37.8658 36.129 36.129 37.8658 36.129 40C36.129 42.1342 37.8658 43.871 40 43.871C42.1342 43.871 43.871 42.1342 43.871 40Z" fill="#0A0F1A"/>
<path fill-rule="evenodd" clip-rule="evenodd" d="M49.0323 61.9355V55.6193C51.7781 54.0322 54.0322 51.7781 55.6206 49.0323H61.9355V30.9677H55.6206C54.0322 28.2219 51.7781 25.9677 49.0323 24.3806V18.0645H30.9677V24.3806C28.2219 25.9677 25.9677 28.2232 24.3794 30.9677H18.0645V49.0323H24.3794C25.9677 51.7781 28.2219 54.0322 30.9677 55.6193V61.9355H49.0323ZM54.1935 33.5484H59.3548V36.129H54.1935V33.5484ZM54.1935 38.7097H59.3548V41.2903H54.1935V38.7097ZM54.1935 43.871H59.3548V46.4516H54.1935V43.871ZM25.8064 46.4516H20.6452V43.871H25.8064V46.4516ZM25.8064 41.2903H20.6452V38.7097H25.8064V41.2903ZM25.8064 36.129H20.6452V33.5484H25.8064V36.129ZM36.129 59.3548H33.5484V54.1935H36.129V59.3548ZM38.7097 59.3548V54.1935H41.2903V59.3548H38.7097ZM46.4516 59.3548H43.871V54.1935H46.4516V59.3548ZM43.871 20.6452H46.4516V25.8064H43.871V20.6452ZM41.2903 20.6452V25.8064H38.7097V20.6452H41.2903ZM33.5484 20.6452H36.129V25.8064H33.5484V20.6452ZM27.4387 49.0323H28.3871V30.9677H27.4387C28.4168 29.6052 29.6052 28.4168 30.9677 27.4387V28.3871H49.0323V27.4387C50.3948 28.4168 51.5832 29.6052 52.5613 30.9677H51.6129V49.0323H52.5613C51.5832 50.3948 50.3948 51.5832 49.0323 52.5613V51.6129H30.9677V52.5613C29.6052 51.5832 28.4168 50.3948 27.4387 49.0323Z" fill="#0A0F1A"/>
<path d="M26.8714 72.2885L29.2962 73.1719L30.1796 70.7471L27.7548 69.8637L26.8714 72.2885Z" fill="#0A0F1A"/>
<path d="M38.7097 74.8387V72.2581H41.2903V74.8387H38.7097Z" fill="#0A0F1A"/>
<path d="M53.1247 72.2969L52.2414 69.8721L49.8166 70.7554L50.7 73.1802L53.1247 72.2969Z" fill="#0A0F1A"/>
<path d="M61.4059 67.5145L59.748 65.5367L61.7259 63.8789L63.3837 65.8567L61.4059 67.5145Z" fill="#0A0F1A"/>
<path d="M70.8186 56.2974L68.5835 55.0073L67.2934 57.2424L69.5285 58.5325L70.8186 56.2974Z" fill="#0A0F1A"/>
<path d="M74.0826 47.3285L71.5411 46.88L71.9896 44.3386L74.5311 44.7871L74.0826 47.3285Z" fill="#0A0F1A"/>
<path fill-rule="evenodd" clip-rule="evenodd" d="M40 0C17.9445 0 0 17.9432 0 40C0 62.0568 17.9445 80 40 80C62.0555 80 80 62.0568 80 40C80 17.9432 62.0555 0 40 0ZM77.0903 35.12C75.4374 36.911 71.3316 40.9974 66.9613 42.6723C67.0477 41.7923 67.0968 40.9019 67.0968 40C67.0968 38.6865 66.9703 37.4039 66.7897 36.1394C70.4206 33.5445 73.1084 28.9394 74.6194 25.8168C75.8258 28.751 76.6658 31.8697 77.0903 35.12ZM73.1819 22.7342C72.2361 24.991 69.769 30.2452 66.2271 33.3071C65.6774 31.1574 64.8981 29.0994 63.8684 27.1884C66.3794 23.5148 67.3277 18.2903 67.68 14.8439C69.8361 17.2155 71.6839 19.8697 73.1819 22.7342ZM65.2736 12.4348C65.1561 14.8813 64.6348 20.6439 62.3626 24.7277C61.1264 22.9226 59.6619 21.2916 58.0361 19.8348C59.1535 15.5148 58.2542 10.2568 57.4039 6.88903C60.2658 8.39871 62.9097 10.2645 65.2736 12.4348ZM54.3174 5.43355C55.0426 7.76387 56.5355 13.391 55.7871 18.0219C54.0194 16.7484 52.1019 15.6813 50.0529 14.8581C49.6271 10.4323 47.0684 5.90194 45.0348 2.92903C48.2774 3.36774 51.3923 4.21677 54.3174 5.43355ZM40 2.58065C40.5471 2.58065 41.0903 2.59871 41.631 2.62194C43.1084 4.56387 46.431 9.3329 47.3148 13.9342C45.2477 13.3535 43.0839 13.0155 40.8516 12.9458C38.9394 8.92645 34.9768 5.53935 32.0465 3.44C34.6116 2.88258 37.271 2.58065 40 2.58065ZM28.7432 4.31355C30.7935 5.63097 35.5548 8.98194 37.96 13.0065C35.7329 13.1742 33.5806 13.6013 31.5342 14.2761C28.3535 11.1639 23.3716 9.32129 20.0361 8.37419C22.7277 6.66839 25.6465 5.29161 28.7432 4.31355ZM8.46323 19.8955C10.0981 19.6865 13.329 19.3871 16.6452 19.7135L16.8994 17.1458C14.5381 16.911 12.2323 16.9742 10.4284 17.1084C12.4026 14.5665 14.6942 12.2852 17.2452 10.3226C19.6374 10.8632 25.2245 12.3806 28.8503 15.3303C26.8477 16.24 24.9755 17.3819 23.2671 18.7277C22.1897 18.2361 20.9716 17.84 19.6194 17.5561L19.089 20.0813C19.8039 20.231 20.471 20.4142 21.089 20.6271C19.5265 22.1523 18.1626 23.8723 17.0026 25.7355C12.5626 25.3871 7.64387 27.1226 4.35742 28.609C5.35097 25.5084 6.74064 22.5871 8.46323 19.8955ZM2.58065 40C2.58065 37.2194 2.89548 34.5123 3.47355 31.9019C5.64387 30.7819 10.9239 28.329 15.6129 28.2671C14.6684 30.2232 13.9265 32.2942 13.4735 34.4748C9.18581 35.6787 5.10065 39.0748 2.61935 41.4877C2.59871 40.9935 2.58065 40.4994 2.58065 40ZM2.90968 44.88C4.56258 43.089 8.66839 39.0026 13.0387 37.3277C12.9523 38.2077 12.9032 39.0981 12.9032 40C12.9032 41.3135 13.0297 42.5961 13.2103 43.8606C9.57935 46.4555 6.89161 51.0606 5.38065 54.1832C4.17419 51.249 3.33419 48.1303 2.90968 44.88ZM6.81806 57.2658C7.76387 55.009 10.231 49.7548 13.7729 46.6929C14.3226 48.8426 15.1019 50.9006 16.1316 52.8116C13.6206 56.4852 12.6723 61.7097 12.32 65.1561C10.1639 62.7845 8.31613 60.1303 6.81806 57.2658ZM14.7252 67.5652C14.8426 65.1187 15.3639 59.3561 17.6361 55.2723C18.8735 57.0774 20.3381 58.7084 21.9639 60.1652C20.8465 64.4852 21.7458 69.7432 22.5961 73.111C19.7342 71.6013 17.0903 69.7355 14.7252 67.5652ZM15.4839 40C15.4839 26.4813 26.4813 15.4839 40 15.4839C53.5187 15.4839 64.5161 26.4813 64.5161 40C64.5161 53.5187 53.5187 64.5161 40 64.5161C26.4813 64.5161 15.4839 53.5187 15.4839 40ZM25.6826 74.5665C24.9574 72.2361 23.4645 66.609 24.2129 61.9781C25.9806 63.2516 27.8981 64.3187 29.9471 65.1419C30.3729 69.5677 32.9316 74.0981 34.9652 77.071C31.7226 76.6323 28.6077 75.7832 25.6826 74.5665ZM51.2594 75.6865C49.8284 74.769 47.0271 72.8323 44.6374 70.3303L42.7716 72.1123C44.4994 73.9226 46.4194 75.4503 47.96 76.56C45.3935 77.1174 42.7316 77.4193 40 77.4193C39.4529 77.4193 38.9097 77.4013 38.369 77.3781C36.8916 75.4361 33.569 70.6671 32.6852 66.0658C34.751 66.6464 36.9135 66.9832 39.1458 67.0542C39.6206 68.0503 40.2426 69.0619 41.0168 70.071L43.0658 68.5032C42.6774 67.9948 42.3381 67.4916 42.04 66.9935C44.2684 66.8271 46.4206 66.3987 48.4671 65.7239C51.6477 68.8374 56.631 70.6787 59.9652 71.6258C57.2735 73.3303 54.3548 74.7071 51.2594 75.6865ZM62.7548 69.6774C60.3626 69.1368 54.7755 67.6194 51.1497 64.6697C53.1548 63.76 55.0297 62.6155 56.7394 61.2671C59.7239 62.6245 63.3871 63.0065 66.4981 63.0065C67.6168 63.0065 68.6542 62.9574 69.5703 62.8903C67.5974 65.4323 65.3071 67.7148 62.7548 69.6774ZM71.5355 60.1032C69.1045 60.4129 63.3329 60.9019 58.9135 59.3664C60.4735 57.8426 61.8348 56.1264 62.9935 54.2658C63.3897 54.2981 63.7884 54.3174 64.191 54.3174C68.2968 54.3174 72.6477 52.7471 75.64 51.391C74.6464 54.4929 73.2568 57.4129 71.5355 60.1032ZM64.3884 51.729C65.3329 49.7755 66.0735 47.7045 66.5265 45.5252C70.8142 44.3213 74.8994 40.9252 77.3806 38.5123C77.4013 39.0065 77.4193 39.5006 77.4193 40C77.4193 42.7806 77.1045 45.4877 76.5265 48.0968C74.3561 49.2155 69.0735 51.6606 64.3884 51.729Z" fill="#0A0F1A"/>
</svg>
